<?xml version="1.0" encoding="UTF-8" standalone="no"?>
<!-- Uploaded to: SVG Repo, www.svgrepo.com, Generator: SVG Repo Mixer Tools -->

<svg
   width="800px"
   height="800px"
   viewBox="0 0 24 24"
   version="1.1"
   id="svg8"
   sodipodi:docname="transports-transport-delete-logo.svg"
   inkscape:version="1.4.3 (0d15f75042, 2025-12-25)"
   xml:space="preserve"
   xmlns:inkscape="http://www.inkscape.org/namespaces/inkscape"
   xmlns:sodipodi="http://sodipodi.sourceforge.net/DTD/sodipodi-0.dtd"
   xmlns="http://www.w3.org/2000/svg"
   xmlns:svg="http://www.w3.org/2000/svg"><defs
     id="defs8" /><sodipodi:namedview
     id="namedview8"
     pagecolor="#ffffff"
     bordercolor="#000000"
     borderopacity="0.25"
     inkscape:showpageshadow="2"
     inkscape:pageopacity="0.0"
     inkscape:pagecheckerboard="0"
     inkscape:deskcolor="#d1d1d1"
     inkscape:zoom="1.0624279"
     inkscape:cx="138.36233"
     inkscape:cy="516.74095"
     inkscape:window-width="2518"
     inkscape:window-height="1404"
     inkscape:window-x="2602"
     inkscape:window-y="0"
     inkscape:window-maximized="1"
     inkscape:current-layer="svg8"
     showgrid="false" /><path
     d="m 5.0596696,20.352 c 0,0 -0.074,0.222 -0.076,0.396 -0.002,0.174 0.024,0.528 0.336,0.528 0.404,0 4.9720004,-0.014 7.1740004,0 2.202,0.014 6.256,-0.028 6.54,-0.044 0.284,-0.014 0.206,-0.644 0.188,-0.86 z"
     fill="#543529"
     id="path1-3"
     style="stroke-width:0.1875" /><path
     d="m 19.64567,22.404 0.578,0.398 c 0,0 0.374,0.326 0.424,0.522 0.05,0.196 -0.066,0.568 -0.232,0.646 L 11.74767,24 3.6636696,23.976 c -0.126,-0.032 -0.278,-0.154 -0.316,-0.378 -0.038,-0.224 0.086,-0.474 0.164,-0.63 0.078,-0.156 1.686,-0.562 1.686,-0.562 z"
     fill="#874d36"
     id="path2-6"
     style="stroke-width:0.1875" /><path
     d="m 4.3776696,21.988 c -0.156,0.002 -0.27,0.188 -0.364,0.31 -0.244,0.314 -0.398,0.512 -0.5,0.67 -0.14,0.218 0.14,0.406 0.39,0.406 0.25,0 16.6780004,0.024 16.7180004,-0.082 0.054,-0.14 -0.266,-0.618 -0.53,-1.058 -0.092,-0.154 -0.292,-0.364 -0.472,-0.362 z"
     fill="#b88956"
     id="path3-7"
     style="stroke-width:0.1875" /><path
     d="m 5.6436696,19.364 -0.556,0.906 c -0.096,0.156 0.016,0.356 0.2,0.356 L 18.99167,20.618 c 0.182,0 0.294,-0.198 0.202,-0.354 l -0.538,-0.902 H 5.6436696 Z"
     fill="#a06841"
     id="path4-5"
     style="stroke-width:0.1875" /><path
     d="m 8.6496696,19.51 -1.63,4.478 h -0.988 l -0.566,-1.078 1.808,-3.89 c 0,-0.002 1.466,0.2 1.376,0.49 z"
     fill="#88857c"
     id="path5-3"
     style="stroke-width:0.1875" /><path
     d="m 4.9616696,23.994 c 0.024,-0.084 1.69,-3.588 1.69,-3.588 0.104,-0.218 0.982,-0.12 0.84,0.292 -0.142,0.412 -1.148,3.288 -1.148,3.288 z"
     fill="#c8c9c6"
     id="path6-5"
     style="stroke-width:0.1875" /><path
     d="m 15.19767,19.51 1.638,4.472 0.978,-0.002 0.568,-1.07 -1.808,-3.89 c 0.002,-0.002 -1.466,0.2 -1.376,0.49 z"
     fill="#88857c"
     id="path7-6"
     style="stroke-width:0.1875" /><path
     d="m 18.88367,23.976 c -0.024,-0.084 -1.694,-3.582 -1.694,-3.582 -0.104,-0.218 -0.982,-0.12 -0.84,0.292 l 1.152,3.294 z"
     fill="#c8c9c6"
     id="path8-2"
     style="stroke-width:0.1875" /><path
     d="m 19.23967,18.816 c 0.028,0.342 -0.18,0.648 -0.472,0.696 -0.97,0.154 -3.288,0.448 -6.908,0.448 -3.5940004,0 -5.8600004,-0.29 -6.8180004,-0.446 -0.296,-0.048 -0.502,-0.36 -0.47,-0.706 l -0.004,-3.428 H 19.24367 Z"
     fill="#82aec0"
     id="path9-9"
     style="stroke-width:0.1875;fill:#c4a8a7;fill-opacity:1" /><path
     d="m 4.5676696,15.38 v 1.212 c 0,0 3.476,0.18 7.3360004,0.18 3.86,0 7.338,-0.208 7.338,-0.208 V 15.38 Z"
     fill="#546e7a"
     id="path10-1"
     style="stroke-width:0.1875;fill:#6a3938;fill-opacity:1" /><path
     d="m 11.87567,16.158 0.028,-4.81 -7.5400004,-1.432 -0.132,4.684 v 1.118 c 0,0.178 0.138,0.324 0.314,0.334 0.634,0.038 2.45,0.106 7.3300004,0.106 z"
     fill="#e0e0e0"
     id="path11-2"
     style="stroke-width:0.1875" /><path
     d="M 18.55167,0.802 C 17.58367,0.408 15.65167,0 11.90567,0 8.1596696,0 6.2256696,0.408 5.2576696,0.802 c -0.398,0.162 -0.658,0.79 -0.658,1.226 l -0.236,7.886 2.106,3.122 5.3820004,2.602 c 6.716,0 7.766,-0.058 7.766,-0.058 l -0.41,-13.552 c 0.002,-0.436 -0.258,-1.064 -0.656,-1.226 z"
     fill="#2167a1"
     id="path12"
     style="stroke-width:0.1875;fill:#aa5654;fill-opacity:1" /><path
     d="m 18.09767,1.084 c -0.906,-0.368 -2.688,-0.736 -6.192,-0.736 -3.5040004,0 -5.2880004,0.368 -6.1920004,0.736 -0.372,0.152 -0.616,0.606 -0.616,1.014 l 0.032,4.878 c 0.006,1.084 0.714,2.04 1.748,2.366 l 5.1720004,1.75 4.964,-1.734 c 1.036,-0.334 1.736,-1.302 1.73,-2.39 l -0.032,-4.85 c 0,-0.408 -0.242,-0.882 -0.614,-1.034 z"
     fill="#2686c6"
     id="path13-7"
     style="stroke-width:0.1875;fill:#f28482;fill-opacity:1" /><path
     fill="#bae2fd"
     d="m 17.90167,5.496 h -5.452 l 0.072,-3.334 h 4.974 z"
     id="path14-0"
     style="stroke-width:0.1875;fill:#a7d7dc;fill-opacity:1" /><path
     d="m 17.52767,1.79 h -4.916 c -0.184,0 -0.33,0.198 -0.318,0.432 l 0.092,3.238 c 0.01,0.214 0.15,0.38 0.318,0.38 h 5.07 c 0.244,0 0.424,-0.288 0.372,-0.592 l -0.31,-3.14 c -0.03,-0.186 -0.16,-0.318 -0.308,-0.318 z m -4.482,0.554 h 4.09 c 0.146,0 0.272,0.126 0.308,0.306 l 0.19,2.128 c 0.052,0.258 -0.1,0.508 -0.308,0.508 h -4.226 c -0.166,0 -0.304,-0.164 -0.316,-0.376 l -0.052,-2.128 c -0.016,-0.236 0.13,-0.438 0.314,-0.438 z"
     fill="#37474f"
     id="path15"
     style="stroke-width:0.1875;fill:#774040;fill-opacity:1" /><path
     fill="#bae2fd"
     d="M 6.0976696,5.496 H 11.54967 l -0.072,-3.334 H 6.5036696 Z"
     id="path16-9"
     style="stroke-width:0.1875;fill:#a7d7dc;fill-opacity:1" /><path
     d="m 6.1616696,2.108 -0.31,3.14 c -0.052,0.304 0.128,0.592 0.372,0.592 H 11.29367 c 0.168,0 0.306,-0.166 0.318,-0.38 l 0.092,-3.238 c 0.012,-0.234 -0.134,-0.432 -0.318,-0.432 H 6.4716696 c -0.148,0 -0.278,0.132 -0.31,0.318 z m 5.1080004,0.674 -0.052,2.128 c -0.012,0.212 -0.15,0.376 -0.316,0.376 H 6.6716696 c -0.208,0 -0.36,-0.25 -0.308,-0.508 l 0.19,-2.128 c 0.036,-0.18 0.162,-0.306 0.308,-0.306 H 10.95167 c 0.186,0 0.332,0.202 0.318,0.438 z"
     fill="#37474f"
     id="path17-3"
     style="stroke-width:0.1875;fill:#774040;fill-opacity:1" /><path
     d="m 16.00167,7.978 c -0.23,-0.514 -0.624,-0.708 -1.038,-0.606 -0.414,0.102 -0.628,0.51 -0.566,0.932 0.082,0.574 0.612,1.14 1.284,0.824 0.436,-0.204 0.548,-0.642 0.32,-1.15 z"
     fill="#01579b"
     id="path18"
     style="stroke-width:0.1875;fill:#aa5654;fill-opacity:1" /><circle
     cx="15.14567"
     cy="8.1199999"
     r="0.62600005"
     fill="#f44336"
     id="circle18"
     style="stroke-width:0.1875;fill:#f28482;fill-opacity:1" /><path
     d="m 7.9976696,7.978 c 0.23,-0.514 0.624,-0.708 1.038,-0.606 0.414,0.102 0.628,0.51 0.566,0.932 -0.082,0.574 -0.612,1.14 -1.284,0.824 -0.436,-0.204 -0.548,-0.642 -0.32,-1.15 z"
     fill="#01579b"
     id="path19"
     style="stroke-width:0.1875;fill:#aa5654;fill-opacity:1" /><circle
     cx="8.8536701"
     cy="8.1199999"
     r="0.62600005"
     fill="#f44336"
     id="circle19"
     style="stroke-width:0.1875;fill:#f28482;fill-opacity:1" /><path
     d="m 11.90567,11.346 -7.5400004,-1.432 -0.134,4.686 v 1.118 c 0,0.178 0.138,0.324 0.314,0.334 0.634,0.038 2.45,0.106 7.3300004,0.106 h 0.028 c 0,0 0.43,-0.872 0.43,-2.34 0,-1.468 -0.428,-2.472 -0.428,-2.472 z"
     fill="#e0e0e0"
     id="path20"
     style="stroke-width:0.1875;fill:#ffe8d6;fill-opacity:1" /><path
     d="m 11.90567,11.346 7.54,-1.432 0.132,4.686 v 1.118 c 0,0.178 -0.138,0.324 -0.314,0.334 -0.634,0.038 -2.45,0.106 -7.33,0.106 h -0.028 z"
     fill="#bdbdbd"
     id="path21"
     style="stroke-width:0.1875;fill:#ccb9ac;fill-opacity:1" /><path
     d="m 4.2316696,15.718 c 0,0.178 0.138,0.324 0.314,0.334 0.634,0.038 2.45,0.106 7.3300004,0.106 h 0.056 c 4.88,0 6.696,-0.068 7.33,-0.106 0.176,-0.01 0.314,-0.156 0.314,-0.334 V 14.61 H 4.2316696 Z"
     opacity="0.2"
     fill="#424242"
     id="path22"
     style="stroke-width:0.1875" /><path
     d="m 5.5396696,17.15 a 0.468,0.468 0 0 0 -0.514,0.468 c 0,0.624 0.01,1.304 0.442,1.438 0.476,0.148 3.146,0.296 4.414,0.336 C 10.15767,19.4 10.37967,19.17 10.36367,18.896 l -0.06,-1.02 A 0.47,0.47 0 0 0 9.8456696,17.434 c -1.574,-0.026 -3.422,-0.194 -4.306,-0.284 z"
     fill="#94d1e0"
     id="path23"
     style="stroke-width:0.1875;fill:#f2dfdf;fill-opacity:1" /><circle
     cx="16.351669"
     cy="12.446001"
     r="1.176"
     fill="#757575"
     id="circle23"
     style="stroke-width:0.1875;fill:#80746b;fill-opacity:1" /><circle
     cx="16.351669"
     cy="12.564"
     r="0.86400002"
     fill="#fffde7"
     id="circle24"
     style="stroke-width:0.1875" /><circle
     cx="7.6476698"
     cy="12.446001"
     r="1.176"
     fill="#9e9e9e"
     id="circle25"
     style="stroke-width:0.1875;fill:#ccb9ac;fill-opacity:1" /><circle
     cx="7.6476698"
     cy="12.564"
     r="0.86400002"
     fill="#fffde7"
     id="circle26"
     style="stroke-width:0.1875" /><path
     fill="#ffffff"
     d="M 10.70967,5.284 H 9.2436696 l -1.9,-2.94 h 1.468 z"
     id="path27"
     style="stroke-width:0.1875" /><path
     fill="#ffffff"
     d="m 16.65567,5.284 h -1.468 l -1.898,-2.94 h 1.466 z"
     id="path28"
     style="stroke-width:0.1875" /></svg>
