<?xml version="1.0" encoding="UTF-8" standalone="no"?>
<!-- Created with Inkscape (http://www.inkscape.org/) -->

<svg
   width="260"
   height="26"
   viewBox="0 0 68.791664 6.8791666"
   version="1.1"
   id="svg1"
   inkscape:version="1.3.2 (1:1.3.2+202311252150+091e20ef0f)"
   sodipodi:docname="transports_navbar_logo.svg"
   xml:space="preserve"
   xmlns:inkscape="http://www.inkscape.org/namespaces/inkscape"
   xmlns:sodipodi="http://sodipodi.sourceforge.net/DTD/sodipodi-0.dtd"
   xmlns="http://www.w3.org/2000/svg"
   xmlns:svg="http://www.w3.org/2000/svg"><sodipodi:namedview
     id="namedview1"
     pagecolor="#ffffff"
     bordercolor="#000000"
     borderopacity="0.25"
     inkscape:showpageshadow="false"
     inkscape:pageopacity="0.0"
     inkscape:pagecheckerboard="0"
     inkscape:deskcolor="#d1d1d1"
     inkscape:document-units="px"
     inkscape:zoom="3.0211356"
     inkscape:cx="111.05096"
     inkscape:cy="25.321604"
     inkscape:window-width="2526"
     inkscape:window-height="1404"
     inkscape:window-x="34"
     inkscape:window-y="0"
     inkscape:window-maximized="1"
     inkscape:current-layer="layer1"
     showgrid="false" /><defs
     id="defs1" /><g
     inkscape:label="Livello 1"
     inkscape:groupmode="layer"
     id="layer1"><path
       d="m 21.782655,0.07828474 q 0.09604,0 0.09604,0.0960371 v 0.40335583 q 0,0.0960371 -0.09604,0.0960371 h -1.26769 q -0.03841,0 -0.03841,0.0384148 V 6.7048448 q 0,0.096037 -0.09604,0.096037 h -0.489789 q -0.09604,0 -0.09604,-0.096037 V 0.71212961 q 0,-0.0384148 -0.03842,-0.0384148 h -1.19086 q -0.09604,0 -0.09604,-0.0960371 V 0.17432184 q 0,-0.0960371 0.09604,-0.0960371 z m 3.803054,6.72259716 q -0.08643,0 -0.115244,-0.07683 L 24.490886,3.7565057 q -0.0096,-0.028811 -0.03842,-0.028811 h -0.835523 q -0.03841,0 -0.03841,0.038415 v 2.9387354 q 0,0.096037 -0.09604,0.096037 h -0.48979 q -0.09604,0 -0.09604,-0.096037 V 0.17432184 q 0,-0.0960371 0.09604,-0.0960371 h 1.584612 q 0.701071,0 1.133238,0.51860035 0.432167,0.50899661 0.432167,1.33491571 0,0.6242412 -0.268904,1.0756155 -0.268904,0.4513744 -0.729882,0.6338449 -0.03841,0.0096 -0.02881,0.048019 l 1.046805,3.0059613 0.0096,0.038415 q 0,0.067226 -0.08643,0.067226 z M 23.616948,0.67371477 q -0.03841,0 -0.03841,0.0384148 V 3.1418683 q 0,0.038415 0.03841,0.038415 h 0.864334 q 0.441771,0 0.710675,-0.3361298 0.268904,-0.3457336 0.268904,-0.9123525 0,-0.5666189 -0.268904,-0.9123525 -0.268904,-0.34573353 -0.710675,-0.34573353 z m 6.194369,6.12716713 q -0.08643,0 -0.10564,-0.086433 L 29.465584,5.5235884 q 0,-0.019207 -0.01921,-0.028811 -0.0096,-0.0096 -0.02881,-0.0096 h -1.738271 q -0.01921,0 -0.03841,0.0096 -0.0096,0.0096 -0.0096,0.028811 l -0.240093,1.1908601 q -0.0096,0.086433 -0.10564,0.086433 h -0.48979 q -0.04802,0 -0.07683,-0.028811 -0.01921,-0.028811 -0.0096,-0.07683 l 1.440557,-6.53052297 q 0.01921,-0.08643339 0.10564,-0.08643339 h 0.576223 q 0.09604,0 0.105641,0.08643339 l 1.459764,6.53052297 v 0.019207 q 0,0.086433 -0.08643,0.086433 z M 27.756123,4.8897435 q 0,0.038415 0.02881,0.038415 h 1.517386 q 0.02881,0 0.02881,-0.038415 L 28.562835,1.1154854 q -0.0096,-0.028811 -0.01921,-0.028811 -0.0096,0 -0.01921,0.028811 z m 4.571361,1.987968 q -0.710675,0 -1.152445,-0.4705818 Q 30.733268,5.9365479 30.733268,5.1778548 V 4.9569695 q 0,-0.096037 0.09604,-0.096037 h 0.470582 q 0.09604,0 0.09604,0.096037 v 0.1920742 q 0,0.5089967 0.2593,0.8259191 0.2593,0.3073187 0.67226,0.3073187 0.403356,0 0.67226,-0.297715 0.268903,-0.297715 0.268903,-0.7875042 0,-0.3265262 -0.134451,-0.5570152 Q 33.009347,4.3999543 32.798066,4.2270875 32.596388,4.044617 32.116202,3.6796761 31.636017,3.3243388 31.357509,3.0746423 31.079002,2.8153421 30.896531,2.4600049 30.723664,2.1046676 30.723664,1.6244821 q 0,-0.74908942 0.432167,-1.18125637 0.432167,-0.44177067 1.123634,-0.44177067 0.729882,0 1.162049,0.48018551 0.441771,0.4705818 0.441771,1.25808603 v 0.2400928 q 0,0.096037 -0.09604,0.096037 h -0.480186 q -0.09604,0 -0.09604,-0.096037 V 1.7301229 q 0,-0.5089966 -0.2593,-0.81631537 -0.249696,-0.31692244 -0.67226,-0.31692244 -0.384148,0 -0.633845,0.27850759 -0.249696,0.26890392 -0.249696,0.76829682 0,0.297715 0.105641,0.5282041 0.115244,0.2208853 0.33613,0.4225632 0.220885,0.2016779 0.653052,0.5282041 0.576223,0.4225632 0.85473,0.6914671 0.288111,0.2593002 0.441771,0.5762226 0.153659,0.3073187 0.153659,0.7490894 0,0.7875042 -0.451374,1.2676897 -0.451375,0.4705818 -1.162049,0.4705818 z M 36.62031,0.06868103 q 0.701071,0 1.133238,0.51860035 0.432167,0.50899662 0.432167,1.34451942 0,0.8259191 -0.422564,1.3349157 -0.422563,0.4993929 -1.11403,0.4993929 h -0.989182 q -0.03842,0 -0.03842,0.038415 v 2.9003205 q 0,0.096037 -0.09604,0.096037 h -0.489789 q -0.09604,0 -0.09604,-0.096037 V 0.16471813 q 0,-0.0960371 0.09604,-0.0960371 z m -0.08643,3.14041327 q 0.432167,0 0.70107,-0.3457336 0.268904,-0.3457336 0.268904,-0.9219562 0,-0.5762226 -0.268904,-0.9219562 -0.268903,-0.35533724 -0.70107,-0.35533724 h -0.873938 q -0.03842,0 -0.03842,0.0384148 v 2.4681535 q 0,0.038415 0.03842,0.038415 z m 4.148795,3.6686172 q -0.739485,0 -1.200463,-0.460978 -0.451375,-0.4609781 -0.451375,-1.2196712 v -3.514958 q 0,-0.75869306 0.451375,-1.21967115 0.460978,-0.46097809 1.200463,-0.46097809 0.74909,0 1.210068,0.46097809 0.460978,0.46097809 0.460978,1.21967115 v 3.514958 q 0,0.7490894 -0.460978,1.2196712 -0.460978,0.460978 -1.210068,0.460978 z m 0,-0.59543 q 0.441771,0 0.710675,-0.2881113 0.278508,-0.297715 0.278508,-0.7586931 V 1.6532932 q 0,-0.4705818 -0.278508,-0.75869309 -0.268904,-0.29771502 -0.710675,-0.29771502 -0.432167,0 -0.70107,0.29771502 -0.268904,0.28811129 -0.268904,0.75869309 v 3.5821839 q 0,0.4609781 0.268904,0.7586931 0.268903,0.2881113 0.70107,0.2881113 z m 5.57975,0.5186004 q -0.08643,0 -0.115244,-0.07683 L 45.167599,3.7565057 q -0.0096,-0.028811 -0.03842,-0.028811 h -0.835523 q -0.03841,0 -0.03841,0.038415 v 2.9387354 q 0,0.096037 -0.09604,0.096037 H 43.66942 q -0.09604,0 -0.09604,-0.096037 V 0.17432184 q 0,-0.0960371 0.09604,-0.0960371 h 1.584612 q 0.701071,0 1.133238,0.51860035 0.432167,0.50899661 0.432167,1.33491571 0,0.6242412 -0.268904,1.0756155 -0.268904,0.4513744 -0.729882,0.6338449 -0.03841,0.0096 -0.02881,0.048019 l 1.046805,3.0059613 0.0096,0.038415 q 0,0.067226 -0.08643,0.067226 z M 44.293661,0.67371477 q -0.03841,0 -0.03841,0.0384148 V 3.1418683 q 0,0.038415 0.03841,0.038415 h 0.864334 q 0.441771,0 0.710675,-0.3361298 0.268904,-0.3457336 0.268904,-0.9123525 0,-0.5666189 -0.268904,-0.9123525 -0.268904,-0.34573353 -0.710675,-0.34573353 z m 6.482494,-0.59543003 q 0.09604,0 0.09604,0.0960371 v 0.40335583 q 0,0.0960371 -0.09604,0.0960371 h -1.26769 q -0.03842,0 -0.03842,0.0384148 V 6.7048448 q 0,0.096037 -0.09604,0.096037 h -0.489789 q -0.09604,0 -0.09604,-0.096037 V 0.71212961 q 0,-0.0384148 -0.03842,-0.0384148 h -1.19086 q -0.09604,0 -0.09604,-0.0960371 V 0.17432184 q 0,-0.0960371 0.09604,-0.0960371 z m 1.210053,6.72259716 q -0.09604,0 -0.09604,-0.096037 V 0.17432184 q 0,-0.0960371 0.09604,-0.0960371 h 0.489789 q 0.09604,0 0.09604,0.0960371 V 6.7048448 q 0,0.096037 -0.09604,0.096037 z"
       id="text2"
       style="font-stretch:condensed;font-size:9.60371px;font-family:'Barlow Condensed';-inkscape-font-specification:'Barlow Condensed,  Condensed';letter-spacing:0px;fill:#2b6b00;stroke-width:1.28049;stroke-linecap:round;stroke-linejoin:round"
       aria-label="TRASPORTI" /><path
       d="m 11.875502,2.9728185 h -0.866339 c -0.150235,0 -0.272093,-0.1218566 -0.272093,-0.2720921 V 0.54330319 c 0,-0.10018383 -0.08121,-0.18139518 -0.181395,-0.18139518 -0.100183,0 -0.181395,0.0812114 -0.181395,0.18139518 V 2.7007264 c 0,0.3505935 0.284289,0.6348824 0.634883,0.6348824 h 0.866339 c 0.100183,0 0.181395,-0.081212 0.181395,-0.1813951 0,-0.1001832 -0.08121,-0.1813952 -0.181395,-0.1813952 z"
       id="path2"
       style="fill:#87cdde;stroke-width:0.00885719;fill-opacity:1"
       sodipodi:nodetypes="sssssssssss" /><path
       d="M 9.5060286,2.9750775 V 1.4210673 H 8.5990535 v 1.5540102 z m 0,0.3627899 H 8.5990535 c -0.200314,0 -0.3627901,-0.1624763 -0.3627901,-0.3627899 V 1.4210673 c 0,-0.200385 0.1624584,-0.3627903 0.3627901,-0.3627903 h 0.9069751 c 0.2003317,0 0.3627904,0.1624053 0.3627904,0.3627903 v 1.5540102 c 0,0.2003136 -0.1624761,0.3627899 -0.3627904,0.3627899 z M 7.3464268,2.9750775 V 1.4210673 H 6.4394516 v 1.5540102 z m 0,0.3627899 H 6.4394516 c -0.200314,0 -0.3627901,-0.1624763 -0.3627901,-0.3627899 V 1.4210673 c 0,-0.200385 0.1624584,-0.3627903 0.3627901,-0.3627903 h 0.9069752 c 0.2003317,0 0.3627901,0.1624053 0.3627901,0.3627903 v 1.5540102 c 0,0.2003136 -0.1624761,0.3627899 -0.3627901,0.3627899 z M 5.1868249,2.9750775 V 1.4210673 H 4.2798497 v 1.5540102 z m 0,0.3627899 H 4.2798497 c -0.200314,0 -0.3627901,-0.1624763 -0.3627901,-0.3627899 V 1.4210673 c 0,-0.200385 0.1624584,-0.3627903 0.3627901,-0.3627903 h 0.9069752 c 0.2003317,0 0.3627901,0.1624053 0.3627901,0.3627903 v 1.5540102 c 0,0.2003136 -0.1624761,0.3627899 -0.3627901,0.3627899 z"
       id="path4-3"
       style="fill:#87cdde;stroke-width:0.00885719"
       sodipodi:nodetypes="cccccssssssssscccccssssssssscccccsssssssss" /><path
       d="M 4.1941122,5.4198273 H 3.7174985 c -0.1533355,0 -0.2769021,-0.1222469 -0.2769021,-0.2720926 V 0.82445647 c 0,-0.14979237 0.123602,-0.27209277 0.2769021,-0.27209277 h 7.7904655 c 0.153327,0 0.276805,0.12223795 0.276805,0.27209277 V 5.1477347 c 0,0.1499166 -0.123443,0.2720926 -0.276805,0.2720926 h -0.377661 c -0.100184,0 -0.181395,0.081211 -0.181395,0.181395 0,0.1001835 0.08121,0.181395 0.181395,0.181395 h 0.377661 c 0.352896,0 0.639594,-0.2837663 0.639594,-0.6348826 V 0.82445647 c 0,-0.35105415 -0.286733,-0.63488252 -0.639594,-0.63488252 H 3.7174985 c -0.3528081,0 -0.6396922,0.2838638 -0.6396922,0.63488252 V 5.1477347 c 0,0.3510897 0.2868575,0.6348826 0.6396922,0.6348826 h 0.4766137 c 0.1001835,0 0.181395,-0.081212 0.181395,-0.181395 0,-0.1001836 -0.081212,-0.181395 -0.181395,-0.181395 z"
       id="path1"
       style="fill:#ff0000;stroke-width:0.00885719" /><path
       d="m 10.912283,5.6012223 c 0,-0.4006811 -0.324872,-0.7255802 -0.72558,-0.7255802 -0.4006458,0 -0.72558,0.3249345 -0.72558,0.7255802 0,0.4007077 0.3248988,0.7255802 0.72558,0.7255802 0.400743,0 0.72558,-0.3248371 0.72558,-0.7255802 z m 0.362791,0 c 0,0.6011013 -0.48727,1.0883702 -1.088371,1.0883702 -0.6010393,0 -1.0883702,-0.4872954 -1.0883702,-1.0883702 0,-0.6010128 0.4873574,-1.0883703 1.0883702,-1.0883703 0.601075,0 1.088371,0.4873309 1.088371,1.0883703 z m -5.4128006,0 c 0,-0.4006457 -0.3249344,-0.7255802 -0.7255801,-0.7255802 -0.4007077,0 -0.7255802,0.3248991 -0.7255802,0.7255802 0,0.4007431 0.324837,0.7255802 0.7255802,0.7255802 0.4006811,0 0.7255801,-0.3248725 0.7255801,-0.7255802 z m 0.3627901,0 c 0,0.6010748 -0.4873309,1.0883702 -1.0883702,1.0883702 -0.6011014,0 -1.0883703,-0.4872689 -1.0883703,-1.0883702 0,-0.6010394 0.4872955,-1.0883703 1.0883703,-1.0883703 0.6010128,0 1.0883702,0.4873575 1.0883702,1.0883703 z"
       id="path3"
       style="fill:#4d4d4d;stroke-width:0.00885719" /><g
       id="path9"
       style="fill:#4d4d4d"
       transform="matrix(0.60047131,0,0,0.60047131,3.3254471,9.2262042)"><path
         style="color:#000000;fill:#4d4d4d;stroke-linecap:round;stroke-linejoin:round;-inkscape-stroke:none"
         d="M 4.8289009,-6.0368947 H 9.6139242"
         id="path10" /><path
         style="color:#000000;fill:#4d4d4d;stroke-linecap:round;stroke-linejoin:round;-inkscape-stroke:none"
         d="M 4.828125,-6.2480469 A 0.21166649,0.21166649 0 0 0 4.6171875,-6.0371094 0.21166649,0.21166649 0 0 0 4.828125,-5.8261719 H 9.6132813 A 0.21166649,0.21166649 0 0 0 9.8261719,-6.0371094 0.21166649,0.21166649 0 0 0 9.6132813,-6.2480469 Z"
         id="path11" /></g></g></svg>
