<?xml version="1.0" encoding="UTF-8" standalone="no"?>
<!-- Created with Inkscape (http://www.inkscape.org/) -->

<svg
   width="260"
   height="26"
   viewBox="0 0 68.791664 6.8791666"
   version="1.1"
   id="svg1"
   inkscape:version="1.3.2 (1:1.3.2+202311252150+091e20ef0f)"
   sodipodi:docname="mission_paths_navbar_logo.svg"
   xml:space="preserve"
   xmlns:inkscape="http://www.inkscape.org/namespaces/inkscape"
   xmlns:sodipodi="http://sodipodi.sourceforge.net/DTD/sodipodi-0.dtd"
   xmlns="http://www.w3.org/2000/svg"
   xmlns:svg="http://www.w3.org/2000/svg"><sodipodi:namedview
     id="namedview1"
     pagecolor="#ffffff"
     bordercolor="#000000"
     borderopacity="0.25"
     inkscape:showpageshadow="false"
     inkscape:pageopacity="0.0"
     inkscape:pagecheckerboard="0"
     inkscape:deskcolor="#d1d1d1"
     inkscape:document-units="px"
     inkscape:zoom="3.2711538"
     inkscape:cx="91.86361"
     inkscape:cy="-65.26749"
     inkscape:window-width="2526"
     inkscape:window-height="1404"
     inkscape:window-x="34"
     inkscape:window-y="0"
     inkscape:window-maximized="1"
     inkscape:current-layer="layer1" /><defs
     id="defs1" /><g
     inkscape:label="Livello 1"
     inkscape:groupmode="layer"
     id="layer1"><path
       d="m 53.514495,2.7996878 q 0.235545,0 0.365094,0.1727326 0.12955,0.1727325 0.12955,0.4789403 V 4.774335 q 0,0.039257 -0.03926,0.039257 h -0.196287 q -0.03926,0 -0.03926,-0.039257 V 3.4749151 q 0,-0.2002127 -0.08637,-0.3140592 -0.08244,-0.1177722 -0.219842,-0.1177722 -0.149178,0 -0.235544,0.1138465 -0.08637,0.1138464 -0.08637,0.3101334 V 4.774335 q 0,0.039257 -0.03926,0.039257 h -0.200213 q -0.03926,0 -0.03926,-0.039257 V 3.4749151 q 0,-0.2002127 -0.08637,-0.3140592 -0.08244,-0.1177722 -0.215916,-0.1177722 -0.149178,0 -0.23947,0.1138465 -0.08637,0.1138464 -0.08637,0.3101334 V 4.774335 q 0,0.039257 -0.03926,0.039257 h -0.196287 q -0.03926,0 -0.03926,-0.039257 V 2.8664254 q 0,-0.039257 0.03926,-0.039257 h 0.196287 q 0.03926,0 0.03926,0.039257 v 0.1216979 q 0,0.00785 0.0039,0.011777 0.0079,0 0.0157,-0.00785 0.07459,-0.098143 0.176658,-0.1452524 0.10207,-0.047109 0.215916,-0.047109 0.149178,0 0.259099,0.074589 0.109921,0.070663 0.168807,0.2041385 0.0039,0.00785 0.01178,0.00785 0.0079,0 0.01178,-0.011777 0.07066,-0.1413266 0.192362,-0.2080642 0.121697,-0.066738 0.259098,-0.066738 z m 1.122757,-0.3336879 q -0.09814,0 -0.160955,-0.062812 -0.05889,-0.062812 -0.05889,-0.1570296 0,-0.098143 0.05889,-0.1570296 0.06281,-0.062812 0.160955,-0.062812 0.09422,0 0.153104,0.062812 0.06281,0.058886 0.06281,0.1570296 0,0.094218 -0.06281,0.1570296 -0.05889,0.062812 -0.153104,0.062812 z m -0.09814,2.3475925 q -0.03926,0 -0.03926,-0.039257 V 2.8664254 q 0,-0.039257 0.03926,-0.039257 h 0.200212 q 0.03926,0 0.03926,0.039257 V 4.774335 q 0,0.039257 -0.03926,0.039257 z m 1.264081,0.019629 q -0.270876,0 -0.435757,-0.1374009 -0.160955,-0.1413266 -0.160955,-0.3729453 v -0.02748 q 0,-0.039257 0.03926,-0.039257 h 0.188436 q 0.03926,0 0.03926,0.039257 v 0.023554 q 0,0.1256237 0.09029,0.21199 0.09422,0.086366 0.243396,0.086366 0.141327,0 0.227693,-0.086366 0.08637,-0.086366 0.08637,-0.2198415 0,-0.1020692 -0.05496,-0.1688068 -0.05496,-0.070663 -0.12955,-0.1099207 -0.07066,-0.039257 -0.215915,-0.1020693 -0.153104,-0.062812 -0.255173,-0.1216979 -0.09814,-0.062812 -0.172733,-0.1727326 -0.07066,-0.1138464 -0.07066,-0.286579 0,-0.2512473 0.153104,-0.3964997 0.157029,-0.1452524 0.420054,-0.1452524 0.26695,0 0.42398,0.1491781 0.157029,0.1491781 0.157029,0.3964998 v 0.011777 q 0,0.039257 -0.03926,0.039257 h -0.180584 q -0.03926,0 -0.03926,-0.039257 v -0.023554 q 0,-0.1334751 -0.09029,-0.2198414 -0.08637,-0.086366 -0.227692,-0.086366 -0.141327,0 -0.227693,0.090292 -0.08244,0.086366 -0.08244,0.2159157 0,0.094218 0.05103,0.1609554 0.05103,0.062812 0.125623,0.105995 0.07459,0.039257 0.208065,0.098143 0.160955,0.070663 0.263024,0.1334751 0.105995,0.062812 0.18451,0.1766583 0.07852,0.1138465 0.07852,0.2826533 0,0.2433959 -0.160956,0.3886483 -0.160955,0.1452523 -0.435757,0.1452523 z m 1.370072,0 q -0.270876,0 -0.435757,-0.1374009 -0.160956,-0.1413266 -0.160956,-0.3729453 v -0.02748 q 0,-0.039257 0.03926,-0.039257 h 0.188435 q 0.03926,0 0.03926,0.039257 v 0.023554 q 0,0.1256237 0.09029,0.21199 0.09422,0.086366 0.243396,0.086366 0.141326,0 0.227693,-0.086366 0.08637,-0.086366 0.08637,-0.2198415 0,-0.1020692 -0.05496,-0.1688068 -0.05496,-0.070663 -0.12955,-0.1099207 -0.07066,-0.039257 -0.215916,-0.1020693 -0.153103,-0.062812 -0.255173,-0.1216979 -0.09814,-0.062812 -0.172732,-0.1727326 -0.07066,-0.1138464 -0.07066,-0.286579 0,-0.2512473 0.153104,-0.3964997 0.15703,-0.1452524 0.420054,-0.1452524 0.266951,0 0.42398,0.1491781 0.15703,0.1491781 0.15703,0.3964998 v 0.011777 q 0,0.039257 -0.03926,0.039257 h -0.180584 q -0.03926,0 -0.03926,-0.039257 v -0.023554 q 0,-0.1334751 -0.09029,-0.2198414 -0.08637,-0.086366 -0.227693,-0.086366 -0.141326,0 -0.227693,0.090292 -0.08244,0.086366 -0.08244,0.2159157 0,0.094218 0.05103,0.1609554 0.05103,0.062812 0.125624,0.105995 0.07459,0.039257 0.208064,0.098143 0.160956,0.070663 0.263025,0.1334751 0.105995,0.062812 0.18451,0.1766583 0.07851,0.1138465 0.07851,0.2826533 0,0.2433959 -0.160955,0.3886483 -0.160955,0.1452523 -0.435757,0.1452523 z m 1.118831,-2.3672212 q -0.09814,0 -0.160956,-0.062812 -0.05889,-0.062812 -0.05889,-0.1570296 0,-0.098143 0.05889,-0.1570296 0.06281,-0.062812 0.160956,-0.062812 0.09422,0 0.153104,0.062812 0.06281,0.058886 0.06281,0.1570296 0,0.094218 -0.06281,0.1570296 -0.05889,0.062812 -0.153104,0.062812 z m -0.09814,2.3475925 q -0.03926,0 -0.03926,-0.039257 V 2.8664254 q 0,-0.039257 0.03926,-0.039257 h 0.200213 q 0.03926,0 0.03926,0.039257 V 4.774335 q 0,0.039257 -0.03926,0.039257 z m 1.319042,0.031406 q -0.282653,0 -0.45146,-0.1648811 Q 58.89665,4.5152362 58.89665,4.2443601 V 3.400326 q 0,-0.2669503 0.168807,-0.4357571 0.168807,-0.1688068 0.447534,-0.1688068 0.282654,0 0.45146,0.1688068 0.168807,0.1688068 0.168807,0.4357571 v 0.8440341 q 0,0.2708761 -0.168807,0.4357572 -0.168806,0.1648811 -0.45146,0.1648811 z m 0,-0.2473217 q 0.149178,0 0.243396,-0.1020692 0.09814,-0.1020692 0.09814,-0.2708761 V 3.416029 q 0,-0.1688068 -0.09814,-0.2708761 -0.09422,-0.1059949 -0.243396,-0.1059949 -0.149178,0 -0.243396,0.1059949 -0.09422,0.1020693 -0.09422,0.2708761 v 0.8087024 q 0,0.1688069 0.09422,0.2708761 0.09422,0.1020692 0.243396,0.1020692 z m 1.762654,-1.7979889 q 0.23947,0 0.369019,0.1648811 0.133475,0.1648811 0.133475,0.4593116 V 4.774335 q 0,0.039257 -0.03926,0.039257 h -0.200213 q -0.03926,0 -0.03926,-0.039257 V 3.4474349 q 0,-0.1923612 -0.08637,-0.2983562 -0.08244,-0.105995 -0.231618,-0.105995 -0.15703,0 -0.247322,0.1138465 -0.08637,0.1138464 -0.08637,0.3101334 V 4.774335 q 0,0.039257 -0.03926,0.039257 h -0.200212 q -0.03926,0 -0.03926,-0.039257 V 2.8664254 q 0,-0.039257 0.03926,-0.039257 h 0.200212 q 0.03926,0 0.03926,0.039257 v 0.1256237 q 0,0.00785 0.0079,0.011777 0.0079,0.00393 0.01178,-0.00785 0.07066,-0.098143 0.176658,-0.1452524 0.109921,-0.051035 0.231619,-0.051035 z m 2.143452,1.08743 q 0,0.039257 -0.03926,0.039257 h -0.895069 q -0.0157,0 -0.0157,0.015703 v 0.286579 q 0,0.1648811 0.09029,0.270876 0.09422,0.1020693 0.243396,0.1020693 0.125624,0 0.21199,-0.074589 0.09029,-0.078515 0.117772,-0.2002127 0.01178,-0.035332 0.04318,-0.035332 l 0.196287,0.00785 q 0.0157,0 0.02748,0.011777 0.01178,0.011777 0.0079,0.031406 -0.03141,0.2316187 -0.192361,0.3690196 -0.15703,0.1334752 -0.412203,0.1334752 -0.278727,0 -0.447534,-0.1648811 Q 62.190341,4.5152362 62.190341,4.2443601 V 3.3964003 q 0,-0.2669503 0.164881,-0.4318314 0.168807,-0.1688068 0.447534,-0.1688068 0.282654,0 0.447535,0.1688068 0.168806,0.1648811 0.168806,0.4318314 z M 62.802756,3.039158 q -0.149178,0 -0.243396,0.1059949 -0.09029,0.1020693 -0.09029,0.2708761 v 0.2630246 q 0,0.015703 0.0157,0.015703 h 0.643822 q 0.0157,0 0.0157,-0.015703 V 3.416029 q 0,-0.1688068 -0.09422,-0.2708761 Q 62.95586,3.039158 62.802756,3.039158 Z"
       id="text3"
       style="font-stretch:condensed;font-size:3.92574px;font-family:'Barlow Condensed';-inkscape-font-specification:'Barlow Condensed,  Condensed';letter-spacing:0px;fill:#2b6b00;stroke-width:0.52343;stroke-linecap:round;stroke-linejoin:round"
       aria-label="missione" /><path
       d="m 18.291084,0.06868103 q 0.701071,0 1.133238,0.51860035 0.432167,0.50899662 0.432167,1.34451942 0,0.8259191 -0.422563,1.3349157 -0.422563,0.4993929 -1.11403,0.4993929 h -0.989183 q -0.03841,0 -0.03841,0.038415 v 2.9003205 q 0,0.096037 -0.09604,0.096037 h -0.489789 q -0.09604,0 -0.09604,-0.096037 V 0.16471813 q 0,-0.0960371 0.09604,-0.0960371 z m -0.08643,3.14041327 q 0.432167,0 0.701071,-0.3457336 0.268904,-0.3457336 0.268904,-0.9219562 0,-0.5762226 -0.268904,-0.9219562 -0.268904,-0.35533724 -0.701071,-0.35533724 h -0.873938 q -0.03841,0 -0.03841,0.0384148 v 2.4681535 q 0,0.038415 0.03841,0.038415 z m 5.704598,-2.63141663 q 0,0.0960371 -0.09604,0.0960371 h -2.22806 q -0.03842,0 -0.03842,0.0384148 V 3.0938497 q 0,0.038415 0.03842,0.038415 h 1.402141 q 0.09604,0 0.09604,0.096037 v 0.4129595 q 0,0.096037 -0.09604,0.096037 h -1.402141 q -0.03842,0 -0.03842,0.038415 V 6.167037 q 0,0.038415 0.03842,0.038415 h 2.22806 q 0.09604,0 0.09604,0.096037 v 0.4033559 q 0,0.096037 -0.09604,0.096037 H 20.96091 q -0.09604,0 -0.09604,-0.096037 V 0.17432184 q 0,-0.0960371 0.09604,-0.0960371 h 2.852302 q 0.09604,0 0.09604,0.0960371 z m 3.764645,6.22320423 q -0.08643,0 -0.115244,-0.07683 L 26.579071,3.7565057 q -0.0096,-0.028811 -0.03841,-0.028811 h -0.835523 q -0.03842,0 -0.03842,0.038415 v 2.9387354 q 0,0.096037 -0.09604,0.096037 h -0.489789 q -0.09604,0 -0.09604,-0.096037 V 0.17432184 q 0,-0.0960371 0.09604,-0.0960371 h 1.584612 q 0.701071,0 1.133238,0.51860035 0.432167,0.50899661 0.432167,1.33491571 0,0.6242412 -0.268904,1.0756155 -0.268904,0.4513744 -0.729882,0.6338449 -0.03842,0.0096 -0.02881,0.048019 l 1.046804,3.0059613 0.0096,0.038415 q 0,0.067226 -0.08643,0.067226 z m -1.96876,-6.12716713 q -0.03842,0 -0.03842,0.0384148 V 3.1418683 q 0,0.038415 0.03842,0.038415 h 0.864334 q 0.44177,0 0.710674,-0.3361298 0.268904,-0.3457336 0.268904,-0.9123525 0,-0.5666189 -0.268904,-0.9123525 -0.268904,-0.34573353 -0.710674,-0.34573353 z m 5.003522,6.20399673 q -0.739486,0 -1.19086,-0.4513743 Q 29.076025,5.9749628 29.076025,5.2162697 V 1.6532932 q 0,-0.74908938 0.441771,-1.20046376 0.451374,-0.45137438 1.19086,-0.45137438 0.749089,0 1.19086,0.45137438 0.451374,0.44177067 0.451374,1.20046376 v 0.1632631 q 0,0.096037 -0.09604,0.096037 l -0.499393,0.028811 q -0.09604,0 -0.09604,-0.096037 V 1.6052747 q 0,-0.4513744 -0.2593,-0.72988202 -0.2593,-0.27850759 -0.691467,-0.27850759 -0.422563,0 -0.691467,0.27850759 -0.2593,0.27850762 -0.2593,0.72988202 v 3.6686172 q 0,0.4513744 0.2593,0.729882 0.268904,0.2785076 0.691467,0.2785076 0.432167,0 0.691467,-0.2785076 0.2593,-0.2785076 0.2593,-0.729882 V 5.0337992 q 0,-0.096037 0.09604,-0.096037 l 0.499393,0.028811 q 0.09604,0 0.09604,0.096037 v 0.1536594 q 0,0.7586931 -0.451374,1.2100675 -0.451374,0.4513743 -1.19086,0.4513743 z m 4.302454,0 q -0.739485,0 -1.200464,-0.460978 -0.451374,-0.4609781 -0.451374,-1.2196712 v -3.514958 q 0,-0.75869306 0.451374,-1.21967115 0.460979,-0.46097809 1.200464,-0.46097809 0.74909,0 1.210068,0.46097809 0.460978,0.46097809 0.460978,1.21967115 v 3.514958 q 0,0.7490894 -0.460978,1.2196712 -0.460978,0.460978 -1.210068,0.460978 z m 0,-0.59543 q 0.441771,0 0.710675,-0.2881113 0.278507,-0.297715 0.278507,-0.7586931 V 1.6532932 q 0,-0.4705818 -0.278507,-0.75869309 -0.268904,-0.29771502 -0.710675,-0.29771502 -0.432167,0 -0.701071,0.29771502 -0.268903,0.28811129 -0.268903,0.75869309 v 3.5821839 q 0,0.4609781 0.268903,0.7586931 0.268904,0.2881113 0.701071,0.2881113 z m 5.579748,0.5186004 q -0.08643,0 -0.115245,-0.07683 L 39.496035,3.7565057 q -0.0096,-0.028811 -0.03842,-0.028811 h -0.835523 q -0.03841,0 -0.03841,0.038415 v 2.9387354 q 0,0.096037 -0.09604,0.096037 h -0.489789 q -0.09604,0 -0.09604,-0.096037 V 0.17432184 q 0,-0.0960371 0.09604,-0.0960371 h 1.584612 q 0.701071,0 1.133238,0.51860035 0.432167,0.50899661 0.432167,1.33491571 0,0.6242412 -0.268904,1.0756155 -0.268904,0.4513744 -0.729882,0.6338449 -0.03842,0.0096 -0.02881,0.048019 l 1.046805,3.0059613 0.0096,0.038415 q 0,0.067226 -0.08643,0.067226 z M 38.622097,0.67371477 q -0.03841,0 -0.03841,0.0384148 V 3.1418683 q 0,0.038415 0.03841,0.038415 h 0.864334 q 0.441771,0 0.710675,-0.3361298 0.268904,-0.3457336 0.268904,-0.9123525 0,-0.5666189 -0.268904,-0.9123525 -0.268904,-0.34573353 -0.710675,-0.34573353 z m 4.907486,6.20399673 q -0.710675,0 -1.152445,-0.4705818 Q 41.935367,5.9365479 41.935367,5.1778548 V 4.9569695 q 0,-0.096037 0.09604,-0.096037 h 0.470582 q 0.09604,0 0.09604,0.096037 v 0.1920742 q 0,0.5089967 0.2593,0.8259191 0.2593,0.3073187 0.67226,0.3073187 0.403356,0 0.672259,-0.297715 0.268904,-0.297715 0.268904,-0.7875042 0,-0.3265262 -0.134452,-0.5570152 Q 44.211446,4.3999543 44.000165,4.2270875 43.798487,4.044617 43.318301,3.6796761 42.838116,3.3243388 42.559608,3.0746423 42.2811,2.8153421 42.09863,2.4600049 41.925763,2.1046676 41.925763,1.6244821 q 0,-0.74908942 0.432167,-1.18125637 0.432167,-0.44177067 1.123634,-0.44177067 0.729882,0 1.162049,0.48018551 0.441771,0.4705818 0.441771,1.25808603 v 0.2400928 q 0,0.096037 -0.09604,0.096037 h -0.480186 q -0.09604,0 -0.09604,-0.096037 V 1.7301229 q 0,-0.5089966 -0.2593,-0.81631537 -0.249697,-0.31692244 -0.67226,-0.31692244 -0.384148,0 -0.633845,0.27850759 -0.249696,0.26890392 -0.249696,0.76829682 0,0.297715 0.105641,0.5282041 0.115244,0.2208853 0.33613,0.4225632 0.220885,0.2016779 0.653052,0.5282041 0.576222,0.4225632 0.85473,0.6914671 0.288111,0.2593002 0.441771,0.5762226 0.153659,0.3073187 0.153659,0.7490894 0,0.7875042 -0.451374,1.2676897 -0.451375,0.4705818 -1.162049,0.4705818 z m 2.785061,-0.07683 q -0.09604,0 -0.09604,-0.096037 V 0.17432184 q 0,-0.0960371 0.09604,-0.0960371 h 0.489789 q 0.09604,0 0.09604,0.0960371 V 6.7048448 q 0,0.096037 -0.09604,0.096037 z"
       id="text2"
       style="font-stretch:condensed;font-size:9.60371px;font-family:'Barlow Condensed';-inkscape-font-specification:'Barlow Condensed,  Condensed';letter-spacing:0px;fill:#2b6b00;stroke-width:1.28049;stroke-linecap:round;stroke-linejoin:round"
       aria-label="PERCORSI" /><g
       transform="matrix(0.01269535,0,0,0.01269535,1.3407475,0.1768783)"
       id="g4">
	<polygon
   style="fill:#464f5d"
   points="10.161,192.435 172.456,30.14 272.322,130.015 272.322,1 501.839,1 501.839,513 272.322,513 272.322,454.597 "
   id="polygon1" />
	<g
   id="g3">
		<path
   style="fill:#ffffff"
   d="m 387.085,112.609 c -4.882,0 -8.828,-3.946 -8.828,-8.828 V 69.733 c 0,-4.882 3.946,-8.828 8.828,-8.828 4.882,0 8.828,3.946 8.828,8.828 v 34.048 c 0,4.882 -3.946,8.828 -8.828,8.828 m 0,85.124 c -4.882,0 -8.828,-3.955 -8.828,-8.828 v -34.057 c 0,-4.882 3.946,-8.828 8.828,-8.828 4.882,0 8.828,3.946 8.828,8.828 v 34.057 c 0,4.874 -3.946,8.828 -8.828,8.828 m 0,85.116 c -4.882,0 -8.828,-3.946 -8.828,-8.828 v -34.039 c 0,-4.882 3.946,-8.828 8.828,-8.828 4.882,0 8.828,3.946 8.828,8.828 v 34.039 c 0,4.882 -3.946,8.828 -8.828,8.828 m 0,85.133 c -4.882,0 -8.828,-3.955 -8.828,-8.828 v -34.057 c 0,-4.873 3.946,-8.828 8.828,-8.828 4.882,0 8.828,3.955 8.828,8.828 v 34.057 c 0,4.873 -3.946,8.828 -8.828,8.828 m 0,85.116 c -4.882,0 -8.828,-3.946 -8.828,-8.828 v -34.048 c 0,-4.882 3.946,-8.828 8.828,-8.828 4.882,0 8.828,3.946 8.828,8.828 v 34.048 c 0,4.882 -3.946,8.828 -8.828,8.828"
   id="path1" />
		<path
   style="fill:#ffffff"
   d="m 163.809,192.618 c -2.26,0 -4.52,-0.865 -6.241,-2.586 l -24.011,-24.011 c -3.443,-3.443 -3.443,-9.031 0,-12.482 3.452,-3.443 9.039,-3.443 12.482,0 l 24.011,24.011 c 3.452,3.452 3.452,9.031 0,12.482 -1.721,1.721 -3.981,2.586 -6.241,2.586 m 60.019,60.019 c -2.26,0 -4.52,-0.865 -6.241,-2.586 L 193.576,226.04 c -3.452,-3.443 -3.452,-9.031 0,-12.482 3.452,-3.452 9.039,-3.452 12.482,0 l 24.011,24.011 c 3.443,3.443 3.443,9.031 0,12.482 -1.721,1.72 -3.981,2.586 -6.241,2.586"
   id="path2" />
		<path
   style="fill:#ffffff"
   d="m 272.327,301.135 c -2.26,0 -4.52,-0.865 -6.241,-2.586 l -12.482,-12.482 c -3.452,-3.452 -3.452,-9.031 0,-12.482 3.452,-3.452 9.031,-3.452 12.482,0 l 12.482,12.482 c 3.452,3.452 3.452,9.031 0,12.482 -1.722,1.721 -3.982,2.586 -6.241,2.586"
   id="path3" />
	</g>
</g></g></svg>
