<?xml version="1.0" encoding="UTF-8" standalone="no"?>
<!-- Created with Inkscape (http://www.inkscape.org/) -->

<svg
   width="256"
   height="54"
   viewBox="0 0 67.733332 14.2875"
   version="1.1"
   id="svg1"
   inkscape:version="1.3.2 (091e20ef0f, 2023-11-25)"
   sodipodi:docname="road-logo.svg"
   xml:space="preserve"
   xmlns:inkscape="http://www.inkscape.org/namespaces/inkscape"
   xmlns:sodipodi="http://sodipodi.sourceforge.net/DTD/sodipodi-0.dtd"
   xmlns="http://www.w3.org/2000/svg"
   xmlns:svg="http://www.w3.org/2000/svg"><sodipodi:namedview
     id="namedview1"
     pagecolor="#ffffff"
     bordercolor="#000000"
     borderopacity="0.25"
     inkscape:showpageshadow="false"
     inkscape:pageopacity="0.0"
     inkscape:pagecheckerboard="0"
     inkscape:deskcolor="#d1d1d1"
     inkscape:document-units="px"
     inkscape:zoom="4.2796577"
     inkscape:cx="93.699083"
     inkscape:cy="83.067391"
     inkscape:window-width="2528"
     inkscape:window-height="1404"
     inkscape:window-x="2592"
     inkscape:window-y="0"
     inkscape:window-maximized="1"
     inkscape:current-layer="layer1" /><defs
     id="defs1"><inkscape:path-effect
   effect="fillet_chamfer"
   id="path-effect1"
   is_visible="true"
   lpeversion="1"
   nodesatellites_param="F,0,0,1,0,16.416105,0,1 @ F,0,0,1,0,17.56708,0,1 @ F,0,0,1,0,16.166174,0,1 @ F,0,0,1,0,12.027104,0,1"
   radius="0"
   unit="px"
   method="auto"
   mode="F"
   chamfer_steps="1"
   flexible="false"
   use_knot_distance="true"
   apply_no_radius="true"
   apply_with_radius="true"
   only_selected="false"
   hide_knots="false" />
	
	
	
	
	

		
		
	</defs><g
     inkscape:label="Livello 1"
     inkscape:groupmode="layer"
     id="layer1"><path
       id="path9"
       style="font-weight:bold;font-size:7.22489px;font-family:'Roboto Condensed';-inkscape-font-specification:'Roboto Condensed,  Bold';letter-spacing:0px;fill:#0d7474;stroke-width:2.03199;stroke-linecap:round;stroke-linejoin:round"
       d="M 22.803259 5.8895629 C 22.323482 5.8895629 21.948209 6.0497854 21.677746 6.369637 C 21.409635 6.6871367 21.275704 7.1551491 21.275704 7.7736856 L 21.275704 8.0873616 C 21.275704 8.6400463 21.416712 9.0719287 21.698934 9.382373 C 21.983508 9.6928171 22.38582 9.8479776 22.905578 9.8479776 C 23.232485 9.8479776 23.504146 9.7868225 23.720516 9.6645263 C 23.939238 9.5422301 24.099461 9.4128436 24.20059 9.2764363 L 23.805265 8.6728555 C 23.586543 8.9033368 23.309073 9.0185709 22.972758 9.0185709 C 22.75874 9.0185709 22.591441 8.9586812 22.471496 8.8387369 C 22.353904 8.7164407 22.28947 8.5039216 22.27771 8.200533 L 24.256917 8.200533 L 24.256917 7.7101236 C 24.252213 7.1033463 24.128637 6.6482209 23.886397 6.3448323 C 23.644157 6.0414437 23.283037 5.8895629 22.803259 5.8895629 z M 22.799642 6.7184529 C 22.973679 6.7184529 23.095989 6.7775937 23.166544 6.8951863 C 23.2371 7.0104269 23.275012 7.1830196 23.279716 7.4135009 L 23.279716 7.5018676 L 22.281327 7.5018676 C 22.295438 7.2267012 22.341176 7.0278178 22.418786 6.9055216 C 22.49875 6.7808735 22.625605 6.7184529 22.799642 6.7184529 z " /><path
       id="path13"
       style="font-weight:bold;font-size:7.22489px;font-family:'Roboto Condensed';-inkscape-font-specification:'Roboto Condensed,  Bold';letter-spacing:0px;fill:#0d7474;stroke-width:2.03199;stroke-linecap:round;stroke-linejoin:round"
       d="M 31.905029 5.8895629 C 31.434659 5.8895629 31.059387 6.0497854 30.779516 6.369637 C 30.501998 6.6871367 30.363521 7.1455419 30.363521 7.7452636 L 30.363521 7.9958943 C 30.363521 8.595616 30.503263 9.0540212 30.783134 9.3715209 C 31.063004 9.6890207 31.439542 9.8479776 31.912264 9.8479776 C 32.382634 9.8479776 32.756641 9.6890207 33.034159 9.3715209 C 33.314029 9.0540212 33.453772 8.595616 33.453772 7.9958943 L 33.453772 7.7452636 C 33.453772 7.1455419 33.314029 6.6871367 33.034159 6.369637 C 32.756641 6.0497854 32.380103 5.8895629 31.905029 5.8895629 z M 31.905029 6.7184529 C 32.271918 6.7184529 32.455383 7.0608752 32.455383 7.7452636 L 32.455383 8.0594563 C 32.443624 8.6991595 32.262689 9.0185709 31.912264 9.0185709 C 31.545375 9.0185709 31.36191 8.6779308 31.36191 7.9958943 L 31.36191 7.6817016 C 31.373668 7.0396466 31.554603 6.7184529 31.905029 6.7184529 z " /><path
       id="text1"
       style="font-weight:bold;font-size:7.22489px;font-family:'Roboto Condensed';-inkscape-font-specification:'Roboto Condensed,  Bold';letter-spacing:0px;fill:#0d7474;stroke-width:2.03199;stroke-linecap:round;stroke-linejoin:round"
       d="M 17.349328 4.6405436 L 17.349328 9.7771809 L 18.390092 9.7771809 L 18.390092 7.9710896 L 19.113045 7.9710896 C 19.6281 7.9687377 20.032943 7.8206535 20.326924 7.5266723 C 20.623257 7.232691 20.771342 6.8374553 20.771342 6.3412149 C 20.771342 5.8496784 20.621992 5.4440866 20.323307 5.124235 C 20.026974 4.8020315 19.620117 4.6405436 19.10271 4.6405436 L 17.349328 4.6405436 z M 18.390092 5.5050903 L 19.10271 5.5050903 C 19.31908 5.5050903 19.475506 5.5907539 19.571932 5.7624389 C 19.67071 5.9317721 19.720243 6.1273757 19.720243 6.3484496 C 19.720243 6.5695236 19.67071 6.7517234 19.571932 6.8951863 C 19.475506 7.0362973 19.31908 7.1065429 19.10271 7.1065429 L 18.390092 7.1065429 L 18.390092 5.5050903 z " /><path
       style="font-weight:bold;font-size:7.22489px;font-family:'Roboto Condensed';-inkscape-font-specification:'Roboto Condensed,  Bold';letter-spacing:0px;fill:#0d7474;stroke-width:2.03199;stroke-linecap:round;stroke-linejoin:round"
       d="M 40.795028,5.9601807 V 9.7772369 H 39.793139 V 5.9601807 Z"
       id="path18" /><path
       style="font-weight:bold;font-size:7.22489px;font-family:'Roboto Condensed';-inkscape-font-specification:'Roboto Condensed,  Bold';letter-spacing:0px;fill:#0d7474;stroke-width:2.03199;stroke-linecap:round;stroke-linejoin:round"
       d="m 39.747278,4.9724027 q 0,-0.2328334 0.148167,-0.3810001 0.148166,-0.1516944 0.398639,-0.1516944 0.246944,0 0.395111,0.1516944 0.148167,0.1481667 0.148167,0.3810001 0,0.2293056 -0.148167,0.3810001 -0.148167,0.1481667 -0.395111,0.1481667 -0.250473,0 -0.398639,-0.1481667 -0.148167,-0.1516945 -0.148167,-0.3810001 z"
       id="path17" /><path
       style="font-weight:bold;font-size:7.22489px;font-family:'Roboto Condensed';-inkscape-font-specification:'Roboto Condensed,  Bold';letter-spacing:0px;fill:#0d7474;stroke-width:2.03199;stroke-linecap:round;stroke-linejoin:round"
       d="m 38.15625,8.7541812 q 0,-0.1481667 -0.151695,-0.2610556 -0.151694,-0.1128889 -0.508,-0.2681112 -0.522111,-0.2046111 -0.804333,-0.4656667 -0.278695,-0.2610556 -0.278695,-0.7196668 0,-0.4762501 0.34925,-0.8113891 0.34925,-0.3386667 0.970139,-0.3386667 0.642056,0 1.012473,0.3316112 0.370416,0.3280834 0.370416,0.8643057 h -0.998361 q 0,-0.4691945 -0.388055,-0.4691945 -0.359834,0 -0.359834,0.3739445 0,0.1481667 0.137583,0.2504722 0.141112,0.1023056 0.508001,0.2540001 0.5715,0.2151945 0.839611,0.4797779 0.271639,0.2645833 0.271639,0.7373057 0,0.508 -0.377473,0.8219723 -0.377472,0.3139723 -1.016,0.3139723 -0.691444,0 -1.058333,-0.3915834 -0.363361,-0.3951112 -0.363361,-0.8607779 h 0.945444 q 0.0071,0.3104445 0.144639,0.4162778 0.137583,0.1058334 0.352778,0.1058334 0.402167,0 0.402167,-0.3633612 z"
       id="path16" /><path
       style="font-weight:bold;font-size:7.22489px;font-family:'Roboto Condensed';-inkscape-font-specification:'Roboto Condensed,  Bold';letter-spacing:0px;fill:#0d7474;stroke-width:2.03199;stroke-linecap:round;stroke-linejoin:round"
       d="m 35.626833,6.895042 q -0.416278,0 -0.557389,0.3563056 V 9.7772369 H 34.071083 V 5.9601807 H 35.013 l 0.02822,0.4127501 q 0.239889,-0.4833057 0.652639,-0.4833057 0.162278,0 0.271639,0.042333 l -0.01058,0.9913058 Q 35.778528,6.895042 35.626833,6.895042 Z"
       id="path15" /><path
       style="font-weight:bold;font-size:7.22489px;font-family:'Roboto Condensed';-inkscape-font-specification:'Roboto Condensed,  Bold';letter-spacing:0px;fill:#0d7474;stroke-width:2.03199;stroke-linecap:round;stroke-linejoin:round"
       d="m 28.535998,9.0187646 q 0.437444,0 0.437444,-0.5644446 h 0.938389 q -0.0035,0.652639 -0.395111,1.0230558 -0.388056,0.3704167 -0.963084,0.3704167 -0.762,0 -1.135944,-0.4727223 -0.373945,-0.4762501 -0.381,-1.337028 V 7.7311254 q 0,-0.874889 0.373944,-1.3581946 0.373945,-0.4833057 1.139473,-0.4833057 0.613833,0 0.98425,0.3810001 0.373944,0.381 0.377472,1.114778 h -0.938389 q 0,-0.6667502 -0.4445,-0.6667502 -0.328083,0 -0.41275,0.2610556 -0.08114,0.2610556 -0.08114,0.7514168 v 0.2751668 q 0,0.5044723 0.08114,0.7584723 0.08114,0.2540001 0.419806,0.2540001 z"
       id="path12" /><path
       style="font-weight:bold;font-size:7.22489px;font-family:'Roboto Condensed';-inkscape-font-specification:'Roboto Condensed,  Bold';letter-spacing:0px;fill:#0d7474;stroke-width:2.03199;stroke-linecap:round;stroke-linejoin:round"
       d="m 26.380525,6.895042 q -0.416278,0 -0.557389,0.3563056 V 9.7772369 H 24.824775 V 5.9601807 h 0.941917 l 0.02822,0.4127501 q 0.239889,-0.4833057 0.652639,-0.4833057 0.162278,0 0.271639,0.042333 L 26.70861,6.9232639 Q 26.53222,6.895042 26.380525,6.895042 Z"
       id="path11" /><polygon
       style="fill:#464f5d"
       points="190.915,130.169 190.915,503.322 416.542,503.322 416.542,0 190.915,0 190.915,60.746 260.339,60.746 260.339,130.169 "
       id="polygon1"
       transform="matrix(0.0262837,0,0,0.0262837,-1.7517328,0.5291677)" /><path
       style="fill:#ffffff;stroke-width:0.0262837"
       d="m 6.2313891,3.4130153 c -0.1261355,0 -0.2280899,-0.1019545 -0.2280899,-0.22809 V 2.3051836 c 0,-0.1261355 0.1019544,-0.22809 0.2280899,-0.22809 0.1261355,0 0.22809,0.1019545 0.22809,0.22809 v 0.8797417 c 0,0.1261355 -0.1019545,0.22809 -0.22809,0.22809 m 0,2.1994463 c -0.1261355,0 -0.2280899,-0.1021911 -0.2280899,-0.22809 V 4.5043933 c 0,-0.1261354 0.1019544,-0.2280899 0.2280899,-0.2280899 0.1261355,0 0.22809,0.1019545 0.22809,0.2280899 v 0.8799783 c 0,0.1259252 -0.1019545,0.22809 -0.22809,0.22809 m 0,2.199236 c -0.1261355,0 -0.2280899,-0.1019545 -0.2280899,-0.22809 V 6.7041025 c 0,-0.1261355 0.1019544,-0.22809 0.2280899,-0.22809 0.1261355,0 0.22809,0.1019545 0.22809,0.22809 v 0.8795051 c 0,0.1261355 -0.1019545,0.22809 -0.22809,0.22809 m 0,2.1997094 c -0.1261355,0 -0.2280899,-0.1021913 -0.2280899,-0.2280902 V 8.9033385 c 0,-0.1258989 0.1019544,-0.2280899 0.2280899,-0.2280899 0.1261355,0 0.22809,0.102191 0.22809,0.2280899 v 0.8799783 c 0,0.1258989 -0.1019545,0.2280902 -0.22809,0.2280902 m 0,2.199236 c -0.1261355,0 -0.2280899,-0.101955 -0.2280899,-0.22809 v -0.879742 c 0,-0.126135 0.1019544,-0.22809 0.2280899,-0.22809 0.1261355,0 0.22809,0.101955 0.22809,0.22809 v 0.879742 c 0,0.126135 -0.1019545,0.22809 -0.22809,0.22809"
       id="path1" /><path
       style="fill:#95a5a5;stroke-width:0.0262837"
       d="m 1.2134365,7.3718399 c -0.1261354,0 -0.22808992,-0.1019545 -0.22808992,-0.22809 V 4.1785806 c 0,-0.1261355 0.10195452,-0.22809 0.22808992,-0.22809 0.1261355,0 0.22809,0.1019545 0.22809,0.22809 v 2.9651693 c 0,0.1261355 -0.1019808,0.22809 -0.22809,0.22809"
       id="path2" /><path
       style="fill:#95a5a5;stroke-width:0.0262837"
       d="m 1.2134365,4.4066705 c -0.1261354,0 -0.22808992,-0.1019544 -0.22808992,-0.2280899 0,-0.7547365 0.61377692,-1.3685397 1.36853972,-1.3685397 0.1261355,0 0.2280899,0.1019545 0.2280899,0.22809 0,0.1261354 -0.1019544,0.2280899 -0.2280899,0.2280899 -0.5031752,0 -0.9123598,0.4091846 -0.9123598,0.9123598 0,0.1261355 -0.1019808,0.2280899 -0.22809,0.2280899"
       id="path3" /><polygon
       style="fill:#6e7a7a"
       points="86.78,286.37 138.847,286.37 138.847,251.658 86.78,251.658 "
       id="polygon4"
       transform="matrix(0.0262837,0,0,0.0262837,-1.7517328,0.5291677)" /><rect
       style="fill:#5599ff;fill-opacity:1;stroke:none;stroke-width:0.797715;stroke-linecap:round;stroke-linejoin:round"
       id="rect2"
       width="6.4435291"
       height="2.3446293"
       x="2.1412737"
       y="1.6058613"
       ry="0.26458332"
       rx="0.26723316" /><path
       d="M 6.4755737,2.2065836 V 3.3465657 H 7.2848266 V 2.9765625 H 6.8858845 V 2.2065836 Z"
       style="font-size:1.59469px;font-family:'Futura XBlk BT';-inkscape-font-specification:'Futura XBlk BT';letter-spacing:0px;fill:#ffffff;stroke-width:0.448504;stroke-linecap:round;stroke-linejoin:round"
       id="path7" /><path
       d="m 5.8378865,2.2065836 v 1.1399821 h 0.416512 V 2.2065836 Z"
       style="font-size:1.59469px;font-family:'Futura XBlk BT';-inkscape-font-specification:'Futura XBlk BT';letter-spacing:0px;fill:#ffffff;stroke-width:0.448504;stroke-linecap:round;stroke-linejoin:round"
       id="path6" /><path
       d="m 5.069458,2.1807454 c -0.086171,0 -0.1665803,0.014855 -0.2408122,0.043925 -0.074232,0.02907 -0.1392711,0.071063 -0.1958537,0.1266072 -0.056063,0.055025 -0.099085,0.119045 -0.1286743,0.1917196 -0.02907,0.072156 -0.043408,0.1510282 -0.043408,0.2361613 0,0.084614 0.014338,0.1629723 0.043408,0.2351278 0.02907,0.072155 0.072092,0.136173 0.1286743,0.1922363 0.057102,0.056063 0.1221384,0.098571 0.1958537,0.1276408 0.074232,0.028551 0.1546408,0.042891 0.2408122,0.042891 0.1167984,0 0.2212776,-0.025607 0.3131591,-0.076998 0.091881,-0.05191 0.1666526,-0.1266841 0.2247925,-0.2242757 0.023879,-0.041529 0.042318,-0.089674 0.054777,-0.1436605 0.012459,-0.053987 0.018604,-0.1133931 0.018604,-0.1788004 0,-0.00883 -5.143e-4,-0.019069 -0.00103,-0.030489 -5.2e-4,-0.01142 -0.00103,-0.028833 -0.00207,-0.052193 H 5.0477539 v 0.2676839 h 0.1782836 c -0.00467,0.029589 -0.019524,0.053152 -0.044442,0.069763 -0.024398,0.016611 -0.056149,0.024805 -0.095601,0.024805 -0.066445,0 -0.1181752,-0.022022 -0.1545125,-0.066146 -0.036337,-0.044643 -0.05426,-0.1071243 -0.05426,-0.1875854 0,-0.077866 0.017926,-0.140352 0.053743,-0.1865519 0.036337,-0.046201 0.084992,-0.069246 0.1457276,-0.069246 0.03478,0 0.065508,0.0082 0.092501,0.023771 0.026993,0.015573 0.05004,0.039131 0.069246,0.070797 L 5.6037923,2.4825358 C 5.5461717,2.3839057 5.4719102,2.309132 5.3810668,2.2582601 5.2902236,2.2068688 5.1862564,2.1807454 5.069458,2.1807454 Z"
       style="font-size:1.59469px;font-family:'Futura XBlk BT';-inkscape-font-specification:'Futura XBlk BT';letter-spacing:0px;fill:#ffffff;stroke-width:0.448504;stroke-linecap:round;stroke-linejoin:round"
       id="path5" /><path
       d="m 4.051949,2.1791951 c -0.08669,0 -0.1676115,0.014855 -0.2423624,0.043925 -0.074232,0.028551 -0.1397879,0.070544 -0.1963705,0.1266073 -0.056063,0.055544 -0.098568,0.1200784 -0.1281575,0.192753 -0.02907,0.072675 -0.043925,0.151545 -0.043925,0.2366781 0,0.1152412 0.026123,0.2171577 0.077515,0.3059245 0.05191,0.088767 0.1282204,0.1620016 0.2289266,0.2201416 0.041528,0.022841 0.087618,0.040768 0.1390096,0.053227 0.051392,0.012459 0.1051698,0.018603 0.1607137,0.018603 0.044643,0 0.089199,-0.00461 0.133842,-0.013953 0.044643,-0.00882 0.089199,-0.022656 0.133842,-0.040824 l 0.013436,-0.4289144 c -0.048277,0.036856 -0.093349,0.064001 -0.1343587,0.081132 -0.04049,0.016611 -0.080437,0.024805 -0.1198893,0.024805 -0.065407,0 -0.1171302,-0.019973 -0.1560628,-0.059945 -0.038933,-0.039971 -0.058911,-0.093233 -0.058911,-0.1601969 0,-0.068522 0.020488,-0.1233218 0.060978,-0.1643311 0.041009,-0.041529 0.094783,-0.062528 0.1617472,-0.062528 0.043086,0 0.084574,0.00871 0.1235067,0.026355 0.038933,0.01765 0.07683,0.044797 0.1142049,0.080615 V 2.2370727 C 4.2770663,2.2178661 4.23302,2.2035253 4.187858,2.1941813 4.1432147,2.184318 4.098149,2.1791951 4.051949,2.1791951 Z"
       style="font-size:1.59469px;font-family:'Futura XBlk BT';-inkscape-font-specification:'Futura XBlk BT';letter-spacing:0px;fill:#ffffff;stroke-width:0.448504;stroke-linecap:round;stroke-linejoin:round"
       id="path4" /></g></svg>
