<?xml version="1.0" encoding="UTF-8" standalone="no"?>
<!-- Created with Inkscape (http://www.inkscape.org/) -->

<svg
   width="160"
   height="54"
   viewBox="0 0 42.333329 14.2875"
   version="1.1"
   id="svg1"
   inkscape:version="1.3.2 (091e20ef0f, 2023-11-25)"
   sodipodi:docname="road-logo-show.svg"
   xml:space="preserve"
   xmlns:inkscape="http://www.inkscape.org/namespaces/inkscape"
   xmlns:sodipodi="http://sodipodi.sourceforge.net/DTD/sodipodi-0.dtd"
   xmlns="http://www.w3.org/2000/svg"
   xmlns:svg="http://www.w3.org/2000/svg"><sodipodi:namedview
     id="namedview1"
     pagecolor="#ffffff"
     bordercolor="#000000"
     borderopacity="0.25"
     inkscape:showpageshadow="false"
     inkscape:pageopacity="0.0"
     inkscape:pagecheckerboard="0"
     inkscape:deskcolor="#d1d1d1"
     inkscape:document-units="px"
     inkscape:zoom="2.1398289"
     inkscape:cx="165.90112"
     inkscape:cy="160.52686"
     inkscape:window-width="2528"
     inkscape:window-height="1404"
     inkscape:window-x="2592"
     inkscape:window-y="0"
     inkscape:window-maximized="1"
     inkscape:current-layer="layer1" /><defs
     id="defs1"><inkscape:path-effect
   effect="fillet_chamfer"
   id="path-effect1"
   is_visible="true"
   lpeversion="1"
   nodesatellites_param="F,0,0,1,0,16.416105,0,1 @ F,0,0,1,0,17.56708,0,1 @ F,0,0,1,0,16.166174,0,1 @ F,0,0,1,0,12.027104,0,1"
   radius="0"
   unit="px"
   method="auto"
   mode="F"
   chamfer_steps="1"
   flexible="false"
   use_knot_distance="true"
   apply_no_radius="true"
   apply_with_radius="true"
   only_selected="false"
   hide_knots="false" />
	
	
	
	
	

		
		
	<style
   id="style1">.cls-1{fill:#ffffff;}.cls-2{fill:#e5e5e5;}.cls-3{fill:#426572;}.cls-4{fill:#fbc907;}.cls-5{fill:#f3a70f;}.cls-6{fill:#f9f9f9;}.cls-7{opacity:0.5;}.cls-8{fill:#7490a8;}</style><style
   id="style1-0">.cls-1{fill:#ffffff;}.cls-2{fill:#e5e5e5;}.cls-3{fill:#426572;}.cls-4{fill:#fbc907;}.cls-5{fill:#f3a70f;}.cls-6{fill:#f9f9f9;}.cls-7{opacity:0.5;}.cls-8{fill:#7490a8;}</style><style
   id="style1-1">.cls-1{fill:#ffffff;}.cls-2{fill:#e5e5e5;}.cls-3{fill:#426572;}.cls-4{fill:#fbc907;}.cls-5{fill:#f3a70f;}.cls-6{fill:#f9f9f9;}.cls-7{opacity:0.5;}.cls-8{fill:#7490a8;}</style><inkscape:path-effect
   effect="fillet_chamfer"
   id="path-effect1-6"
   is_visible="true"
   lpeversion="1"
   nodesatellites_param="F,0,0,1,0,16.416105,0,1 @ F,0,0,1,0,17.56708,0,1 @ F,0,0,1,0,16.166174,0,1 @ F,0,0,1,0,12.027104,0,1"
   radius="0"
   unit="px"
   method="auto"
   mode="F"
   chamfer_steps="1"
   flexible="false"
   use_knot_distance="true"
   apply_no_radius="true"
   apply_with_radius="true"
   only_selected="false"
   hide_knots="false" /></defs><g
     inkscape:label="Livello 1"
     inkscape:groupmode="layer"
     id="layer1"><path
       id="path36"
       style="font-weight:bold;font-size:7.52446px;font-family:'Roboto Condensed';-inkscape-font-specification:'Roboto Condensed,  Bold';letter-spacing:0px;fill:#0d7474;stroke-width:2.11626;stroke-linecap:round;stroke-linejoin:round"
       d="m 37.348087,5.7329833 c -0.489873,0 -0.880547,0.1665973 -1.172021,0.499711 -0.289025,0.3306645 -0.433049,0.8083992 -0.433049,1.4329875 V 7.926131 c 0,0.6245883 0.145709,1.102323 0.437183,1.4329874 0.291474,0.3306644 0.683316,0.4960938 1.175639,0.4960938 0.489873,0 0.879379,-0.1654294 1.168404,-0.4960938 C 38.815718,9.028454 38.961425,8.5507193 38.961425,7.926131 V 7.6656818 c 0,-0.6245883 -0.145707,-1.102323 -0.437182,-1.4329875 -0.289025,-0.3331137 -0.681384,-0.499711 -1.176156,-0.499711 z m 0,0.8635131 c 0.382101,0 0.573609,0.3564199 0.573609,1.0691854 v 0.326595 c -0.01225,0.6662276 -0.200902,0.9994222 -0.565857,0.9994222 -0.382102,0 -0.573092,-0.3552519 -0.573092,-1.065568 V 7.5995359 c 0.01225,-0.6686768 0.200385,-1.0030395 0.56534,-1.0030395 z" /><path
       id="path32"
       style="font-weight:bold;font-size:7.52446px;font-family:'Roboto Condensed';-inkscape-font-specification:'Roboto Condensed,  Bold';letter-spacing:0px;fill:#0d7474;stroke-width:2.11626;stroke-linecap:round;stroke-linejoin:round"
       d="m 27.692863,5.7329833 c -0.489874,0 -0.880547,0.1665973 -1.172022,0.499711 -0.289025,0.3306645 -0.433565,0.8083992 -0.433565,1.4329875 V 7.926131 c 0,0.6245883 0.145708,1.102323 0.437183,1.4329874 0.291474,0.3306644 0.683316,0.4960938 1.175639,0.4960938 0.489872,0 0.879378,-0.1654294 1.168404,-0.4960938 C 29.159976,9.028454 29.305684,8.5507193 29.305684,7.926131 V 7.6656818 c 0,-0.6245883 -0.145708,-1.102323 -0.437182,-1.4329875 -0.289026,-0.3331137 -0.680868,-0.499711 -1.175639,-0.499711 z m 0,0.8635131 c 0.382101,0 0.573091,0.3564199 0.573091,1.0691854 v 0.326595 c -0.01225,0.6662276 -0.200901,0.9994222 -0.565856,0.9994222 -0.382101,0 -0.573092,-0.3552519 -0.573092,-1.065568 V 7.5995359 c 0.01225,-0.6686768 0.200901,-1.0030395 0.565857,-1.0030395 z" /><path
       id="path28"
       style="font-weight:bold;font-size:7.52446px;font-family:'Roboto Condensed';-inkscape-font-specification:'Roboto Condensed,  Bold';letter-spacing:0px;fill:#0d7474;stroke-width:2.11626;stroke-linecap:round;stroke-linejoin:round"
       d="m 18.213855,5.7329833 c -0.499671,0 -0.890344,0.1665973 -1.172021,0.499711 -0.279228,0.3306645 -0.418579,0.8177431 -0.418579,1.4619263 v 0.3271118 c 0,0.575601 0.146876,1.0249218 0.4408,1.3482381 0.296373,0.3233163 0.714944,0.4852417 1.256254,0.4852417 0.340462,0 0.623702,-0.063836 0.849043,-0.1912028 0.227791,-0.127367 0.393871,-0.2620465 0.499195,-0.4041097 L 19.257202,8.6315143 c -0.227791,0.2400379 -0.516871,0.3601847 -0.86713,0.3601847 -0.222892,0 -0.396498,-0.062151 -0.521415,-0.1870687 -0.122469,-0.127367 -0.189809,-0.3491074 -0.202055,-0.6650757 h 2.060856 V 7.6284747 C 19.722559,6.9965383 19.594237,6.5228243 19.341952,6.2068561 19.089667,5.8908879 18.713526,5.7329833 18.213855,5.7329833 Z m -0.0036,0.8635131 c 0.181253,0 0.308408,0.060983 0.381889,0.1834513 0.07348,0.120019 0.112923,0.2999809 0.117822,0.5400188 v 0.091984 h -1.03973 c 0.0147,-0.2865758 0.06231,-0.4937836 0.143144,-0.6211507 0.08328,-0.1298163 0.215622,-0.1943034 0.396875,-0.1943034 z" /><path
       id="text27"
       style="font-weight:bold;font-size:7.52446px;font-family:'Roboto Condensed';-inkscape-font-specification:'Roboto Condensed,  Bold';letter-spacing:0px;fill:#0d7474;stroke-width:2.11626;stroke-linecap:round;stroke-linejoin:round"
       d="m 12.533582,4.4322875 v 5.3495441 h 1.084171 V 7.9008095 h 0.752926 c 0.536411,-0.00245 0.957834,-0.15685 1.264005,-0.4630208 0.308621,-0.3061707 0.463021,-0.7177337 0.463021,-1.2345499 0,-0.5119175 -0.155568,-0.9345091 -0.466638,-1.2676229 -0.30862,-0.3355632 -0.73238,-0.5033284 -1.27124,-0.5033284 z m 1.084171,0.9002034 h 0.742074 c 0.225342,0 0.388435,0.089397 0.488859,0.2682007 0.102873,0.1763544 0.153996,0.3795415 0.153996,0.6097819 0,0.2302404 -0.05112,0.4200629 -0.153996,0.5694742 -0.100424,0.146962 -0.263517,0.2206584 -0.488859,0.2206584 h -0.742074 z" /><path
       style="font-weight:bold;font-size:7.52446px;font-family:'Roboto Condensed';-inkscape-font-specification:'Roboto Condensed,  Bold';letter-spacing:0px;fill:#0d7474;stroke-width:2.11626;stroke-linecap:round;stroke-linejoin:round"
       d="m 34.203349,8.7162439 q 0,-0.1543102 -0.157984,-0.2718799 -0.157984,-0.1175696 -0.529064,-0.279228 -0.543759,-0.213095 -0.837684,-0.4849749 -0.29025,-0.2718799 -0.29025,-0.7495068 0,-0.4959971 0.363731,-0.8450321 0.363732,-0.352709 1.010365,-0.352709 0.668677,0 1.054453,0.3453609 0.385776,0.3416869 0.385776,0.9001429 h -1.039757 q 0,-0.488649 -0.404146,-0.488649 -0.374754,0 -0.374754,0.3894496 0,0.1543102 0.143289,0.2608577 0.146962,0.1065476 0.529063,0.2645318 0.595197,0.2241173 0.874425,0.4996712 0.282902,0.2755539 0.282902,0.767877 0,0.5290636 -0.393124,0.8560543 -0.393124,0.3269907 -1.058127,0.3269907 -0.720114,0 -1.102216,-0.4078199 Q 32.28182,9.0358865 32.28182,8.5509116 h 0.984646 q 0.0073,0.3233166 0.150636,0.4335382 0.143288,0.1102216 0.367405,0.1102216 0.418842,0 0.418842,-0.3784275 z"
       id="path35" /><path
       style="font-weight:bold;font-size:7.52446px;font-family:'Roboto Condensed';-inkscape-font-specification:'Roboto Condensed,  Bold';letter-spacing:0px;fill:#0d7474;stroke-width:2.11626;stroke-linecap:round;stroke-linejoin:round"
       d="m 31.569053,6.7800182 q -0.433538,0 -0.5805,0.3710793 v 2.6306217 h -1.039757 v -3.975325 h 0.980972 l 0.02939,0.4298642 q 0.249836,-0.5033452 0.6797,-0.5033452 0.169006,0 0.282902,0.044089 L 31.91074,6.809411 Q 31.727037,6.780019 31.569053,6.7800182 Z"
       id="path34" /><path
       style="font-weight:bold;font-size:7.52446px;font-family:'Roboto Condensed';-inkscape-font-specification:'Roboto Condensed,  Bold';letter-spacing:0px;fill:#0d7474;stroke-width:2.11626;stroke-linecap:round;stroke-linejoin:round"
       d="m 24.184208,8.9917979 q 0.455582,0 0.455582,-0.5878484 h 0.977298 q -0.0037,0.6796997 -0.411494,1.0654752 -0.404146,0.3857756 -1.003016,0.3857756 -0.793596,0 -1.183045,-0.4923231 -0.38945,-0.4959971 -0.396798,-1.392466 V 7.6507687 q 0,-0.9111651 0.38945,-1.4145103 0.389449,-0.5033452 1.186719,-0.5033452 0.639285,0 1.02506,0.3967977 0.38945,0.3967977 0.393124,1.1610006 H 24.63979 q 0,-0.6943959 -0.462931,-0.6943959 -0.341686,0 -0.429864,0.2718799 -0.0845,0.2718798 -0.0845,0.7825732 v 0.2865761 q 0,0.5253895 0.0845,0.7899213 0.0845,0.2645318 0.437213,0.2645318 z"
       id="path31" /><path
       style="font-weight:bold;font-size:7.52446px;font-family:'Roboto Condensed';-inkscape-font-specification:'Roboto Condensed,  Bold';letter-spacing:0px;fill:#0d7474;stroke-width:2.11626;stroke-linecap:round;stroke-linejoin:round"
       d="m 21.939361,6.7800182 q -0.433538,0 -0.5805,0.3710793 v 2.6306217 h -1.039757 v -3.975325 h 0.980972 l 0.02939,0.4298642 q 0.249835,-0.5033452 0.679699,-0.5033452 0.169007,0 0.282902,0.044089 L 22.281047,6.809411 Q 22.097346,6.780018 21.939361,6.7800182 Z"
       id="path30" /><g
       id="g37"
       transform="translate(-13.692377,-35.32898)"><polygon
         style="fill:#464f5d"
         points="190.915,130.169 190.915,503.322 416.542,503.322 416.542,0 190.915,0 190.915,60.746 260.339,60.746 260.339,130.169 "
         id="polygon1-2"
         transform="matrix(0.0262837,0,0,0.0262837,11.940645,35.858147)" /><path
         style="fill:#ffffff;stroke-width:0.0262837"
         d="m 19.923767,38.741994 c -0.126135,0 -0.22809,-0.101954 -0.22809,-0.22809 v -0.879741 c 0,-0.126136 0.101955,-0.22809 0.22809,-0.22809 0.126136,0 0.22809,0.101954 0.22809,0.22809 v 0.879741 c 0,0.126136 -0.101954,0.22809 -0.22809,0.22809 m 0,2.199447 c -0.126135,0 -0.22809,-0.102192 -0.22809,-0.22809 v -0.879979 c 0,-0.126135 0.101955,-0.22809 0.22809,-0.22809 0.126136,0 0.22809,0.101955 0.22809,0.22809 v 0.879979 c 0,0.125925 -0.101954,0.22809 -0.22809,0.22809 m 0,2.199236 c -0.126135,0 -0.22809,-0.101955 -0.22809,-0.22809 v -0.879506 c 0,-0.126135 0.101955,-0.22809 0.22809,-0.22809 0.126136,0 0.22809,0.101955 0.22809,0.22809 v 0.879506 c 0,0.126135 -0.101954,0.22809 -0.22809,0.22809 m 0,2.199709 c -0.126135,0 -0.22809,-0.102191 -0.22809,-0.22809 v -0.879979 c 0,-0.125898 0.101955,-0.228089 0.22809,-0.228089 0.126136,0 0.22809,0.102191 0.22809,0.228089 v 0.879979 c 0,0.125899 -0.101954,0.22809 -0.22809,0.22809 m 0,2.199236 c -0.126135,0 -0.22809,-0.101955 -0.22809,-0.22809 V 46.43179 c 0,-0.126135 0.101955,-0.22809 0.22809,-0.22809 0.126136,0 0.22809,0.101955 0.22809,0.22809 v 0.879742 c 0,0.126135 -0.101954,0.22809 -0.22809,0.22809"
         id="path1-0" /><path
         style="fill:#95a5a5;stroke-width:0.0262837"
         d="m 14.905815,42.700819 c -0.126136,0 -0.22809,-0.101955 -0.22809,-0.22809 V 39.50756 c 0,-0.126136 0.101954,-0.22809 0.22809,-0.22809 0.126135,0 0.22809,0.101954 0.22809,0.22809 v 2.965169 c 0,0.126135 -0.101981,0.22809 -0.22809,0.22809"
         id="path2-6" /><path
         style="fill:#95a5a5;stroke-width:0.0262837"
         d="m 14.905815,39.735649 c -0.126136,0 -0.22809,-0.101954 -0.22809,-0.228089 0,-0.754737 0.613776,-1.36854 1.368539,-1.36854 0.126136,0 0.22809,0.101954 0.22809,0.22809 0,0.126135 -0.101954,0.22809 -0.22809,0.22809 -0.503175,0 -0.912359,0.409184 -0.912359,0.91236 0,0.126135 -0.101981,0.228089 -0.22809,0.228089"
         id="path3-1" /><polygon
         style="fill:#6e7a7a"
         points="86.78,286.37 138.847,286.37 138.847,251.658 86.78,251.658 "
         id="polygon4-5"
         transform="matrix(0.0262837,0,0,0.0262837,11.940645,35.858147)" /><rect
         style="fill:#5599ff;fill-opacity:1;stroke:none;stroke-width:0.797715;stroke-linecap:round;stroke-linejoin:round"
         id="rect2-5"
         width="6.4435291"
         height="2.3446293"
         x="15.833652"
         y="36.934841"
         ry="0.26458332"
         rx="0.26723316" /><path
         d="m 20.167952,37.535563 v 1.139982 h 0.809253 v -0.370004 h -0.398943 v -0.769978 z"
         style="font-size:1.59469px;font-family:'Futura XBlk BT';-inkscape-font-specification:'Futura XBlk BT';letter-spacing:0px;fill:#ffffff;stroke-width:0.448504;stroke-linecap:round;stroke-linejoin:round"
         id="path7-4" /><path
         d="m 19.530264,37.535563 v 1.139982 h 0.416512 v -1.139982 z"
         style="font-size:1.59469px;font-family:'Futura XBlk BT';-inkscape-font-specification:'Futura XBlk BT';letter-spacing:0px;fill:#ffffff;stroke-width:0.448504;stroke-linecap:round;stroke-linejoin:round"
         id="path6-76" /><path
         d="m 18.761836,37.509724 c -0.08617,0 -0.16658,0.01486 -0.240812,0.04393 -0.07423,0.02907 -0.139271,0.07106 -0.195854,0.126608 -0.05606,0.05503 -0.09908,0.119045 -0.128674,0.191719 -0.02907,0.07216 -0.04341,0.151028 -0.04341,0.236161 0,0.08461 0.01434,0.162973 0.04341,0.235128 0.02907,0.07215 0.07209,0.136173 0.128674,0.192237 0.0571,0.05606 0.122138,0.09857 0.195854,0.12764 0.07423,0.02855 0.154641,0.04289 0.240812,0.04289 0.116798,0 0.221278,-0.02561 0.313159,-0.077 0.09188,-0.05191 0.166653,-0.126684 0.224793,-0.224275 0.02388,-0.04153 0.04232,-0.08967 0.05478,-0.143661 0.01246,-0.05399 0.0186,-0.113393 0.0186,-0.1788 0,-0.0088 -5.15e-4,-0.01907 -0.001,-0.03049 -5.2e-4,-0.01142 -10e-4,-0.02883 -0.0021,-0.05219 h -0.629937 v 0.267684 h 0.178284 c -0.0047,0.02959 -0.01952,0.05315 -0.04444,0.06976 -0.0244,0.01661 -0.05615,0.02481 -0.0956,0.02481 -0.06644,0 -0.118175,-0.02202 -0.154512,-0.06615 -0.03634,-0.04464 -0.05426,-0.107125 -0.05426,-0.187586 0,-0.07787 0.01793,-0.140352 0.05374,-0.186552 0.03634,-0.0462 0.08499,-0.06925 0.145728,-0.06925 0.03478,0 0.06551,0.0082 0.0925,0.02377 0.02699,0.01557 0.05004,0.03913 0.06925,0.0708 l 0.365352,-0.135392 c -0.05762,-0.09863 -0.131882,-0.173404 -0.222725,-0.224276 -0.09084,-0.05139 -0.194811,-0.07751 -0.311609,-0.07751 z"
         style="font-size:1.59469px;font-family:'Futura XBlk BT';-inkscape-font-specification:'Futura XBlk BT';letter-spacing:0px;fill:#ffffff;stroke-width:0.448504;stroke-linecap:round;stroke-linejoin:round"
         id="path5-5" /><path
         d="m 17.744327,37.508174 c -0.08669,0 -0.167612,0.01486 -0.242362,0.04393 -0.07423,0.02855 -0.139788,0.07054 -0.196371,0.126607 -0.05606,0.05554 -0.09857,0.120079 -0.128157,0.192753 -0.02907,0.07267 -0.04393,0.151545 -0.04393,0.236678 0,0.115242 0.02612,0.217158 0.07752,0.305925 0.05191,0.08877 0.12822,0.162002 0.228926,0.220142 0.04153,0.02284 0.08762,0.04077 0.13901,0.05323 0.05139,0.01246 0.10517,0.0186 0.160713,0.0186 0.04464,0 0.0892,-0.0046 0.133842,-0.01395 0.04464,-0.0088 0.0892,-0.02266 0.133842,-0.04082 l 0.01344,-0.428915 c -0.04828,0.03686 -0.09335,0.064 -0.134358,0.08113 -0.04049,0.01661 -0.08044,0.02481 -0.11989,0.02481 -0.06541,0 -0.11713,-0.01997 -0.156062,-0.05994 -0.03893,-0.03997 -0.05891,-0.09323 -0.05891,-0.160197 0,-0.06852 0.02049,-0.123322 0.06098,-0.164331 0.04101,-0.04153 0.09478,-0.06253 0.161747,-0.06253 0.04309,0 0.08457,0.0087 0.123507,0.02635 0.03893,0.01765 0.07683,0.0448 0.114204,0.08062 V 37.56607 c -0.04257,-0.01921 -0.08661,-0.03355 -0.131775,-0.04289 -0.04464,-0.0099 -0.08971,-0.01499 -0.135909,-0.01499 z"
         style="font-size:1.59469px;font-family:'Futura XBlk BT';-inkscape-font-specification:'Futura XBlk BT';letter-spacing:0px;fill:#ffffff;stroke-width:0.448504;stroke-linecap:round;stroke-linejoin:round"
         id="path4-6" /></g></g></svg>
