<?xml version="1.0" encoding="UTF-8" standalone="no"?>
<!-- Created with Inkscape (http://www.inkscape.org/) -->

<svg
   width="280"
   height="54"
   viewBox="0 0 74.083326 14.2875"
   version="1.1"
   id="svg1"
   inkscape:version="1.3.2 (091e20ef0f, 2023-11-25)"
   sodipodi:docname="road-logo-new.svg"
   xml:space="preserve"
   xmlns:inkscape="http://www.inkscape.org/namespaces/inkscape"
   xmlns:sodipodi="http://sodipodi.sourceforge.net/DTD/sodipodi-0.dtd"
   xmlns="http://www.w3.org/2000/svg"
   xmlns:svg="http://www.w3.org/2000/svg"><sodipodi:namedview
     id="namedview1"
     pagecolor="#ffffff"
     bordercolor="#000000"
     borderopacity="0.25"
     inkscape:showpageshadow="false"
     inkscape:pageopacity="0.0"
     inkscape:pagecheckerboard="0"
     inkscape:deskcolor="#d1d1d1"
     inkscape:document-units="px"
     inkscape:zoom="2.1398289"
     inkscape:cx="-60.752521"
     inkscape:cy="36.685176"
     inkscape:window-width="2528"
     inkscape:window-height="1404"
     inkscape:window-x="2592"
     inkscape:window-y="0"
     inkscape:window-maximized="1"
     inkscape:current-layer="layer1" /><defs
     id="defs1"><inkscape:path-effect
   effect="fillet_chamfer"
   id="path-effect1"
   is_visible="true"
   lpeversion="1"
   nodesatellites_param="F,0,0,1,0,16.416105,0,1 @ F,0,0,1,0,17.56708,0,1 @ F,0,0,1,0,16.166174,0,1 @ F,0,0,1,0,12.027104,0,1"
   radius="0"
   unit="px"
   method="auto"
   mode="F"
   chamfer_steps="1"
   flexible="false"
   use_knot_distance="true"
   apply_no_radius="true"
   apply_with_radius="true"
   only_selected="false"
   hide_knots="false" />
	
	
	
	
	

		
		
	<style
   id="style1">.cls-1{fill:#ffffff;}.cls-2{fill:#e5e5e5;}.cls-3{fill:#426572;}.cls-4{fill:#fbc907;}.cls-5{fill:#f3a70f;}.cls-6{fill:#f9f9f9;}.cls-7{opacity:0.5;}.cls-8{fill:#7490a8;}</style><style
   id="style1-0">.cls-1{fill:#ffffff;}.cls-2{fill:#e5e5e5;}.cls-3{fill:#426572;}.cls-4{fill:#fbc907;}.cls-5{fill:#f3a70f;}.cls-6{fill:#f9f9f9;}.cls-7{opacity:0.5;}.cls-8{fill:#7490a8;}</style></defs><g
     inkscape:label="Livello 1"
     inkscape:groupmode="layer"
     id="layer1"><path
       id="path36"
       style="font-weight:bold;font-size:7.52446px;font-family:'Roboto Condensed';-inkscape-font-specification:'Roboto Condensed,  Bold';letter-spacing:0px;fill:#0d7474;stroke-width:2.11626;stroke-linecap:round;stroke-linejoin:round"
       d="m 67.510606,5.7329833 c -0.489873,0 -0.880547,0.1665973 -1.172021,0.499711 -0.289025,0.3306645 -0.433049,0.8083992 -0.433049,1.4329875 V 7.926131 c 0,0.6245883 0.145709,1.102323 0.437183,1.4329874 0.291474,0.3306644 0.683316,0.4960938 1.175639,0.4960938 0.489873,0 0.879379,-0.1654294 1.168404,-0.4960938 C 68.978237,9.028454 69.123944,8.5507193 69.123944,7.926131 V 7.6656818 c 0,-0.6245883 -0.145707,-1.102323 -0.437182,-1.4329875 -0.289025,-0.3331137 -0.681384,-0.499711 -1.176156,-0.499711 z m 0,0.8635131 c 0.382101,0 0.573609,0.3564199 0.573609,1.0691854 v 0.326595 c -0.01225,0.6662276 -0.200902,0.9994222 -0.565857,0.9994222 -0.382102,0 -0.573092,-0.3552519 -0.573092,-1.065568 V 7.5995359 c 0.01225,-0.6686768 0.200385,-1.0030395 0.56534,-1.0030395 z" /><path
       id="path32"
       style="font-weight:bold;font-size:7.52446px;font-family:'Roboto Condensed';-inkscape-font-specification:'Roboto Condensed,  Bold';letter-spacing:0px;fill:#0d7474;stroke-width:2.11626;stroke-linecap:round;stroke-linejoin:round"
       d="m 57.855382,5.7329833 c -0.489874,0 -0.880547,0.1665973 -1.172022,0.499711 -0.289025,0.3306645 -0.433565,0.8083992 -0.433565,1.4329875 V 7.926131 c 0,0.6245883 0.145708,1.102323 0.437183,1.4329874 0.291474,0.3306644 0.683316,0.4960938 1.175639,0.4960938 0.489872,0 0.879378,-0.1654294 1.168404,-0.4960938 C 59.322495,9.028454 59.468203,8.5507193 59.468203,7.926131 V 7.6656818 c 0,-0.6245883 -0.145708,-1.102323 -0.437182,-1.4329875 -0.289026,-0.3331137 -0.680868,-0.499711 -1.175639,-0.499711 z m 0,0.8635131 c 0.382101,0 0.573091,0.3564199 0.573091,1.0691854 v 0.326595 c -0.01225,0.6662276 -0.200901,0.9994222 -0.565856,0.9994222 -0.382101,0 -0.573092,-0.3552519 -0.573092,-1.065568 V 7.5995359 c 0.01225,-0.6686768 0.200901,-1.0030395 0.565857,-1.0030395 z" /><path
       id="path28"
       style="font-weight:bold;font-size:7.52446px;font-family:'Roboto Condensed';-inkscape-font-specification:'Roboto Condensed,  Bold';letter-spacing:0px;fill:#0d7474;stroke-width:2.11626;stroke-linecap:round;stroke-linejoin:round"
       d="m 48.376374,5.7329833 c -0.499671,0 -0.890344,0.1665973 -1.172021,0.499711 -0.279228,0.3306645 -0.418579,0.8177431 -0.418579,1.4619263 v 0.3271118 c 0,0.575601 0.146876,1.0249218 0.4408,1.3482381 0.296373,0.3233163 0.714944,0.4852417 1.256254,0.4852417 0.340462,0 0.623702,-0.063836 0.849043,-0.1912028 0.227791,-0.127367 0.393871,-0.2620465 0.499195,-0.4041097 L 49.419721,8.6315143 C 49.19193,8.8715522 48.90285,8.991699 48.552591,8.991699 c -0.222892,0 -0.396498,-0.062151 -0.521415,-0.1870687 -0.122469,-0.127367 -0.189809,-0.3491074 -0.202055,-0.6650757 h 2.060856 V 7.6284747 C 49.885078,6.9965383 49.756756,6.5228243 49.504471,6.2068561 49.252186,5.8908879 48.876045,5.7329833 48.376374,5.7329833 Z m -0.0036,0.8635131 c 0.181253,0 0.308408,0.060983 0.381889,0.1834513 0.07348,0.120019 0.112923,0.2999809 0.117822,0.5400188 v 0.091984 h -1.03973 c 0.0147,-0.2865758 0.06231,-0.4937836 0.143144,-0.6211507 0.08328,-0.1298163 0.215622,-0.1943034 0.396875,-0.1943034 z" /><path
       id="text27"
       style="font-weight:bold;font-size:7.52446px;font-family:'Roboto Condensed';-inkscape-font-specification:'Roboto Condensed,  Bold';letter-spacing:0px;fill:#0d7474;stroke-width:2.11626;stroke-linecap:round;stroke-linejoin:round"
       d="m 42.696101,4.4322875 v 5.3495441 h 1.084171 V 7.9008095 h 0.752926 c 0.536411,-0.00245 0.957834,-0.15685 1.264005,-0.4630208 0.308621,-0.3061707 0.463021,-0.7177337 0.463021,-1.2345499 0,-0.5119175 -0.155568,-0.9345091 -0.466638,-1.2676229 -0.30862,-0.3355632 -0.73238,-0.5033284 -1.27124,-0.5033284 z m 1.084171,0.9002034 h 0.742074 c 0.225342,0 0.388435,0.089397 0.488859,0.2682007 0.102873,0.1763544 0.153996,0.3795415 0.153996,0.6097819 0,0.2302404 -0.05112,0.4200629 -0.153996,0.5694742 -0.100424,0.146962 -0.263517,0.2206584 -0.488859,0.2206584 h -0.742074 z" /><g
       id="g27"
       transform="translate(27.204097,27.277923)"><path
         d="m 5.88167,-21.471559 1.090889,3.975467 H 7.968364 L 9.05977,-21.471559 H 7.975599 l -0.499712,2.502172 -0.506945,-2.502172 z"
         style="font-weight:bold;font-size:7.52446px;font-family:'Roboto Condensed';-inkscape-font-specification:'Roboto Condensed,  Bold';letter-spacing:0px;fill:#1d9c22;stroke-width:2.11625;stroke-linecap:square;stroke-linejoin:round"
         id="path66" /><path
         d="m -1.249678,-21.471559 v 2.571936 c 0,0.524164 0.102761,0.901473 0.308508,1.131713 0.205747,0.230241 0.47277,0.345199 0.800985,0.345199 0.364956,0 0.655203,-0.146876 0.870748,-0.4408 l 0.02584,0.367419 h 0.977201 v -3.975467 H 0.690257 v 2.869592 c -0.105322,0.205747 -0.278277,0.308508 -0.518314,0.308508 -0.254735,0 -0.381889,-0.202019 -0.381889,-0.606164 v -2.571937 z"
         style="font-weight:bold;font-size:7.52446px;font-family:'Roboto Condensed';-inkscape-font-specification:'Roboto Condensed,  Bold';letter-spacing:0px;fill:#1d9c22;stroke-width:2.11625;stroke-linecap:square;stroke-linejoin:round"
         id="path65" /><path
         d="m 10.977482,-21.54494 c -0.489872,0 -0.880546,0.166597 -1.172021,0.499711 -0.289025,0.330664 -0.433565,0.808399 -0.433565,1.432988 v 0.260449 c 0,0.624588 0.145708,1.102323 0.437182,1.432987 0.291475,0.330665 0.683317,0.496094 1.175639,0.496094 0.489874,0 0.879379,-0.165429 1.168404,-0.496094 0.291475,-0.330664 0.437183,-0.808399 0.437183,-1.432987 v -0.260449 c 0,-0.624589 -0.145708,-1.102324 -0.437183,-1.432988 -0.289025,-0.333114 -0.680866,-0.499711 -1.175639,-0.499711 z m 0,0.863513 c 0.382101,0 0.573092,0.35642 0.573092,1.069186 v 0.326595 c -0.01225,0.666227 -0.200901,0.999422 -0.565857,0.999422 -0.382101,0 -0.573091,-0.355252 -0.573091,-1.065568 v -0.326595 c 0.01225,-0.668677 0.200901,-1.00304 0.565856,-1.00304 z"
         style="font-weight:bold;font-size:7.52446px;font-family:'Roboto Condensed';-inkscape-font-specification:'Roboto Condensed,  Bold';letter-spacing:0px;fill:#1d9c22;stroke-width:2.11625;stroke-linecap:square;stroke-linejoin:round"
         id="path64" /><path
         d="m 3.963957,-21.54494 c -0.489873,0 -0.881064,0.166597 -1.172538,0.499711 -0.289025,0.330664 -0.433049,0.808399 -0.433049,1.432988 v 0.260449 c 0,0.624588 0.145709,1.102323 0.437183,1.432987 0.291474,0.330665 0.683316,0.496094 1.175639,0.496094 0.489873,0 0.879378,-0.165429 1.168404,-0.496094 0.291474,-0.330664 0.437183,-0.808399 0.437183,-1.432987 v -0.260449 c 0,-0.624589 -0.145709,-1.102324 -0.437183,-1.432988 C 4.85057,-21.378343 4.458729,-21.54494 3.963957,-21.54494 Z m 0,0.863513 c 0.382101,0 0.573092,0.35642 0.573092,1.069186 v 0.326595 c -0.01225,0.666227 -0.200901,0.999422 -0.565857,0.999422 -0.382101,0 -0.573092,-0.355252 -0.573092,-1.065568 v -0.326595 c 0.012247,-0.668677 0.200902,-1.00304 0.565857,-1.00304 z"
         style="font-weight:bold;font-size:7.52446px;font-family:'Roboto Condensed';-inkscape-font-specification:'Roboto Condensed,  Bold';letter-spacing:0px;fill:#1d9c22;stroke-width:2.11625;stroke-linecap:square;stroke-linejoin:round"
         id="path63" /><path
         d="m -5.783768,-22.845636 v 5.349544 h 1.084171 v -3.508829 l 1.579749,3.508829 h 1.080037 v -5.349544 h -1.080037 v 3.512447 l -1.579749,-3.512447 z"
         style="font-weight:bold;font-size:7.52446px;font-family:'Roboto Condensed';-inkscape-font-specification:'Roboto Condensed,  Bold';letter-spacing:0px;fill:#1d9c22;stroke-width:2.11625;stroke-linecap:square;stroke-linejoin:round"
         id="path62" /></g><g
       id="g26"
       transform="matrix(0.81818973,0,0,0.81818973,1.0381667,1.2051902)"><polygon
         style="fill:#464f5d"
         points="190.915,60.746 260.339,60.746 260.339,130.169 190.915,130.169 190.915,503.322 416.542,503.322 416.542,0 190.915,0 "
         id="polygon1"
         transform="matrix(0.0262837,0,0,0.0262837,-1.7517328,0.5291677)" /><path
         style="fill:#ffffff;stroke-width:0.0262837"
         d="m 6.2313891,3.4130153 c -0.1261355,0 -0.2280899,-0.1019545 -0.2280899,-0.22809 V 2.3051836 c 0,-0.1261355 0.1019544,-0.22809 0.2280899,-0.22809 0.1261355,0 0.22809,0.1019545 0.22809,0.22809 v 0.8797417 c 0,0.1261355 -0.1019545,0.22809 -0.22809,0.22809 m 0,2.1994463 c -0.1261355,0 -0.2280899,-0.1021911 -0.2280899,-0.22809 V 4.5043933 c 0,-0.1261354 0.1019544,-0.2280899 0.2280899,-0.2280899 0.1261355,0 0.22809,0.1019545 0.22809,0.2280899 v 0.8799783 c 0,0.1259252 -0.1019545,0.22809 -0.22809,0.22809 m 0,2.199236 c -0.1261355,0 -0.2280899,-0.1019545 -0.2280899,-0.22809 V 6.7041025 c 0,-0.1261355 0.1019544,-0.22809 0.2280899,-0.22809 0.1261355,0 0.22809,0.1019545 0.22809,0.22809 v 0.8795051 c 0,0.1261355 -0.1019545,0.22809 -0.22809,0.22809 m 0,2.1997094 c -0.1261355,0 -0.2280899,-0.1021913 -0.2280899,-0.2280902 V 8.9033385 c 0,-0.1258989 0.1019544,-0.2280899 0.2280899,-0.2280899 0.1261355,0 0.22809,0.102191 0.22809,0.2280899 v 0.8799783 c 0,0.1258989 -0.1019545,0.2280902 -0.22809,0.2280902 m 0,2.199236 c -0.1261355,0 -0.2280899,-0.101955 -0.2280899,-0.22809 v -0.879742 c 0,-0.126135 0.1019544,-0.22809 0.2280899,-0.22809 0.1261355,0 0.22809,0.101955 0.22809,0.22809 v 0.879742 c 0,0.126135 -0.1019545,0.22809 -0.22809,0.22809"
         id="path1" /><path
         style="fill:#95a5a5;stroke-width:0.0262837"
         d="m 1.2134365,7.3718399 c -0.1261354,0 -0.22808992,-0.1019545 -0.22808992,-0.22809 V 4.1785806 c 0,-0.1261355 0.10195452,-0.22809 0.22808992,-0.22809 0.1261355,0 0.22809,0.1019545 0.22809,0.22809 v 2.9651693 c 0,0.1261355 -0.1019808,0.22809 -0.22809,0.22809"
         id="path2" /><path
         style="fill:#95a5a5;stroke-width:0.0262837"
         d="m 1.2134365,4.4066705 c -0.1261354,0 -0.22808992,-0.1019544 -0.22808992,-0.2280899 0,-0.7547365 0.61377692,-1.3685397 1.36853972,-1.3685397 0.1261355,0 0.2280899,0.1019545 0.2280899,0.22809 0,0.1261354 -0.1019544,0.2280899 -0.2280899,0.2280899 -0.5031752,0 -0.9123598,0.4091846 -0.9123598,0.9123598 0,0.1261355 -0.1019808,0.2280899 -0.22809,0.2280899"
         id="path3" /><polygon
         style="fill:#6e7a7a"
         points="138.847,286.37 138.847,251.658 86.78,251.658 86.78,286.37 "
         id="polygon4"
         transform="matrix(0.0262837,0,0,0.0262837,-1.7517328,0.5291677)" /><rect
         style="fill:#5599ff;fill-opacity:1;stroke:none;stroke-width:0.797715;stroke-linecap:round;stroke-linejoin:round"
         id="rect2"
         width="6.4435291"
         height="2.3446293"
         x="2.1412737"
         y="1.6058613"
         ry="0.26458332"
         rx="0.26723316" /><path
         d="M 6.4755737,2.2065836 V 3.3465657 H 7.2848266 V 2.9765625 H 6.8858845 V 2.2065836 Z"
         style="font-size:1.59469px;font-family:'Futura XBlk BT';-inkscape-font-specification:'Futura XBlk BT';letter-spacing:0px;fill:#ffffff;stroke-width:0.448504;stroke-linecap:round;stroke-linejoin:round"
         id="path7" /><path
         d="m 5.8378865,2.2065836 v 1.1399821 h 0.416512 V 2.2065836 Z"
         style="font-size:1.59469px;font-family:'Futura XBlk BT';-inkscape-font-specification:'Futura XBlk BT';letter-spacing:0px;fill:#ffffff;stroke-width:0.448504;stroke-linecap:round;stroke-linejoin:round"
         id="path6" /><path
         d="m 5.069458,2.1807454 c -0.086171,0 -0.1665803,0.014855 -0.2408122,0.043925 -0.074232,0.02907 -0.1392711,0.071063 -0.1958537,0.1266072 -0.056063,0.055025 -0.099085,0.119045 -0.1286743,0.1917196 -0.02907,0.072156 -0.043408,0.1510282 -0.043408,0.2361613 0,0.084614 0.014338,0.1629723 0.043408,0.2351278 0.02907,0.072155 0.072092,0.136173 0.1286743,0.1922363 0.057102,0.056063 0.1221384,0.098571 0.1958537,0.1276408 0.074232,0.028551 0.1546408,0.042891 0.2408122,0.042891 0.1167984,0 0.2212776,-0.025607 0.3131591,-0.076998 0.091881,-0.05191 0.1666526,-0.1266841 0.2247925,-0.2242757 0.023879,-0.041529 0.042318,-0.089674 0.054777,-0.1436605 0.012459,-0.053987 0.018604,-0.1133931 0.018604,-0.1788004 0,-0.00883 -5.143e-4,-0.019069 -0.00103,-0.030489 -5.2e-4,-0.01142 -0.00103,-0.028833 -0.00207,-0.052193 H 5.0477539 v 0.2676839 h 0.1782836 c -0.00467,0.029589 -0.019524,0.053152 -0.044442,0.069763 -0.024398,0.016611 -0.056149,0.024805 -0.095601,0.024805 -0.066445,0 -0.1181752,-0.022022 -0.1545125,-0.066146 -0.036337,-0.044643 -0.05426,-0.1071243 -0.05426,-0.1875854 0,-0.077866 0.017926,-0.140352 0.053743,-0.1865519 0.036337,-0.046201 0.084992,-0.069246 0.1457276,-0.069246 0.03478,0 0.065508,0.0082 0.092501,0.023771 0.026993,0.015573 0.05004,0.039131 0.069246,0.070797 L 5.6037923,2.4825358 C 5.5461717,2.3839057 5.4719102,2.309132 5.3810668,2.2582601 5.2902236,2.2068688 5.1862564,2.1807454 5.069458,2.1807454 Z"
         style="font-size:1.59469px;font-family:'Futura XBlk BT';-inkscape-font-specification:'Futura XBlk BT';letter-spacing:0px;fill:#ffffff;stroke-width:0.448504;stroke-linecap:round;stroke-linejoin:round"
         id="path5" /><path
         d="m 4.051949,2.1791951 c -0.08669,0 -0.1676115,0.014855 -0.2423624,0.043925 -0.074232,0.028551 -0.1397879,0.070544 -0.1963705,0.1266073 -0.056063,0.055544 -0.098568,0.1200784 -0.1281575,0.192753 -0.02907,0.072675 -0.043925,0.151545 -0.043925,0.2366781 0,0.1152412 0.026123,0.2171577 0.077515,0.3059245 0.05191,0.088767 0.1282204,0.1620016 0.2289266,0.2201416 0.041528,0.022841 0.087618,0.040768 0.1390096,0.053227 0.051392,0.012459 0.1051698,0.018603 0.1607137,0.018603 0.044643,0 0.089199,-0.00461 0.133842,-0.013953 0.044643,-0.00882 0.089199,-0.022656 0.133842,-0.040824 l 0.013436,-0.4289144 c -0.048277,0.036856 -0.093349,0.064001 -0.1343587,0.081132 -0.04049,0.016611 -0.080437,0.024805 -0.1198893,0.024805 -0.065407,0 -0.1171302,-0.019973 -0.1560628,-0.059945 -0.038933,-0.039971 -0.058911,-0.093233 -0.058911,-0.1601969 0,-0.068522 0.020488,-0.1233218 0.060978,-0.1643311 0.041009,-0.041529 0.094783,-0.062528 0.1617472,-0.062528 0.043086,0 0.084574,0.00871 0.1235067,0.026355 0.038933,0.01765 0.07683,0.044797 0.1142049,0.080615 V 2.2370727 C 4.2770663,2.2178661 4.23302,2.2035253 4.187858,2.1941813 4.1432147,2.184318 4.098149,2.1791951 4.051949,2.1791951 Z"
         style="font-size:1.59469px;font-family:'Futura XBlk BT';-inkscape-font-specification:'Futura XBlk BT';letter-spacing:0px;fill:#ffffff;stroke-width:0.448504;stroke-linecap:round;stroke-linejoin:round"
         id="path4" /></g><g
       id="g1"
       transform="matrix(1.2463653,0,0,1.2463653,5.9537386,-5.0215338)"><path
         fill="#ffce31"
         d="M 6.4873573,10.517213 9.131611,7.8736222 10.368426,9.110769 7.7240897,11.754359 Z"
         id="path1-7"
         style="fill:#0f8a8a;fill-opacity:1;stroke-width:0.0829076" /><path
         d="m 10.911802,7.4884336 -0.157524,-0.157524 c -0.298468,-0.2984675 -0.7793313,-0.2984675 -1.0860895,0 l -0.538899,0.538899 1.2436135,1.2436132 0.538899,-0.538899 c 0.298467,-0.2984675 0.298467,-0.7876217 0,-1.0860892"
         fill="#ed4c5c"
         id="path2-1"
         style="fill:#1d9c22;fill-opacity:1;stroke-width:0.0829076" /><path
         fill="#93a2aa"
         d="m 8.7961671,8.2105586 0.339921,-0.3400869 1.2369809,1.236981 -0.339921,0.3400037 z"
         id="path3-2"
         style="stroke-width:0.0829076" /><path
         fill="#c7d3d8"
         d="M 8.9251713,8.3394801 9.2650923,7.9994759 10.238344,8.9726447 9.8982574,9.3125657 Z"
         id="path4-2"
         style="stroke-width:0.0829076" /><path
         fill="#fed0ac"
         d="m 6.4845386,10.514559 -0.538899,1.409429 0.3730839,0.373084 1.4094283,-0.538899 z"
         id="path5-8"
         style="stroke-width:0.0829076" /><path
         d="m 5.8544413,12.172711 c -0.074617,0.198978 0.024874,0.290176 0.2238501,0.21556 l 0.6798421,-0.257014 -0.638388,-0.638388 -0.2653042,0.679842"
         fill="#333333"
         id="path6-7"
         style="fill:#1d9c22;fill-opacity:1;stroke-width:0.0829076" /><path
         fill="#ffdf85"
         d="M 6.4837097,10.520778 8.7935138,8.2109731 9.2039063,8.6213657 6.8941017,10.93117 Z"
         id="path7-2"
         style="fill:#15b7b7;fill-opacity:1;stroke-width:0.0829076" /><path
         fill="#ff8736"
         d="M 7.3139457,11.347117 9.6237504,9.0373129 10.034142,9.447705 7.7243383,11.75751 Z"
         id="path8-9"
         style="fill:#0d7474;fill-opacity:1;stroke-width:0.0829076" /></g><path
       style="font-weight:bold;font-size:7.52446px;font-family:'Roboto Condensed';-inkscape-font-specification:'Roboto Condensed,  Bold';letter-spacing:0px;fill:#0d7474;stroke-width:2.11626;stroke-linecap:round;stroke-linejoin:round"
       d="m 64.365868,8.7162439 q 0,-0.1543102 -0.157984,-0.2718799 Q 64.0499,8.3267944 63.67882,8.165136 63.135061,7.952041 62.841136,7.6801611 q -0.29025,-0.2718799 -0.29025,-0.7495068 0,-0.4959971 0.363731,-0.8450321 0.363732,-0.352709 1.010365,-0.352709 0.668677,0 1.054453,0.3453609 0.385776,0.3416869 0.385776,0.9001429 h -1.039757 q 0,-0.488649 -0.404146,-0.488649 -0.374754,0 -0.374754,0.3894496 0,0.1543102 0.143289,0.2608577 0.146962,0.1065476 0.529063,0.2645318 0.595197,0.2241173 0.874425,0.4996712 0.282902,0.2755539 0.282902,0.767877 0,0.5290636 -0.393124,0.8560543 -0.393124,0.3269907 -1.058127,0.3269907 -0.720114,0 -1.102216,-0.4078199 -0.378427,-0.4114939 -0.378427,-0.8964688 h 0.984646 q 0.0073,0.3233166 0.150636,0.4335382 0.143288,0.1102216 0.367405,0.1102216 0.418842,0 0.418842,-0.3784275 z"
       id="path35" /><path
       style="font-weight:bold;font-size:7.52446px;font-family:'Roboto Condensed';-inkscape-font-specification:'Roboto Condensed,  Bold';letter-spacing:0px;fill:#0d7474;stroke-width:2.11626;stroke-linecap:round;stroke-linejoin:round"
       d="m 61.731572,6.7800182 q -0.433538,0 -0.5805,0.3710793 v 2.6306217 h -1.039757 v -3.975325 h 0.980972 l 0.02939,0.4298642 q 0.249836,-0.5033452 0.6797,-0.5033452 0.169006,0 0.282902,0.044089 L 62.073259,6.809411 Q 61.889556,6.780019 61.731572,6.7800182 Z"
       id="path34" /><path
       style="font-weight:bold;font-size:7.52446px;font-family:'Roboto Condensed';-inkscape-font-specification:'Roboto Condensed,  Bold';letter-spacing:0px;fill:#0d7474;stroke-width:2.11626;stroke-linecap:round;stroke-linejoin:round"
       d="m 54.346727,8.9917979 q 0.455582,0 0.455582,-0.5878484 h 0.977298 q -0.0037,0.6796997 -0.411494,1.0654752 -0.404146,0.3857756 -1.003016,0.3857756 -0.793596,0 -1.183045,-0.4923231 -0.38945,-0.4959971 -0.396798,-1.392466 V 7.6507687 q 0,-0.9111651 0.38945,-1.4145103 0.389449,-0.5033452 1.186719,-0.5033452 0.639285,0 1.02506,0.3967977 0.38945,0.3967977 0.393124,1.1610006 h -0.977298 q 0,-0.6943959 -0.462931,-0.6943959 -0.341686,0 -0.429864,0.2718799 -0.0845,0.2718798 -0.0845,0.7825732 v 0.2865761 q 0,0.5253895 0.0845,0.7899213 0.0845,0.2645318 0.437213,0.2645318 z"
       id="path31" /><path
       style="font-weight:bold;font-size:7.52446px;font-family:'Roboto Condensed';-inkscape-font-specification:'Roboto Condensed,  Bold';letter-spacing:0px;fill:#0d7474;stroke-width:2.11626;stroke-linecap:round;stroke-linejoin:round"
       d="m 52.10188,6.7800182 q -0.433538,0 -0.5805,0.3710793 v 2.6306217 h -1.039757 v -3.975325 h 0.980972 l 0.02939,0.4298642 q 0.249835,-0.5033452 0.679699,-0.5033452 0.169007,0 0.282902,0.044089 L 52.443566,6.809411 Q 52.259865,6.7800182 52.10188,6.7800182 Z"
       id="path30" /></g></svg>
