<?xml version="1.0" encoding="UTF-8" standalone="no"?>
<!-- Created with Inkscape (http://www.inkscape.org/) -->

<svg
   width="280"
   height="54"
   viewBox="0 0 74.083326 14.2875"
   version="1.1"
   id="svg1"
   inkscape:version="1.3.2 (091e20ef0f, 2023-11-25)"
   sodipodi:docname="road-logo-edit.svg"
   xml:space="preserve"
   xmlns:inkscape="http://www.inkscape.org/namespaces/inkscape"
   xmlns:sodipodi="http://sodipodi.sourceforge.net/DTD/sodipodi-0.dtd"
   xmlns="http://www.w3.org/2000/svg"
   xmlns:svg="http://www.w3.org/2000/svg"><sodipodi:namedview
     id="namedview1"
     pagecolor="#ffffff"
     bordercolor="#000000"
     borderopacity="0.25"
     inkscape:showpageshadow="false"
     inkscape:pageopacity="0.0"
     inkscape:pagecheckerboard="0"
     inkscape:deskcolor="#d1d1d1"
     inkscape:document-units="px"
     inkscape:zoom="2.1398289"
     inkscape:cx="2.3366354"
     inkscape:cy="179.68726"
     inkscape:window-width="2528"
     inkscape:window-height="1404"
     inkscape:window-x="2592"
     inkscape:window-y="0"
     inkscape:window-maximized="1"
     inkscape:current-layer="layer1" /><defs
     id="defs1"><inkscape:path-effect
   effect="fillet_chamfer"
   id="path-effect1"
   is_visible="true"
   lpeversion="1"
   nodesatellites_param="F,0,0,1,0,16.416105,0,1 @ F,0,0,1,0,17.56708,0,1 @ F,0,0,1,0,16.166174,0,1 @ F,0,0,1,0,12.027104,0,1"
   radius="0"
   unit="px"
   method="auto"
   mode="F"
   chamfer_steps="1"
   flexible="false"
   use_knot_distance="true"
   apply_no_radius="true"
   apply_with_radius="true"
   only_selected="false"
   hide_knots="false" />
	
	
	
	
	

		
		
	<style
   id="style1">.cls-1{fill:#ffffff;}.cls-2{fill:#e5e5e5;}.cls-3{fill:#426572;}.cls-4{fill:#fbc907;}.cls-5{fill:#f3a70f;}.cls-6{fill:#f9f9f9;}.cls-7{opacity:0.5;}.cls-8{fill:#7490a8;}</style><style
   id="style1-0">.cls-1{fill:#ffffff;}.cls-2{fill:#e5e5e5;}.cls-3{fill:#426572;}.cls-4{fill:#fbc907;}.cls-5{fill:#f3a70f;}.cls-6{fill:#f9f9f9;}.cls-7{opacity:0.5;}.cls-8{fill:#7490a8;}</style><style
   id="style1-1">.cls-1{fill:#ffffff;}.cls-2{fill:#e5e5e5;}.cls-3{fill:#426572;}.cls-4{fill:#fbc907;}.cls-5{fill:#f3a70f;}.cls-6{fill:#f9f9f9;}.cls-7{opacity:0.5;}.cls-8{fill:#7490a8;}</style></defs><g
     inkscape:label="Livello 1"
     inkscape:groupmode="layer"
     id="layer1"><path
       id="path36"
       style="font-weight:bold;font-size:7.52446px;font-family:'Roboto Condensed';-inkscape-font-specification:'Roboto Condensed,  Bold';letter-spacing:0px;fill:#0d7474;stroke-width:2.11626;stroke-linecap:round;stroke-linejoin:round"
       d="m 69.627274,5.7329833 c -0.489873,0 -0.880547,0.1665973 -1.172021,0.499711 -0.289025,0.3306645 -0.433049,0.8083992 -0.433049,1.4329875 V 7.926131 c 0,0.6245883 0.145709,1.102323 0.437183,1.4329874 0.291474,0.3306644 0.683316,0.4960938 1.175639,0.4960938 0.489873,0 0.879379,-0.1654294 1.168404,-0.4960938 C 71.094905,9.028454 71.240612,8.5507193 71.240612,7.926131 V 7.6656818 c 0,-0.6245883 -0.145707,-1.102323 -0.437182,-1.4329875 -0.289025,-0.3331137 -0.681384,-0.499711 -1.176156,-0.499711 z m 0,0.8635131 c 0.382101,0 0.573609,0.3564199 0.573609,1.0691854 v 0.326595 c -0.01225,0.6662276 -0.200902,0.9994222 -0.565857,0.9994222 -0.382102,0 -0.573092,-0.3552519 -0.573092,-1.065568 V 7.5995359 c 0.01225,-0.6686768 0.200385,-1.0030395 0.56534,-1.0030395 z" /><path
       id="path32"
       style="font-weight:bold;font-size:7.52446px;font-family:'Roboto Condensed';-inkscape-font-specification:'Roboto Condensed,  Bold';letter-spacing:0px;fill:#0d7474;stroke-width:2.11626;stroke-linecap:round;stroke-linejoin:round"
       d="m 59.97205,5.7329833 c -0.489874,0 -0.880547,0.1665973 -1.172022,0.499711 -0.289025,0.3306645 -0.433565,0.8083992 -0.433565,1.4329875 V 7.926131 c 0,0.6245883 0.145708,1.102323 0.437183,1.4329874 0.291474,0.3306644 0.683316,0.4960938 1.175639,0.4960938 0.489872,0 0.879378,-0.1654294 1.168404,-0.4960938 C 61.439163,9.028454 61.584871,8.5507193 61.584871,7.926131 V 7.6656818 c 0,-0.6245883 -0.145708,-1.102323 -0.437182,-1.4329875 -0.289026,-0.3331137 -0.680868,-0.499711 -1.175639,-0.499711 z m 0,0.8635131 c 0.382101,0 0.573091,0.3564199 0.573091,1.0691854 v 0.326595 c -0.01225,0.6662276 -0.200901,0.9994222 -0.565856,0.9994222 -0.382101,0 -0.573092,-0.3552519 -0.573092,-1.065568 V 7.5995359 c 0.01225,-0.6686768 0.200901,-1.0030395 0.565857,-1.0030395 z" /><path
       id="path28"
       style="font-weight:bold;font-size:7.52446px;font-family:'Roboto Condensed';-inkscape-font-specification:'Roboto Condensed,  Bold';letter-spacing:0px;fill:#0d7474;stroke-width:2.11626;stroke-linecap:round;stroke-linejoin:round"
       d="m 50.493042,5.7329833 c -0.499671,0 -0.890344,0.1665973 -1.172021,0.499711 -0.279228,0.3306645 -0.418579,0.8177431 -0.418579,1.4619263 v 0.3271118 c 0,0.575601 0.146876,1.0249218 0.4408,1.3482381 0.296373,0.3233163 0.714944,0.4852417 1.256254,0.4852417 0.340462,0 0.623702,-0.063836 0.849043,-0.1912028 0.227791,-0.127367 0.393871,-0.2620465 0.499195,-0.4041097 L 51.536389,8.6315143 c -0.227791,0.2400379 -0.516871,0.3601847 -0.86713,0.3601847 -0.222892,0 -0.396498,-0.062151 -0.521415,-0.1870687 -0.122469,-0.127367 -0.189809,-0.3491074 -0.202055,-0.6650757 h 2.060856 V 7.6284747 C 52.001746,6.9965383 51.873424,6.5228243 51.621139,6.2068561 51.368854,5.8908879 50.992713,5.7329833 50.493042,5.7329833 Z m -0.0036,0.8635131 c 0.181253,0 0.308408,0.060983 0.381889,0.1834513 0.07348,0.120019 0.112923,0.2999809 0.117822,0.5400188 v 0.091984 h -1.03973 c 0.0147,-0.2865758 0.06231,-0.4937836 0.143144,-0.6211507 0.08328,-0.1298163 0.215622,-0.1943034 0.396875,-0.1943034 z" /><path
       id="text27"
       style="font-weight:bold;font-size:7.52446px;font-family:'Roboto Condensed';-inkscape-font-specification:'Roboto Condensed,  Bold';letter-spacing:0px;fill:#0d7474;stroke-width:2.11626;stroke-linecap:round;stroke-linejoin:round"
       d="M 44.812769,4.4322875 V 9.7818316 H 45.89694 V 7.9008095 h 0.752926 c 0.536411,-0.00245 0.957834,-0.15685 1.264005,-0.4630208 0.308621,-0.3061707 0.463021,-0.7177337 0.463021,-1.2345499 0,-0.5119175 -0.155568,-0.9345091 -0.466638,-1.2676229 -0.30862,-0.3355632 -0.73238,-0.5033284 -1.27124,-0.5033284 z m 1.084171,0.9002034 h 0.742074 c 0.225342,0 0.388435,0.089397 0.488859,0.2682007 0.102873,0.1763544 0.153996,0.3795415 0.153996,0.6097819 0,0.2302404 -0.05112,0.4200629 -0.153996,0.5694742 -0.100424,0.146962 -0.263517,0.2206584 -0.488859,0.2206584 H 45.89694 Z" /><g
       id="g26"
       transform="matrix(0.81818973,0,0,0.81818973,1.0381667,1.2051902)"><polygon
         style="fill:#464f5d"
         points="190.915,60.746 260.339,60.746 260.339,130.169 190.915,130.169 190.915,503.322 416.542,503.322 416.542,0 190.915,0 "
         id="polygon1"
         transform="matrix(0.0262837,0,0,0.0262837,-1.7517328,0.5291677)" /><path
         style="fill:#ffffff;stroke-width:0.0262837"
         d="m 6.2313891,3.4130153 c -0.1261355,0 -0.2280899,-0.1019545 -0.2280899,-0.22809 V 2.3051836 c 0,-0.1261355 0.1019544,-0.22809 0.2280899,-0.22809 0.1261355,0 0.22809,0.1019545 0.22809,0.22809 v 0.8797417 c 0,0.1261355 -0.1019545,0.22809 -0.22809,0.22809 m 0,2.1994463 c -0.1261355,0 -0.2280899,-0.1021911 -0.2280899,-0.22809 V 4.5043933 c 0,-0.1261354 0.1019544,-0.2280899 0.2280899,-0.2280899 0.1261355,0 0.22809,0.1019545 0.22809,0.2280899 v 0.8799783 c 0,0.1259252 -0.1019545,0.22809 -0.22809,0.22809 m 0,2.199236 c -0.1261355,0 -0.2280899,-0.1019545 -0.2280899,-0.22809 V 6.7041025 c 0,-0.1261355 0.1019544,-0.22809 0.2280899,-0.22809 0.1261355,0 0.22809,0.1019545 0.22809,0.22809 v 0.8795051 c 0,0.1261355 -0.1019545,0.22809 -0.22809,0.22809 m 0,2.1997094 c -0.1261355,0 -0.2280899,-0.1021913 -0.2280899,-0.2280902 V 8.9033385 c 0,-0.1258989 0.1019544,-0.2280899 0.2280899,-0.2280899 0.1261355,0 0.22809,0.102191 0.22809,0.2280899 v 0.8799783 c 0,0.1258989 -0.1019545,0.2280902 -0.22809,0.2280902 m 0,2.199236 c -0.1261355,0 -0.2280899,-0.101955 -0.2280899,-0.22809 v -0.879742 c 0,-0.126135 0.1019544,-0.22809 0.2280899,-0.22809 0.1261355,0 0.22809,0.101955 0.22809,0.22809 v 0.879742 c 0,0.126135 -0.1019545,0.22809 -0.22809,0.22809"
         id="path1" /><path
         style="fill:#95a5a5;stroke-width:0.0262837"
         d="m 1.2134365,7.3718399 c -0.1261354,0 -0.22808992,-0.1019545 -0.22808992,-0.22809 V 4.1785806 c 0,-0.1261355 0.10195452,-0.22809 0.22808992,-0.22809 0.1261355,0 0.22809,0.1019545 0.22809,0.22809 v 2.9651693 c 0,0.1261355 -0.1019808,0.22809 -0.22809,0.22809"
         id="path2" /><path
         style="fill:#95a5a5;stroke-width:0.0262837"
         d="m 1.2134365,4.4066705 c -0.1261354,0 -0.22808992,-0.1019544 -0.22808992,-0.2280899 0,-0.7547365 0.61377692,-1.3685397 1.36853972,-1.3685397 0.1261355,0 0.2280899,0.1019545 0.2280899,0.22809 0,0.1261354 -0.1019544,0.2280899 -0.2280899,0.2280899 -0.5031752,0 -0.9123598,0.4091846 -0.9123598,0.9123598 0,0.1261355 -0.1019808,0.2280899 -0.22809,0.2280899"
         id="path3" /><polygon
         style="fill:#6e7a7a"
         points="138.847,286.37 138.847,251.658 86.78,251.658 86.78,286.37 "
         id="polygon4"
         transform="matrix(0.0262837,0,0,0.0262837,-1.7517328,0.5291677)" /><rect
         style="fill:#5599ff;fill-opacity:1;stroke:none;stroke-width:0.797715;stroke-linecap:round;stroke-linejoin:round"
         id="rect2"
         width="6.4435291"
         height="2.3446293"
         x="2.1412737"
         y="1.6058613"
         ry="0.26458332"
         rx="0.26723316" /><path
         d="M 6.4755737,2.2065836 V 3.3465657 H 7.2848266 V 2.9765625 H 6.8858845 V 2.2065836 Z"
         style="font-size:1.59469px;font-family:'Futura XBlk BT';-inkscape-font-specification:'Futura XBlk BT';letter-spacing:0px;fill:#ffffff;stroke-width:0.448504;stroke-linecap:round;stroke-linejoin:round"
         id="path7" /><path
         d="m 5.8378865,2.2065836 v 1.1399821 h 0.416512 V 2.2065836 Z"
         style="font-size:1.59469px;font-family:'Futura XBlk BT';-inkscape-font-specification:'Futura XBlk BT';letter-spacing:0px;fill:#ffffff;stroke-width:0.448504;stroke-linecap:round;stroke-linejoin:round"
         id="path6" /><path
         d="m 5.069458,2.1807454 c -0.086171,0 -0.1665803,0.014855 -0.2408122,0.043925 -0.074232,0.02907 -0.1392711,0.071063 -0.1958537,0.1266072 -0.056063,0.055025 -0.099085,0.119045 -0.1286743,0.1917196 -0.02907,0.072156 -0.043408,0.1510282 -0.043408,0.2361613 0,0.084614 0.014338,0.1629723 0.043408,0.2351278 0.02907,0.072155 0.072092,0.136173 0.1286743,0.1922363 0.057102,0.056063 0.1221384,0.098571 0.1958537,0.1276408 0.074232,0.028551 0.1546408,0.042891 0.2408122,0.042891 0.1167984,0 0.2212776,-0.025607 0.3131591,-0.076998 0.091881,-0.05191 0.1666526,-0.1266841 0.2247925,-0.2242757 0.023879,-0.041529 0.042318,-0.089674 0.054777,-0.1436605 0.012459,-0.053987 0.018604,-0.1133931 0.018604,-0.1788004 0,-0.00883 -5.143e-4,-0.019069 -0.00103,-0.030489 -5.2e-4,-0.01142 -0.00103,-0.028833 -0.00207,-0.052193 H 5.0477539 v 0.2676839 h 0.1782836 c -0.00467,0.029589 -0.019524,0.053152 -0.044442,0.069763 -0.024398,0.016611 -0.056149,0.024805 -0.095601,0.024805 -0.066445,0 -0.1181752,-0.022022 -0.1545125,-0.066146 -0.036337,-0.044643 -0.05426,-0.1071243 -0.05426,-0.1875854 0,-0.077866 0.017926,-0.140352 0.053743,-0.1865519 0.036337,-0.046201 0.084992,-0.069246 0.1457276,-0.069246 0.03478,0 0.065508,0.0082 0.092501,0.023771 0.026993,0.015573 0.05004,0.039131 0.069246,0.070797 L 5.6037923,2.4825358 C 5.5461717,2.3839057 5.4719102,2.309132 5.3810668,2.2582601 5.2902236,2.2068688 5.1862564,2.1807454 5.069458,2.1807454 Z"
         style="font-size:1.59469px;font-family:'Futura XBlk BT';-inkscape-font-specification:'Futura XBlk BT';letter-spacing:0px;fill:#ffffff;stroke-width:0.448504;stroke-linecap:round;stroke-linejoin:round"
         id="path5" /><path
         d="m 4.051949,2.1791951 c -0.08669,0 -0.1676115,0.014855 -0.2423624,0.043925 -0.074232,0.028551 -0.1397879,0.070544 -0.1963705,0.1266073 -0.056063,0.055544 -0.098568,0.1200784 -0.1281575,0.192753 -0.02907,0.072675 -0.043925,0.151545 -0.043925,0.2366781 0,0.1152412 0.026123,0.2171577 0.077515,0.3059245 0.05191,0.088767 0.1282204,0.1620016 0.2289266,0.2201416 0.041528,0.022841 0.087618,0.040768 0.1390096,0.053227 0.051392,0.012459 0.1051698,0.018603 0.1607137,0.018603 0.044643,0 0.089199,-0.00461 0.133842,-0.013953 0.044643,-0.00882 0.089199,-0.022656 0.133842,-0.040824 l 0.013436,-0.4289144 c -0.048277,0.036856 -0.093349,0.064001 -0.1343587,0.081132 -0.04049,0.016611 -0.080437,0.024805 -0.1198893,0.024805 -0.065407,0 -0.1171302,-0.019973 -0.1560628,-0.059945 -0.038933,-0.039971 -0.058911,-0.093233 -0.058911,-0.1601969 0,-0.068522 0.020488,-0.1233218 0.060978,-0.1643311 0.041009,-0.041529 0.094783,-0.062528 0.1617472,-0.062528 0.043086,0 0.084574,0.00871 0.1235067,0.026355 0.038933,0.01765 0.07683,0.044797 0.1142049,0.080615 V 2.2370727 C 4.2770663,2.2178661 4.23302,2.2035253 4.187858,2.1941813 4.1432147,2.184318 4.098149,2.1791951 4.051949,2.1791951 Z"
         style="font-size:1.59469px;font-family:'Futura XBlk BT';-inkscape-font-specification:'Futura XBlk BT';letter-spacing:0px;fill:#ffffff;stroke-width:0.448504;stroke-linecap:round;stroke-linejoin:round"
         id="path4" /></g><g
       id="g1"
       transform="matrix(0.66060907,0,0,0.66060907,7.4436256,2.2501361)"><path
         fill="#ffce31"
         d="m 7.070525,8.835209 4.98889,-4.987639 2.333488,2.334114 -4.989046,4.987638 z"
         id="path1-7"
         style="fill:#0f8a8a;fill-opacity:1;stroke-width:0.156421" /><path
         d="m 15.418086,3.120838 -0.2972,-0.297199 c -0.563116,-0.563116 -1.470357,-0.563116 -2.049115,0 l -1.016736,1.016736 2.346315,2.346314 1.016736,-1.016736 c 0.563115,-0.563116 0.563115,-1.485999 0,-2.049115"
         fill="#ed4c5c"
         id="path2-1"
         style="fill:#f07109;fill-opacity:1;stroke-width:0.156421" /><path
         fill="#93a2aa"
         d="m 11.426536,4.483265 0.641326,-0.641639 2.3338,2.333801 -0.641326,0.641482 z"
         id="path3-2"
         style="stroke-width:0.156421" /><path
         fill="#c7d3d8"
         d="M 11.669927,4.7265 12.311253,4.085017 14.147478,5.921086 13.50584,6.562412 Z"
         id="path4-2"
         style="stroke-width:0.156421" /><path
         fill="#fed0ac"
         d="m 7.065207,8.830203 -1.016736,2.659156 0.703894,0.703895 2.659156,-1.016736 z"
         id="path5-8"
         style="stroke-width:0.156421" /><path
         d="m 5.876408,11.958622 c -0.140779,0.375411 0.04693,0.547474 0.422336,0.406695 L 7.581396,11.880412 6.376955,10.67597 5.876408,11.958622"
         fill="#333333"
         id="path6-7"
         style="fill:#f07109;fill-opacity:1;stroke-width:0.156421" /><path
         fill="#ffdf85"
         d="M 7.063643,8.841935 11.42153,4.484047 12.195814,5.258331 7.837926,9.616219 Z"
         id="path7-2"
         style="fill:#15b7b7;fill-opacity:1;stroke-width:0.156421" /><path
         fill="#ff8736"
         d="M 8.630042,10.400982 12.98793,6.043095 13.762213,6.817378 9.404326,11.175266 Z"
         id="path8-9"
         style="fill:#0d7474;fill-opacity:1;stroke-width:0.156421" /></g><path
       style="font-weight:bold;font-size:7.52446px;font-family:'Roboto Condensed';-inkscape-font-specification:'Roboto Condensed,  Bold';letter-spacing:0px;fill:#0d7474;stroke-width:2.11626;stroke-linecap:round;stroke-linejoin:round"
       d="m 66.482536,8.7162439 q 0,-0.1543102 -0.157984,-0.2718799 -0.157984,-0.1175696 -0.529064,-0.279228 -0.543759,-0.213095 -0.837684,-0.4849749 -0.29025,-0.2718799 -0.29025,-0.7495068 0,-0.4959971 0.363731,-0.8450321 0.363732,-0.352709 1.010365,-0.352709 0.668677,0 1.054453,0.3453609 0.385776,0.3416869 0.385776,0.9001429 h -1.039757 q 0,-0.488649 -0.404146,-0.488649 -0.374754,0 -0.374754,0.3894496 0,0.1543102 0.143289,0.2608577 0.146962,0.1065476 0.529063,0.2645318 0.595197,0.2241173 0.874425,0.4996712 0.282902,0.2755539 0.282902,0.767877 0,0.5290636 -0.393124,0.8560543 -0.393124,0.3269907 -1.058127,0.3269907 -0.720114,0 -1.102216,-0.4078199 -0.378427,-0.4114939 -0.378427,-0.8964688 h 0.984646 q 0.0073,0.3233166 0.150636,0.4335382 0.143288,0.1102216 0.367405,0.1102216 0.418842,0 0.418842,-0.3784275 z"
       id="path35" /><path
       style="font-weight:bold;font-size:7.52446px;font-family:'Roboto Condensed';-inkscape-font-specification:'Roboto Condensed,  Bold';letter-spacing:0px;fill:#0d7474;stroke-width:2.11626;stroke-linecap:round;stroke-linejoin:round"
       d="m 63.84824,6.7800182 q -0.433538,0 -0.5805,0.3710793 v 2.6306217 h -1.039757 v -3.975325 h 0.980972 l 0.02939,0.4298642 q 0.249836,-0.5033452 0.6797,-0.5033452 0.169006,0 0.282902,0.044089 L 64.189927,6.809411 Q 64.006224,6.780019 63.84824,6.7800182 Z"
       id="path34" /><path
       style="font-weight:bold;font-size:7.52446px;font-family:'Roboto Condensed';-inkscape-font-specification:'Roboto Condensed,  Bold';letter-spacing:0px;fill:#0d7474;stroke-width:2.11626;stroke-linecap:round;stroke-linejoin:round"
       d="m 56.463395,8.9917979 q 0.455582,0 0.455582,-0.5878484 h 0.977298 q -0.0037,0.6796997 -0.411494,1.0654752 -0.404146,0.3857756 -1.003016,0.3857756 -0.793596,0 -1.183045,-0.4923231 -0.38945,-0.4959971 -0.396798,-1.392466 V 7.6507687 q 0,-0.9111651 0.38945,-1.4145103 0.389449,-0.5033452 1.186719,-0.5033452 0.639285,0 1.02506,0.3967977 0.38945,0.3967977 0.393124,1.1610006 h -0.977298 q 0,-0.6943959 -0.462931,-0.6943959 -0.341686,0 -0.429864,0.2718799 -0.0845,0.2718798 -0.0845,0.7825732 v 0.2865761 q 0,0.5253895 0.0845,0.7899213 0.0845,0.2645318 0.437213,0.2645318 z"
       id="path31" /><path
       style="font-weight:bold;font-size:7.52446px;font-family:'Roboto Condensed';-inkscape-font-specification:'Roboto Condensed,  Bold';letter-spacing:0px;fill:#0d7474;stroke-width:2.11626;stroke-linecap:round;stroke-linejoin:round"
       d="m 54.218548,6.7800182 q -0.433538,0 -0.5805,0.3710793 v 2.6306217 h -1.039757 v -3.975325 h 0.980972 l 0.02939,0.4298642 q 0.249835,-0.5033452 0.679699,-0.5033452 0.169007,0 0.282902,0.044089 L 54.560234,6.809411 Q 54.376533,6.780018 54.218548,6.7800182 Z"
       id="path30" /><g
       id="g37"
       transform="translate(3.8740364,-35.126665)"><path
         d="m 31.049414,41.207172 v 3.67006 h 0.960149 v -3.67006 z"
         style="font-weight:bold;font-size:6.94737px;font-family:'Roboto Condensed';-inkscape-font-specification:'Roboto Condensed,  Bold';letter-spacing:0px;fill:#f07109;fill-opacity:1;stroke-width:1.95394;stroke-linecap:square;stroke-linejoin:round"
         id="path106" /><path
         d="m 31.049414,41.207172 h 0.960149 v 3.67006 h -0.960149 z"
         style="font-weight:bold;font-size:6.94737px;font-family:'Roboto Condensed';-inkscape-font-specification:'Roboto Condensed,  Bold';letter-spacing:0px;fill:#f07109;fill-opacity:1;stroke-width:1.95394;stroke-linecap:square;stroke-linejoin:round"
         id="path105" /><path
         d="m 27.256881,41.207172 v 3.67006 h 0.963766 v -3.67006 z"
         style="font-weight:bold;font-size:6.94737px;font-family:'Roboto Condensed';-inkscape-font-specification:'Roboto Condensed,  Bold';letter-spacing:0px;fill:#f07109;fill-opacity:1;stroke-width:1.95394;stroke-linecap:square;stroke-linejoin:round"
         id="path104" /><path
         d="m 27.256881,41.207172 h 0.963766 v 3.67006 h -0.963766 z"
         style="font-weight:bold;font-size:6.94737px;font-family:'Roboto Condensed';-inkscape-font-specification:'Roboto Condensed,  Bold';letter-spacing:0px;fill:#f07109;fill-opacity:1;stroke-width:1.95394;stroke-linecap:square;stroke-linejoin:round"
         id="path103" /><path
         d="m 37.26764,41.138959 c -0.411595,0 -0.739677,0.115558 -0.98392,0.346232 -0.241981,0.228413 -0.362768,0.503105 -0.362768,0.824239 H 36.8811 c 0,-0.280427 0.119947,-0.420646 0.359668,-0.420646 0.221628,0 0.332279,0.150354 0.332279,0.451136 v 0.295072 h -0.257865 c -0.49301,0 -0.859437,0.109812 -1.099158,0.329179 -0.23972,0.217105 -0.359668,0.512068 -0.359668,0.885217 0,0.332442 0.103228,0.598355 0.309025,0.797367 0.208059,0.199013 0.460286,0.29869 0.756543,0.29869 0.291735,0 0.524529,-0.117753 0.698666,-0.35295 0.02035,0.113076 0.04721,0.207846 0.08113,0.284737 h 0.966866 v -0.05736 c -0.08366,-0.169614 -0.127757,-0.41745 -0.13229,-0.743108 v -1.723409 c 0,-0.429687 -0.120787,-0.739175 -0.362769,-0.929142 -0.239719,-0.189967 -0.541784,-0.285254 -0.905887,-0.285254 z m 0.07803,2.069641 h 0.227376 v 0.763261 c -0.03618,0.0588 -0.09177,0.109477 -0.166398,0.152446 -0.07463,0.04297 -0.163654,0.06459 -0.267684,0.06459 -0.214844,0 -0.322461,-0.135829 -0.322461,-0.407211 0,-0.160567 0.04274,-0.296396 0.128675,-0.40721 0.08594,-0.110814 0.219572,-0.165881 0.400492,-0.165881 z"
         style="font-weight:bold;font-size:6.94737px;font-family:'Roboto Condensed';-inkscape-font-specification:'Roboto Condensed,  Bold';letter-spacing:0px;fill:#f07109;fill-opacity:1;stroke-width:1.95394;stroke-linecap:square;stroke-linejoin:round"
         id="path102" /><path
         d="m 34.106075,41.138959 c -0.490747,0 -0.855819,0.155261 -1.09554,0.465088 -0.23972,0.309827 -0.359668,0.745009 -0.359668,1.305864 v 0.295072 c 0.0045,0.551809 0.126666,0.980406 0.366386,1.28571 0.23972,0.303042 0.603953,0.454752 1.09244,0.454752 0.368626,0 0.677276,-0.119108 0.926041,-0.356567 0.251024,-0.237459 0.377556,-0.565023 0.379822,-0.983403 h -0.90227 c 0,0.361842 -0.140219,0.542603 -0.420646,0.542603 -0.217107,0 -0.35158,-0.0816 -0.403593,-0.24443 -0.05201,-0.162828 -0.07803,-0.405758 -0.07803,-0.729154 v -0.264583 c 0,-0.314351 0.02602,-0.555085 0.07803,-0.722437 0.05428,-0.167352 0.186554,-0.251147 0.396875,-0.251147 0.28495,0 0.427364,0.213878 0.427364,0.641304 h 0.90227 c -0.0023,-0.470394 -0.123565,-0.828043 -0.363285,-1.072286 -0.237459,-0.244243 -0.552693,-0.366386 -0.946196,-0.366386 z"
         style="font-weight:bold;font-size:6.94737px;font-family:'Roboto Condensed';-inkscape-font-specification:'Roboto Condensed,  Bold';letter-spacing:0px;fill:#f07109;fill-opacity:1;stroke-width:1.95394;stroke-linecap:square;stroke-linejoin:round"
         id="path100" /><path
         d="m 34.106075,41.138959 c 0.393503,0 0.708737,0.122143 0.946196,0.366386 0.23972,0.244243 0.361023,0.601892 0.363285,1.072286 h -0.90227 c 0,-0.427426 -0.142414,-0.641304 -0.427364,-0.641304 -0.210321,0 -0.342599,0.0838 -0.396875,0.251147 -0.05201,0.167352 -0.07803,0.408086 -0.07803,0.722437 v 0.264583 c 0,0.323396 0.02602,0.566326 0.07803,0.729154 0.05201,0.162829 0.186486,0.24443 0.403593,0.24443 0.280427,0 0.420646,-0.180761 0.420646,-0.542603 h 0.90227 c -0.0023,0.41838 -0.128798,0.745944 -0.379822,0.983403 -0.248765,0.237459 -0.557415,0.356567 -0.926041,0.356567 -0.488487,0 -0.85272,-0.15171 -1.09244,-0.454752 -0.23972,-0.305304 -0.361863,-0.733901 -0.366386,-1.28571 v -0.295072 c 0,-0.560855 0.119948,-0.996037 0.359668,-1.305864 0.239721,-0.309827 0.604793,-0.465088 1.09554,-0.465088 z"
         style="font-weight:bold;font-size:6.94737px;font-family:'Roboto Condensed';-inkscape-font-specification:'Roboto Condensed,  Bold';letter-spacing:0px;fill:#f07109;fill-opacity:1;stroke-width:1.95394;stroke-linecap:square;stroke-linejoin:round"
         id="path99" /><path
         d="m 21.687195,41.138959 c -0.452302,0 -0.812985,0.153905 -1.082104,0.461471 -0.266859,0.305304 -0.400493,0.746231 -0.400493,1.322916 v 0.240813 c 0,0.576685 0.134474,1.017612 0.403593,1.322916 0.26912,0.305304 0.631158,0.45837 1.085722,0.45837 0.452302,0 0.811629,-0.153066 1.078487,-0.45837 0.26912,-0.305304 0.403593,-0.746231 0.403593,-1.322916 v -0.240813 c 0,-0.576685 -0.134473,-1.017612 -0.403593,-1.322916 -0.266858,-0.307566 -0.628379,-0.461471 -1.085205,-0.461471 z m 0,0.797368 c 0.352796,0 0.529167,0.32892 0.529167,0.987019 v 0.301791 c -0.01131,0.615131 -0.185484,0.922941 -0.522449,0.922941 -0.352796,0 -0.529166,-0.328081 -0.529166,-0.983919 v -0.301791 c 0.01131,-0.617392 0.185483,-0.926041 0.522448,-0.926041 z"
         style="font-weight:bold;font-size:6.94737px;font-family:'Roboto Condensed';-inkscape-font-specification:'Roboto Condensed,  Bold';letter-spacing:0px;fill:#f07109;fill-opacity:1;stroke-width:1.95394;stroke-linecap:square;stroke-linejoin:round"
         id="path98" /><path
         d="m 15.092249,39.937999 v 4.939233 h 1.000972 V 43.54088 l -0.09147,-2.04587 0.983403,3.382222 h 0.682129 l 0.983402,-3.382222 -0.09147,2.04587 v 1.336352 h 1.000972 V 39.937999 H 18.25743 l -0.929659,3.568774 -0.932759,-3.568774 z"
         style="font-weight:bold;font-size:6.94737px;font-family:'Roboto Condensed';-inkscape-font-specification:'Roboto Condensed,  Bold';letter-spacing:0px;fill:#f07109;fill-opacity:1;stroke-width:1.95394;stroke-linecap:square;stroke-linejoin:round"
         id="path97" /><path
         d="m 27.739022,39.744729 c -0.160567,0 -0.288455,0.04848 -0.383439,0.145728 -0.09498,0.09498 -0.142627,0.217126 -0.142627,0.366386 0,0.146998 0.04764,0.26914 0.142627,0.366385 0.09498,0.09498 0.222872,0.142627 0.383439,0.142627 0.158306,0 0.284839,-0.04764 0.379822,-0.142627 0.09498,-0.09725 0.14211,-0.219387 0.14211,-0.366385 0,-0.14926 -0.04713,-0.271403 -0.14211,-0.366386 -0.09498,-0.09725 -0.221516,-0.145728 -0.379822,-0.145728 z"
         style="font-weight:bold;font-size:6.94737px;font-family:'Roboto Condensed';-inkscape-font-specification:'Roboto Condensed,  Bold';letter-spacing:0px;fill:#f07109;fill-opacity:1;stroke-width:1.95394;stroke-linecap:square;stroke-linejoin:round"
         id="path96" /><path
         d="m 25.543807,39.666698 v 1.838647 c -0.185443,-0.244243 -0.421789,-0.366386 -0.709,-0.366386 -0.398027,0 -0.69654,0.150354 -0.895553,0.451135 -0.196751,0.29852 -0.295072,0.745193 -0.295072,1.33997 v 0.261483 c 0.0023,0.567639 0.105489,1.001465 0.309025,1.302246 0.203536,0.300781 0.496304,0.451652 0.878499,0.451652 0.314351,0 0.568771,-0.148159 0.763261,-0.444417 l 0.04393,0.379822 0.868681,-0.0036 v -5.210532 z m -0.430464,2.272729 c 0.192228,0 0.335481,0.09174 0.430464,0.274919 v 1.669149 c -0.09272,0.171874 -0.23733,0.257865 -0.434082,0.257865 -0.19449,0 -0.327607,-0.07721 -0.399975,-0.230994 -0.07011,-0.156044 -0.10542,-0.402524 -0.10542,-0.739489 v -0.240813 c 0,-0.348272 0.03751,-0.600498 0.112138,-0.756543 0.07463,-0.156044 0.206908,-0.234094 0.396875,-0.234094 z"
         style="font-weight:bold;font-size:6.94737px;font-family:'Roboto Condensed';-inkscape-font-specification:'Roboto Condensed,  Bold';letter-spacing:0px;fill:#f07109;fill-opacity:1;stroke-width:1.95394;stroke-linecap:square;stroke-linejoin:round"
         id="path95" /><path
         d="m 30.598279,39.595384 c -0.447779,0 -0.798326,0.123499 -1.051615,0.370003 -0.251029,0.246505 -0.3784,0.602798 -0.382923,1.068669 v 0.173116 h -0.444417 v 0.722437 h 0.444417 v 2.947623 h 0.959632 v -2.947623 h 0.56689 v -0.722437 h -0.56689 v -0.156063 c 0.0023,-0.395764 0.182183,-0.593762 0.539502,-0.593762 0.232935,0 0.489551,0.05068 0.769979,0.152446 l 0.139009,-0.813904 C 31.19193,39.66246 30.8674,39.595384 30.598279,39.595384 Z"
         style="font-weight:bold;font-size:6.94737px;font-family:'Roboto Condensed';-inkscape-font-specification:'Roboto Condensed,  Bold';letter-spacing:0px;fill:#f07109;fill-opacity:1;stroke-width:1.95394;stroke-linecap:square;stroke-linejoin:round"
         id="path94" /></g></g></svg>
