<?xml version="1.0" encoding="UTF-8" standalone="no"?>
<!-- Uploaded to: SVG Repo, www.svgrepo.com, Generator: SVG Repo Mixer Tools -->

<svg
   width="800px"
   height="800px"
   viewBox="0 0 24 24"
   version="1.1"
   id="svg8"
   sodipodi:docname="roads-roads-logo.svg"
   inkscape:version="1.4.3 (0d15f75042, 2025-12-25)"
   xml:space="preserve"
   xmlns:inkscape="http://www.inkscape.org/namespaces/inkscape"
   xmlns:sodipodi="http://sodipodi.sourceforge.net/DTD/sodipodi-0.dtd"
   xmlns="http://www.w3.org/2000/svg"
   xmlns:svg="http://www.w3.org/2000/svg"><defs
     id="defs8">
	
	
	
	
	
</defs><sodipodi:namedview
     id="namedview8"
     pagecolor="#ffffff"
     bordercolor="#000000"
     borderopacity="0.25"
     inkscape:showpageshadow="2"
     inkscape:pageopacity="0.0"
     inkscape:pagecheckerboard="0"
     inkscape:deskcolor="#d1d1d1"
     inkscape:zoom="0.75124997"
     inkscape:cx="1198.0034"
     inkscape:cy="455.24128"
     inkscape:window-width="2518"
     inkscape:window-height="1404"
     inkscape:window-x="2602"
     inkscape:window-y="0"
     inkscape:window-maximized="1"
     inkscape:current-layer="svg8"
     showgrid="false" /><polygon
     style="fill:#4d4640;fill-opacity:1"
     points="416.542,0 190.915,0 190.915,60.746 260.339,60.746 260.339,130.169 190.915,130.169 190.915,503.322 416.542,503.322 "
     id="polygon1-6"
     transform="scale(0.04768319)" /><path
     style="fill:#ffffff;stroke-width:0.0476832"
     d="m 14.482768,5.2317996 c -0.228832,0 -0.413795,-0.1849631 -0.413795,-0.4137947 V 3.2220008 c 0,-0.2288316 0.184963,-0.4137947 0.413795,-0.4137947 0.228831,0 0.413794,0.1849631 0.413794,0.4137947 v 1.5960041 c 0,0.2288316 -0.184963,0.4137947 -0.413794,0.4137947 m 0,3.990177 c -0.228832,0 -0.413795,-0.1853922 -0.413795,-0.4137947 V 7.2117487 c 0,-0.2288316 0.184963,-0.4137947 0.413795,-0.4137947 0.228831,0 0.413794,0.1849631 0.413794,0.4137947 v 1.5964332 c 0,0.2284502 -0.184963,0.4137947 -0.413794,0.4137947 m 0,3.9897954 c -0.228832,0 -0.413795,-0.184963 -0.413795,-0.413795 v -1.595574 c 0,-0.228832 0.184963,-0.413795 0.413795,-0.413795 0.228831,0 0.413794,0.184963 0.413794,0.413795 v 1.595574 c 0,0.228832 -0.184963,0.413795 -0.413794,0.413795 m 0,3.990654 c -0.228832,0 -0.413795,-0.185392 -0.413795,-0.413795 v -1.596433 c 0,-0.228402 0.184963,-0.413795 0.413795,-0.413795 0.228831,0 0.413794,0.185393 0.413794,0.413795 v 1.596433 c 0,0.228403 -0.184963,0.413795 -0.413794,0.413795 m 0,3.989796 c -0.228832,0 -0.413795,-0.184963 -0.413795,-0.413795 v -1.596004 c 0,-0.228832 0.184963,-0.413795 0.413795,-0.413795 0.228831,0 0.413794,0.184963 0.413794,0.413795 v 1.596004 c 0,0.228832 -0.184963,0.413795 -0.413794,0.413795"
     id="path1" /><g
     id="g3"
     transform="matrix(0.07590375,0,0,0.07590375,-6.586927,-3.5001916)"
     style="stroke-width:0.628206;fill:#ccb9ac;fill-opacity:1">
		<path
   style="fill:#ccb9ac;stroke-width:0.628206;fill-opacity:1"
   d="m 112.814,260.339 c -4.799,0 -8.678,-3.879 -8.678,-8.678 V 138.847 c 0,-4.799 3.879,-8.678 8.678,-8.678 4.799,0 8.678,3.879 8.678,8.678 v 112.814 c 0,4.799 -3.88,8.678 -8.678,8.678"
   id="path2" />
		<path
   style="fill:#ccb9ac;stroke-width:0.628206;fill-opacity:1"
   d="m 112.814,147.525 c -4.799,0 -8.678,-3.879 -8.678,-8.678 0,-28.715 23.352,-52.068 52.068,-52.068 4.799,0 8.678,3.879 8.678,8.678 0,4.799 -3.879,8.678 -8.678,8.678 -19.144,0 -34.712,15.568 -34.712,34.712 0,4.799 -3.88,8.678 -8.678,8.678"
   id="path3" />
	</g><polygon
     style="fill:#b2a89a;stroke-width:0.628206;fill-opacity:1"
     points="138.847,286.37 138.847,251.658 86.78,251.658 86.78,286.37 "
     id="polygon4"
     transform="matrix(0.07590375,0,0,0.07590375,-6.586927,-3.5001916)" /><rect
     style="fill:#008996;stroke:#ffffff;stroke-width:0.3;stroke-dasharray:none;stroke-dashoffset:0;paint-order:stroke fill markers;fill-opacity:1"
     id="rect1"
     width="15.963351"
     height="5.4728131"
     x="5.2694659"
     y="1.1104299"
     rx="0.27000001"
     ry="0.27000001" /><g
     id="g7"
     transform="matrix(0.60077106,0,0,0.60077106,21.642458,-10.575945)"
     style="stroke-width:1.66453"><path
       d="m -12.937559,21.62707 v 4.74709 h 3.3690238 V 24.833965 H -11.22873 V 21.62707 Z"
       style="font-size:6.64076px;font-family:'Futura XBlk BT';-inkscape-font-specification:'Futura XBlk BT';letter-spacing:0px;fill:#ffffff;stroke-width:0.499358;paint-order:stroke fill markers"
       id="path7" /><path
       d="m -15.593203,21.62707 v 4.74709 h 1.734726 v -4.74709 z"
       style="font-size:6.64076px;font-family:'Futura XBlk BT';-inkscape-font-specification:'Futura XBlk BT';letter-spacing:0px;fill:#ffffff;stroke-width:0.499358;paint-order:stroke fill markers"
       id="path6" /><path
       d="m -18.793711,21.520078 c -0.358843,0 -0.692829,0.06053 -1.001953,0.181582 -0.309124,0.121056 -0.581465,0.297214 -0.81709,0.528516 -0.233465,0.22914 -0.411802,0.495056 -0.535019,0.797695 -0.121056,0.300477 -0.181582,0.62798 -0.181582,0.9825 0,0.352358 0.06053,0.678742 0.181582,0.979219 0.121056,0.300477 0.299393,0.567453 0.535019,0.800918 0.237787,0.233464 0.510128,0.410741 0.81709,0.531797 0.309124,0.118894 0.64311,0.1783 1.001953,0.1783 0.486384,0 0.920914,-0.106967 1.303535,-0.320976 0.382622,-0.216171 0.694979,-0.527467 0.93709,-0.933867 0.09944,-0.172937 0.175112,-0.371785 0.226992,-0.596602 0.05188,-0.224817 0.07781,-0.473464 0.07781,-0.74584 0,-0.03675 -0.0011,-0.07888 -0.0032,-0.126445 -0.0021,-0.04756 -0.0053,-0.119989 -0.0097,-0.217266 h -2.623242 v 1.11545 h 0.742441 c -0.01946,0.123215 -0.08104,0.2194 -0.184804,0.288574 -0.1016,0.06917 -0.234559,0.103769 -0.398848,0.103769 -0.276699,0 -0.490692,-0.09188 -0.642012,-0.275625 -0.151319,-0.185906 -0.226992,-0.446341 -0.226992,-0.781406 0,-0.324256 0.07461,-0.582627 0.22377,-0.775019 0.151319,-0.192392 0.353408,-0.288575 0.606328,-0.288575 0.144834,0 0.27349,0.03241 0.385898,0.09727 0.112409,0.06485 0.208591,0.163214 0.288574,0.295078 l 1.520743,-0.564199 c -0.23995,-0.410724 -0.549065,-0.72202 -0.927364,-0.933867 -0.378298,-0.214009 -0.810647,-0.320977 -1.297031,-0.320977 z"
       style="font-size:6.64076px;font-family:'Futura XBlk BT';-inkscape-font-specification:'Futura XBlk BT';letter-spacing:0px;fill:#ffffff;stroke-width:0.499358;paint-order:stroke fill markers"
       id="path5" /><path
       d="m -23.03168,21.513574 c -0.361004,0 -0.697112,0.06053 -1.008398,0.181582 -0.309124,0.118894 -0.581523,0.29511 -0.817149,0.528574 -0.233464,0.231303 -0.411802,0.498221 -0.535019,0.80086 -0.121055,0.302639 -0.181582,0.631261 -0.181582,0.985781 0,0.479899 0.107026,0.904646 0.321035,1.274297 0.216171,0.369652 0.53395,0.675525 0.95332,0.917637 0.172937,0.09511 0.366363,0.168608 0.580371,0.220488 0.21401,0.05188 0.436667,0.07787 0.667969,0.07787 0.185908,0 0.371847,-0.0195 0.557754,-0.05842 0.185907,-0.03675 0.371789,-0.09292 0.557695,-0.168574 l 0.05514,-1.786641 c -0.201039,0.153482 -0.386921,0.265871 -0.557695,0.337207 -0.168614,0.06917 -0.335105,0.10377 -0.499395,0.10377 -0.272374,0 -0.48961,-0.08322 -0.651738,-0.249668 -0.162128,-0.166451 -0.243164,-0.389109 -0.243164,-0.667969 0,-0.285345 0.08428,-0.513424 0.252891,-0.684199 0.170775,-0.172937 0.395612,-0.259395 0.674472,-0.259395 0.179422,0 0.350157,0.03672 0.512285,0.110215 0.162128,0.0735 0.321018,0.184827 0.476661,0.333985 v -1.757461 c -0.17726,-0.07998 -0.359901,-0.139388 -0.547969,-0.178301 -0.185907,-0.04107 -0.375089,-0.06164 -0.567481,-0.06164 z"
       style="font-size:6.64076px;font-family:'Futura XBlk BT';-inkscape-font-specification:'Futura XBlk BT';letter-spacing:0px;fill:#ffffff;stroke-width:0.499358;paint-order:stroke fill markers"
       id="path4" /></g><path
     style="fill:#ffffff;stroke:none;stroke-width:0.3;stroke-dasharray:none;stroke-dashoffset:0;paint-order:stroke fill markers"
     d="m 17.568084,3.7140439 1.425653,-1.3652575 1.425652,1.3652575 H 19.569363 V 5.3448864 H 18.418111 V 3.7140439 Z"
     id="path8"
     sodipodi:nodetypes="cccccccc" /></svg>
