<?xml version="1.0" encoding="UTF-8" standalone="no"?>
<!-- Uploaded to: SVG Repo, www.svgrepo.com, Generator: SVG Repo Mixer Tools -->

<svg
   width="800px"
   height="800px"
   viewBox="0 0 24 24"
   version="1.1"
   id="svg8"
   sodipodi:docname="structures-structure-info-logo.svg"
   inkscape:version="1.4.3 (0d15f75042, 2025-12-25)"
   xml:space="preserve"
   xmlns:inkscape="http://www.inkscape.org/namespaces/inkscape"
   xmlns:sodipodi="http://sodipodi.sourceforge.net/DTD/sodipodi-0.dtd"
   xmlns="http://www.w3.org/2000/svg"
   xmlns:svg="http://www.w3.org/2000/svg"><defs
     id="defs8" /><sodipodi:namedview
     id="namedview8"
     pagecolor="#ffffff"
     bordercolor="#000000"
     borderopacity="0.25"
     inkscape:showpageshadow="2"
     inkscape:pageopacity="0.0"
     inkscape:pagecheckerboard="0"
     inkscape:deskcolor="#d1d1d1"
     inkscape:zoom="0.75124997"
     inkscape:cx="1091.5142"
     inkscape:cy="560.39936"
     inkscape:window-width="2518"
     inkscape:window-height="1404"
     inkscape:window-x="2602"
     inkscape:window-y="0"
     inkscape:window-maximized="1"
     inkscape:current-layer="svg8"
     showgrid="false" /><path
     fill="#34495e"
     d="m 11.992562,17.494622 c 0,0 -9.353273,0.0074 -9.343196,0.0098 0.0041,0.207526 0,0.964933 0,0.964933 l 9.342956,5.530489 9.343197,-5.530489 c 0,0 -0.0084,-0.767244 -0.0019,-0.956536 -0.02207,-0.04654 -9.341038,-0.01823 -9.341038,-0.01823 z"
     id="path1"
     style="stroke-width:0.239914;fill:#80746b;fill-opacity:1" /><path
     fill="#ecf0f1"
     d="m 11.992562,6.2258787 c 0,0 -9.353273,0.00744 -9.343196,0.00984 0.0041,0.2075253 0,11.2749803 0,11.2749803 l 9.343196,5.530249 9.343197,-5.530249 c 0,0 -9.6e-4,-11.0770516 0.0053,-11.2663434 -0.02135,-0.047023 -9.348475,-0.018473 -9.348475,-0.018473 z"
     id="path2-3"
     style="stroke-width:0.239914" /><path
     fill="#2c3e50"
     d="m 2.649366,17.504458 c 0.0041,0.207526 0,0.964933 0,0.964933 l 9.342956,5.530489 v -6.505258 c 2.4e-4,0 -9.353272,0.0077 -9.342956,0.0098 z"
     id="path3"
     style="stroke-width:0.239914;fill:#4d4640;fill-opacity:1" /><path
     fill="#bdc3c7"
     d="m 2.649366,6.2357152 c 0.0041,0.2075253 0,11.2749808 0,11.2749808 l 9.343196,5.530249 V 6.2258787 c 0,0 -9.353512,0.00744 -9.343196,0.00984 z"
     id="path4"
     style="stroke-width:0.239914" /><path
     fill="#bdc3c7"
     d="m 11.992562,5.7546883 c 0,0 -9.83238,0.00744 -9.822304,0.00984 0.0043,0.2075253 0,0.9649326 0,0.9649326 l 9.822064,5.7701631 9.822064,-5.7701631 c 0,0 -0.0079,-0.7672438 -0.0019,-0.9565356 -0.02159,-0.046783 -9.819905,-0.018234 -9.819905,-0.018234 z"
     id="path5-6"
     style="stroke-width:0.239914" /><path
     fill="#95a5a6"
     d="m 13.437322,13.187453 1.680355,-0.959175 v 3.116958 l -1.680355,0.958695 z m 2.400816,-1.438763 1.680595,-0.959174 v 3.117198 l -1.680595,0.958694 z M 2.170978,6.7296973 11.965692,12.483786 h 0.02663 V 5.7702827 H 2.170978 v 0.052061 c 0.0019,0.1818545 7.2e-4,0.5460434 0,0.7535687 z m 16.067975,3.5804707 1.681075,-0.9589344 v 3.1167184 l -1.681075,0.958934 z m -4.801631,6.955816 1.680355,-0.959174 v 3.116957 l -1.680355,0.959175 z m 4.801631,-2.877524 1.681075,-0.958935 v 3.116958 l -1.681075,0.958935 z"
     id="path6-7"
     style="stroke-width:0.239914" /><path
     fill="#2c3e50"
     d="m 15.839817,17.507337 1.680595,-0.958934 v 4.179535 l -1.680595,0.994682 z"
     id="path7-5"
     style="stroke-width:0.239914;fill:#80746b;fill-opacity:1" /><path
     fill="#c0392c"
     d="m 15.839817,15.827942 1.680595,-0.958935 v 0.957735 l -1.680595,0.958935 z"
     id="path8-3"
     style="fill:#a7d7dc;fill-opacity:1;stroke-width:0.239914" /><path
     fill="#ecf0f1"
     d="M 11.992562,1.2001e-4 2.162821,5.7702827 11.992562,11.540445 21.837178,5.7702827 Z"
     id="path9-5"
     style="stroke-width:0.239914" /><path
     fill="#d48a6d"
     d="M 11.992562,0.966732 3.600144,5.7702827 11.992562,10.573833 20.384981,5.7702827 Z"
     id="path10-6"
     style="fill:#a7d7dc;fill-opacity:1;stroke-width:0.239914" /><path
     fill="#7f8c8d"
     d="M 10.55524,13.19489 8.878483,12.235715 v 3.116958 l 1.676757,0.958695 z M 8.159702,11.756128 6.482946,10.796953 v 3.117438 l 1.676756,0.958695 z M 5.764164,10.317606 4.087408,9.358431 v 3.116718 l 1.676756,0.959175 z m 4.791076,6.953176 -1.676757,-0.958694 v 3.116478 L 10.55524,20.38774 Z M 8.159702,15.83226 6.482946,14.873566 v 3.116478 l 1.676756,0.959174 z M 5.764164,14.393738 4.087408,13.434564 v 3.116957 l 1.676756,0.959175 z"
     id="path11-2"
     style="stroke-width:0.239914" /><path
     fill="#bdc3c7"
     d="m 19.920028,10.699788 -1.681075,1.048902 v 0.479588 l 1.681075,-1.048903 z m 0,4.078532 -1.681075,1.048902 v 0.479588 l 1.681075,-1.049143 z m -2.401295,-2.64001 -1.680595,1.049143 V 13.6668 l 1.680595,-1.049142 z m -2.401056,1.438522 -1.680355,1.049143 v 0.479347 l 1.680355,-1.048662 z m 0,4.078532 -1.680355,1.049142 v 0.479348 l 1.680355,-1.048663 z"
     id="path12"
     style="stroke-width:0.239914" /><path
     fill="#95a5a6"
     d="m 8.878483,13.58451 v 0.479827 l 1.676757,1.048662 v -0.479347 z m 0,4.076132 v 0.479348 l 1.676757,1.049142 V 18.709305 Z M 6.482946,16.22212 v 0.479347 l 1.676756,1.049143 v -0.479828 z m 0,-4.076372 v 0.479347 l 1.676756,1.049382 V 13.19489 Z m -2.396258,2.63737 v 0.479348 l 1.677476,1.049622 V 15.83226 Z m 0,-4.076372 v 0.479587 l 1.677476,1.049382 v -0.479587 z"
     id="path13"
     style="stroke-width:0.239914" /><path
     fill="#aa6f57"
     d="M 11.992562,1.4465593 19.965852,6.0101964 20.384981,5.7702827 11.992562,0.966732 3.600144,5.7702827 4.019273,6.0101964 Z"
     id="path14"
     style="fill:#80746b;fill-opacity:1;stroke-width:0.239914" /></svg>
