<?xml version="1.0" encoding="UTF-8" standalone="no"?>
<!-- Created with Inkscape (http://www.inkscape.org/) -->

<svg
   width="260"
   height="26"
   viewBox="0 0 68.791664 6.8791666"
   version="1.1"
   id="svg1"
   inkscape:version="1.3.2 (1:1.3.2+202311252150+091e20ef0f)"
   sodipodi:docname="mission_places_navbar_logo.svg"
   xml:space="preserve"
   xmlns:inkscape="http://www.inkscape.org/namespaces/inkscape"
   xmlns:sodipodi="http://sodipodi.sourceforge.net/DTD/sodipodi-0.dtd"
   xmlns="http://www.w3.org/2000/svg"
   xmlns:svg="http://www.w3.org/2000/svg"><sodipodi:namedview
     id="namedview1"
     pagecolor="#ffffff"
     bordercolor="#000000"
     borderopacity="0.25"
     inkscape:showpageshadow="false"
     inkscape:pageopacity="0.0"
     inkscape:pagecheckerboard="0"
     inkscape:deskcolor="#d1d1d1"
     inkscape:document-units="px"
     inkscape:zoom="4.6261101"
     inkscape:cx="157.04339"
     inkscape:cy="50.9067"
     inkscape:window-width="2526"
     inkscape:window-height="1404"
     inkscape:window-x="34"
     inkscape:window-y="0"
     inkscape:window-maximized="1"
     inkscape:current-layer="layer1" /><defs
     id="defs1" /><g
     inkscape:label="Livello 1"
     inkscape:groupmode="layer"
     id="layer1"><g
       id="g18"
       transform="matrix(0.4837668,0,0,0.4837668,17.868957,3.3616801)"><path
         d="m -31.043634,-0.8466854 c 0,-0.1855212 0.150385,-0.3359066 0.335907,-0.3359066 h 0.671813 c 0.185521,0 0.335906,0.1503854 0.335906,0.3359066 v 0.6718132 c 0,0.18552122 -0.150385,0.3359066 -0.335906,0.3359066 h -0.671813 c -0.185522,0 -0.335907,-0.15038538 -0.335907,-0.3359066 z"
         fill="#333333"
         id="path1"
         style="fill:#4d4d4d;stroke-width:0.335907" /><path
         d="m -29.028194,-0.8466854 c 0,-0.1855212 0.150385,-0.3359066 0.335906,-0.3359066 h 0.671813 c 0.185522,0 0.335907,0.1503854 0.335907,0.3359066 v 0.6718132 c 0,0.18552122 -0.150385,0.3359066 -0.335907,0.3359066 h -0.671813 c -0.185521,0 -0.335906,-0.15038538 -0.335906,-0.3359066 z"
         fill="#333333"
         id="path2"
         style="fill:#4d4d4d;stroke-width:0.335907" /><path
         d="m -30.707727,0.8328476 c -0.185522,0 -0.335907,0.15038538 -0.335907,0.3359066 v 0.6718132 c 0,0.1855212 0.150385,0.3359066 0.335907,0.3359066 h 0.671813 c 0.185521,0 0.335906,-0.1503854 0.335906,-0.3359066 V 1.1687542 c 0,-0.18552122 -0.150385,-0.3359066 -0.335906,-0.3359066 z"
         fill="#333333"
         id="path3"
         style="fill:#4d4d4d;stroke-width:0.335907" /><path
         d="m -31.043634,3.1841938 c 0,-0.1855212 0.150385,-0.3359066 0.335907,-0.3359066 h 0.671813 c 0.185521,0 0.335906,0.1503854 0.335906,0.3359066 V 3.856007 c 0,0.1855212 -0.150385,0.3359066 -0.335906,0.3359066 h -0.671813 c -0.185522,0 -0.335907,-0.1503854 -0.335907,-0.3359066 z"
         fill="#333333"
         id="path4"
         style="fill:#ff0000;stroke-width:0.335907" /><path
         d="m -28.692288,0.8328476 c -0.185521,0 -0.335906,0.15038538 -0.335906,0.3359066 v 0.6718132 c 0,0.1855212 0.150385,0.3359066 0.335906,0.3359066 h 0.671813 c 0.185522,0 0.335907,-0.1503854 0.335907,-0.3359066 V 1.1687542 c 0,-0.18552122 -0.150385,-0.3359066 -0.335907,-0.3359066 z"
         fill="#333333"
         id="path5"
         style="fill:#4d4d4d;stroke-width:0.335907" /><path
         d="m -29.028194,3.1841938 c 0,-0.1855212 0.150385,-0.3359066 0.335906,-0.3359066 h 0.671813 c 0.185522,0 0.335907,0.1503854 0.335907,0.3359066 V 3.856007 c 0,0.1855212 -0.150385,0.3359066 -0.335907,0.3359066 h -0.671813 c -0.185521,0 -0.335906,-0.1503854 -0.335906,-0.3359066 z"
         fill="#333333"
         id="path6"
         style="fill:#ff0000;stroke-width:0.335907" /><path
         d="m -22.645969,-0.5107788 c -0.185521,0 -0.335907,0.15038538 -0.335907,0.3359066 V 0.496941 c 0,0.18552122 0.150386,0.3359066 0.335907,0.3359066 h 0.671813 c 0.185521,0 0.335907,-0.15038538 0.335907,-0.3359066 v -0.6718132 c 0,-0.18552122 -0.150386,-0.3359066 -0.335907,-0.3359066 z"
         fill="#333333"
         id="path7-3"
         style="fill:#4d4d4d;stroke-width:0.335907" /><path
         d="m -22.981876,1.8405674 c 0,-0.1855212 0.150386,-0.3359066 0.335907,-0.3359066 h 0.671813 c 0.185521,0 0.335907,0.1503854 0.335907,0.3359066 v 0.6718132 c 0,0.1855212 -0.150386,0.3359066 -0.335907,0.3359066 h -0.671813 c -0.185521,0 -0.335907,-0.1503854 -0.335907,-0.3359066 z"
         fill="#333333"
         id="path8"
         style="fill:#4d4d4d;stroke-width:0.335907" /><path
         d="m -22.645969,3.5201004 c -0.185521,0 -0.335907,0.1503854 -0.335907,0.3359066 v 0.6718132 c 0,0.1855212 0.150386,0.3359066 0.335907,0.3359066 h 0.671813 c 0.185521,0 0.335907,-0.1503854 0.335907,-0.3359066 V 3.856007 c 0,-0.1855212 -0.150386,-0.3359066 -0.335907,-0.3359066 z"
         fill="#333333"
         id="path9-6"
         style="fill:#4d4d4d;stroke-width:0.335907" /><path
         fill-rule="evenodd"
         clip-rule="evenodd"
         d="m -32.38726,6.2073532 h -0.671814 V 6.8791664 H -19.62281 V 6.2073532 h -0.671813 v -7.0540386 c 0,-0.5565636 -0.451156,-1.0077198 -1.00772,-1.0077198 h -2.015439 v -3.6949726 c 0,-0.5565469 -0.451156,-1.0077198 -1.00772,-1.0077198 h -4.030879 c -0.556564,0 -1.00772,0.4511729 -1.00772,1.0077198 v 3.0231594 h -2.01544 c -0.556546,0 -1.007719,0.4511562 -1.007719,1.0077198 z m 5.374505,0 v -7.7258518 c 0,-0.1855212 -0.150385,-0.3359066 -0.335906,-0.3359066 h -4.03088 c -0.185517,0 -0.335906,0.1503854 -0.335906,0.3359066 v 7.7258518 z m 6.046319,0 v -7.0540386 c 0,-0.1855212 -0.150385,-0.3359066 -0.335907,-0.3359066 h -2.015439 v 7.3899452 z m -6.718132,-11.4208244 c -0.185521,0 -0.335907,0.1503921 -0.335907,0.3359066 v 0.6718132 c 0,0.1855212 0.150386,0.3359066 0.335907,0.3359066 h 0.671813 c 0.185521,0 0.335907,-0.1503854 0.335907,-0.3359066 v -0.6718132 c 0,-0.1855145 -0.150386,-0.3359066 -0.335907,-0.3359066 z m 0,2.0154396 c -0.185521,0 -0.335907,0.1503854 -0.335907,0.3359066 v 0.3359066 h 0.671814 c 0.25811,0 0.493514,0.097043 0.671813,0.2565991 V -2.862125 c 0,-0.1855212 -0.150386,-0.3359066 -0.335907,-0.3359066 z m 2.01544,-2.0154396 c -0.185522,0 -0.335907,0.1503921 -0.335907,0.3359066 v 0.6718132 c 0,0.1855212 0.150385,0.3359066 0.335907,0.3359066 h 0.671813 c 0.185521,0 0.335906,-0.1503854 0.335906,-0.3359066 v -0.6718132 c 0,-0.1855145 -0.150385,-0.3359066 -0.335906,-0.3359066 z m -0.335907,2.3513462 c 0,-0.1855212 0.150385,-0.3359066 0.335907,-0.3359066 h 0.671813 c 0.185521,0 0.335906,0.1503854 0.335906,0.3359066 v 0.6718132 c 0,0.1855212 -0.150385,0.3359066 -0.335906,0.3359066 h -0.671813 c -0.185522,0 -0.335907,-0.1503854 -0.335907,-0.3359066 z m 0.335907,1.679533 c -0.185522,0 -0.335907,0.1503854 -0.335907,0.3359066 v 0.6718132 c 0,0.18552122 0.150385,0.3359066 0.335907,0.3359066 h 0.671813 c 0.185521,0 0.335906,-0.15038538 0.335906,-0.3359066 v -0.6718132 c 0,-0.1855212 -0.150385,-0.3359066 -0.335906,-0.3359066 z m -0.335907,2.3513462 c 0,-0.18552122 0.150385,-0.3359066 0.335907,-0.3359066 h 0.671813 c 0.185521,0 0.335906,0.15038538 0.335906,0.3359066 v 0.6718132 c 0,0.1855212 -0.150385,0.3359066 -0.335906,0.3359066 h -0.671813 c -0.185522,0 -0.335907,-0.1503854 -0.335907,-0.3359066 z m 0.335907,1.679533 c -0.185522,0 -0.335907,0.1503854 -0.335907,0.3359066 V 3.856007 c 0,0.1855212 0.150385,0.3359066 0.335907,0.3359066 h 0.671813 c 0.185521,0 0.335906,-0.1503854 0.335906,-0.3359066 V 3.1841938 c 0,-0.1855212 -0.150385,-0.3359066 -0.335906,-0.3359066 z"
         fill="#333333"
         id="path10-7"
         style="fill:#4d4d4d;stroke-width:0.335907" /><path
         style="fill:#2b6b00;fill-opacity:1;stroke-width:0.423333;stroke-linecap:round;stroke-linejoin:round"
         d="M -33.059073,6.2073533 V 6.8791666 H -19.62281 V 6.2073533 Z"
         id="path18" /></g><path
       d="m 18.565413,6.8008819 q -0.09604,0 -0.09604,-0.096037 V 0.17432184 q 0,-0.0960371 0.09604,-0.0960371 h 0.489789 q 0.09604,0 0.09604,0.0960371 V 6.167037 q 0,0.038415 0.03842,0.038415 h 2.199249 q 0.09604,0 0.09604,0.096037 v 0.4033559 q 0,0.096037 -0.09604,0.096037 z m 5.291643,0.07683 q -0.739486,0 -1.19086,-0.5089966 Q 22.214822,5.8597183 22.214822,5.0241955 V 0.17432184 q 0,-0.0960371 0.09604,-0.0960371 h 0.489789 q 0.09604,0 0.09604,0.0960371 V 5.1010252 q 0,0.528204 0.2593,0.8547302 0.268904,0.3265261 0.701071,0.3265261 0.441771,0 0.710675,-0.3265261 0.268903,-0.3265262 0.268903,-0.8547302 V 0.17432184 q 0,-0.0960371 0.09604,-0.0960371 h 0.489789 q 0.09604,0 0.09604,0.0960371 V 5.0241955 q 0,0.8355228 -0.460978,1.3445194 -0.451375,0.5089966 -1.200464,0.5089966 z m 4.408084,0 q -0.739486,0 -1.200464,-0.460978 -0.451375,-0.4609781 -0.451375,-1.2196712 v -3.514958 q 0,-0.75869306 0.451375,-1.21967115 0.460978,-0.46097809 1.200464,-0.46097809 0.749089,0 1.210067,0.46097809 0.460978,0.46097809 0.460978,1.21967115 v 3.514958 q 0,0.7490894 -0.460978,1.2196712 -0.460978,0.460978 -1.210067,0.460978 z m 0,-0.59543 q 0.44177,0 0.710674,-0.2881113 0.278508,-0.297715 0.278508,-0.7586931 V 1.6532932 q 0,-0.4705818 -0.278508,-0.75869309 -0.268904,-0.29771502 -0.710674,-0.29771502 -0.432167,0 -0.701071,0.29771502 -0.268904,0.28811129 -0.268904,0.75869309 v 3.5821839 q 0,0.4609781 0.268904,0.7586931 0.268904,0.2881113 0.701071,0.2881113 z m 4.360078,0.59543 q -0.739486,0 -1.181256,-0.4321669 Q 31.002191,6.0037739 31.002191,5.2738919 V 1.6052747 q 0,-0.72988202 0.441771,-1.16204897 0.44177,-0.44177067 1.181256,-0.44177067 0.739486,0 1.181256,0.44177067 0.451375,0.44177067 0.451375,1.17165267 v 0.4129595 q 0,0.096037 -0.09604,0.096037 h -0.48979 q -0.09604,0 -0.09604,-0.096037 v -0.432167 q 0,-0.4513743 -0.2593,-0.72027822 -0.2593,-0.27850759 -0.691467,-0.27850759 -0.422563,0 -0.691467,0.27850759 -0.2593,0.27850762 -0.2593,0.72027822 v 3.6878248 q 0,0.4417706 0.2593,0.7202782 0.268904,0.2785076 0.691467,0.2785076 0.432167,0 0.691467,-0.2689039 0.2593,-0.2785076 0.2593,-0.7298819 V 4.0542208 q 0,-0.038415 -0.03842,-0.038415 h -0.825919 q -0.09604,0 -0.09604,-0.096037 V 3.516413 q 0,-0.096037 0.09604,-0.096037 h 1.450161 q 0.09604,0 0.09604,0.096037 v 1.7574789 q 0,0.729882 -0.451375,1.1716527 -0.44177,0.4321669 -1.181256,0.4321669 z M 37.95526,0.17432184 q 0,-0.0960371 0.09604,-0.0960371 h 0.489789 q 0.09604,0 0.09604,0.0960371 V 6.7048448 q 0,0.096037 -0.09604,0.096037 h -0.489789 q -0.09604,0 -0.09604,-0.096037 V 3.7757132 q 0,-0.038415 -0.03842,-0.038415 h -1.709461 q -0.03841,0 -0.03841,0.038415 v 2.9291316 q 0,0.096037 -0.09604,0.096037 h -0.489789 q -0.09604,0 -0.09604,-0.096037 V 0.17432184 q 0,-0.0960371 0.09604,-0.0960371 h 0.489789 q 0.09604,0 0.09604,0.0960371 V 3.0938497 q 0,0.038415 0.03841,0.038415 h 1.709461 q 0.03842,0 0.03842,-0.038415 z m 2.160817,6.62656006 q -0.09604,0 -0.09604,-0.096037 V 0.17432184 q 0,-0.0960371 0.09604,-0.0960371 h 0.48979 q 0.09604,0 0.09604,0.0960371 V 6.7048448 q 0,0.096037 -0.09604,0.096037 z"
       id="text18"
       style="font-stretch:condensed;font-size:9.60371px;font-family:'Barlow Condensed';-inkscape-font-specification:'Barlow Condensed,  Condensed';letter-spacing:0px;fill:#2b6b00;stroke-width:1.28049;stroke-linecap:round;stroke-linejoin:round"
       aria-label="LUOGHI" /><path
       d="m 46.491448,2.7667424 q 0.2492,0 0.38626,0.1827466 0.13706,0.1827466 0.13706,0.5067066 v 1.3996729 q 0,0.041533 -0.04153,0.041533 h -0.207667 q -0.04153,0 -0.04153,-0.041533 V 3.4811156 q 0,-0.21182 -0.09137,-0.3322666 -0.08721,-0.1246 -0.232586,-0.1246 -0.157827,0 -0.2492,0.1204466 -0.09137,0.1204467 -0.09137,0.3281133 v 1.3830596 q 0,0.041533 -0.04153,0.041533 h -0.21182 q -0.04153,0 -0.04153,-0.041533 V 3.4811156 q 0,-0.21182 -0.09137,-0.3322666 -0.08723,-0.1246 -0.228434,-0.1246 -0.157826,0 -0.253353,0.1204466 -0.09137,0.1204467 -0.09137,0.3281133 v 1.3830596 q 0,0.041533 -0.04153,0.041533 h -0.207666 q -0.04153,0 -0.04153,-0.041533 V 2.837349 q 0,-0.041533 0.04153,-0.041533 h 0.207666 q 0.04153,0 0.04153,0.041533 v 0.1287533 q 0,0.00831 0.0042,0.012467 0.0082,0 0.01661,-0.00831 0.07891,-0.1038333 0.1869,-0.1536733 0.107987,-0.04984 0.228433,-0.04984 0.157827,0 0.27412,0.078913 0.116294,0.07476 0.178594,0.2159732 0.0042,0.00831 0.01243,0.00831 0.0082,0 0.01243,-0.012466 0.07476,-0.14952 0.203513,-0.2201267 0.12876,-0.070607 0.27412,-0.070607 z m 1.187848,-0.3530332 q -0.10384,0 -0.170287,-0.066453 -0.06231,-0.066453 -0.06231,-0.1661333 0,-0.1038333 0.06231,-0.1661332 0.06645,-0.066453 0.170287,-0.066453 0.09968,0 0.16198,0.066453 0.06645,0.0623 0.06645,0.1661332 0,0.09968 -0.06645,0.1661333 -0.06229,0.066453 -0.16198,0.066453 z m -0.10384,2.4836927 q -0.04153,0 -0.04153,-0.041533 V 2.837349 q 0,-0.041533 0.04153,-0.041533 h 0.21182 q 0.04153,0 0.04153,0.041533 v 2.0185195 q 0,0.041533 -0.04153,0.041533 z m 1.337366,0.020767 q -0.286579,0 -0.461019,-0.1453666 -0.170287,-0.14952 -0.170287,-0.3945666 V 4.349162 q 0,-0.041533 0.04153,-0.041533 h 0.19936 q 0.04153,0 0.04153,0.041533 v 0.02492 q 0,0.1329066 0.09553,0.2242799 0.09968,0.091373 0.257506,0.091373 0.14952,0 0.240894,-0.091373 0.09137,-0.091373 0.09137,-0.2325866 0,-0.1079866 -0.05815,-0.1785933 -0.05815,-0.07476 -0.13706,-0.1162933 Q 48.979266,4.0293557 48.825593,3.9629021 48.663613,3.8964491 48.555626,3.8341488 48.4518,3.7676958 48.37288,3.6514022 48.29812,3.5309555 48.29812,3.3482089 q 0,-0.2658132 0.16198,-0.4194865 0.166133,-0.1536733 0.444406,-0.1536733 0.282427,0 0.44856,0.1578266 0.166134,0.1578266 0.166134,0.4194866 v 0.012467 q 0,0.041533 -0.04153,0.041533 h -0.191053 q -0.04153,0 -0.04153,-0.041533 v -0.02492 q 0,-0.1412133 -0.09553,-0.2325866 -0.09137,-0.091373 -0.240893,-0.091373 -0.14952,0 -0.240893,0.095527 -0.08721,0.091373 -0.08721,0.2284333 0,0.09968 0.05399,0.1702866 0.05399,0.066453 0.132907,0.11214 0.07892,0.041533 0.220126,0.1038333 0.170287,0.07476 0.278274,0.1412133 0.112146,0.066453 0.195206,0.1868999 0.08307,0.1204467 0.08307,0.29904 0,0.2575066 -0.170287,0.4111799 -0.170286,0.1536733 -0.46102,0.1536733 z m 1.4495,0 q -0.28658,0 -0.46102,-0.1453666 -0.170286,-0.14952 -0.170286,-0.3945666 V 4.349162 q 0,-0.041533 0.04153,-0.041533 h 0.19936 q 0.04153,0 0.04153,0.041533 v 0.02492 q 0,0.1329066 0.09553,0.2242799 0.09968,0.091373 0.257506,0.091373 0.14952,0 0.240893,-0.091373 0.09137,-0.091373 0.09137,-0.2325866 0,-0.1079866 -0.05815,-0.1785933 -0.05815,-0.07476 -0.13706,-0.1162933 -0.07476,-0.041533 -0.228433,-0.1079866 -0.16198,-0.066453 -0.269967,-0.1287533 -0.103826,-0.066453 -0.182746,-0.1827466 -0.07476,-0.1204467 -0.07476,-0.3031933 0,-0.2658132 0.16198,-0.4194865 0.166133,-0.1536733 0.444406,-0.1536733 0.282427,0 0.44856,0.1578266 0.166133,0.1578266 0.166133,0.4194866 v 0.012467 q 0,0.041533 -0.04153,0.041533 h -0.191053 q -0.04153,0 -0.04153,-0.041533 v -0.02492 q 0,-0.1412133 -0.09553,-0.2325866 -0.09137,-0.091373 -0.240893,-0.091373 -0.14952,0 -0.240893,0.095527 -0.08723,0.091373 -0.08723,0.2284333 0,0.09968 0.054,0.1702866 0.05399,0.066453 0.132907,0.11214 0.07891,0.041533 0.220126,0.1038333 0.170287,0.07476 0.278274,0.1412133 0.112133,0.066453 0.195206,0.1868999 0.08307,0.1204467 0.08307,0.29904 0,0.2575066 -0.170287,0.4111799 -0.170286,0.1536733 -0.46102,0.1536733 z m 1.183695,-2.5044593 q -0.103827,0 -0.170287,-0.066453 -0.06231,-0.066453 -0.06231,-0.1661333 0,-0.1038333 0.06231,-0.1661332 0.06645,-0.066453 0.170287,-0.066453 0.09968,0 0.16198,0.066453 0.06645,0.0623 0.06645,0.1661332 0,0.09968 -0.06645,0.1661333 -0.06229,0.066453 -0.16198,0.066453 z M 51.44219,4.8974019 q -0.04153,0 -0.04153,-0.041533 V 2.837349 q 0,-0.041533 0.04153,-0.041533 h 0.21182 q 0.04153,0 0.04153,0.041533 v 2.0185195 q 0,0.041533 -0.04153,0.041533 z m 1.395512,0.033227 q -0.29904,0 -0.477633,-0.1744399 -0.17444,-0.17444 -0.17444,-0.4610199 V 3.4022022 q 0,-0.2824266 0.178593,-0.4610198 0.178593,-0.1785933 0.47348,-0.1785933 0.29904,0 0.477633,0.1785933 0.178593,0.1785932 0.178593,0.4610198 v 0.8929665 q 0,0.2865799 -0.178593,0.4610199 -0.178593,0.1744399 -0.477633,0.1744403 z m 0,-0.2616599 q 0.157826,0 0.257506,-0.1079867 0.103827,-0.1079866 0.103827,-0.2865799 V 3.4188156 q 0,-0.1785933 -0.103827,-0.28658 -0.09968,-0.1121399 -0.257506,-0.1121399 -0.157827,0 -0.257507,0.1121399 -0.09968,0.1079867 -0.09968,0.28658 V 4.274402 q 0,0.1785933 0.09968,0.2865799 0.09968,0.1079867 0.257507,0.1079871 z m 1.864843,-1.9022262 q 0.253354,0 0.390414,0.17444 0.141213,0.1744399 0.141213,0.4859398 v 1.4287463 q 0,0.041533 -0.04153,0.041533 h -0.21182 q -0.04153,0 -0.04153,-0.041533 V 3.4520422 q 0,-0.2035133 -0.09137,-0.3156532 -0.08721,-0.11214 -0.245047,-0.11214 -0.166133,0 -0.261659,0.1204466 -0.09137,0.1204467 -0.09137,0.3281133 v 1.3830596 q 0,0.041533 -0.04153,0.041533 h -0.21182 q -0.04153,0 -0.04153,-0.041533 V 2.837349 q 0,-0.041533 0.04153,-0.041533 h 0.21182 q 0.04153,0 0.04153,0.041533 v 0.1329067 q 0,0.00831 0.0084,0.012466 0.0082,0.00415 0.01243,-0.00831 0.07476,-0.1038334 0.1869,-0.1536733 0.116293,-0.053993 0.245046,-0.053993 z m 2.267719,1.150473 q 0,0.041533 -0.04153,0.041533 h -0.94696 q -0.01661,0 -0.01661,0.016613 v 0.3031933 q 0,0.1744399 0.09552,0.2865799 0.09968,0.1079866 0.257507,0.1079866 0.132906,0 0.22428,-0.078913 0.09553,-0.083067 0.1246,-0.2118199 0.01243,-0.03738 0.04569,-0.03738 l 0.207667,0.00831 q 0.01661,0 0.02907,0.012467 0.01243,0.012467 0.0082,0.033227 -0.03323,0.2450466 -0.203514,0.3904133 -0.166133,0.1412133 -0.4361,0.1412133 -0.294886,0 -0.473479,-0.17444 -0.17444,-0.17444 -0.17444,-0.4610199 v -0.897124 q 0,-0.2824265 0.17444,-0.4568665 0.178593,-0.1785933 0.473479,-0.1785933 0.29904,0 0.47348,0.1785933 0.178594,0.17444 0.178594,0.4568665 z M 56.31819,3.0200957 q -0.157826,0 -0.257506,0.1121399 -0.09552,0.1079867 -0.09552,0.28658 v 0.2782732 q 0,0.016613 0.01661,0.016613 h 0.681146 q 0.01661,0 0.01661,-0.016613 V 3.4188156 q 0,-0.1785933 -0.09968,-0.28658 -0.09968,-0.1121399 -0.26166,-0.1121399 z"
       id="text19"
       style="font-stretch:condensed;font-size:3.175px;font-family:'Barlow Condensed';-inkscape-font-specification:'Barlow Condensed,  Condensed';letter-spacing:0px;fill:#2b6b00;stroke-width:0.553777;stroke-linecap:round;stroke-linejoin:round"
       aria-label="missione" /></g></svg>
