<?xml version="1.0" encoding="UTF-8" standalone="no"?>
<!-- Created with Inkscape (http://www.inkscape.org/) -->

<svg
   width="620"
   height="162"
   viewBox="0 0 164.04166 42.862501"
   version="1.1"
   id="svg1"
   inkscape:version="1.3.2 (1:1.3.2+202311252150+091e20ef0f)"
   sodipodi:docname="login-logo.svg"
   xml:space="preserve"
   xmlns:inkscape="http://www.inkscape.org/namespaces/inkscape"
   xmlns:sodipodi="http://sodipodi.sourceforge.net/DTD/sodipodi-0.dtd"
   xmlns="http://www.w3.org/2000/svg"
   xmlns:svg="http://www.w3.org/2000/svg"><sodipodi:namedview
     id="namedview1"
     pagecolor="#ffffff"
     bordercolor="#000000"
     borderopacity="0.25"
     inkscape:showpageshadow="false"
     inkscape:pageopacity="0.0"
     inkscape:pagecheckerboard="0"
     inkscape:deskcolor="#d1d1d1"
     inkscape:document-units="px"
     inkscape:zoom="2"
     inkscape:cx="254.25"
     inkscape:cy="-8.75"
     inkscape:window-width="2526"
     inkscape:window-height="1404"
     inkscape:window-x="2594"
     inkscape:window-y="0"
     inkscape:window-maximized="1"
     inkscape:current-layer="layer1" /><defs
     id="defs1" /><g
     inkscape:label="Livello 1"
     inkscape:groupmode="layer"
     id="layer1"><g
       id="g6"
       transform="matrix(1.3581704,0,0,1.3581704,-1.2024878,0.03189391)"
       style="fill:#eb6864;fill-opacity:1"><path
         id="path2"
         style="fill:#eb6864;stroke-width:0.498923;stroke-linejoin:bevel;paint-order:stroke markers fill;fill-opacity:1"
         d="m 15.512441,0 c -1.229171,-7.3738481e-5 -2.22563,0.99638482 -2.225556,2.225556 0.0019,0.063938 0.0065,0.127766 0.01385,0.191306 C 7.9011736,3.346036 3.6405822,7.613911 2.7216131,13.017129 1.6608843,13.205532 0.88743084,14.126681 0.8853746,15.20401 c 0.002056,1.077329 0.7755093,1.998479 1.8362385,2.186882 0.3905736,2.297409 1.3828227,4.390508 2.8128832,6.108419 l -0.8942319,0.52388 c 0,0 5.4284186,7.484801 10.8308526,7.48884 5.428461,0.0041 11.123805,-7.189504 11.123805,-7.189504 0,0 -1.150412,-0.764944 -1.146751,-0.774478 1.458992,-1.727212 2.453293,-3.817543 2.851346,-6.140656 1.100515,-0.152035 1.920325,-1.092416 1.920875,-2.203383 -2.88e-4,-1.111139 -0.820123,-2.051804 -1.920804,-2.203898 -0.925017,-5.395035 -5.182303,-9.654941 -10.57603,-10.58325 0.0074,-0.06354 0.01198,-0.1273679 0.01385,-0.191306 C 17.737482,0.99658632 16.741338,2.1122999e-4 15.512368,0 Z m -2.023419,3.152698 c 0.362545,0.7912384 1.153076,1.298516 2.023419,1.298413 0.870157,-9.84e-5 1.660436,-0.5073441 2.022904,-1.298413 5.080769,0.845552 9.095504,4.819289 10.002625,9.87887 -1.028358,0.215897 -1.765575,1.121669 -1.768172,2.172442 0.0028,1.05058 0.740002,1.956072 1.768172,2.171928 -0.394488,2.201759 -1.377068,4.197165 -2.780915,5.819653 -3.159008,-1.768719 -6.535917,-3.680496 -8.218466,-4.720282 V 13.395122 H 20.88193 V 11.603231 H 10.142954 v 1.791891 h 4.331478 v 4.962103 l -8.2746724,4.75947 C 4.835982,21.512738 3.8814111,19.551933 3.4915539,17.392439 4.5563404,17.207705 5.3344995,16.284701 5.3365577,15.20401 5.3347498,14.123124 4.5565319,13.199833 3.4915539,13.015065 4.4041446,7.963351 8.4140628,3.997329 13.489022,3.152698 Z"
         sodipodi:nodetypes="cccccccccccccccccccccccccccccccccccccc" /><path
         style="font-weight:bold;font-size:21.9652px;font-family:'Roboto Condensed';-inkscape-font-specification:'Roboto Condensed,  Bold';text-align:center;letter-spacing:0px;text-anchor:middle;fill:#eb6864;stroke-width:5.18862;stroke-linejoin:bevel;paint-order:stroke markers fill;fill-opacity:1"
         d="M 35.084961,10.575747 V 7.9480744 H 45.906683 V 10.575747 H 42.034888 V 23.563959 H 38.88168 V 10.575747 Z m 19.723634,12.988212 -2.348817,-5.705804 h -1.565879 v 5.705804 H 47.729966 V 7.9480744 h 5.030117 q 2.338093,0 3.646567,1.2119471 1.308473,1.2012215 1.308473,3.5071385 0,1.694581 -0.60061,2.734925 -0.600611,1.040344 -1.662406,1.60878 l 2.74565,6.402941 v 0.150153 z M 50.893899,10.575747 v 4.654735 h 1.780383 q 0.943817,0 1.415725,-0.622061 0.471909,-0.632787 0.471909,-1.683856 0,-2.305917 -1.737482,-2.348818 z m 7.96882,12.988212 4.879964,-15.6158846 h 2.885078 L 71.5399,23.563959 h -3.356986 l -0.836565,-3.196108 h -4.300803 l -0.836566,3.196108 z m 4.869239,-5.823781 h 2.927978 L 65.190585,12.163076 Z M 83.938227,7.9480744 V 23.563959 H 80.785019 L 76.173185,13.321397 V 23.563959 H 73.009253 V 7.9480744 h 3.163932 L 80.785019,18.201361 V 7.9480744 Z m 1.512251,2.6276726 V 7.9480744 H 96.2722 V 10.575747 H 92.400405 V 23.563959 H 89.247197 V 10.575747 Z m 23.327302,6.574545 q 0,3.30336 -1.54443,4.965766 -1.54442,1.662405 -4.06485,1.662405 -2.50969,0 -4.07557,-1.662405 -1.565878,-1.662406 -1.565878,-4.965766 v -2.595497 q 0,-3.378437 1.555153,-5.094468 1.555155,-1.7267565 4.064845,-1.7267565 2.52043,0 4.07558,1.7267565 1.55515,1.716031 1.55515,5.094468 z m -3.15321,-2.616948 q 0,-2.23084 -0.63278,-3.196108 -0.63279,-0.965267 -1.84474,-0.965267 -1.20122,0 -1.834,0.954542 -0.62207,0.943817 -0.63279,3.121032 v 2.702749 q 0,2.123589 0.63279,3.067406 0.64351,0.933092 1.85545,0.933092 1.20123,0 1.82329,-0.922367 0.62206,-0.922366 0.63278,-3.003054 z m 12.50558,9.030615 -2.34882,-5.705804 h -1.56588 v 5.705804 h -3.16393 V 7.9480744 h 5.03012 q 2.33809,0 3.64656,1.2119471 1.30848,1.2012215 1.30848,3.5071385 0,1.694581 -0.60061,2.734925 -0.60061,1.040344 -1.66241,1.60878 l 2.74565,6.402941 v 0.150153 z m -3.9147,-12.988212 v 4.654735 h 1.78039 q 0.94381,0 1.41572,-0.622061 0.47191,-0.632787 0.47191,-1.683856 0,-2.305917 -1.73748,-2.348818 z"
         id="text5"
         aria-label="TRANTOR" /><path
         style="font-weight:300;font-size:7.59823px;font-family:'Roboto Condensed';-inkscape-font-specification:'Roboto Condensed,  Light';letter-spacing:3.0189px;fill:#eb6864;stroke-width:1.79486;stroke-linejoin:bevel;paint-order:stroke markers fill;fill-opacity:1"
         d="m 38.603963,29.749749 h 0.426658 q -0.05565,0.905258 -0.486019,1.335626 -0.430369,0.426659 -1.194644,0.426659 -0.767985,0 -1.220614,-0.575062 -0.452629,-0.575061 -0.467469,-1.580491 v -1.220614 q 0,-1.01656 0.456339,-1.595331 0.460049,-0.582482 1.265135,-0.582482 0.734594,0 1.161253,0.422948 0.430368,0.422949 0.486019,1.343047 h -0.426658 q -0.05565,-0.742015 -0.352457,-1.053661 -0.293096,-0.315356 -0.868157,-0.315356 -0.627002,0 -0.960909,0.471179 -0.333907,0.467469 -0.333907,1.302236 v 1.164963 q 0,0.827346 0.315357,1.324496 0.319066,0.49715 0.946068,0.49715 0.597322,0 0.894128,-0.296806 0.300516,-0.296806 0.359877,-1.068501 z m 7.853125,-0.430369 q 0,1.068501 -0.467469,1.632433 -0.467469,0.560221 -1.276265,0.560221 -0.790246,0 -1.265135,-0.549091 -0.47489,-0.552801 -0.48602,-1.595332 v -1.216904 q 0,-1.068501 0.47118,-1.628722 0.474889,-0.563931 1.272555,-0.563931 0.805086,0 1.272555,0.552801 0.467469,0.549091 0.478599,1.587911 z M 46.03414,28.143287 q 0,-0.886707 -0.333907,-1.331916 -0.330196,-0.445209 -0.994299,-0.445209 -0.619583,0 -0.968329,0.437789 -0.345037,0.434078 -0.352457,1.302235 v 1.213194 q 0,0.890418 0.348746,1.339337 0.352457,0.445209 0.97946,0.445209 0.652973,0 0.983169,-0.434079 0.330197,-0.437789 0.337617,-1.313366 z m 7.975558,-2.111031 v 5.401866 h -0.426659 l -2.54511,-4.604201 v 4.604201 h -0.426658 v -5.401866 h 0.426658 l 2.54882,4.6042 v -4.6042 z m 6.843985,4.06995 q 0,-0.448919 -0.267125,-0.708624 -0.263415,-0.263415 -0.949779,-0.49344 -0.682653,-0.233735 -1.079631,-0.571351 -0.393268,-0.337617 -0.393268,-0.972039 0,-0.627003 0.426659,-1.01285 0.426658,-0.385848 1.101891,-0.385848 0.723465,0 1.142703,0.471179 0.419238,0.47118 0.419238,1.142703 h -0.422948 q 0,-0.52683 -0.296806,-0.871867 -0.296806,-0.345037 -0.842187,-0.345037 -0.549091,0 -0.827346,0.293096 -0.274545,0.289385 -0.274545,0.697493 0,0.382138 0.255995,0.652973 0.255995,0.267126 0.975749,0.50457 0.719754,0.237445 1.090761,0.597322 0.371008,0.356167 0.371008,0.9943 0,0.664103 -0.441499,1.03882 -0.437789,0.374718 -1.124152,0.374718 -0.404398,0 -0.797666,-0.166954 -0.389558,-0.166953 -0.645553,-0.52312 -0.255995,-0.359877 -0.255995,-0.931228 h 0.426659 q 0,0.678943 0.404398,0.953488 0.408108,0.270836 0.868157,0.270836 0.51941,0 0.827346,-0.274546 0.307936,-0.278255 0.307936,-0.734594 z m 4.002069,-3.672973 v -0.396977 h 3.494888 v 0.396977 h -1.53597 v 5.004889 h -0.422948 v -5.004889 z m 7.385658,5.004889 v -5.401866 h 2.812236 v 0.396977 h -2.389288 v 2.02199 h 2.092482 v 0.396978 h -2.092482 v 2.188943 h 2.407838 v 0.396978 z m 9.448454,-0.396978 v 0.396978 h -2.648993 v -5.401866 h 0.426659 v 5.004888 z m 6.54718,0 v 0.396978 h -2.648992 v -5.401866 h 0.426658 v 5.004888 z m 3.49379,0.396978 1.721474,-5.401866 h 0.393268 l 1.721474,5.401866 h -0.441499 l -0.463759,-1.51 h -2.0257 l -0.463759,1.51 z m 1.02769,-1.906978 h 1.780836 l -0.890418,-2.901277 z m 5.749514,-3.097911 v -0.396977 h 3.494892 v 0.396977 h -1.53597 v 5.004889 h -0.42295 v -5.004889 z m 7.886522,-0.396977 v 5.401866 h -0.42666 v -5.401866 z m 7.71955,3.287124 q 0,1.068501 -0.46746,1.632433 -0.46747,0.560221 -1.27627,0.560221 -0.79025,0 -1.26513,-0.549091 -0.47489,-0.552801 -0.48602,-1.595332 v -1.216904 q 0,-1.068501 0.47117,-1.628722 0.47489,-0.563931 1.27256,-0.563931 0.80509,0 1.27256,0.552801 0.46746,0.549091 0.47859,1.587911 z m -0.42294,-1.176093 q 0,-0.886707 -0.33391,-1.331916 -0.3302,-0.445209 -0.9943,-0.445209 -0.61958,0 -0.96833,0.437789 -0.34504,0.434078 -0.35246,1.302235 v 1.213194 q 0,0.890418 0.34875,1.339337 0.35246,0.445209 0.97946,0.445209 0.65297,0 0.98317,-0.434079 0.3302,-0.437789 0.33762,-1.313366 z m 7.97556,-2.111031 v 5.401866 h -0.42666 l -2.54511,-4.604201 v 4.604201 h -0.42666 v -5.401866 h 0.42666 l 2.54882,4.6042 v -4.6042 z"
         id="text6"
         aria-label="CONSTELLATION" /></g></g></svg>
