<?xml version="1.0" encoding="UTF-8" standalone="no"?>
<!-- Created with Inkscape (http://www.inkscape.org/) -->

<svg
   width="680"
   height="190"
   viewBox="0 0 179.91666 50.270833"
   version="1.1"
   id="svg4981"
   inkscape:version="1.4.2 (ebf0e940d0, 2025-05-08)"
   sodipodi:docname="login-logo.svg"
   xml:space="preserve"
   xmlns:inkscape="http://www.inkscape.org/namespaces/inkscape"
   xmlns:sodipodi="http://sodipodi.sourceforge.net/DTD/sodipodi-0.dtd"
   xmlns="http://www.w3.org/2000/svg"
   xmlns:svg="http://www.w3.org/2000/svg"><sodipodi:namedview
   id="namedview4983"
   pagecolor="#ffffff"
   bordercolor="#000000"
   borderopacity="0.25"
   inkscape:showpageshadow="false"
   inkscape:pageopacity="0.0"
   inkscape:pagecheckerboard="0"
   inkscape:deskcolor="#d1d1d1"
   inkscape:document-units="px"
   showgrid="false"
   inkscape:zoom="1"
   inkscape:cx="293.99999"
   inkscape:cy="376.99999"
   inkscape:window-width="2518"
   inkscape:window-height="1404"
   inkscape:window-x="2602"
   inkscape:window-y="0"
   inkscape:window-maximized="1"
   inkscape:current-layer="layer1" />
  <defs
   id="defs4978">
      
      
      
      
      
      </defs>
  <g
   inkscape:label="Livello 1"
   inkscape:groupmode="layer"
   id="layer1">
    
    
    
    <g
   id="g50"><path
     id="path2"
     style="fill:#008996;fill-opacity:1;stroke:#ffffff;stroke-width:0.529167;stroke-linecap:round;stroke-linejoin:round;stroke-dasharray:none;paint-order:stroke markers fill"
     d="m 28.925147,1.849928 c -12.81369,5e-5 -23.20123,10.42529 -23.20128,23.28548 5e-5,12.8602 10.38759,23.285446 23.20128,23.285496 12.81368,-5e-5 23.20124,-10.425286 23.20127,-23.285496 -3e-5,-12.86019 -10.38759,-23.28543 -23.20127,-23.28548 z"
     sodipodi:nodetypes="ccccc" /><path
     style="baseline-shift:baseline;display:inline;overflow:visible;vector-effect:none;fill:#fffcfc;fill-opacity:1;paint-order:stroke fill markers;enable-background:accumulate;stop-color:#000000"
     d="m 31.344936,1.778715 -0.444297,0.154443 c 7.843536,8.706944 10.771618,20.064314 8.965781,29.015478 -1.805837,8.951168 -8.901786,15.692688 -19.812975,15.710938 l 0.67235,0.5293 c 11.130399,-0.0186 17.816002,-6.99367 19.660156,-16.134769 1.844155,-9.141097 -1.090208,-20.449368 -9.041015,-29.27539 z"
     id="path4"
     sodipodi:nodetypes="ccsccsc" /><path
     style="baseline-shift:baseline;display:inline;overflow:visible;vector-effect:none;fill:#fffcfc;fill-opacity:1;paint-order:stroke fill markers;enable-background:accumulate;stop-color:#000000"
     d="m 31.33517,1.766996 -0.434531,0.166162 c 9.778126,9.569088 16.759696,25.140856 9.50677,43.440786 l 0.562527,-0.0874 c 7.332682,-18.50116 0.2524,-33.84373 -9.634766,-43.519528 z"
     id="path5"
     sodipodi:nodetypes="ccccc" /><path
     style="baseline-shift:baseline;display:inline;overflow:visible;vector-effect:none;fill:#fffcfc;fill-opacity:1;paint-order:stroke fill markers;enable-background:accumulate;stop-color:#000000"
     d="m 31.344936,1.778715 -0.444297,0.154443 c 7.837288,8.700008 8.817028,18.772135 5.088828,26.492041 -3.7282,7.719906 -12.4015,13.294225 -23.332441,13.312505 l 0.271894,0.52929 c 11.110646,-0.0186 19.716815,-5.702674 23.53711,-13.613279 3.820294,-7.910605 2.835961,-18.042042 -5.121094,-26.875 z"
     id="path6"
     sodipodi:nodetypes="ccsccsc" /></g><g
   id="g49"
   transform="translate(-2.6458334,-58.168805)"><path
     id="path34"
     style="font-weight:bold;font-size:35.7982px;font-family:'Sofia Sans Condensed';-inkscape-font-specification:'Sofia Sans Condensed,  Bold';fill:#008996;stroke-width:2.82574;stroke-linecap:square"
     d="m 160.56694,65.267849 c -0.23865,0 -0.35812,0.131255 -0.35812,0.393775 v 22.660115 c 0,0.26252 0.11947,0.393774 0.35812,0.393774 h 3.29334 c 0.23865,0 0.35812,-0.131254 0.35812,-0.393774 v -9.056812 h 2.36264 l 4.04523,9.164299 c 0.0955,0.190924 0.23851,0.286287 0.42944,0.286287 h 3.68711 c 0.31025,0 0.39382,-0.167145 0.25063,-0.501261 l -4.47466,-9.59373 v -0.07183 c 1.12168,-0.429578 1.98047,-1.181213 2.5771,-2.255159 0.59664,-1.097812 0.89504,-2.493927 0.89504,-4.188375 0,-2.291085 -0.60859,-3.99739 -1.82573,-5.119067 -1.21714,-1.145542 -3.11418,-1.718242 -5.69164,-1.718242 z m 3.65146,3.579627 h 2.29081 c 1.21714,0 2.10003,0.262509 2.64894,0.787549 0.5489,0.52504 0.82372,1.407929 0.82372,2.648933 0,1.241004 -0.28661,2.160301 -0.85938,2.756938 -0.54891,0.596637 -1.44359,0.894519 -2.68459,0.894519 h -2.2195 z" /><path
     id="path32"
     style="font-weight:bold;font-size:35.7982px;font-family:'Sofia Sans Condensed';-inkscape-font-specification:'Sofia Sans Condensed,  Bold';fill:#008996;stroke-width:2.82574;stroke-linecap:square"
     d="m 148.89633,64.981562 c -2.50587,0 -4.41469,0.679853 -5.72729,2.040185 -1.28874,1.336466 -1.93322,3.32938 -1.93322,5.978447 v 8.018632 c 0,2.625201 0.64448,4.618115 1.93322,5.978446 1.3126,1.336467 3.22142,2.004529 5.72729,2.004529 2.55361,0 4.47474,-0.668062 5.76348,-2.004529 1.3126,-1.360331 1.96887,-3.353245 1.96887,-5.978446 v -8.018632 c 0,-2.649067 -0.65627,-4.641981 -1.96887,-5.978447 -1.28874,-1.360332 -3.20987,-2.040185 -5.76348,-2.040185 z m 0,3.615283 c 1.24101,0 2.1721,0.37018 2.7926,1.11001 0.6205,0.73983 0.93069,1.897019 0.93069,3.472139 v 7.661031 c 0,1.551255 -0.31019,2.696653 -0.93069,3.436483 -0.6205,0.739829 -1.55159,1.11001 -2.7926,1.11001 -1.19327,0 -2.09974,-0.370181 -2.72024,-1.11001 -0.6205,-0.73983 -0.93121,-1.885228 -0.93121,-3.436483 v -7.661031 c 0,-1.57512 0.31071,-2.732309 0.93121,-3.472139 0.6205,-0.73983 1.52697,-1.11001 2.72024,-1.11001 z" /><path
     style="font-weight:bold;font-size:35.7982px;font-family:'Sofia Sans Condensed';-inkscape-font-specification:'Sofia Sans Condensed,  Bold';fill:#008996;stroke-width:2.82574;stroke-linecap:square"
     d="m 130.67525,88.715561 q -0.35798,0 -0.35798,-0.39378 V 68.883359 h -4.68957 q -0.35798,0 -0.35798,-0.39378 v -2.828058 q 0,-0.39378 0.35798,-0.39378 h 13.42433 q 0.35798,0 0.35798,0.39378 v 2.828058 q 0,0.39378 -0.35798,0.39378 h -4.68957 v 19.438422 q 0,0.39378 -0.35798,0.39378 z"
     id="path31" /><path
     style="font-weight:bold;font-size:35.7982px;font-family:'Sofia Sans Condensed';-inkscape-font-specification:'Sofia Sans Condensed,  Bold';fill:#008996;stroke-width:2.82574;stroke-linecap:square"
     d="m 107.72859,88.715561 q -0.32219,0 -0.32219,-0.39378 v -22.66026 q 0,-0.39378 0.35799,-0.39378 h 4.54637 q 0.32218,0 0.39378,0.286385 l 4.18839,11.670213 q 0.39378,0.966551 0.75176,2.112094 0.39378,1.109744 0.71596,2.18369 0.35799,1.038148 0.57277,1.897305 h 0.0716 q -0.0716,-0.966552 -0.14319,-2.219489 -0.0358,-1.252937 -0.0716,-2.541672 -0.0358,-1.288735 -0.0358,-2.219488 V 65.661521 q 0,-0.39378 0.35799,-0.39378 h 3.11444 q 0.35798,0 0.35798,0.39378 v 22.66026 q 0,0.39378 -0.35798,0.39378 h -4.47478 q -0.28638,0 -0.42957,-0.286386 l -4.1526,-11.348029 q -0.60856,-1.646717 -1.10974,-3.293434 -0.50117,-1.682515 -0.93075,-3.114443 h -0.0716 q 0.0716,1.038148 0.1074,2.362681 0.0358,1.288735 0.0358,2.57747 0.0358,1.288735 0.0358,2.362681 v 10.34568 q 0,0.39378 -0.35798,0.39378 z"
     id="path30" /><path
     style="font-weight:bold;font-size:35.7982px;font-family:'Sofia Sans Condensed';-inkscape-font-specification:'Sofia Sans Condensed,  Bold';fill:#008996;stroke-width:2.82574;stroke-linecap:square"
     d="m 93.051334,83.703813 0.680165,-3.365031 h 6.228887 l 0.715964,3.365031 z"
     id="path29" /><path
     style="font-weight:bold;font-size:35.7982px;font-family:'Sofia Sans Condensed';-inkscape-font-specification:'Sofia Sans Condensed,  Bold';fill:#008996;stroke-width:2.82574;stroke-linecap:square"
     d="m 88.683953,88.715561 q -0.39378,0 -0.286385,-0.429578 l 5.906703,-22.696058 q 0.107394,-0.322184 0.429578,-0.322184 h 4.331582 q 0.322184,0 0.465377,0.322184 l 5.906702,22.696058 q 0.10739,0.429578 -0.28639,0.429578 h -3.61561 q -0.28639,0 -0.39378,-0.322184 l -3.25764,-14.49827 q -0.286385,-1.217139 -0.536973,-2.39848 -0.214789,-1.217138 -0.429578,-2.398479 h -0.0716 q -0.21479,1.181341 -0.465377,2.398479 -0.214789,1.181341 -0.501175,2.39848 l -3.257636,14.49827 q -0.0358,0.322184 -0.39378,0.322184 z"
     id="path21" /><path
     id="path3"
     style="font-weight:bold;font-size:35.7982px;font-family:'Sofia Sans Condensed';-inkscape-font-specification:'Sofia Sans Condensed,  Bold';fill:#008996;stroke-width:2.82574;stroke-linecap:square"
     d="m 73.004328,65.267849 c -0.238655,0 -0.358118,0.131255 -0.358118,0.393775 v 22.660115 c 0,0.26252 0.119463,0.393774 0.358118,0.393774 h 3.293339 c 0.238654,0 0.358117,-0.131254 0.358117,-0.393774 v -9.056812 h 2.362647 l 4.045231,9.164299 c 0.09546,0.190924 0.238507,0.286287 0.429431,0.286287 h 3.68763 c 0.310252,0 0.393307,-0.167145 0.250114,-0.501261 l -4.474662,-9.59373 v -0.07183 c 1.121677,-0.429578 1.980984,-1.181213 2.57762,-2.255159 0.596637,-1.097812 0.895036,-2.493927 0.895036,-4.188375 0,-2.291085 -0.60859,-3.99739 -1.825728,-5.119067 -1.217139,-1.145542 -3.114689,-1.718242 -5.692159,-1.718242 z m 3.651456,3.579627 h 2.291333 c 1.217139,0 2.100029,0.262509 2.648934,0.787549 0.548906,0.52504 0.823206,1.407929 0.823206,2.648933 0,1.241004 -0.286091,2.160301 -0.858862,2.756938 -0.548906,0.596637 -1.444103,0.894519 -2.685108,0.894519 h -2.219503 z" /><path
     style="font-weight:bold;font-size:35.7982px;font-family:'Sofia Sans Condensed';-inkscape-font-specification:'Sofia Sans Condensed,  Bold';fill:#008996;stroke-width:2.82574;stroke-linecap:square"
     d="m 61.226793,88.715561 q -0.357982,0 -0.357982,-0.39378 V 68.883359 h -4.689564 q -0.357982,0 -0.357982,-0.39378 v -2.828058 q 0,-0.39378 0.357982,-0.39378 h 13.424324 q 0.357982,0 0.357982,0.39378 v 2.828058 q 0,0.39378 -0.357982,0.39378 h -4.689564 v 19.438422 q 0,0.39378 -0.357982,0.39378 z"
     id="text1" /><path
     style="font-weight:300;font-size:15.6605px;font-family:'Sofia Sans Condensed';-inkscape-font-specification:'Sofia Sans Condensed,  Light';letter-spacing:2.921px;fill:#008996;stroke-width:2.82574;stroke-linecap:square"
     d="m 169.7508,101.50149 q -0.0783,0 -0.0783,-0.094 V 91.337823 q 0,-0.09396 0.094,-0.09396 h 0.87699 q 0.094,0 0.10962,0.06264 l 2.537,6.013632 q 0.25057,0.548117 0.48548,1.127556 0.25056,0.563778 0.46981,1.127556 0.23491,0.548113 0.43849,1.080573 h 0.0313 q -0.0157,-0.54812 -0.0313,-1.111894 0,-0.579439 0,-1.143217 0,-0.579438 0,-1.111895 v -5.95099 q 0,-0.09396 0.0783,-0.09396 h 0.51679 q 0.0783,0 0.0783,0.09396 v 10.069706 q 0,0.094 -0.0783,0.094 H 174.402 q -0.0783,0 -0.10963,-0.0626 l -2.4587,-5.810049 q -0.39151,-0.908309 -0.7517,-1.800957 -0.36019,-0.892649 -0.72038,-1.738316 h -0.0313 q 0.0157,0.563778 0.0157,1.174538 0,0.610759 0,1.221519 0,0.595099 0,1.174537 v 5.747408 q 0,0.094 -0.0783,0.094 z"
     id="path49" /><path
     id="path47"
     style="font-weight:300;font-size:15.6605px;font-family:'Sofia Sans Condensed';-inkscape-font-specification:'Sofia Sans Condensed,  Light';letter-spacing:2.921px;fill:#008996;stroke-width:2.82574;stroke-linecap:square"
     d="m 161.75601,91.118468 c -0.92918,0 -1.64446,0.260881 -2.1456,0.782898 -0.49069,0.522017 -0.73639,1.295052 -0.73639,2.318205 v 4.306197 c 0,1.012712 0.2457,1.785752 0.73639,2.318202 0.50114,0.52203 1.21642,0.78291 2.1456,0.78291 0.95008,0 1.67042,-0.26088 2.16111,-0.78291 0.4907,-0.53245 0.73588,-1.30549 0.73588,-2.318202 v -4.306197 c 0,-1.023153 -0.24518,-1.796188 -0.73588,-2.318205 -0.49069,-0.522017 -1.21103,-0.782898 -2.16111,-0.782898 z m 0,0.642338 c 0.72039,0 1.2685,0.208705 1.64435,0.626318 0.37585,0.407173 0.56379,1.028226 0.56379,1.863452 v 4.244186 c 0,0.824786 -0.18794,1.445838 -0.56379,1.863448 -0.37585,0.40718 -0.92396,0.61082 -1.64435,0.61082 -0.6995,0 -1.24254,-0.20364 -1.62884,-0.61082 -0.37585,-0.41761 -0.56379,-1.038662 -0.56379,-1.863448 v -4.244186 c 0,-0.835226 0.18794,-1.456279 0.56379,-1.863452 0.3863,-0.417613 0.92934,-0.626318 1.62884,-0.626318 z" /><path
     style="font-weight:300;font-size:15.6605px;font-family:'Sofia Sans Condensed';-inkscape-font-specification:'Sofia Sans Condensed,  Light';letter-spacing:2.921px;fill:#008996;stroke-width:2.82574;stroke-linecap:square"
     d="m 153.25966,101.50149 q -0.094,0 -0.094,-0.094 V 91.337823 q 0,-0.09396 0.094,-0.09396 h 0.5168 q 0.0783,0 0.0783,0.09396 v 10.069707 q 0,0.094 -0.0783,0.094 z"
     id="path46" /><path
     style="font-weight:300;font-size:15.6605px;font-family:'Sofia Sans Condensed';-inkscape-font-specification:'Sofia Sans Condensed,  Light';letter-spacing:2.921px;fill:#008996;stroke-width:2.82574;stroke-linecap:square"
     d="m 145.65618,101.50149 q -0.0783,0 -0.0783,-0.094 v -9.505929 h -2.31776 q -0.094,0 -0.094,-0.109623 v -0.454155 q 0,-0.09396 0.094,-0.09396 h 5.30891 q 0.094,0 0.094,0.09396 v 0.454155 q 0,0.109623 -0.094,0.109623 h -2.30209 v 9.505929 q 0,0.094 -0.094,0.094 z"
     id="path45" /><path
     style="font-weight:300;font-size:15.6605px;font-family:'Sofia Sans Condensed';-inkscape-font-specification:'Sofia Sans Condensed,  Light';letter-spacing:2.921px;fill:#008996;stroke-width:2.82574;stroke-linecap:square"
     d="m 135.17115,98.7609 0.17227,-0.642081 h 3.49229 l 0.18792,0.642081 z"
     id="path44" /><path
     style="font-weight:300;font-size:15.6605px;font-family:'Sofia Sans Condensed';-inkscape-font-specification:'Sofia Sans Condensed,  Light';letter-spacing:2.921px;fill:#008996;stroke-width:2.82574;stroke-linecap:square"
     d="m 133.98095,101.50149 q -0.10962,0 -0.0783,-0.10962 l 2.74059,-10.069707 q 0.0157,-0.0783 0.10962,-0.0783 h 0.72038 q 0.0783,0 0.10963,0.0783 l 2.74058,10.069707 q 0.0157,0.10962 -0.0783,0.10962 h -0.56378 q -0.0626,0 -0.094,-0.0783 l -2.00454,-7.485724 q -0.12529,-0.501136 -0.25057,-0.986611 -0.10962,-0.485476 -0.21925,-0.970951 h -0.0313 q -0.10962,0.485475 -0.23491,0.986611 -0.10962,0.485476 -0.2349,0.970951 l -2.00455,7.485724 q -0.0157,0.0783 -0.094,0.0783 z"
     id="path43" /><path
     style="font-weight:300;font-size:15.6605px;font-family:'Sofia Sans Condensed';-inkscape-font-specification:'Sofia Sans Condensed,  Light';letter-spacing:2.921px;fill:#008996;stroke-width:2.82574;stroke-linecap:square"
     d="m 126.26785,101.50149 q -0.094,0 -0.094,-0.094 V 91.337823 q 0,-0.09396 0.094,-0.09396 h 0.51679 q 0.047,0 0.0626,0.03132 0.0157,0.01566 0.0157,0.06264 v 9.505927 h 3.53928 q 0.0783,0 0.0783,0.094 v 0.46982 q 0,0.094 -0.0783,0.094 z"
     id="path42" /><path
     style="font-weight:300;font-size:15.6605px;font-family:'Sofia Sans Condensed';-inkscape-font-specification:'Sofia Sans Condensed,  Light';letter-spacing:2.921px;fill:#008996;stroke-width:2.82574;stroke-linecap:square"
     d="m 117.58378,101.50149 q -0.094,0 -0.094,-0.094 V 91.337823 q 0,-0.09396 0.094,-0.09396 h 0.5168 q 0.047,0 0.0626,0.03132 0.0157,0.01566 0.0157,0.06264 v 9.505927 h 3.53927 q 0.0783,0 0.0783,0.094 v 0.46982 q 0,0.094 -0.0783,0.094 z"
     id="path41" /><path
     style="font-weight:300;font-size:15.6605px;font-family:'Sofia Sans Condensed';-inkscape-font-specification:'Sofia Sans Condensed,  Light';letter-spacing:2.921px;fill:#008996;stroke-width:2.82574;stroke-linecap:square"
     d="m 108.21064,101.50149 q -0.094,0 -0.094,-0.094 V 91.337823 q 0,-0.09396 0.094,-0.09396 h 4.21268 q 0.0783,0 0.0783,0.09396 v 0.454155 q 0,0.109623 -0.0783,0.109623 h -3.61758 v 4.040409 h 3.35135 q 0.0783,0 0.0783,0.09396 v 0.438494 q 0,0.09396 -0.0783,0.09396 h -3.35135 v 4.275316 h 3.61758 q 0.0783,0 0.0783,0.094 v 0.46982 q 0,0.094 -0.0783,0.094 z"
     id="path40" /><path
     style="font-weight:300;font-size:15.6605px;font-family:'Sofia Sans Condensed';-inkscape-font-specification:'Sofia Sans Condensed,  Light';letter-spacing:2.921px;fill:#008996;stroke-width:2.82574;stroke-linecap:square"
     d="m 100.60716,101.50149 q -0.0783,0 -0.0783,-0.094 v -9.505929 h -2.317757 q -0.09396,0 -0.09396,-0.109623 v -0.454155 q 0,-0.09396 0.09396,-0.09396 h 5.308907 q 0.094,0 0.094,0.09396 v 0.454155 q 0,0.109623 -0.094,0.109623 h -2.30209 v 9.505929 q 0,0.094 -0.094,0.094 z"
     id="path39" /><path
     style="font-weight:300;font-size:15.6605px;font-family:'Sofia Sans Condensed';-inkscape-font-specification:'Sofia Sans Condensed,  Light';letter-spacing:2.921px;fill:#008996;stroke-width:2.82574;stroke-linecap:square"
     d="m 91.484606,101.62678 q -1.425105,0 -2.035865,-0.73605 -0.610759,-0.75171 -0.548117,-2.082849 0,-0.125284 0.09396,-0.125284 h 0.501136 q 0.09396,0 0.09396,0.125284 -0.04698,1.111896 0.422833,1.644349 0.469815,0.53246 1.503408,0.53246 1.017933,0 1.472087,-0.43849 0.469815,-0.4385 0.469815,-1.393788 0,-0.563778 -0.140944,-0.95529 -0.125284,-0.391513 -0.422834,-0.689062 -0.297549,-0.31321 -0.814346,-0.610759 l -1.503408,-0.876988 q -0.830006,-0.501136 -1.190198,-1.080575 -0.360191,-0.595099 -0.360191,-1.534729 0.01566,-1.111895 0.657741,-1.691334 0.64208,-0.595099 1.800957,-0.595099 1.315482,0 1.957563,0.704723 0.64208,0.704722 0.563778,2.035865 -0.01566,0.140944 -0.0783,0.140944 h -0.532457 q -0.0783,0 -0.06264,-0.140944 0.04698,-1.033593 -0.422833,-1.56605 -0.454155,-0.532457 -1.409445,-0.532457 -0.830007,0 -1.299822,0.407173 -0.469815,0.407173 -0.485475,1.221519 0,0.751704 0.281889,1.205858 0.297549,0.438494 1.002272,0.861328 l 1.487747,0.876988 q 0.61076,0.375852 0.970951,0.751704 0.375852,0.375851 0.532457,0.861327 0.156605,0.485475 0.156605,1.190198 0,1.221518 -0.64208,1.863598 -0.62642,0.62643 -2.020205,0.62643 z"
     id="path38" /><path
     style="font-weight:300;font-size:15.6605px;font-family:'Sofia Sans Condensed';-inkscape-font-specification:'Sofia Sans Condensed,  Light';letter-spacing:2.921px;fill:#008996;stroke-width:2.82574;stroke-linecap:square"
     d="m 78.556533,101.50149 q -0.0783,0 -0.0783,-0.094 V 91.337823 q 0,-0.09396 0.09396,-0.09396 h 0.876988 q 0.09396,0 0.109623,0.06264 l 2.537001,6.013632 q 0.250568,0.548117 0.485476,1.127556 0.250568,0.563778 0.469815,1.127556 0.234907,0.548113 0.438494,1.080573 h 0.03132 q -0.01566,-0.54812 -0.03132,-1.111894 0,-0.579439 0,-1.143217 0,-0.579438 0,-1.111895 v -5.95099 q 0,-0.09396 0.0783,-0.09396 h 0.516797 q 0.0783,0 0.0783,0.09396 v 10.069706 q 0,0.094 -0.0783,0.094 h -0.876988 q -0.0783,0 -0.109624,-0.0626 L 80.63938,95.6288 q -0.391513,-0.908309 -0.751704,-1.800957 -0.360192,-0.892649 -0.720383,-1.738316 h -0.03132 q 0.01566,0.563778 0.01566,1.174538 0,0.610759 0,1.221519 0,0.595099 0,1.174537 v 5.747409 q 0,0.094 -0.0783,0.094 z"
     id="path37" /><path
     id="path35"
     style="font-weight:300;font-size:15.6605px;font-family:'Sofia Sans Condensed';-inkscape-font-specification:'Sofia Sans Condensed,  Light';letter-spacing:2.921px;fill:#008996;stroke-width:2.82574;stroke-linecap:square"
     d="m 70.561583,91.118468 c -0.929189,0 -1.644469,0.260881 -2.145605,0.782898 -0.490696,0.522017 -0.735873,1.295052 -0.735873,2.318205 v 4.306197 c 0,1.012712 0.245177,1.785752 0.735873,2.318202 0.501136,0.52203 1.216416,0.78291 2.145605,0.78291 0.950071,0 1.670413,-0.26088 2.161108,-0.78291 0.490696,-0.53245 0.735873,-1.30549 0.735873,-2.318202 v -4.306197 c 0,-1.023153 -0.245177,-1.796188 -0.735873,-2.318205 -0.490695,-0.522017 -1.211037,-0.782898 -2.161108,-0.782898 z m 0,0.642338 c 0.720383,0 1.268492,0.208705 1.644344,0.626318 0.375852,0.407173 0.56379,1.028226 0.56379,1.863452 v 4.244186 c 0,0.824786 -0.187938,1.445838 -0.56379,1.863448 -0.375852,0.40718 -0.923961,0.61082 -1.644344,0.61082 -0.699502,0 -1.242549,-0.20364 -1.628841,-0.61082 -0.375852,-0.41761 -0.56379,-1.038662 -0.56379,-1.863448 v -4.244186 c 0,-0.835226 0.187938,-1.456279 0.56379,-1.863452 0.386292,-0.417613 0.929339,-0.626318 1.628841,-0.626318 z" /><path
     style="font-weight:300;font-size:15.6605px;font-family:'Sofia Sans Condensed';-inkscape-font-specification:'Sofia Sans Condensed,  Light';letter-spacing:2.921px;fill:#008996;stroke-width:2.82574;stroke-linecap:square"
     d="m 60.170498,101.62678 q -1.393785,0 -2.145489,-0.81435 -0.736043,-0.814351 -0.736043,-2.380401 v -4.134371 q 0,-1.55039 0.736043,-2.364736 0.751704,-0.814346 2.145489,-0.814346 0.970951,0 1.628692,0.391513 0.657741,0.391512 0.970951,1.127556 0.31321,0.736043 0.203586,1.785297 0,0.09396 -0.0783,0.09396 H 62.37863 q -0.09396,0 -0.09396,-0.09396 0.09396,-1.315482 -0.454154,-1.988884 -0.548118,-0.673401 -1.644353,-0.673401 -1.064914,0 -1.644352,0.657741 -0.563778,0.64208 -0.563778,1.910581 v 4.071729 q 0,1.268501 0.563778,1.926242 0.579438,0.64208 1.644352,0.64208 1.127556,0 1.660013,-0.6734 0.532457,-0.689063 0.469815,-1.988885 -0.01566,-0.09396 0.0783,-0.09396 h 0.501136 q 0.09396,0 0.09396,0.109624 0.09396,1.58171 -0.642081,2.443041 -0.736043,0.86133 -2.176809,0.86133 z"
     id="text2" /></g></g></svg>
