<?xml version="1.0" encoding="UTF-8" standalone="no"?>
<!-- Created with Inkscape (http://www.inkscape.org/) -->

<svg
   width="260"
   height="26"
   viewBox="0 0 68.791664 6.8791666"
   version="1.1"
   id="svg1"
   inkscape:version="1.3.2 (1:1.3.2+202311252150+091e20ef0f)"
   sodipodi:docname="reimbursements_navbar_logo.svg"
   xml:space="preserve"
   xmlns:inkscape="http://www.inkscape.org/namespaces/inkscape"
   xmlns:sodipodi="http://sodipodi.sourceforge.net/DTD/sodipodi-0.dtd"
   xmlns="http://www.w3.org/2000/svg"
   xmlns:svg="http://www.w3.org/2000/svg"><sodipodi:namedview
     id="namedview1"
     pagecolor="#ffffff"
     bordercolor="#000000"
     borderopacity="0.25"
     inkscape:showpageshadow="false"
     inkscape:pageopacity="0.0"
     inkscape:pagecheckerboard="0"
     inkscape:deskcolor="#d1d1d1"
     inkscape:document-units="px"
     inkscape:zoom="7.2961538"
     inkscape:cx="18.43437"
     inkscape:cy="35.01845"
     inkscape:window-width="2526"
     inkscape:window-height="1404"
     inkscape:window-x="34"
     inkscape:window-y="0"
     inkscape:window-maximized="1"
     inkscape:current-layer="layer1" /><defs
     id="defs1" /><g
     inkscape:label="Livello 1"
     inkscape:groupmode="layer"
     id="layer1"><path
       d="m 21.158405,6.8008819 q -0.08643,0 -0.115245,-0.07683 L 20.063582,3.7565057 q -0.0096,-0.028811 -0.03842,-0.028811 h -0.835523 q -0.03842,0 -0.03842,0.038415 v 2.9387354 q 0,0.096037 -0.09604,0.096037 h -0.489789 q -0.09604,0 -0.09604,-0.096037 V 0.17432184 q 0,-0.0960371 0.09604,-0.0960371 h 1.584612 q 0.701071,0 1.133238,0.51860035 0.432167,0.50899661 0.432167,1.33491571 0,0.6242412 -0.268904,1.0756155 -0.268904,0.4513744 -0.729882,0.6338449 -0.03842,0.0096 -0.02881,0.048019 l 1.046804,3.0059613 0.0096,0.038415 q 0,0.067226 -0.08643,0.067226 z M 19.189644,0.67371477 q -0.03842,0 -0.03842,0.0384148 V 3.1418683 q 0,0.038415 0.03842,0.038415 h 0.864334 q 0.441771,0 0.710675,-0.3361298 0.268904,-0.3457336 0.268904,-0.9123525 0,-0.5666189 -0.268904,-0.9123525 -0.268904,-0.34573353 -0.710675,-0.34573353 z m 3.630192,6.12716713 q -0.09604,0 -0.09604,-0.096037 V 0.17432184 q 0,-0.0960371 0.09604,-0.0960371 h 0.489789 q 0.09604,0 0.09604,0.0960371 V 6.7048448 q 0,0.096037 -0.09604,0.096037 z m 4.897875,-6.65537119 q 0.02881,-0.06722597 0.115245,-0.06722597 h 0.499393 q 0.09604,0 0.09604,0.0960371 V 6.7048448 q 0,0.096037 -0.09604,0.096037 H 27.84256 q -0.09604,0 -0.09604,-0.096037 V 1.5572561 q 0,-0.028811 -0.01921,-0.028811 -0.0096,0 -0.02881,0.019207 l -0.998786,2.0744014 q -0.02881,0.067226 -0.09604,0.067226 -0.07683,0 -0.105641,-0.067226 L 25.499254,1.5572561 q -0.01921,-0.019207 -0.03841,-0.019207 -0.0096,0 -0.0096,0.028811 v 5.137985 q 0,0.096037 -0.09604,0.096037 h -0.48979 q -0.09604,0 -0.09604,-0.096037 V 0.17432184 q 0,-0.0960371 0.09604,-0.0960371 h 0.499393 q 0.08643,0 0.115245,0.06722597 L 26.57487,2.3639678 q 0.0096,0.019207 0.02881,0.019207 0.01921,0 0.02881,-0.019207 z M 33.07658,4.9761769 q 0.0096,0.8643339 -0.460978,1.3445195 -0.470582,0.4801855 -1.258086,0.4801855 h -1.469368 q -0.09604,0 -0.09604,-0.096037 V 0.17432184 q 0,-0.0960371 0.09604,-0.0960371 h 1.382935 q 0.825919,0 1.2965,0.46097809 0.470582,0.45137438 0.470582,1.29650087 0,1.0756155 -0.797108,1.4693677 -0.01921,0.0096 -0.01921,0.019207 0,0.0096 0.0096,0.019207 0.845126,0.4897892 0.845126,1.6326307 z M 30.51239,0.67371477 q -0.03842,0 -0.03842,0.0384148 V 3.0266238 q 0,0.038415 0.03842,0.038415 h 0.758693 q 0.5186,0 0.806711,-0.3073187 0.288112,-0.3073187 0.288112,-0.8643339 0,-0.5762226 -0.288112,-0.8931451 -0.288111,-0.32652613 -0.806711,-0.32652613 z m 0.797107,5.52213333 q 0.508997,0 0.797108,-0.3361298 0.288112,-0.3457336 0.288112,-0.9603711 0,-0.6242411 -0.288112,-0.9699747 Q 31.818494,3.583639 31.309497,3.583639 H 30.51239 q -0.03842,0 -0.03842,0.038415 v 2.5353795 q 0,0.038415 0.03842,0.038415 z m 4.28325,0.6818634 q -0.739486,0 -1.200464,-0.460978 -0.451374,-0.4609781 -0.451374,-1.2196712 v -3.514958 q 0,-0.75869306 0.451374,-1.21967115 0.460978,-0.46097809 1.200464,-0.46097809 0.749089,0 1.210067,0.46097809 0.460978,0.46097809 0.460978,1.21967115 v 3.514958 q 0,0.7490894 -0.460978,1.2196712 -0.460978,0.460978 -1.210067,0.460978 z m 0,-0.59543 q 0.44177,0 0.710674,-0.2881113 0.278508,-0.297715 0.278508,-0.7586931 V 1.6532932 q 0,-0.4705818 -0.278508,-0.75869309 -0.268904,-0.29771502 -0.710674,-0.29771502 -0.432167,0 -0.701071,0.29771502 -0.268904,0.28811129 -0.268904,0.75869309 v 3.5821839 q 0,0.4609781 0.268904,0.7586931 0.268904,0.2881113 0.701071,0.2881113 z m 5.579749,0.5186004 q -0.08643,0 -0.115244,-0.07683 L 40.077673,3.7565057 q -0.0096,-0.028811 -0.03842,-0.028811 h -0.835522 q -0.03842,0 -0.03842,0.038415 v 2.9387354 q 0,0.096037 -0.09604,0.096037 h -0.489789 q -0.09604,0 -0.09604,-0.096037 V 0.17432184 q 0,-0.0960371 0.09604,-0.0960371 h 1.584612 q 0.701071,0 1.133237,0.51860035 0.432167,0.50899661 0.432167,1.33491571 0,0.6242412 -0.268903,1.0756155 -0.268904,0.4513744 -0.729882,0.6338449 -0.03842,0.0096 -0.02881,0.048019 l 1.046805,3.0059613 0.0096,0.038415 q 0,0.067226 -0.08643,0.067226 z m -1.96876,-6.12716713 q -0.03842,0 -0.03842,0.0384148 V 3.1418683 q 0,0.038415 0.03842,0.038415 h 0.864334 q 0.44177,0 0.710674,-0.3361298 0.268904,-0.3457336 0.268904,-0.9123525 0,-0.5666189 -0.268904,-0.9123525 Q 40.50984,0.67371477 40.06807,0.67371477 Z m 4.907485,6.20399673 q -0.710674,0 -1.152445,-0.4705818 Q 42.517005,5.9365479 42.517005,5.1778548 V 4.9569695 q 0,-0.096037 0.09604,-0.096037 h 0.470582 q 0.09604,0 0.09604,0.096037 v 0.1920742 q 0,0.5089967 0.2593,0.8259191 0.259301,0.3073187 0.67226,0.3073187 0.403356,0 0.67226,-0.297715 0.268904,-0.297715 0.268904,-0.7875042 0,-0.3265262 -0.134452,-0.5570152 Q 44.793085,4.3999543 44.581803,4.2270875 44.380125,4.044617 43.899939,3.6796761 43.419754,3.3243388 43.141246,3.0746423 42.862739,2.8153421 42.680268,2.4600049 42.507401,2.1046676 42.507401,1.6244821 q 0,-0.74908942 0.432167,-1.18125637 0.432167,-0.44177067 1.123635,-0.44177067 0.729882,0 1.162048,0.48018551 0.441771,0.4705818 0.441771,1.25808603 v 0.2400928 q 0,0.096037 -0.09604,0.096037 H 45.0908 q -0.09604,0 -0.09604,-0.096037 V 1.7301229 q 0,-0.5089966 -0.2593,-0.81631537 -0.249696,-0.31692244 -0.672259,-0.31692244 -0.384149,0 -0.633845,0.27850759 -0.249697,0.26890392 -0.249697,0.76829682 0,0.297715 0.105641,0.5282041 0.115245,0.2208853 0.33613,0.4225632 0.220885,0.2016779 0.653052,0.5282041 0.576223,0.4225632 0.85473,0.6914671 0.288112,0.2593002 0.441771,0.5762226 0.153659,0.3073187 0.153659,0.7490894 0,0.7875042 -0.451374,1.2676897 -0.451374,0.4705818 -1.162049,0.4705818 z m 2.785061,-0.07683 q -0.09604,0 -0.09604,-0.096037 V 0.17432184 q 0,-0.0960371 0.09604,-0.0960371 h 0.489789 q 0.09604,0 0.09604,0.0960371 V 6.7048448 q 0,0.096037 -0.09604,0.096037 z"
       id="text1"
       style="font-stretch:condensed;font-size:9.60371px;font-family:'Barlow Condensed';-inkscape-font-specification:'Barlow Condensed,  Condensed';letter-spacing:0px;fill:#2b6b00;stroke-width:1.28049;stroke-linecap:round;stroke-linejoin:round"
       aria-label="RIMBORSI" /><path
       d="m 9.4732439,1.6895779 -5.6454344,0 c -0.4875017,0 -0.7500028,-0.2625006 -0.7500028,-0.75000172 0,-0.48750172 0.2625011,-0.75000227 0.7500028,-0.75000227 l 5.3954344,0 c 0.15,0 0.375001,0.10000034 0.375001,0.37500086 V 1.5645776 c 0,0.075 -0.0625,0.1250003 -0.125001,0.1250003 z m -0.25,-1.25000341 -5.3954344,0 c -0.3500015,0 -0.5000017,0.15000023 -0.5000017,0.50000169 0,0.35000092 0.1500002,0.50000112 0.5000017,0.50000112 l 5.5204344,0 V 0.56457477 c 0,-0.10000034 -0.075,-0.12500028 -0.125,-0.12500028 z"
       fill="#231c1c"
       id="path2-6"
       style="fill:#4d4d4d;fill-opacity:1;stroke-width:0.00976567"
       sodipodi:nodetypes="sssssssssssscss" /><path
       d="M 10.702831,6.6895925 H 3.4528081 c -0.2125007,0 -0.3750014,-0.1625005 -0.3750014,-0.3750011 V 0.93957618 c 0,-0.0750004 0.050003,-0.12500084 0.1250008,-0.12500084 0.075,0 0.1250003,0.0500032 0.1250003,0.12500084 0,0.30000042 0.2000007,0.50000112 0.5000017,0.50000112 h 6.8750215 c 0.2125,0 0.375,0.1625008 0.375,0.3750014 v 4.5000127 c 0,0.2125006 -0.175,0.3750011 -0.375,0.3750011 z M 3.3278078,1.5145777 v 4.8000137 c 0,0.075 0.049998,0.1250004 0.1250003,0.1250004 h 7.2500229 c 0.075,0 0.125,-0.05 0.125,-0.1250004 V 1.8145787 c 0,-0.075 -0.05,-0.1250008 -0.125,-0.1250008 H 3.8278095 c -0.2000007,0 -0.3750014,-0.0625 -0.5000017,-0.1750002 z"
       fill="#231c1c"
       id="path16"
       style="fill:#4d4d4d;fill-opacity:1;stroke-width:0.00976567" /><path
       d="M 10.952831,4.8145871 H 9.490328 c -0.3625013,0 -0.6625016,-0.2750008 -0.6625016,-0.6250018 V 3.9395846 c 0,-0.3500008 0.3000003,-0.6250019 0.6625016,-0.6250019 h 1.475003 c 0.075,0 0.125,0.050003 0.125,0.1250003 v 1.2500037 c -0.0125,0.075 -0.0625,0.1250004 -0.1375,0.1250004 z M 9.490328,3.5645833 c -0.2250012,0 -0.4125012,0.1625007 -0.4125012,0.3750013 v 0.2500007 c 0,0.2125006 0.1875,0.3750011 0.4125012,0.3750011 h 1.350003 V 3.5645833 Z"
       fill="#231c1c"
       id="path18"
       style="fill:#4d4d4d;fill-opacity:1;stroke-width:0.00976567" /><path
       d="M 3.8528094,2.0645793 H 4.452812 V 2.3145799 H 3.8528094 Z"
       fill="#231c1c"
       id="path19"
       style="fill:#ff0000;fill-opacity:1;stroke-width:0.00976567" /><path
       d="m 4.8528128,2.0645793 h 0.600002 v 0.2500006 h -0.600002 z"
       fill="#231c1c"
       id="path20"
       style="fill:#ff0000;fill-opacity:1;stroke-width:0.00976567" /><path
       d="M 5.8528167,2.0645793 H 6.4528188 V 2.3145799 H 5.8528167 Z"
       fill="#231c1c"
       id="path21"
       style="fill:#ff0000;fill-opacity:1;stroke-width:0.00976567" /><path
       d="M 6.8528201,2.0645793 H 7.4528222 V 2.3145799 H 6.8528201 Z"
       fill="#231c1c"
       id="path22"
       style="fill:#ff0000;fill-opacity:1;stroke-width:0.00976567" /><path
       d="M 7.8528235,2.0645793 H 8.4528252 V 2.3145799 H 7.8528235 Z"
       fill="#231c1c"
       id="path23"
       style="fill:#ff0000;fill-opacity:1;stroke-width:0.00976567" /><path
       d="M 8.8528264,2.0645793 H 9.4528275 V 2.3145799 H 8.8528264 Z"
       fill="#231c1c"
       id="path24"
       style="fill:#ff0000;fill-opacity:1;stroke-width:0.00976567" /><path
       d="M 9.8528285,2.0645793 H 10.45283 V 2.3145799 H 9.8528285 Z"
       fill="#231c1c"
       id="path25"
       style="fill:#ff0000;fill-opacity:1;stroke-width:0.00976567" /><path
       d="M 3.8528094,5.81459 H 4.452812 V 6.0645907 H 3.8528094 Z"
       fill="#231c1c"
       id="path26"
       style="fill:#ff0000;fill-opacity:1;stroke-width:0.00976567" /><path
       d="m 4.8528128,5.81459 h 0.600002 v 0.2500007 h -0.600002 z"
       fill="#231c1c"
       id="path27"
       style="fill:#ff0000;fill-opacity:1;stroke-width:0.00976567" /><path
       d="M 5.8528167,5.81459 H 6.4528188 V 6.0645907 H 5.8528167 Z"
       fill="#231c1c"
       id="path28"
       style="fill:#ff0000;fill-opacity:1;stroke-width:0.00976567" /><path
       d="M 6.8528201,5.81459 H 7.4528222 V 6.0645907 H 6.8528201 Z"
       fill="#231c1c"
       id="path29"
       style="fill:#ff0000;fill-opacity:1;stroke-width:0.00976567" /><path
       d="M 7.8528235,5.81459 H 8.4528252 V 6.0645907 H 7.8528235 Z"
       fill="#231c1c"
       id="path30"
       style="fill:#ff0000;fill-opacity:1;stroke-width:0.00976567" /><path
       d="M 8.8528264,5.81459 H 9.4528275 V 6.0645907 H 8.8528264 Z"
       fill="#231c1c"
       id="path31"
       style="fill:#ff0000;fill-opacity:1;stroke-width:0.00976567" /><path
       d="M 9.8528285,5.81459 H 10.45283 V 6.0645907 H 9.8528285 Z"
       fill="#231c1c"
       id="path32"
       style="fill:#ff0000;fill-opacity:1;stroke-width:0.00976567" /><path
       id="path1"
       style="fill:#2b6b00;stroke-width:0.423333;stroke-linecap:round;stroke-linejoin:round"
       d="M 9.7208527,4.0645847 A 0.21862493,0.21682039 0 0 1 9.5022278,4.2814051 0.21862493,0.21682039 0 0 1 9.2836028,4.0645847 0.21862493,0.21682039 0 0 1 9.5022278,3.8477643 0.21862493,0.21682039 0 0 1 9.7208527,4.0645847 Z" /></g></svg>
