<?xml version="1.0" encoding="UTF-8" standalone="no"?>
<!-- Created with Inkscape (http://www.inkscape.org/) -->

<svg
   width="750"
   height="180"
   viewBox="0 0 198.4375 47.624999"
   version="1.1"
   id="svg1"
   inkscape:version="1.3.2 (091e20ef0f, 2023-11-25)"
   sodipodi:docname="main-logo.svg"
   xmlns:inkscape="http://www.inkscape.org/namespaces/inkscape"
   xmlns:sodipodi="http://sodipodi.sourceforge.net/DTD/sodipodi-0.dtd"
   xmlns="http://www.w3.org/2000/svg"
   xmlns:svg="http://www.w3.org/2000/svg">
  <sodipodi:namedview
     id="namedview1"
     pagecolor="#ffffff"
     bordercolor="#000000"
     borderopacity="0.25"
     inkscape:showpageshadow="false"
     inkscape:pageopacity="0.0"
     inkscape:pagecheckerboard="0"
     inkscape:deskcolor="#d1d1d1"
     inkscape:document-units="px"
     inkscape:zoom="1.7762522"
     inkscape:cx="480.22459"
     inkscape:cy="83.040008"
     inkscape:window-width="2528"
     inkscape:window-height="1404"
     inkscape:window-x="2592"
     inkscape:window-y="0"
     inkscape:window-maximized="1"
     inkscape:current-layer="layer1" />
  <defs
     id="defs1" />
  <g
     inkscape:label="Livello 1"
     inkscape:groupmode="layer"
     id="layer1">
    <g
       id="g22"
       transform="matrix(5,0,0,5,4.9945291,1.6666666e-7)">
      <path
         d="M 34.045983,0.98650307 V 6.4218301 h 1.101225 V 4.4359049 h 0.545186 l 0.817521,1.9859252 h 1.179773 V 6.3696369 L 36.733674,4.1408324 c 0.246401,-0.1319115 0.439399,-0.3182327 0.578776,-0.5596557 0.139379,-0.241423 0.20929,-0.5591508 0.20929,-0.9523966 0,-0.5351129 -0.15214,-0.9418409 -0.455786,-1.2205973 C 36.762308,1.1269373 36.33936,0.98650307 35.796781,0.98650307 Z m 1.101225,0.91467283 h 0.671794 c 0.403201,0.00996 0.605131,0.2824083 0.605131,0.8175211 0,0.243912 -0.05482,0.4391659 -0.164332,0.5860108 -0.109511,0.144356 -0.27397,0.2165242 -0.492993,0.2165242 h -0.6196 z"
         style="font-weight:bold;font-size:7.6459px;font-family:'Roboto Condensed';-inkscape-font-specification:'Roboto Condensed,  Bold';letter-spacing:0px;fill:#0d7474;fill-opacity:1;stroke-width:2.15041;stroke-linecap:square;stroke-linejoin:round"
         id="path18" />
      <path
         d="m 31.294213,0.91157225 c -0.582402,0 -1.05401,0.20028445 -1.4149,0.60099685 -0.36089,0.3982236 -0.541053,0.9895325 -0.541053,1.7735352 v 0.903304 c 0,0.7665803 0.181291,1.3427976 0.54467,1.7285766 0.363379,0.3857791 0.836633,0.578776 1.419035,0.578776 0.584891,0 1.056499,-0.1929969 1.4149,-0.578776 C 33.075266,5.5322059 33.2543,4.9559886 33.2543,4.1894083 v -0.903304 c 0,-0.7840027 -0.180679,-1.3753116 -0.541569,-1.7735352 -0.36089,-0.4007124 -0.833627,-0.60099685 -1.418518,-0.60099685 z m 0,0.91829015 c 0.281245,0 0.495493,0.1124128 0.642338,0.3364136 0.146845,0.2240008 0.220142,0.5943862 0.220142,1.1120768 v 0.9374105 c -0.0025,0.482846 -0.07579,0.831369 -0.220142,1.0454142 -0.144356,0.2140451 -0.355829,0.3209106 -0.634586,0.3209106 -0.281245,0 -0.496622,-0.1085107 -0.645956,-0.3250448 C 30.509164,5.0380204 30.435868,4.6822099 30.435868,4.1894083 V 3.2488972 c 0.0025,-0.5052461 0.07578,-0.8677324 0.220141,-1.0867553 0.146845,-0.2215119 0.359448,-0.3322795 0.638204,-0.3322795 z"
         style="font-weight:bold;font-size:7.6459px;font-family:'Roboto Condensed';-inkscape-font-specification:'Roboto Condensed,  Bold';letter-spacing:0px;fill:#0d7474;fill-opacity:1;stroke-width:2.15041;stroke-linecap:square;stroke-linejoin:round"
         id="path12" />
      <path
         d="M 25.134383,0.98650307 V 1.9011759 h 1.321366 v 4.5206542 h 1.097607 V 1.9011759 h 1.347722 V 0.98650307 Z"
         style="font-weight:bold;font-size:7.6459px;font-family:'Roboto Condensed';-inkscape-font-specification:'Roboto Condensed,  Bold';letter-spacing:0px;fill:#0d7474;fill-opacity:1;stroke-width:2.15041;stroke-linecap:square;stroke-linejoin:round"
         id="path17" />
      <path
         d="M 20.803381,0.98650307 V 6.4218301 h 1.101741 v -3.565157 l 1.60507,3.565157 H 24.6078 V 0.98650307 H 23.510192 V 4.5552774 l -1.60507,-3.56877433 z"
         style="font-weight:bold;font-size:7.6459px;font-family:'Roboto Condensed';-inkscape-font-specification:'Roboto Condensed,  Bold';letter-spacing:0px;fill:#0d7474;fill-opacity:1;stroke-width:2.15041;stroke-linecap:square;stroke-linejoin:round"
         id="path16" />
      <path
         d="M 17.577738,0.98650307 15.879134,6.4218301 h 1.164787 l 0.291455,-1.1120768 h 1.497066 l 0.290938,1.1120768 h 1.168921 L 18.582328,0.98650307 Z M 18.0821,2.453597 18.593697,4.3950805 h -1.019576 z"
         style="font-weight:bold;font-size:7.6459px;font-family:'Roboto Condensed';-inkscape-font-specification:'Roboto Condensed,  Bold';letter-spacing:0px;fill:#0d7474;fill-opacity:1;stroke-width:2.15041;stroke-linecap:square;stroke-linejoin:round"
         id="path15" />
      <path
         d="M 12.003918,0.98650307 V 6.4218301 H 13.10566 V 4.4359049 h 0.544669 l 0.817521,1.9859252 h 1.179773 V 6.3696369 L 14.692126,4.1408324 c 0.246401,-0.1319115 0.439398,-0.3182327 0.578776,-0.5596557 0.139379,-0.241423 0.208773,-0.5591508 0.208773,-0.9523966 0,-0.5351129 -0.151624,-0.9418409 -0.455269,-1.2205973 C 14.720761,1.1269373 14.297812,0.98650307 13.755232,0.98650307 Z M 13.10566,1.9011759 h 0.671793 c 0.403201,0.00996 0.604615,0.2824083 0.604615,0.8175211 0,0.243912 -0.05482,0.4391659 -0.164331,0.5860108 -0.109512,0.144356 -0.273454,0.2165242 -0.492477,0.2165242 h -0.6196 z"
         style="font-weight:bold;font-size:7.6459px;font-family:'Roboto Condensed';-inkscape-font-specification:'Roboto Condensed,  Bold';letter-spacing:0px;fill:#0d7474;fill-opacity:1;stroke-width:2.15041;stroke-linecap:square;stroke-linejoin:round"
         id="path14" />
      <path
         d="M 7.6026366,0.98650307 V 1.9011759 H 8.9240029 V 6.4218301 H 10.02161 V 1.9011759 h 1.347722 V 0.98650307 Z"
         style="font-weight:bold;font-size:7.6459px;font-family:'Roboto Condensed';-inkscape-font-specification:'Roboto Condensed,  Bold';letter-spacing:0px;fill:#0d7474;fill-opacity:1;stroke-width:2.15041;stroke-linecap:square;stroke-linejoin:round"
         id="path13" />
      <path
         id="path2"
         style="fill:#0d7474;fill-opacity:1;stroke-linecap:square;stroke-linejoin:round"
         d="M 3.7052001,0 C 1.663834,-3.6735316e-8 -3.6735316e-8,1.663834 0,3.7052001 c 0,2.0413663 1.663834,3.7031332 3.7052001,3.7031331 2.0413663,0 3.7031331,-1.6617668 3.7031331,-3.7031331 C 7.4083333,1.663834 5.7465664,0 3.7052001,0 Z m 0,0.7400065 c 1.3152566,0 2.424194,0.8501913 2.813265,2.0324341 C 5.32591,2.3193684 4.3301115,1.69301 3.7052001,0.7400065 Z"
         sodipodi:nodetypes="sssssccc" />
    </g>
    <g
       id="g1"
       transform="translate(71.020979,-30.08871)">
      <path
         d="m 119.46507,66.471393 v 4.225065 h 0.85576 v -2.771407 l 1.24798,2.771407 h 0.85318 v -4.225065 h -0.85318 V 69.2459 l -1.24798,-2.774507 z"
         style="font-weight:bold;font-size:5.94332px;font-family:'Roboto Condensed';-inkscape-font-specification:'Roboto Condensed,  Bold';letter-spacing:2.64117px;fill:#0d7474;fill-opacity:1;stroke-width:1.67156;stroke-linecap:round;stroke-linejoin:round"
         id="path37" />
      <path
         d="m 114.68758,66.413515 c -0.45271,0 -0.81915,0.155673 -1.09968,0.467155 -0.28052,0.309548 -0.42064,0.768788 -0.42064,1.37821 v 0.702283 c 0,0.595879 0.14129,1.043713 0.42375,1.343587 0.28246,0.299875 0.65006,0.450102 1.10277,0.450102 0.45465,0 0.82108,-0.150227 1.09967,-0.450102 0.2786,-0.299874 0.41807,-0.747708 0.41807,-1.343587 V 68.25888 c 0,-0.609422 -0.14064,-1.068662 -0.42117,-1.37821 -0.28052,-0.311482 -0.64812,-0.467155 -1.10277,-0.467155 z m 0,0.713652 c 0.21861,0 0.38505,0.08684 0.49919,0.260966 0.11415,0.17412 0.17157,0.462651 0.17157,0.865063 v 0.728638 c -0.002,0.375326 -0.0593,0.645971 -0.17157,0.812353 -0.11221,0.166382 -0.27631,0.249597 -0.49299,0.249597 -0.21862,0 -0.38621,-0.08438 -0.50229,-0.252697 -0.11415,-0.170251 -0.17105,-0.446859 -0.17105,-0.829924 v -0.731221 c 0.002,-0.392739 0.0588,-0.674142 0.17105,-0.844393 0.11414,-0.172186 0.27941,-0.258382 0.49609,-0.258382 z"
         style="font-weight:bold;font-size:5.94332px;font-family:'Roboto Condensed';-inkscape-font-specification:'Roboto Condensed,  Bold';letter-spacing:2.64117px;fill:#0d7474;fill-opacity:1;stroke-width:1.67156;stroke-linecap:round;stroke-linejoin:round"
         id="path28" />
      <path
         d="m 109.02539,66.471393 v 4.225065 h 0.85318 v -4.225065 z"
         style="font-weight:bold;font-size:5.94332px;font-family:'Roboto Condensed';-inkscape-font-specification:'Roboto Condensed,  Bold';letter-spacing:2.64117px;fill:#0d7474;fill-opacity:1;stroke-width:1.67156;stroke-linecap:round;stroke-linejoin:round"
         id="path36" />
      <path
         d="m 102.92809,66.471393 v 0.711067 h 1.02733 v 3.513998 h 0.85318 V 67.18246 h 1.04748 v -0.711067 z"
         style="font-weight:bold;font-size:5.94332px;font-family:'Roboto Condensed';-inkscape-font-specification:'Roboto Condensed,  Bold';letter-spacing:2.64117px;fill:#0d7474;fill-opacity:1;stroke-width:1.67156;stroke-linecap:round;stroke-linejoin:round"
         id="path35" />
      <path
         d="m 98.316485,66.471393 -1.32034,4.225065 h 0.90537 l 0.22635,-0.864547 h 1.16375 l 0.22634,0.864547 h 0.908465 l -1.329105,-4.225065 z m 0.3917,1.140499 0.39791,1.508951 h -0.79271 z"
         style="font-weight:bold;font-size:5.94332px;font-family:'Roboto Condensed';-inkscape-font-specification:'Roboto Condensed,  Bold';letter-spacing:2.64117px;fill:#0d7474;fill-opacity:1;stroke-width:1.67156;stroke-linecap:round;stroke-linejoin:round"
         id="path34" />
      <path
         d="m 91.731355,66.471393 v 4.225065 h 2.35076 v -0.707967 h -1.49448 v -3.517098 z"
         style="font-weight:bold;font-size:5.94332px;font-family:'Roboto Condensed';-inkscape-font-specification:'Roboto Condensed,  Bold';letter-spacing:2.64117px;fill:#0d7474;fill-opacity:1;stroke-width:1.67156;stroke-linecap:round;stroke-linejoin:round"
         id="path33" />
      <path
         d="m 86.246415,66.471393 v 4.225065 h 2.35076 v -0.707967 h -1.49448 v -3.517098 z"
         style="font-weight:bold;font-size:5.94332px;font-family:'Roboto Condensed';-inkscape-font-specification:'Roboto Condensed,  Bold';letter-spacing:2.64117px;fill:#0d7474;fill-opacity:1;stroke-width:1.67156;stroke-linecap:round;stroke-linejoin:round"
         id="path32" />
      <path
         d="m 80.688615,66.471393 v 4.225065 h 2.42621 v -0.707967 h -1.56993 v -1.119829 h 1.32602 v -0.687813 h -1.32602 V 67.18246 h 1.56425 v -0.711067 z"
         style="font-weight:bold;font-size:5.94332px;font-family:'Roboto Condensed';-inkscape-font-specification:'Roboto Condensed,  Bold';letter-spacing:2.64117px;fill:#0d7474;fill-opacity:1;stroke-width:1.67156;stroke-linecap:round;stroke-linejoin:round"
         id="path31" />
      <path
         d="m 74.629035,66.471393 v 0.711067 h 1.02733 v 3.513998 h 0.85318 V 67.18246 h 1.04748 v -0.711067 z"
         style="font-weight:bold;font-size:5.94332px;font-family:'Roboto Condensed';-inkscape-font-specification:'Roboto Condensed,  Bold';letter-spacing:2.64117px;fill:#0d7474;fill-opacity:1;stroke-width:1.67156;stroke-linecap:round;stroke-linejoin:round"
         id="path30" />
      <path
         d="m 70.287185,66.413515 c -0.39274,0 -0.71368,0.108362 -0.96325,0.325045 -0.24957,0.214748 -0.37465,0.499782 -0.37465,0.855762 0,0.363718 0.11911,0.645121 0.35708,0.844392 0.22442,0.187664 0.48664,0.342688 0.78652,0.464572 0.29987,0.121884 0.48432,0.230245 0.55397,0.325044 0.0716,0.09286 0.10748,0.211984 0.10748,0.357084 0,0.135428 -0.0336,0.248585 -0.10128,0.339515 -0.0677,0.08899 -0.18385,0.133325 -0.3483,0.133325 -0.20121,0 -0.35325,-0.05211 -0.45579,-0.15658 -0.1006,-0.104472 -0.15089,-0.284641 -0.15089,-0.540018 h -0.85628 c 0,0.321155 0.0718,0.58454 0.21497,0.789615 0.14317,0.205076 0.3258,0.356602 0.54829,0.45527 0.22442,0.09867 0.45787,0.148311 0.6997,0.148311 0.40241,0 0.72037,-0.102916 0.95446,-0.307991 0.2341,-0.207011 0.3514,-0.496191 0.3514,-0.867648 0,-0.348241 -0.0976,-0.628478 -0.293,-0.841292 -0.1954,-0.212814 -0.49055,-0.390003 -0.88522,-0.531234 -0.1896,-0.08319 -0.34229,-0.171202 -0.45837,-0.264066 -0.11415,-0.09287 -0.17157,-0.207837 -0.17157,-0.345199 0,-0.135427 0.0377,-0.2504 0.11318,-0.345198 0.0774,-0.0948 0.1965,-0.142627 0.35708,-0.142627 0.17412,0 0.29868,0.05742 0.37414,0.171565 0.0774,0.114146 0.11627,0.259061 0.11627,0.435116 h 0.85318 c 0,-0.381131 -0.12094,-0.693642 -0.36277,-0.937411 -0.2399,-0.243768 -0.562,-0.365352 -0.96635,-0.365352 z"
         style="font-weight:bold;font-size:5.94332px;font-family:'Roboto Condensed';-inkscape-font-specification:'Roboto Condensed,  Bold';letter-spacing:2.64117px;fill:#0d7474;fill-opacity:1;stroke-width:1.67156;stroke-linecap:round;stroke-linejoin:round"
         id="path27" />
      <path
         d="m 62.686615,66.471393 v 4.225065 h 0.85576 v -2.771407 l 1.24799,2.771407 h 0.85317 v -4.225065 h -0.85317 V 69.2459 l -1.24799,-2.774507 z"
         style="font-weight:bold;font-size:5.94332px;font-family:'Roboto Condensed';-inkscape-font-specification:'Roboto Condensed,  Bold';letter-spacing:2.64117px;fill:#0d7474;fill-opacity:1;stroke-width:1.67156;stroke-linecap:round;stroke-linejoin:round"
         id="path29" />
      <path
         d="m 57.909645,66.413515 c -0.45271,0 -0.81966,0.155673 -1.10019,0.467155 -0.28053,0.309548 -0.42065,0.768788 -0.42065,1.37821 v 0.702283 c 0,0.595879 0.14129,1.043713 0.42375,1.343587 0.28247,0.299875 0.65006,0.450102 1.10277,0.450102 0.45465,0 0.82109,-0.150227 1.09968,-0.450102 0.27859,-0.299874 0.41806,-0.747708 0.41806,-1.343587 V 68.25888 c 0,-0.609422 -0.14012,-1.068662 -0.42064,-1.37821 -0.28053,-0.311482 -0.64813,-0.467155 -1.10278,-0.467155 z m 0,0.713652 c 0.21862,0 0.38505,0.08684 0.49919,0.260966 0.11415,0.17412 0.17105,0.462651 0.17105,0.865063 v 0.728638 c -0.002,0.375326 -0.0588,0.645971 -0.17105,0.812353 -0.11221,0.166382 -0.27683,0.249597 -0.49351,0.249597 -0.21862,0 -0.38621,-0.08438 -0.50229,-0.252697 -0.11415,-0.170251 -0.17105,-0.446859 -0.17105,-0.829924 v -0.731221 c 0.002,-0.392739 0.0588,-0.674142 0.17105,-0.844393 0.11415,-0.172186 0.27993,-0.258382 0.49661,-0.258382 z"
         style="font-weight:bold;font-size:5.94332px;font-family:'Roboto Condensed';-inkscape-font-specification:'Roboto Condensed,  Bold';letter-spacing:2.64117px;fill:#0d7474;fill-opacity:1;stroke-width:1.67156;stroke-linecap:round;stroke-linejoin:round"
         id="path26" />
      <path
         d="m 51.840765,66.410415 c -0.46045,0 -0.8239,0.155673 -1.09089,0.467154 -0.26505,0.309548 -0.39739,0.759197 -0.39739,1.349272 v 0.757577 c 0.006,0.572662 0.13698,1.010904 0.39429,1.314648 0.25731,0.303744 0.6183,0.455786 1.08262,0.455786 0.45271,0 0.80476,-0.125081 1.05627,-0.374654 0.25152,-0.249572 0.38684,-0.614191 0.40617,-1.09399 h -0.85317 c -0.01,0.305678 -0.0606,0.508662 -0.15348,0.609265 -0.0929,0.100603 -0.24491,0.151412 -0.45579,0.151412 -0.24183,0 -0.40645,-0.08438 -0.49351,-0.252698 -0.0871,-0.168316 -0.13022,-0.451535 -0.13022,-0.850077 v -0.769462 c 0.004,-0.390804 0.056,-0.66443 0.15658,-0.821139 0.1006,-0.156708 0.2599,-0.235127 0.47852,-0.235127 0.22249,0 0.37634,0.05625 0.46147,0.168465 0.0851,0.110276 0.13296,0.316242 0.14263,0.61805 h 0.85318 c -0.031,-0.479798 -0.1668,-0.848564 -0.4067,-1.105876 -0.23989,-0.259245 -0.59013,-0.388606 -1.05058,-0.388606 z"
         style="font-weight:bold;font-size:5.94332px;font-family:'Roboto Condensed';-inkscape-font-specification:'Roboto Condensed,  Bold';letter-spacing:2.64117px;fill:#0d7474;fill-opacity:1;stroke-width:1.67156;stroke-linecap:round;stroke-linejoin:round"
         id="path25" />
      <path
         id="path40-5"
         style="fill:#0d7474;fill-opacity:1;stroke-width:1.16159;stroke-linecap:round;stroke-linejoin:round"
         d="m 28.969806,67.035958 a 1.4530902,1.5467005 0 0 0 -1.453141,1.546675 1.4530902,1.5467005 0 0 0 1.453141,1.546676 1.4530902,1.5467005 0 0 0 1.443319,-1.399915 h 4.96921 a 1.4530902,1.5467005 0 0 0 1.44332,1.399915 1.4530902,1.5467005 0 0 0 1.44332,-1.399915 h 5.81464 a 1.4530902,1.5467005 0 0 0 1.44332,1.399915 1.4530902,1.5467005 0 0 0 1.45314,-1.546676 1.4530902,1.5467005 0 0 0 -1.45314,-1.546675 1.4530902,1.5467005 0 0 0 -1.44332,1.399397 h -5.81464 a 1.4530902,1.5467005 0 0 0 -1.44332,-1.399397 1.4530902,1.5467005 0 0 0 -1.44332,1.399397 h -4.96921 a 1.4530902,1.5467005 0 0 0 -1.443319,-1.399397 z" />
    </g>
  </g>
</svg>
