<?xml version="1.0" encoding="UTF-8" standalone="no"?>
<!-- Created with Inkscape (http://www.inkscape.org/) -->

<svg
   width="90"
   height="30"
   viewBox="0 0 23.812499 7.9375002"
   version="1.1"
   id="svg1"
   inkscape:version="1.3.2 (1:1.3.2+202311252150+091e20ef0f)"
   sodipodi:docname="credits-icon.svg"
   xml:space="preserve"
   xmlns:inkscape="http://www.inkscape.org/namespaces/inkscape"
   xmlns:sodipodi="http://sodipodi.sourceforge.net/DTD/sodipodi-0.dtd"
   xmlns="http://www.w3.org/2000/svg"
   xmlns:svg="http://www.w3.org/2000/svg"><sodipodi:namedview
     id="namedview1"
     pagecolor="#ffffff"
     bordercolor="#000000"
     borderopacity="0.25"
     inkscape:showpageshadow="false"
     inkscape:pageopacity="0.0"
     inkscape:pagecheckerboard="0"
     inkscape:deskcolor="#d1d1d1"
     inkscape:document-units="px"
     inkscape:zoom="5.2694444"
     inkscape:cx="70.690564"
     inkscape:cy="17.174486"
     inkscape:window-width="2526"
     inkscape:window-height="1404"
     inkscape:window-x="2594"
     inkscape:window-y="0"
     inkscape:window-maximized="1"
     inkscape:current-layer="layer1" /><defs
     id="defs1"><inkscape:path-effect
   effect="bspline"
   id="path-effect5"
   is_visible="true"
   lpeversion="1.3"
   weight="33.333333"
   steps="2"
   helper_size="0"
   apply_no_weight="true"
   apply_with_weight="true"
   only_selected="false"
   uniform="false" /><inkscape:path-effect
   effect="bspline"
   id="path-effect8"
   is_visible="true"
   lpeversion="1.3"
   weight="33.333333"
   steps="2"
   helper_size="0"
   apply_no_weight="true"
   apply_with_weight="true"
   only_selected="false"
   uniform="false" />
	
	
<style
   id="style1-3">.cls-1{fill:none;}.cls-2{clip-path:url(#clip-path);}</style><clipPath
   clipPathUnits="userSpaceOnUse"
   id="clipPath2"><g
     id="g3"><rect
       class="cls-1"
       width="9.5248451"
       height="9.5248451"
       id="rect2"
       x="-0.79373533"
       y="-0.76184326"
       style="stroke-width:0.396869" /></g></clipPath><clipPath
   clipPathUnits="userSpaceOnUse"
   id="clipPath3"><g
     id="g4"><rect
       class="cls-1"
       width="9.5248451"
       height="9.5248451"
       id="rect3"
       x="-0.79373533"
       y="-0.76184326"
       style="stroke-width:0.396869" /></g></clipPath><clipPath
   clipPathUnits="userSpaceOnUse"
   id="clipPath4"><g
     id="g5"><rect
       class="cls-1"
       width="9.5248451"
       height="9.5248451"
       id="rect4"
       x="-0.79373533"
       y="-0.76184326"
       style="stroke-width:0.396869" /></g></clipPath><style
   id="style1-2">.cls-1{fill:none;}.cls-2{clip-path:url(#clip-path);}</style><clipPath
   id="clip-path"><rect
     class="cls-1"
     width="24"
     height="24"
     id="rect1" /></clipPath></defs><g
     inkscape:label="Livello 1"
     inkscape:groupmode="layer"
     id="layer1"
     transform="translate(-1.7746318e-6,-0.0318939)"><g
       style="fill:none"
       id="g8"
       transform="matrix(0.39678239,0,0,0.39678239,-1.5862013,-0.76074526)" /><g
       id="path1"
       style="fill:#ffffff"><path
         style="color:#000000;fill:#ffffff;stroke-linecap:round;stroke-linejoin:round;-inkscape-stroke:none"
         d="m 17.197937,2.236755 -1.763889,1.6282017 1.763889,1.899576 m 4.409722,-3.5277777 1.763889,1.6282017 -1.763889,1.899576 M 20.284742,0.47286608 18.520853,7.5284216"
         id="path8" /><path
         style="color:#000000;fill:#ffffff;stroke-linecap:round;stroke-linejoin:round;-inkscape-stroke:none"
         d="M 20.392578,0.04492187 A 0.440972,0.440972 0 0 0 19.857422,0.36523438 L 18.09375,7.421875 a 0.440972,0.440972 0 0 0 0.320312,0.5351562 0.440972,0.440972 0 0 0 0.535157,-0.3222656 L 20.712891,0.58007812 A 0.440972,0.440972 0 0 0 20.392578,0.04492187 Z M 16.898437,1.9121094 15.134766,3.5410156 a 0.4410161,0.4410161 0 0 0 -0.02344,0.6230469 L 16.875,6.0644531 a 0.440972,0.440972 0 0 0 0.623047,0.023437 0.440972,0.440972 0 0 0 0.02344,-0.6230469 l -1.46289,-1.5761718 1.4375,-1.328125 A 0.440972,0.440972 0 0 0 17.521484,1.9375 0.440972,0.440972 0 0 0 16.898437,1.9121094 Z m 5.007813,0 a 0.440972,0.440972 0 0 0 -0.623047,0.025391 0.440972,0.440972 0 0 0 0.02539,0.6230469 l 1.439453,1.328125 -1.462891,1.5761718 a 0.440972,0.440972 0 0 0 0.02148,0.6230469 0.440972,0.440972 0 0 0 0.625,-0.023437 l 1.763671,-1.9003906 a 0.4410161,0.4410161 0 0 0 -0.02539,-0.6230469 z"
         id="path9" /></g><g
       id="path5"
       style="fill:#ffffff"><path
         style="color:#000000;fill:#ffffff;stroke-linecap:round;stroke-linejoin:bevel;-inkscape-stroke:none;paint-order:stroke markers fill"
         d="M 7.5175781,7.2285156 A 0.379545,0.379545 0 0 0 7.1386719,7.6074219 0.379545,0.379545 0 0 0 7.5175781,7.9882812 H 18.546875 A 0.379545,0.379545 0 0 0 18.925781,7.6074219 0.379545,0.379545 0 0 0 18.546875,7.2285156 Z"
         id="path6" /><path
         style="color:#000000;fill:#ffffff;stroke-linecap:round;stroke-linejoin:bevel;-inkscape-stroke:none;paint-order:stroke markers fill"
         d="m 7.5181339,7.6081666 c 0,0 11.0287631,0 11.0287631,0"
         id="path7" /></g><g
       class="cls-2"
       clip-path="url(#clip-path)"
       id="g3-9"
       transform="matrix(0.39686856,0,0,0.39686856,-0.79373535,-0.76184325)"
       style="fill:#ffffff"><path
         d="m 12,14 a 6,6 0 1 1 6,-6 6,6 0 0 1 -6,6 z M 12,4 a 4,4 0 1 0 4,4 4,4 0 0 0 -4,-4 z"
         id="path1-1"
         style="fill:#ffffff" /><path
         d="m 21,22 a 1,1 0 0 1 -1,-1 7,7 0 0 0 -7,-7 h -2 a 7,7 0 0 0 -7,7 1,1 0 0 1 -2,0 9,9 0 0 1 9,-9 h 2 a 9,9 0 0 1 9,9 1,1 0 0 1 -1,1 z"
         id="path2"
         style="fill:#ffffff" /><path
         d="m 12,22 a 1,1 0 0 1 -0.71,-0.29 l -1,-1 a 1,1 0 0 1 -0.28,-0.85 l 1,-7 a 1,1 0 0 1 2,0 l 1,7 a 1,1 0 0 1 -0.28,0.85 l -1,1 A 1,1 0 0 1 12,22 Z"
         id="path3"
         style="fill:#ffffff" /></g></g><style
     type="text/css"
     id="style1">
	.st0{fill:none;}
</style></svg>
