<?xml version="1.0" encoding="UTF-8" standalone="no"?>
<!-- Created with Inkscape (http://www.inkscape.org/) -->

<svg
   width="30"
   height="30"
   viewBox="0 0 7.9374997 7.9375002"
   version="1.1"
   id="svg1"
   inkscape:version="1.3.2 (1:1.3.2+202311252150+091e20ef0f)"
   sodipodi:docname="home-icon.svg"
   xml:space="preserve"
   xmlns:inkscape="http://www.inkscape.org/namespaces/inkscape"
   xmlns:sodipodi="http://sodipodi.sourceforge.net/DTD/sodipodi-0.dtd"
   xmlns="http://www.w3.org/2000/svg"
   xmlns:svg="http://www.w3.org/2000/svg"><sodipodi:namedview
     id="namedview1"
     pagecolor="#ffffff"
     bordercolor="#000000"
     borderopacity="0.25"
     inkscape:showpageshadow="false"
     inkscape:pageopacity="0.0"
     inkscape:pagecheckerboard="0"
     inkscape:deskcolor="#d1d1d1"
     inkscape:document-units="px"
     inkscape:zoom="14.130351"
     inkscape:cx="44.266418"
     inkscape:cy="6.3338839"
     inkscape:window-width="2526"
     inkscape:window-height="1404"
     inkscape:window-x="2594"
     inkscape:window-y="0"
     inkscape:window-maximized="1"
     inkscape:current-layer="layer1" /><defs
     id="defs1" /><g
     inkscape:label="Livello 1"
     inkscape:groupmode="layer"
     id="layer1"
     transform="translate(-1.7746318e-6,-0.0318939)"><g
       id="g8"
       transform="matrix(0.91860301,0,0,0.91860301,-10.430866,0.3256404)"><path
         fill-rule="evenodd"
         clip-rule="evenodd"
         d="M 19.506251,3.4824758 19.192167,3.2312087 v 4.135337 h 0.502373 c 0.166467,0 0.301424,0.1349576 0.301424,0.3014241 0,0.1665066 -0.134957,0.301424 -0.301424,0.301424 h -8.037962 c -0.166475,0 -0.301425,-0.1349174 -0.301425,-0.301424 0,-0.1664665 0.13495,-0.3014241 0.301425,-0.3014241 h 0.502373 V 3.2312087 L 11.844875,3.4824758 C 11.714881,3.5864872 11.525197,3.5653875 11.421206,3.4354135 11.31721,3.3053992 11.338286,3.115703 11.46828,3.0117318 l 3.265793,-2.61263912 c 0.550432,-0.44034436 1.332567,-0.44034436 1.882968,0 L 19.88283,3.0117318 c 0.130014,0.1039712 0.151073,0.2936674 0.0471,0.4236817 -0.104011,0.129974 -0.293667,0.1510737 -0.423681,0.047062 z M 15.675553,1.5390302 c -0.610404,0 -1.10521,0.4948258 -1.10521,1.1052215 0,0.6103877 0.494806,1.1052054 1.10521,1.1052054 0.610404,0 1.105221,-0.4948177 1.105221,-1.1052054 0,-0.6103957 -0.494817,-1.1052215 -1.105221,-1.1052215 z m 0.701675,2.6370826 c -0.184391,-0.024757 -0.414599,-0.024757 -0.681821,-0.024757 h -0.03967 c -0.267222,0 -0.49747,0 -0.681821,0.024757 -0.197594,0.026565 -0.386996,0.086489 -0.540618,0.2401345 C 14.279672,4.569853 14.219765,4.7592679 14.1932,4.9568413 14.16841,5.1411923 14.16843,5.37144 14.16844,5.6386625 v 1.7278832 h 0.602848 1.808532 0.602848 V 5.6386625 5.5889878 c -8e-5,-0.246163 -0.0015,-0.4592898 -0.02476,-0.6321465 C 17.131351,4.7592679 17.071468,4.569853 16.917822,4.4162473 16.764216,4.2626014 16.574801,4.2026783 16.377228,4.1761128 Z"
         fill="#1c274c"
         id="path1-6"
         style="fill:#333333;fill-opacity:1;stroke-width:0.401899" /><g
         opacity="0.5"
         id="g3"
         transform="matrix(0.40189873,0,0,0.40189873,10.852768,-1.1738023)"
         style="opacity:1;fill:#aaaaaa;fill-opacity:1"><path
           fill-rule="evenodd"
           clip-rule="evenodd"
           d="m 10.75,9.5 c 0,-0.69036 0.5596,-1.25 1.25,-1.25 0.6904,0 1.25,0.55964 1.25,1.25 0,0.6904 -0.5596,1.25 -1.25,1.25 -0.6904,0 -1.25,-0.5596 -1.25,-1.25 z"
           fill="#1c274c"
           id="path2"
           style="fill:#aaaaaa;fill-opacity:1" /><path
           fill-rule="evenodd"
           clip-rule="evenodd"
           d="m 10.75,9.5 c 0,-0.69036 0.5596,-1.25 1.25,-1.25 0.6904,0 1.25,0.55964 1.25,1.25 0,0.6904 -0.5596,1.25 -1.25,1.25 -0.6904,0 -1.25,-0.5596 -1.25,-1.25 z"
           fill="#1c274c"
           id="path3-2"
           style="fill:#aaaaaa;fill-opacity:1" /></g><path
         opacity="0.5"
         d="m 15.695407,4.1513559 c 0.267182,0 0.49743,-4.02e-5 0.681781,0.024757 0.197613,0.026565 0.386988,0.086489 0.540634,0.2400943 0.153605,0.1536459 0.213529,0.3430206 0.240094,0.5406342 0.02323,0.1728165 0.02468,0.3859835 0.02476,0.6321063 v 1.7775981 h -3.01424 V 5.6386223 c -1.3e-5,-0.2671823 -2.9e-5,-0.49743 0.02476,-0.681781 0.02656,-0.1976136 0.08647,-0.3869883 0.240094,-0.5406342 0.153626,-0.1536057 0.343024,-0.2135288 0.54063,-0.2400943 0.184351,-0.024797 0.414599,-0.024757 0.681781,-0.024757 z"
         fill="#1c274c"
         id="path4"
         style="opacity:1;fill:#aaaaaa;fill-opacity:1;stroke-width:0.401899" /><path
         opacity="0.5"
         d="m 17.283148,0.03189389 h 1.004747 c 0.110964,0 0.200949,0.08996905 0.200949,0.20094936 V 1.8965231 L 17.082198,0.7712067 V 0.23284325 c 0,-0.11098031 0.08998,-0.20094936 0.20095,-0.20094936 z"
         fill="#1c274c"
         id="path5"
         style="opacity:1;fill:#aaaaaa;fill-opacity:1;stroke-width:0.401899" /></g></g></svg>
