<?xml version="1.0" encoding="UTF-8" standalone="no"?>
<!-- Created with Inkscape (http://www.inkscape.org/) -->

<svg
   width="90"
   height="30"
   viewBox="0 0 23.812499 7.9375002"
   version="1.1"
   id="svg1"
   inkscape:version="1.3.2 (1:1.3.2+202311252150+091e20ef0f)"
   sodipodi:docname="home-icon.svg"
   xml:space="preserve"
   xmlns:inkscape="http://www.inkscape.org/namespaces/inkscape"
   xmlns:sodipodi="http://sodipodi.sourceforge.net/DTD/sodipodi-0.dtd"
   xmlns="http://www.w3.org/2000/svg"
   xmlns:svg="http://www.w3.org/2000/svg"><sodipodi:namedview
     id="namedview1"
     pagecolor="#ffffff"
     bordercolor="#000000"
     borderopacity="0.25"
     inkscape:showpageshadow="false"
     inkscape:pageopacity="0.0"
     inkscape:pagecheckerboard="0"
     inkscape:deskcolor="#d1d1d1"
     inkscape:document-units="px"
     inkscape:zoom="10.538889"
     inkscape:cx="63.621508"
     inkscape:cy="-3.7480232"
     inkscape:window-width="2526"
     inkscape:window-height="1404"
     inkscape:window-x="2594"
     inkscape:window-y="0"
     inkscape:window-maximized="1"
     inkscape:current-layer="layer1" /><defs
     id="defs1">
	
	
</defs><g
     inkscape:label="Livello 1"
     inkscape:groupmode="layer"
     id="layer1"
     transform="translate(-1.7746318e-6,-0.0318939)"><path
       style="color:#000000;fill:#ffffff;stroke-width:1.04877;stroke-linecap:round;-inkscape-stroke:none"
       d="m 5.7109049,0.0318942 c -0.2638704,-10e-9 -0.4834193,0.21952779 -0.4834193,0.4834193 v 0.7742902 a 0.29039454,0.29039454 0 0 0 0.2908709,0.290871 0.29039454,0.29039454 0 0 0 0.2888226,-0.290871 V 0.61158769 H 6.5814693 V 2.4510391 a 0.29039454,0.29039454 0 0 0 0.290871,0.290871 0.29039454,0.29039454 0 0 0 0.2908709,-0.290871 V 0.5153135 c 0,-0.26389094 -0.219549,-0.48341931 -0.4834193,-0.4834193 z"
       id="path3" /><path
       style="color:#000000;fill:#ffffff;stroke-width:1.04877;stroke-linecap:round;-inkscape-stroke:none"
       d="m 4.1623244,0.35758772 c -0.3212642,0 -0.6429235,0.10590022 -0.9074355,0.31749997 L 0.10856667,3.1925553 a 0.29039454,0.29039454 0 0 0 -0.04506451,0.4076289 0.29039454,0.29039454 0 0 0 0.407629,0.045064 L 3.6174535,1.1298296 c 0.3194701,-0.25556432 0.7702715,-0.25556442 1.0897417,0 L 7.8535175,3.6452487 A 0.29039454,0.29039454 0 0 0 8.2611466,3.6001842 0.29039454,0.29039454 0 0 0 8.2160821,3.1925553 L 5.0697598,0.67508769 C 4.8052479,0.46348796 4.4835885,0.35758772 4.1623244,0.35758772 Z"
       id="path2-3" /><path
       style="color:#000000;fill:#ffffff;stroke-width:1.04877;stroke-linecap:round;-inkscape-stroke:none"
       d="M 1.0651634,2.5473134 A 0.29039454,0.29039454 0 0 0 0.77429242,2.8381842 V 7.6785225 A 0.29039454,0.29039454 0 0 0 1.0651634,7.9693934 0.29039454,0.29039454 0 0 0 1.3560343,7.6785225 V 2.8381842 A 0.29039454,0.29039454 0 0 0 1.0651634,2.5473134 Z"
       id="path4-6" /><path
       style="color:#000000;fill:#ffffff;stroke-width:1.04877;stroke-linecap:round;-inkscape-stroke:none"
       d="M 7.2594854,2.5473134 A 0.29039454,0.29039454 0 0 0 6.9686144,2.8381842 V 7.6785225 A 0.29039454,0.29039454 0 0 0 7.2594854,7.9693934 0.29039454,0.29039454 0 0 0 7.5503563,7.6785225 V 2.8381842 A 0.29039454,0.29039454 0 0 0 7.2594854,2.5473134 Z"
       id="path5-7" /><path
       style="color:#000000;fill:#ffffff;stroke-width:1.04877;-inkscape-stroke:none"
       d="m 4.1623244,4.2904905 c -0.2737838,0 -0.484916,-0.0011 -0.6759677,0.02458 C 3.295305,4.340755 3.1062059,4.4064119 2.9660664,4.546539 2.825942,4.6866824 2.7602851,4.8757743 2.7345987,5.0668292 2.7089123,5.2578841 2.7100181,5.4690131 2.7100181,5.7427969 V 7.6785225 H 3.29176 V 5.7427969 c 0,-0.2737838 0.00159,-0.472867 0.018435,-0.5981289 0.016841,-0.1252621 0.035564,-0.1584627 0.065548,-0.1884516 0.029969,-0.029967 0.063189,-0.048709 0.1884516,-0.065548 0.1252632,-0.01684 0.3243452,-0.018435 0.598129,-0.018435 0.2737837,0 0.4728641,0.00159 0.5981289,0.018435 0.1252649,0.016839 0.1584652,0.035569 0.1884516,0.065548 0.02998,0.029987 0.048708,0.063187 0.065548,0.1884516 0.01684,0.1252647 0.018435,0.3243451 0.018435,0.5981289 V 7.6785225 H 5.6146307 V 5.7427969 c 0,-0.2737838 0.0011,-0.4849157 -0.02458,-0.6759677 C 5.5643664,4.8757772 5.4986965,4.6866849 5.3585823,4.546539 5.2184364,4.406425 5.029344,4.3407549 4.838292,4.3150712 4.6472401,4.2893875 4.4361081,4.2904905 4.1623244,4.2904905 Z"
       id="path6" /><path
       style="color:#000000;fill:#ffffff;stroke-width:1.04877;stroke-linecap:round;-inkscape-stroke:none"
       d="M 0.29087311,7.3876516 C 0.13012034,7.3873877 -2.6174796e-4,7.5177697 2.1661433e-6,7.6785225 -2.6174796e-4,7.8392753 0.13012034,7.9696573 0.29087311,7.9693934 l 21.66677789,0 c 0.160753,2.64e-4 0.291135,-0.1301181 0.290871,-0.2908709 2.64e-4,-0.1607528 -0.130118,-0.2911349 -0.290871,-0.2908709 z"
       id="path1"
       sodipodi:nodetypes="ccccccc" /><path
       style="color:#000000;fill:#ffffff;stroke-width:1.04877;-inkscape-stroke:none"
       d="m 4.1623244,1.773023 c -0.5846291,0 -1.0651612,0.480545 -1.0651612,1.0651612 0,0.5846237 0.4805374,1.0651612 1.0651612,1.0651612 0.5846238,0 1.0651612,-0.4805372 1.0651612,-1.0651612 0,-0.5846164 -0.4805322,-1.0651612 -1.0651612,-1.0651612 z m 0,0.5817419 c 0.2707565,0 0.4834193,0.2126738 0.4834193,0.4834193 0,0.2707617 -0.2126575,0.4854678 -0.4834193,0.4854678 -0.2707618,0 -0.4834193,-0.2147059 -0.4834193,-0.4854678 0,-0.2707458 0.2126627,-0.4834193 0.4834193,-0.4834193 z"
       id="path7" /><path
       fill="#394240"
       d="m 17.611652,0.03189379 c -1.717973,0 -2.480469,2.87585551 -2.480469,3.96875011 0,1.1975703 0.853654,2.1994317 1.984375,2.4301153 v 1.042541 c 0,0.2742158 0.221878,0.4960937 0.496094,0.4960937 0.274216,0 0.496094,-0.2218779 0.496094,-0.4960937 v -1.042541 c 1.130722,-0.2306836 1.984375,-1.232545 1.984375,-2.4301153 0,-1.1297295 -0.737816,-3.96875011 -2.480469,-3.96875011 z m 0,5.45703131 c -0.820663,0 -1.488281,-0.6676181 -1.488281,-1.4882812 0,-1.0928946 0.735459,-2.9765626 1.488281,-2.9765626 0.814338,0 1.488281,1.9708565 1.488281,2.9765626 0,0.8206631 -0.667618,1.4882812 -1.488281,1.4882812 z"
       id="path1-5"
       style="stroke-width:0.12409;stroke-dasharray:none;fill:#ffffff" /><path
       fill="#394240"
       d="m 13.573514,2.9848484 c -1.078844,0 -1.557671,1.8059633 -1.557671,2.4922728 0,0.7520432 0.536071,1.3811865 1.246136,1.5260496 v 0.6546891 c 0,0.1722 0.139321,0.311534 0.311535,0.311534 0.172215,0 0.311533,-0.1393349 0.311533,-0.311534 V 7.0031708 c 0.710065,-0.1448628 1.246136,-0.7740064 1.246136,-1.5260496 0,-0.7094409 -0.463329,-2.4922728 -1.557669,-2.4922728 z m 0,3.4268751 c -0.515356,0 -0.934601,-0.419247 -0.934601,-0.9346023 0,-0.6863095 0.461847,-1.8692045 0.934601,-1.8692045 0.511384,0 0.934602,1.2376471 0.934602,1.8692045 0,0.5153553 -0.419247,0.9346023 -0.934602,0.9346023 z"
       id="path4"
       style="fill:#ffffff;stroke-width:0.0779253;stroke-dasharray:none" /><path
       fill="#394240"
       d="m 21.952312,2.0167832 c -1.288369,0 -1.860191,2.1567054 -1.860191,2.9763054 0,0.8981 0.640183,1.6494313 1.488152,1.8224288 v 0.7818384 c 0,0.2056436 0.166379,0.3720381 0.372039,0.3720381 0.205662,0 0.372037,-0.1663956 0.372037,-0.3720381 V 6.8155174 c 0.847969,-0.1729971 1.488153,-0.9243288 1.488153,-1.8224288 0,-0.8472238 -0.553314,-2.9763054 -1.86019,-2.9763054 z m 0,4.0924199 c -0.615445,0 -1.116112,-0.5006703 -1.116112,-1.1161145 0,-0.8196 0.551543,-2.2322289 1.116112,-2.2322289 0.610702,0 1.116115,1.4780146 1.116115,2.2322289 0,0.6154442 -0.500671,1.1161145 -1.116115,1.1161145 z"
       id="path5"
       style="fill:#ffffff;stroke-width:0.0930594;stroke-dasharray:none" /></g></svg>
