<?xml version="1.0" encoding="UTF-8" standalone="no"?>
<!-- Created with Inkscape (http://www.inkscape.org/) -->

<svg
   width="114"
   height="32"
   viewBox="0 0 30.162499 8.4666666"
   version="1.1"
   id="svg4981"
   inkscape:version="1.4.2 (ebf0e940d0, 2025-05-08)"
   sodipodi:docname="navbar-logo.svg"
   xml:space="preserve"
   xmlns:inkscape="http://www.inkscape.org/namespaces/inkscape"
   xmlns:sodipodi="http://sodipodi.sourceforge.net/DTD/sodipodi-0.dtd"
   xmlns:xlink="http://www.w3.org/1999/xlink"
   xmlns="http://www.w3.org/2000/svg"
   xmlns:svg="http://www.w3.org/2000/svg"><sodipodi:namedview
   id="namedview4983"
   pagecolor="#ffffff"
   bordercolor="#000000"
   borderopacity="0.25"
   inkscape:showpageshadow="false"
   inkscape:pageopacity="0.0"
   inkscape:pagecheckerboard="0"
   inkscape:deskcolor="#d1d1d1"
   inkscape:document-units="px"
   showgrid="false"
   inkscape:zoom="11.313709"
   inkscape:cx="53.916891"
   inkscape:cy="26.251339"
   inkscape:window-width="2518"
   inkscape:window-height="1404"
   inkscape:window-x="2602"
   inkscape:window-y="0"
   inkscape:window-maximized="1"
   inkscape:current-layer="layer1" />
  <defs
   id="defs4978"><linearGradient
   id="linearGradient16"
   inkscape:collect="always"><stop
     style="stop-color:#ffffff;stop-opacity:1"
     offset="0"
     id="stop16" /><stop
     style="stop-color:#665d56;stop-opacity:1;"
     offset="1"
     id="stop17" /></linearGradient>
      
      
      
      
      
      <radialGradient
   inkscape:collect="always"
   xlink:href="#linearGradient16"
   id="radialGradient17"
   cx="20.053446"
   cy="15.441594"
   fx="20.053446"
   fy="15.441594"
   r="23.465858"
   gradientTransform="matrix(0.00898608,0.22711243,-0.22198893,0.00815087,6.0568502,-2.1070953)"
   gradientUnits="userSpaceOnUse" /></defs>
  <g
   inkscape:label="Livello 1"
   inkscape:groupmode="layer"
   id="layer1">
    
    
    
    <path
   id="path2"
   style="fill:url(#radialGradient17);fill-opacity:1;stroke:none;stroke-width:0.529168;stroke-linecap:round;stroke-linejoin:round;stroke-dasharray:none;paint-order:stroke markers fill"
   d="M 4.380781,0.25968451 C 2.1108795,0.25969304 0.27076218,2.0387514 0.27075332,4.2333319 0.27076218,6.4279141 2.1108795,8.2069734 4.380781,8.206982 6.6506807,8.2069734 8.4908015,6.4279158 8.4908068,4.2333319 8.4908015,2.0387514 6.6506807,0.25969304 4.380781,0.25968451 Z"
   sodipodi:nodetypes="ccccc" /><path
   style="baseline-shift:baseline;display:inline;overflow:visible;vector-effect:none;fill:#fffcfc;fill-opacity:1;stroke-width:6.1027;paint-order:stroke fill markers;enable-background:accumulate;stop-color:#000000"
   d="m 4.8094383,0.24753207 -0.078706,0.0263556 C 6.1201883,1.7597202 6.638888,3.6978458 6.3189902,5.2253543 5.9990923,6.7528635 4.7420691,7.9032982 2.8091892,7.9064125 l 0.1191045,0.090325 C 4.9000059,7.993563 6.0843377,6.8032733 6.4110233,5.2433525 6.7377091,3.6834321 6.2178967,1.7536852 4.8094383,0.24753207 Z"
   id="path4"
   sodipodi:nodetypes="ccsccsc" /><path
   style="baseline-shift:baseline;display:inline;overflow:visible;vector-effect:none;fill:#fffcfc;fill-opacity:1;stroke-width:6.1027;paint-order:stroke fill markers;enable-background:accumulate;stop-color:#000000"
   d="m 4.8077083,0.24553224 -0.076976,0.0283554 C 6.4628943,1.9068444 7.6996556,4.5641533 6.4148245,7.6870208 l 0.09965,-0.014915 C 7.8134339,4.5148989 6.5591861,1.8967024 4.8077083,0.24553565 Z"
   id="path5"
   sodipodi:nodetypes="ccccc" /><path
   style="baseline-shift:baseline;display:inline;overflow:visible;vector-effect:none;fill:#fffcfc;fill-opacity:1;stroke-width:6.1027;paint-order:stroke fill markers;enable-background:accumulate;stop-color:#000000"
   d="m 4.8094383,0.24753207 -0.078706,0.0263556 C 6.1190815,1.7585366 6.2926391,3.4773365 5.6322012,4.7947319 4.9717632,6.1121273 3.4353177,7.0633801 1.4989388,7.0664996 l 0.048165,0.090323 C 3.5153169,7.1536484 5.0398704,6.183666 5.7166227,4.833728 6.3933747,3.48379 6.2190035,1.7548688 4.8094383,0.24753207 Z"
   id="path6"
   sodipodi:nodetypes="ccsccsc" /><path
   d="m 27.591706,0.9123158 c -0.02125,0 -0.04031,0.00823 -0.0573,0.0246037 -0.01275,0.0122799 -0.01913,0.0286518 -0.01913,0.0491193 v 4.1507981 c 0,0.020468 0.0064,0.03883 0.01913,0.055204 0.01701,0.01228 0.03606,0.018431 0.0573,0.018431 h 0.745801 c 0.02125,0 0.03824,-0.00615 0.05099,-0.018431 0.01699,-0.016374 0.02545,-0.034737 0.02545,-0.055204 V 3.4605208 c 0,-0.020467 0.01061,-0.030689 0.03186,-0.030689 h 0.216774 c 0.01274,0 0.02335,0.00814 0.03186,0.024516 l 0.490763,1.6947467 c 0.01275,0.040935 0.04251,0.061377 0.08925,0.061377 h 0.764934 c 0.04674,0 0.07012,-0.020442 0.07012,-0.061377 l -0.0064,-0.024604 -0.586424,-1.8113279 c -0.0043,-0.00819 -0.0043,-0.014338 0,-0.018431 0.0043,-0.00819 0.01063,-0.014338 0.01913,-0.018431 0.169974,-0.1023373 0.301705,-0.2456089 0.395191,-0.4298157 0.09774,-0.1842069 0.14656,-0.3970346 0.14656,-0.6385504 0,-0.2537961 -0.05098,-0.4789246 -0.152969,-0.6754119 C 29.826851,1.3360363 29.686666,1.1845348 29.503945,1.0781044 29.321223,0.96758019 29.11297,0.9123158 28.879255,0.9123158 Z m 0.854096,0.7429619 h 0.286896 c 0.13173,0 0.237924,0.051193 0.318662,0.1535308 0.08499,0.098244 0.127519,0.2332854 0.127519,0.4052119 0,0.1678329 -0.04253,0.3029628 -0.127519,0.4053 -0.08074,0.098244 -0.186932,0.1473578 -0.318662,0.1473578 h -0.286896 c -0.02125,0 -0.03186,-0.010222 -0.03186,-0.030688 v -1.050024 c 0,-0.020467 0.01061,-0.030688 0.03186,-0.030688 z"
   style="font-weight:bold;font-stretch:condensed;font-size:35.9816px;font-family:'Barlow Condensed';-inkscape-font-specification:'Barlow Condensed,  Bold Condensed';letter-spacing:0px;fill:#fffcfc;stroke-width:0.500001;stroke-linecap:round;stroke-linejoin:round;stroke-dasharray:0.500001, 1.5;paint-order:stroke fill markers;fill-opacity:1"
   id="path28" /><path
   d="m 21.587398,0.9123158 c -0.02125,0 -0.0404,0.00823 -0.0574,0.0246037 -0.01275,0.0122799 -0.01913,0.0286518 -0.01913,0.0491193 v 0.5956041 c 0,0.020467 0.0064,0.03883 0.01913,0.055204 0.01701,0.01228 0.03615,0.018431 0.0574,0.018431 h 0.764843 c 0.02125,0 0.03195,0.01022 0.03195,0.030688 v 3.4508707 c 0,0.020468 0.0063,0.03883 0.01904,0.055204 0.01699,0.01228 0.03615,0.018431 0.0574,0.018431 h 0.7458 c 0.02125,0 0.03824,-0.00615 0.05099,-0.018431 0.01701,-0.016374 0.02545,-0.034737 0.02545,-0.055204 V 1.6859662 c 0,-0.020467 0.01061,-0.030688 0.03186,-0.030688 h 0.796789 c 0.02125,0 0.03824,-0.00615 0.05099,-0.018431 0.01701,-0.016374 0.02554,-0.034737 0.02554,-0.055204 V 0.9860388 c 0,-0.0204675 -0.0085,-0.0368389 -0.02554,-0.0491193 C 24.14976,0.9205457 24.13277,0.9123158 24.11152,0.9123158 Z"
   style="font-weight:bold;font-stretch:condensed;font-size:35.9816px;font-family:'Barlow Condensed';-inkscape-font-specification:'Barlow Condensed,  Bold Condensed';letter-spacing:0px;fill:#fffcfc;stroke-width:0.500001;stroke-linecap:round;stroke-linejoin:round;stroke-dasharray:0.500001, 1.5;paint-order:stroke fill markers;fill-opacity:1"
   id="path27" /><path
   d="m 18.438593,0.9123158 c -0.02125,0 -0.04031,0.00823 -0.05731,0.0246037 -0.01275,0.0122799 -0.01913,0.0286518 -0.01913,0.0491193 v 4.1507981 c 0,0.020468 0.0064,0.03883 0.01913,0.055204 0.01701,0.01228 0.03606,0.018431 0.05731,0.018431 h 0.739392 c 0.02125,0 0.03824,-0.00615 0.05099,-0.018431 0.01701,-0.016374 0.02554,-0.034737 0.02554,-0.055204 l -0.0064,-2.357901 c 0,-0.01228 0.0043,-0.018431 0.01281,-0.018431 0.01275,-0.00409 0.0212,6.56e-5 0.02545,0.012347 l 0.790383,2.3762435 c 0.01275,0.040935 0.04035,0.061377 0.08285,0.061377 h 0.841372 c 0.02125,0 0.03824,-0.00615 0.05099,-0.018431 0.01699,-0.016374 0.02554,-0.034737 0.02554,-0.055204 V 0.9860388 c 0,-0.0204675 -0.0085,-0.0368389 -0.02554,-0.0491193 C 21.03922,0.9205457 21.02223,0.9123158 21.00098,0.9123158 h -0.739394 c -0.02125,0 -0.04031,0.00823 -0.05731,0.0246037 -0.01275,0.0122799 -0.01913,0.0286518 -0.01913,0.0491193 l 0.0063,2.3578127 c 0,0.01228 -0.0064,0.02051 -0.01913,0.024604 -0.0085,0 -0.01479,-0.00615 -0.01904,-0.018431 L 19.356488,0.97369284 c -0.01275,-0.040935 -0.04035,-0.061377 -0.08285,-0.061377 z"
   style="font-weight:bold;font-stretch:condensed;font-size:35.9816px;font-family:'Barlow Condensed';-inkscape-font-specification:'Barlow Condensed,  Bold Condensed';letter-spacing:0px;fill:#fffcfc;stroke-width:0.500001;stroke-linecap:round;stroke-linejoin:round;stroke-dasharray:0.500001, 1.5;paint-order:stroke fill markers;fill-opacity:1"
   id="path26" /><path
   d="m 16.118525,0.9123158 c -0.04674,0 -0.07443,0.0225218 -0.08294,0.0675499 l -0.93694,4.1507983 c -0.01275,0.053215 0.0085,0.079808 0.06371,0.079808 h 0.745801 c 0.05099,0 0.07859,-0.022521 0.08285,-0.06755 l 0.10198,-0.5894312 c 0,-0.020467 0.01277,-0.030688 0.03826,-0.030688 h 0.809516 c 0.0255,0 0.03817,0.010222 0.03817,0.030688 l 0.10207,0.5894312 c 0.0043,0.045028 0.03185,0.06755 0.08285,0.06755 h 0.764841 c 0.04674,0 0.07012,-0.018451 0.07012,-0.055292 l -0.0064,-0.024515 -0.930535,-4.15079827 c -0.0085,-0.0450282 -0.0362,-0.0675499 -0.08294,-0.0675499 z m 0.40636,1.2158119 c 5.32e-4,-4.8e-5 0.0011,0 0.0016,0 0.0085,0 0.01488,0.00606 0.01913,0.018343 l 0.299529,1.6763161 c 0.0043,0.020468 -0.0042,0.030689 -0.02545,0.030689 h -0.5737 c -0.01701,0 -0.02545,-0.01022 -0.02545,-0.030689 l 0.286804,-1.6763161 c 0.004,-0.011512 0.0098,-0.017623 0.01757,-0.018343 z"
   style="font-weight:bold;font-stretch:condensed;font-size:35.9816px;font-family:'Barlow Condensed';-inkscape-font-specification:'Barlow Condensed,  Bold Condensed';letter-spacing:0px;fill:#fffcfc;stroke-width:0.500001;stroke-linecap:round;stroke-linejoin:round;stroke-dasharray:0.500001, 1.5;paint-order:stroke fill markers;fill-opacity:1"
   id="path25" /><path
   d="m 12.332306,0.9123158 c -0.02125,0 -0.04031,0.00823 -0.05731,0.0246037 -0.01275,0.0122799 -0.01913,0.0286518 -0.01913,0.0491193 v 4.1507981 c 0,0.020468 0.0064,0.03883 0.01913,0.055204 0.017,0.01228 0.03606,0.018431 0.05731,0.018431 h 0.745801 c 0.02125,0 0.03824,-0.00615 0.05099,-0.018431 0.017,-0.016374 0.02545,-0.034737 0.02545,-0.055204 V 3.4605208 c 0,-0.020467 0.01061,-0.030689 0.03186,-0.030689 h 0.216774 c 0.01275,0 0.02336,0.00814 0.03186,0.024516 l 0.490762,1.6947467 c 0.01275,0.040935 0.04251,0.061377 0.08925,0.061377 h 0.764933 c 0.04674,0 0.07012,-0.020442 0.07012,-0.061377 l -0.0064,-0.024604 -0.586424,-1.8113279 c -0.0042,-0.00819 -0.0042,-0.014338 0,-0.018431 0.0042,-0.00819 0.01063,-0.014338 0.01913,-0.018431 0.169974,-0.1023373 0.301706,-0.2456089 0.395191,-0.4298157 0.09774,-0.1842069 0.146561,-0.3970346 0.146561,-0.6385504 0,-0.2537961 -0.05098,-0.4789246 -0.152968,-0.6754119 C 14.567454,1.3360363 14.42727,1.1845348 14.244548,1.0781044 14.061826,0.96758019 13.853572,0.9123158 13.619859,0.9123158 Z m 0.854096,0.7429619 h 0.286896 c 0.13173,0 0.237924,0.051193 0.318661,0.1535308 0.08499,0.098244 0.12752,0.2332854 0.12752,0.4052119 0,0.1678329 -0.04253,0.3029628 -0.12752,0.4053 -0.08074,0.098244 -0.186931,0.1473578 -0.318661,0.1473578 h -0.286896 c -0.02125,0 -0.03186,-0.010222 -0.03186,-0.030688 v -1.050024 c 0,-0.020467 0.01061,-0.030688 0.03186,-0.030688 z"
   style="font-weight:bold;font-stretch:condensed;font-size:35.9816px;font-family:'Barlow Condensed';-inkscape-font-specification:'Barlow Condensed,  Bold Condensed';letter-spacing:0px;fill:#fffcfc;stroke-width:0.500001;stroke-linecap:round;stroke-linejoin:round;stroke-dasharray:0.500001, 1.5;paint-order:stroke fill markers;fill-opacity:1"
   id="path24" /><path
   d="m 9.2217648,0.9123158 c -0.021247,0 -0.040308,0.00823 -0.057306,0.0246037 -0.012748,0.0122799 -0.019133,0.0286518 -0.019133,0.0491193 v 0.5956041 c 0,0.020467 0.00638,0.03883 0.019133,0.055204 0.016997,0.01228 0.036059,0.018431 0.057306,0.018431 h 0.7649337 c 0.021248,0 0.031859,0.01022 0.031859,0.030688 v 3.4508707 c 0,0.020468 0.0064,0.03883 0.01913,0.055204 0.017,0.01228 0.03615,0.018431 0.0574,0.018431 h 0.74571 c 0.02125,0 0.03824,-0.00615 0.05099,-0.018431 0.017,-0.016374 0.02554,-0.034737 0.02554,-0.055204 V 1.6859662 c 0,-0.020467 0.01061,-0.030688 0.03186,-0.030688 h 0.796699 c 0.02125,0 0.03824,-0.00615 0.05099,-0.018431 0.017,-0.016374 0.02554,-0.034737 0.02554,-0.055204 V 0.9860388 c 0,-0.0204675 -0.0085,-0.0368389 -0.02554,-0.0491193 -0.01275,-0.0163738 -0.02974,-0.0246037 -0.05099,-0.0246037 z"
   style="font-weight:bold;font-stretch:condensed;font-size:35.9816px;font-family:'Barlow Condensed';-inkscape-font-specification:'Barlow Condensed,  Bold Condensed';letter-spacing:0px;fill:#fffcfc;stroke-width:0.500001;stroke-linecap:round;stroke-linejoin:round;stroke-dasharray:0.500001, 1.5;paint-order:stroke fill markers;fill-opacity:1"
   id="path23" /><path
   d="m 25.724136,0.86319649 c -0.390939,0 -0.703228,0.11052895 -0.936942,0.33157711 -0.233715,0.2210483 -0.350611,0.5158212 -0.350611,0.8842349 v 1.9648586 c 0,0.368414 0.116896,0.6630986 0.350611,0.8841468 0.233714,0.2210483 0.546003,0.3315771 0.936942,0.3315771 0.39094,0 0.703229,-0.1105288 0.936944,-0.3315771 0.237963,-0.2210482 0.357018,-0.5157328 0.357018,-0.8841468 V 2.0790085 c 0,-0.3684137 -0.119055,-0.6631866 -0.357018,-0.8842349 C 26.427365,0.97372544 26.115076,0.86319649 25.724136,0.86319649 Z m 0,0.74296191 c 0.118982,0 0.214565,0.040973 0.286806,0.1228423 0.07224,0.077776 0.108385,0.1821548 0.108385,0.3131463 v 2.0384935 c 0,0.1309915 -0.03615,0.2374496 -0.108385,0.3193194 -0.07224,0.077776 -0.167824,0.1166692 -0.286806,0.1166692 -0.118982,0 -0.214565,-0.038893 -0.286804,-0.1166692 -0.06799,-0.08187 -0.10198,-0.1883279 -0.10198,-0.3193194 V 2.042147 c 0,-0.1309915 0.03399,-0.2353701 0.10198,-0.3131463 0.07224,-0.08187 0.167822,-0.1228423 0.286804,-0.1228423 z"
   style="font-weight:bold;font-stretch:condensed;font-size:35.9816px;font-family:'Barlow Condensed';-inkscape-font-specification:'Barlow Condensed,  Bold Condensed';letter-spacing:0px;fill:#fffcfc;stroke-width:0.500001;stroke-linecap:round;stroke-linejoin:round;stroke-dasharray:0.500001, 1.5;paint-order:stroke fill markers;fill-opacity:1"
   id="path22" /><path
   d="m 29.139515,5.9148963 c -0.02004,0 -0.03003,0.00962 -0.03003,0.028925 v 1.9687383 c 0,0.019302 0.01,0.029014 0.03003,0.029014 h 0.153244 c 0.02004,0 0.03012,-0.00971 0.03012,-0.029014 l -0.003,-1.4881272 c 0,-0.00578 0.0019,-0.00863 0.006,-0.00863 0.004,-0.00193 0.007,-5.8e-5 0.0091,0.00573 l 0.586058,1.4968593 c 0.006,0.015444 0.01702,0.023104 0.03305,0.023104 h 0.17732 c 0.02004,0 0.03003,-0.00962 0.03003,-0.028925 V 5.9438213 c 0,-0.019302 -0.01,-0.028925 -0.03003,-0.028925 h -0.150314 c -0.02004,0 -0.03003,0.00962 -0.03003,0.028925 v 1.4910384 c 0,0.00579 -0.0019,0.00962 -0.006,0.011553 -0.004,0 -0.0071,-0.00285 -0.0091,-0.00865 l -0.58908,-1.4997688 c -0.006,-0.015444 -0.01702,-0.023104 -0.03305,-0.023104 z"
   style="font-stretch:condensed;font-size:16.966px;font-family:'Barlow Condensed';-inkscape-font-specification:'Barlow Condensed,  Condensed';letter-spacing:2.30717px;fill:#fffcfc;fill-opacity:1;stroke-width:0.500001;stroke-linecap:round;stroke-linejoin:round;stroke-dasharray:0.500001, 1.5;paint-order:stroke fill markers"
   id="path19" /><path
   d="m 26.305435,5.9148963 c -0.02004,0 -0.03012,0.00962 -0.03012,0.028925 v 1.9687383 c 0,0.019302 0.01008,0.028925 0.03012,0.028925 h 0.153243 c 0.02004,0 0.03003,-0.00962 0.03003,-0.028925 V 5.9438213 c 0,-0.019302 -0.01,-0.028925 -0.03003,-0.028925 z"
   style="font-stretch:condensed;font-size:16.966px;font-family:'Barlow Condensed';-inkscape-font-specification:'Barlow Condensed,  Condensed';letter-spacing:2.30717px;fill:#fffcfc;fill-opacity:1;stroke-width:0.500001;stroke-linecap:round;stroke-linejoin:round;stroke-dasharray:0.500001, 1.5;paint-order:stroke fill markers"
   id="path18" /><path
   d="m 24.511192,5.9148963 c -0.02004,0 -0.03012,0.00962 -0.03012,0.028925 v 0.121608 c 0,0.019302 0.01008,0.028925 0.03012,0.028925 h 0.37267 c 0.008,0 0.01199,0.00391 0.01199,0.011638 v 1.8065653 c 0,0.019302 0.01,0.029014 0.03003,0.029014 h 0.153334 c 0.02004,0 0.03003,-0.00971 0.03003,-0.029014 v -1.806565 c 0,-0.00773 0.0041,-0.011638 0.01208,-0.011638 h 0.396656 c 0.02004,0 0.03012,-0.00962 0.03012,-0.028925 v -0.121608 c 0,-0.019302 -0.01008,-0.028925 -0.03012,-0.028925 z"
   style="font-stretch:condensed;font-size:16.966px;font-family:'Barlow Condensed';-inkscape-font-specification:'Barlow Condensed,  Condensed';letter-spacing:2.30717px;fill:#fffcfc;fill-opacity:1;stroke-width:0.500001;stroke-linecap:round;stroke-linejoin:round;stroke-dasharray:0.500001, 1.5;paint-order:stroke fill markers"
   id="path17" /><path
   d="m 23.441236,5.9148963 c -0.01804,0 -0.02904,0.00865 -0.03305,0.026015 L 22.95734,7.90965 c -0.002,0.00966 -0.0011,0.017403 0.003,0.023193 0.006,0.00579 0.01406,0.00863 0.02408,0.00863 h 0.153242 c 0.02003,0 0.03104,-0.00865 0.03305,-0.026014 l 0.07516,-0.3590031 c 0,-0.00386 0.0011,-0.00679 0.003,-0.00874 0.004,-0.00193 0.008,-0.00282 0.01199,-0.00282 h 0.54404 c 0.004,0 0.007,8.533e-4 0.009,0.00282 0.004,0.00193 0.006,0.00488 0.006,0.00874 l 0.07516,0.3590031 c 0.004,0.01737 0.01502,0.026014 0.03305,0.026014 h 0.156265 c 0.01803,0 0.02701,-0.00865 0.02701,-0.026014 V 7.909639 L 23.654596,5.9409066 c -0.002,-0.017372 -0.013,-0.026015 -0.03305,-0.026015 z m 0.0898,0.3039756 c 1.26e-4,-2.22e-5 1.77e-4,0 3.54e-4,0 0.002,0 0.004,0.00285 0.006,0.00863 l 0.240393,1.1378561 c 0,0.00773 -0.003,0.011553 -0.009,0.011553 H 23.29395 c -0.006,0 -0.0091,-0.00382 -0.0091,-0.011553 l 0.240484,-1.1378561 c 0.0019,-0.00543 0.0037,-0.00831 0.0056,-0.00863 z"
   style="font-stretch:condensed;font-size:16.966px;font-family:'Barlow Condensed';-inkscape-font-specification:'Barlow Condensed,  Condensed';letter-spacing:2.30717px;fill:#fffcfc;fill-opacity:1;stroke-width:0.500001;stroke-linecap:round;stroke-linejoin:round;stroke-dasharray:0.500001, 1.5;paint-order:stroke fill markers"
   id="path16" /><path
   d="m 21.436627,5.9148963 c -0.02004,0 -0.03003,0.00962 -0.03003,0.028925 v 1.9687383 c 0,0.019302 0.01,0.028925 0.03003,0.028925 l 0.883666,8.88e-5 c 0.02004,0 0.03002,-0.00971 0.03002,-0.029014 V 7.7909533 c 0,-0.019302 -0.01,-0.028925 -0.03002,-0.028925 h -0.688314 c -0.008,0 -0.01199,-0.00382 -0.01199,-0.011553 v -1.806654 c 0,-0.019302 -0.01,-0.028925 -0.03003,-0.028925 z"
   style="font-stretch:condensed;font-size:16.966px;font-family:'Barlow Condensed';-inkscape-font-specification:'Barlow Condensed,  Condensed';letter-spacing:2.30717px;fill:#fffcfc;fill-opacity:1;stroke-width:0.500001;stroke-linecap:round;stroke-linejoin:round;stroke-dasharray:0.500001, 1.5;paint-order:stroke fill markers"
   id="path15" /><path
   d="m 19.837736,5.9148963 c -0.02004,0 -0.03002,0.00962 -0.03002,0.028925 v 1.9687383 c 0,0.019302 0.01,0.028925 0.03002,0.028925 l 0.883665,8.88e-5 c 0.02004,0 0.03003,-0.00971 0.03003,-0.029014 V 7.7909533 c 0,-0.019302 -0.01,-0.028925 -0.03003,-0.028925 h -0.68822 c -0.008,0 -0.01208,-0.00382 -0.01208,-0.011553 v -1.806654 c 0,-0.019302 -0.01,-0.028925 -0.03003,-0.028925 z"
   style="font-stretch:condensed;font-size:16.966px;font-family:'Barlow Condensed';-inkscape-font-specification:'Barlow Condensed,  Condensed';letter-spacing:2.30717px;fill:#fffcfc;fill-opacity:1;stroke-width:0.500001;stroke-linecap:round;stroke-linejoin:round;stroke-dasharray:0.500001, 1.5;paint-order:stroke fill markers"
   id="path14" /><path
   d="m 18.139704,5.9148963 c -0.02004,0 -0.03003,0.00962 -0.03003,0.028925 v 1.9687383 c 0,0.019302 0.01,0.029014 0.03003,0.029014 h 0.892636 c 0.02004,0 0.03003,-0.00971 0.03003,-0.029014 V 7.7910403 c 0,-0.0193 -0.01,-0.029012 -0.03003,-0.029012 h -0.697282 c -0.008,0 -0.01199,-0.00382 -0.01199,-0.011553 V 7.0295594 c 0,-0.00773 0.004,-0.011553 0.01199,-0.011553 h 0.438857 c 0.02004,0 0.03003,-0.00971 0.03003,-0.029014 V 6.8644752 c 0,-0.019302 -0.01,-0.028925 -0.03003,-0.028925 h -0.438857 c -0.008,0 -0.01199,-0.00382 -0.01199,-0.011553 V 6.1059909 c 0,-0.00773 0.004,-0.011638 0.01199,-0.011638 h 0.697282 c 0.02004,0 0.03003,-0.00962 0.03003,-0.028925 v -0.121608 c 0,-0.019302 -0.01,-0.028925 -0.03003,-0.028925 z"
   style="font-stretch:condensed;font-size:16.966px;font-family:'Barlow Condensed';-inkscape-font-specification:'Barlow Condensed,  Condensed';letter-spacing:2.30717px;fill:#fffcfc;fill-opacity:1;stroke-width:0.500001;stroke-linecap:round;stroke-linejoin:round;stroke-dasharray:0.500001, 1.5;paint-order:stroke fill markers"
   id="path13" /><path
   d="m 16.34546,5.9148963 c -0.02004,0 -0.03003,0.00962 -0.03003,0.028925 v 0.121608 c 0,0.019302 0.01,0.028925 0.03003,0.028925 h 0.372673 c 0.008,0 0.01208,0.00391 0.01208,0.011638 v 1.8065653 c 0,0.019302 0.01,0.029014 0.03003,0.029014 h 0.153244 c 0.02004,0 0.03012,-0.00971 0.03012,-0.029014 v -1.806565 c 0,-0.00773 0.004,-0.011638 0.01199,-0.011638 h 0.396747 c 0.02004,0 0.03003,-0.00962 0.03003,-0.028925 v -0.121608 c 0,-0.019302 -0.01,-0.028925 -0.03003,-0.028925 z"
   style="font-stretch:condensed;font-size:16.966px;font-family:'Barlow Condensed';-inkscape-font-specification:'Barlow Condensed,  Condensed';letter-spacing:2.30717px;fill:#fffcfc;fill-opacity:1;stroke-width:0.500001;stroke-linecap:round;stroke-linejoin:round;stroke-dasharray:0.500001, 1.5;paint-order:stroke fill markers"
   id="path12" /><path
   d="m 12.952418,5.9148963 c -0.02004,0 -0.03012,0.00962 -0.03012,0.028925 v 1.9687383 c 0,0.019302 0.01008,0.029014 0.03012,0.029014 h 0.153243 c 0.02004,0 0.03003,-0.00971 0.03003,-0.029014 l -0.0029,-1.4881272 c 0,-0.00578 0.0019,-0.00863 0.006,-0.00863 0.004,-0.00193 0.0071,-5.8e-5 0.0091,0.00573 l 0.586059,1.4968593 c 0.006,0.015444 0.01702,0.023104 0.03305,0.023104 h 0.177319 c 0.02004,0 0.03003,-0.00962 0.03003,-0.028925 V 5.9438213 c 0,-0.019302 -0.01,-0.028925 -0.03003,-0.028925 h -0.150314 c -0.02004,0 -0.03003,0.00962 -0.03003,0.028925 v 1.4910384 c 0,0.00579 -0.002,0.00962 -0.006,0.011553 -0.004,0 -0.007,-0.00285 -0.009,-0.00865 l -0.58908,-1.4997688 c -0.006,-0.015444 -0.01702,-0.023104 -0.03305,-0.023104 z"
   style="font-stretch:condensed;font-size:16.966px;font-family:'Barlow Condensed';-inkscape-font-specification:'Barlow Condensed,  Condensed';letter-spacing:2.30717px;fill:#fffcfc;fill-opacity:1;stroke-width:0.500001;stroke-linecap:round;stroke-linejoin:round;stroke-dasharray:0.500001, 1.5;paint-order:stroke fill markers"
   id="path11" /><path
   d="m 27.796122,5.8917033 c -0.15428,0 -0.279518,0.046335 -0.375692,0.1389801 -0.09417,0.092649 -0.141252,0.215163 -0.141252,0.3676448 v 1.0597244 c 0,0.1524836 0.04708,0.2749977 0.141252,0.3676449 0.09617,0.092647 0.221412,0.13898 0.375692,0.13898 0.156284,0 0.282446,-0.046333 0.378621,-0.13898 0.09618,-0.094577 0.144272,-0.2170931 0.144272,-0.3676449 V 6.3983282 c 0,-0.1524818 -0.0481,-0.2749959 -0.144272,-0.3676448 -0.09617,-0.092645 -0.222337,-0.1389801 -0.378621,-0.1389801 z m 0,0.1795468 c 0.09217,0 0.166256,0.02985 0.222358,0.089683 0.0581,0.057905 0.08715,0.1341746 0.08715,0.2287535 v 1.079919 c 0,0.092645 -0.02904,0.168917 -0.08715,0.2287518 -0.0561,0.057905 -0.13019,0.086864 -0.222358,0.086864 -0.09016,0 -0.163327,-0.028959 -0.219429,-0.086864 -0.0561,-0.059835 -0.08413,-0.1361064 -0.08413,-0.2287518 v -1.079919 c 0,-0.094579 0.02803,-0.1708488 0.08413,-0.2287535 0.0561,-0.059833 0.129265,-0.089683 0.219429,-0.089683 z"
   style="font-stretch:condensed;font-size:16.966px;font-family:'Barlow Condensed';-inkscape-font-specification:'Barlow Condensed,  Condensed';letter-spacing:2.30717px;fill:#fffcfc;fill-opacity:1;stroke-width:0.500001;stroke-linecap:round;stroke-linejoin:round;stroke-dasharray:0.500001, 1.5;paint-order:stroke fill markers"
   id="path10" /><path
   d="m 15.206482,5.8917033 c -0.144262,0 -0.261544,0.044374 -0.351708,0.133161 -0.09016,0.086857 -0.135209,0.2055401 -0.135209,0.3560919 0,0.096507 0.01804,0.1805297 0.0541,0.2519464 0.03807,0.071415 0.08617,0.1331626 0.144272,0.1852772 0.0581,0.050183 0.13728,0.1109509 0.237462,0.1823676 0.100183,0.073345 0.171311,0.1284083 0.213387,0.1650826 0.04408,0.034742 0.07914,0.076176 0.105183,0.1244288 0.02805,0.046324 0.04202,0.102369 0.04202,0.1679938 0,0.098439 -0.02803,0.1775605 -0.08413,0.2373952 -0.0561,0.059835 -0.126212,0.089773 -0.210366,0.089773 -0.08616,0 -0.156267,-0.030918 -0.210365,-0.092683 -0.0541,-0.063697 -0.0812,-0.146649 -0.0812,-0.2489481 V 7.385653 c 0,-0.019302 -0.01,-0.028925 -0.03003,-0.028925 h -0.147293 c -0.02004,0 -0.03003,0.00962 -0.03003,0.028925 v 0.066579 c 0,0.1524818 0.04606,0.2759772 0.13823,0.3705561 0.09217,0.094577 0.21241,0.1418896 0.360679,0.1418896 0.14827,0 0.269438,-0.047312 0.363609,-0.1418896 0.09417,-0.096509 0.141342,-0.2238354 0.141342,-0.3821073 0,-0.088789 -0.01608,-0.1640792 -0.04815,-0.225844 -0.03206,-0.063695 -0.07812,-0.1216097 -0.138229,-0.1737242 -0.0581,-0.054045 -0.14727,-0.1235449 -0.267488,-0.2084701 -0.09017,-0.065627 -0.158332,-0.1187309 -0.204416,-0.1592635 -0.04608,-0.040533 -0.08114,-0.082946 -0.105183,-0.1273401 -0.02204,-0.046323 -0.03305,-0.099427 -0.03305,-0.1592617 0,-0.100369 0.02608,-0.1775314 0.07818,-0.231576 0.05209,-0.055973 0.118228,-0.083951 0.198373,-0.083951 0.08816,0 0.158271,0.031809 0.210366,0.095504 0.0541,0.061765 0.08111,0.1438265 0.08111,0.2461256 v 0.075222 c 0,0.019302 0.01008,0.029014 0.03012,0.029014 h 0.150221 c 0.02004,0 0.03012,-0.00971 0.03012,-0.029014 v -0.0724 c 0,-0.1582736 -0.04615,-0.2846206 -0.138322,-0.3791977 -0.09016,-0.096507 -0.211331,-0.144801 -0.363609,-0.144801 z"
   style="font-stretch:condensed;font-size:16.966px;font-family:'Barlow Condensed';-inkscape-font-specification:'Barlow Condensed,  Condensed';letter-spacing:2.30717px;fill:#fffcfc;fill-opacity:1;stroke-width:0.500001;stroke-linecap:round;stroke-linejoin:round;stroke-dasharray:0.500001, 1.5;paint-order:stroke fill markers"
   id="path9" /><path
   d="m 11.609024,5.8917033 c -0.154281,0 -0.279517,0.046335 -0.375692,0.1389801 -0.09417,0.092649 -0.141251,0.215163 -0.141251,0.3676448 v 1.0597244 c 0,0.1524836 0.04708,0.2749977 0.141251,0.3676449 0.09617,0.092647 0.221411,0.13898 0.375692,0.13898 0.156284,0 0.282447,-0.046333 0.378622,-0.13898 0.09618,-0.094577 0.144272,-0.2170931 0.144272,-0.3676449 V 6.3983282 c 0,-0.1524818 -0.0481,-0.2749959 -0.144272,-0.3676448 -0.09618,-0.092645 -0.222338,-0.1389801 -0.378622,-0.1389801 z m 0,0.1795468 c 0.09217,0 0.166256,0.02985 0.222358,0.089683 0.05811,0.057905 0.08715,0.1341746 0.08715,0.2287535 v 1.079919 c 0,0.092645 -0.02904,0.168917 -0.08715,0.2287518 -0.0561,0.057905 -0.13019,0.086864 -0.222358,0.086864 -0.09016,0 -0.163326,-0.028959 -0.219428,-0.086864 -0.0561,-0.059835 -0.08413,-0.1361064 -0.08413,-0.2287518 v -1.079919 c 0,-0.094579 0.02803,-0.1708488 0.08413,-0.2287535 0.0561,-0.059833 0.129264,-0.089683 0.219428,-0.089683 z"
   style="font-stretch:condensed;font-size:16.966px;font-family:'Barlow Condensed';-inkscape-font-specification:'Barlow Condensed,  Condensed';letter-spacing:2.30717px;fill:#fffcfc;fill-opacity:1;stroke-width:0.500001;stroke-linecap:round;stroke-linejoin:round;stroke-dasharray:0.500001, 1.5;paint-order:stroke fill markers"
   id="path8" /><path
   d="m 9.8538696,5.8917033 c -0.1542807,0 -0.2785003,0.045354 -0.3726718,0.1360705 -0.092168,0.090717 -0.1383216,0.211361 -0.1383216,0.3619128 v 1.0740981 c 0,0.1524836 0.046154,0.2741052 0.1383216,0.3648223 0.094171,0.090717 0.2183911,0.1360705 0.3726718,0.1360705 0.1542804,0 0.2785004,-0.045353 0.3726714,-0.1360705 0.09417,-0.090717 0.141251,-0.2123387 0.141251,-0.3648223 v -0.046297 c 0,-0.019302 -0.01008,-0.028925 -0.03012,-0.028925 l -0.156263,-0.00874 c -0.02004,0 -0.03003,0.00971 -0.03003,0.029014 V 7.48115 c 0,0.090717 -0.0271,0.1641355 -0.0812,0.2201118 -0.0541,0.055973 -0.1261523,0.083953 -0.2163164,0.083953 -0.08816,0 -0.1603056,-0.02798 -0.2164078,-0.083953 C 9.5833634,7.6452855 9.5562631,7.5718671 9.5562631,7.48115 V 6.3752172 c 0,-0.090717 0.0271,-0.1640467 0.081199,-0.220023 0.056102,-0.055973 0.1282474,-0.083951 0.2164078,-0.083951 0.090164,0 0.1622171,0.027978 0.2163161,0.083951 0.0541,0.055976 0.0812,0.1293059 0.0812,0.220023 v 0.072401 c 0,0.0193 0.01,0.028923 0.03003,0.028923 l 0.156263,-0.00874 c 0.02004,0 0.03012,-0.00962 0.03012,-0.028923 v -0.049208 c 0,-0.1524835 -0.04708,-0.2731257 -0.141251,-0.3619127 C 10.134378,5.9370405 10.010161,5.891687 9.8538769,5.891687 Z"
   style="font-stretch:condensed;font-size:16.966px;font-family:'Barlow Condensed';-inkscape-font-specification:'Barlow Condensed,  Condensed';letter-spacing:2.30717px;fill:#fffcfc;fill-opacity:1;stroke-width:0.500001;stroke-linecap:round;stroke-linejoin:round;stroke-dasharray:0.500001, 1.5;paint-order:stroke fill markers"
   id="path7" /></g></svg>
