<?xml version="1.0" encoding="UTF-8" standalone="no"?>
<!-- Created with Inkscape (http://www.inkscape.org/) -->

<svg
   width="150"
   height="28"
   viewBox="0 0 39.687499 7.4083333"
   version="1.1"
   id="svg1"
   inkscape:version="1.3.2 (091e20ef0f, 2023-11-25)"
   sodipodi:docname="navbar-logo.svg"
   xmlns:inkscape="http://www.inkscape.org/namespaces/inkscape"
   xmlns:sodipodi="http://sodipodi.sourceforge.net/DTD/sodipodi-0.dtd"
   xmlns="http://www.w3.org/2000/svg"
   xmlns:svg="http://www.w3.org/2000/svg">
  <sodipodi:namedview
     id="namedview1"
     pagecolor="#ffffff"
     bordercolor="#000000"
     borderopacity="0.25"
     inkscape:showpageshadow="false"
     inkscape:pageopacity="0.0"
     inkscape:pagecheckerboard="0"
     inkscape:deskcolor="#d1d1d1"
     inkscape:document-units="px"
     inkscape:zoom="6.05235"
     inkscape:cx="94.508745"
     inkscape:cy="52.458963"
     inkscape:window-width="2528"
     inkscape:window-height="1404"
     inkscape:window-x="2592"
     inkscape:window-y="0"
     inkscape:window-maximized="1"
     inkscape:current-layer="layer1" />
  <defs
     id="defs1" />
  <g
     inkscape:label="Livello 1"
     inkscape:groupmode="layer"
     id="layer1">
    <path
       d="M 34.045983,0.98650307 V 6.4218301 h 1.101225 V 4.4359049 h 0.545186 l 0.817521,1.9859252 h 1.179773 V 6.3696369 L 36.733674,4.1408324 c 0.246401,-0.1319115 0.439399,-0.3182327 0.578776,-0.5596557 0.139379,-0.241423 0.20929,-0.5591508 0.20929,-0.9523966 0,-0.5351129 -0.15214,-0.9418409 -0.455786,-1.2205973 C 36.762308,1.1269373 36.33936,0.98650307 35.796781,0.98650307 Z m 1.101225,0.91467283 h 0.671794 c 0.403201,0.00996 0.605131,0.2824083 0.605131,0.8175211 0,0.243912 -0.05482,0.4391659 -0.164332,0.5860108 -0.109511,0.144356 -0.27397,0.2165242 -0.492993,0.2165242 h -0.6196 z"
       style="font-weight:bold;font-size:7.6459px;font-family:'Roboto Condensed';-inkscape-font-specification:'Roboto Condensed,  Bold';letter-spacing:0px;fill:#ffffff;stroke-width:2.15041;stroke-linecap:square;stroke-linejoin:round"
       id="path18" />
    <path
       d="m 31.294213,0.91157225 c -0.582402,0 -1.05401,0.20028445 -1.4149,0.60099685 -0.36089,0.3982236 -0.541053,0.9895325 -0.541053,1.7735352 v 0.903304 c 0,0.7665803 0.181291,1.3427976 0.54467,1.7285766 0.363379,0.3857791 0.836633,0.578776 1.419035,0.578776 0.584891,0 1.056499,-0.1929969 1.4149,-0.578776 C 33.075266,5.5322059 33.2543,4.9559886 33.2543,4.1894083 v -0.903304 c 0,-0.7840027 -0.180679,-1.3753116 -0.541569,-1.7735352 -0.36089,-0.4007124 -0.833627,-0.60099685 -1.418518,-0.60099685 z m 0,0.91829015 c 0.281245,0 0.495493,0.1124128 0.642338,0.3364136 0.146845,0.2240008 0.220142,0.5943862 0.220142,1.1120768 v 0.9374105 c -0.0025,0.482846 -0.07579,0.831369 -0.220142,1.0454142 -0.144356,0.2140451 -0.355829,0.3209106 -0.634586,0.3209106 -0.281245,0 -0.496622,-0.1085107 -0.645956,-0.3250448 C 30.509164,5.0380204 30.435868,4.6822099 30.435868,4.1894083 V 3.2488972 c 0.0025,-0.5052461 0.07578,-0.8677324 0.220141,-1.0867553 0.146845,-0.2215119 0.359448,-0.3322795 0.638204,-0.3322795 z"
       style="font-weight:bold;font-size:7.6459px;font-family:'Roboto Condensed';-inkscape-font-specification:'Roboto Condensed,  Bold';letter-spacing:0px;fill:#ffffff;stroke-width:2.15041;stroke-linecap:square;stroke-linejoin:round"
       id="path12" />
    <path
       d="M 25.134383,0.98650307 V 1.9011759 h 1.321366 v 4.5206542 h 1.097607 V 1.9011759 h 1.347722 V 0.98650307 Z"
       style="font-weight:bold;font-size:7.6459px;font-family:'Roboto Condensed';-inkscape-font-specification:'Roboto Condensed,  Bold';letter-spacing:0px;fill:#ffffff;stroke-width:2.15041;stroke-linecap:square;stroke-linejoin:round"
       id="path17" />
    <path
       d="M 20.803381,0.98650307 V 6.4218301 h 1.101741 v -3.565157 l 1.60507,3.565157 H 24.6078 V 0.98650307 H 23.510192 V 4.5552774 l -1.60507,-3.56877433 z"
       style="font-weight:bold;font-size:7.6459px;font-family:'Roboto Condensed';-inkscape-font-specification:'Roboto Condensed,  Bold';letter-spacing:0px;fill:#ffffff;stroke-width:2.15041;stroke-linecap:square;stroke-linejoin:round"
       id="path16" />
    <path
       d="M 17.577738,0.98650307 15.879134,6.4218301 h 1.164787 l 0.291455,-1.1120768 h 1.497066 l 0.290938,1.1120768 h 1.168921 L 18.582328,0.98650307 Z M 18.0821,2.453597 18.593697,4.3950805 h -1.019576 z"
       style="font-weight:bold;font-size:7.6459px;font-family:'Roboto Condensed';-inkscape-font-specification:'Roboto Condensed,  Bold';letter-spacing:0px;fill:#ffffff;stroke-width:2.15041;stroke-linecap:square;stroke-linejoin:round"
       id="path15" />
    <path
       d="M 12.003918,0.98650307 V 6.4218301 H 13.10566 V 4.4359049 h 0.544669 l 0.817521,1.9859252 h 1.179773 V 6.3696369 L 14.692126,4.1408324 c 0.246401,-0.1319115 0.439398,-0.3182327 0.578776,-0.5596557 0.139379,-0.241423 0.208773,-0.5591508 0.208773,-0.9523966 0,-0.5351129 -0.151624,-0.9418409 -0.455269,-1.2205973 C 14.720761,1.1269373 14.297812,0.98650307 13.755232,0.98650307 Z M 13.10566,1.9011759 h 0.671793 c 0.403201,0.00996 0.604615,0.2824083 0.604615,0.8175211 0,0.243912 -0.05482,0.4391659 -0.164331,0.5860108 -0.109512,0.144356 -0.273454,0.2165242 -0.492477,0.2165242 h -0.6196 z"
       style="font-weight:bold;font-size:7.6459px;font-family:'Roboto Condensed';-inkscape-font-specification:'Roboto Condensed,  Bold';letter-spacing:0px;fill:#ffffff;stroke-width:2.15041;stroke-linecap:square;stroke-linejoin:round"
       id="path14" />
    <path
       d="M 7.6026366,0.98650307 V 1.9011759 H 8.9240029 V 6.4218301 H 10.02161 V 1.9011759 h 1.347722 V 0.98650307 Z"
       style="font-weight:bold;font-size:7.6459px;font-family:'Roboto Condensed';-inkscape-font-specification:'Roboto Condensed,  Bold';letter-spacing:0px;fill:#ffffff;stroke-width:2.15041;stroke-linecap:square;stroke-linejoin:round"
       id="path13" />
    <path
       id="path2"
       style="fill:#ffffff;stroke-linecap:square;stroke-linejoin:round"
       d="M 3.7052001,0 C 1.663834,-3.6735316e-8 -3.6735316e-8,1.663834 0,3.7052001 c 0,2.0413663 1.663834,3.7031332 3.7052001,3.7031331 2.0413663,0 3.7031331,-1.6617668 3.7031331,-3.7031331 C 7.4083333,1.663834 5.7465664,0 3.7052001,0 Z m 0,0.7400065 c 1.3152566,0 2.424194,0.8501913 2.813265,2.0324341 C 5.32591,2.3193684 4.3301115,1.69301 3.7052001,0.7400065 Z"
       sodipodi:nodetypes="sssssccc" />
  </g>
</svg>
