<?xml version="1.0" encoding="UTF-8" standalone="no"?>
<!-- Created with Inkscape (http://www.inkscape.org/) -->

<svg
   width="30"
   height="30"
   viewBox="0 0 7.9374997 7.9375002"
   version="1.1"
   id="svg1"
   inkscape:version="1.3.2 (1:1.3.2+202311252150+091e20ef0f)"
   sodipodi:docname="page-icon.svg"
   xml:space="preserve"
   xmlns:inkscape="http://www.inkscape.org/namespaces/inkscape"
   xmlns:sodipodi="http://sodipodi.sourceforge.net/DTD/sodipodi-0.dtd"
   xmlns="http://www.w3.org/2000/svg"
   xmlns:svg="http://www.w3.org/2000/svg"><sodipodi:namedview
     id="namedview1"
     pagecolor="#ffffff"
     bordercolor="#000000"
     borderopacity="0.25"
     inkscape:showpageshadow="false"
     inkscape:pageopacity="0.0"
     inkscape:pagecheckerboard="0"
     inkscape:deskcolor="#d1d1d1"
     inkscape:document-units="px"
     inkscape:zoom="14.130351"
     inkscape:cx="26.149387"
     inkscape:cy="18.860112"
     inkscape:window-width="2526"
     inkscape:window-height="1404"
     inkscape:window-x="2594"
     inkscape:window-y="0"
     inkscape:window-maximized="1"
     inkscape:current-layer="layer1" /><defs
     id="defs1" /><g
     inkscape:label="Livello 1"
     inkscape:groupmode="layer"
     id="layer1"
     transform="translate(-1.7746318e-6,-0.0318939)"><g
       id="g9"
       transform="translate(-10.023794,0.14618434)"><path
         fill="#e1e8ed"
         d="M 17.170847,1.9992894 15.186472,0.01491444 a 0.44119271,0.44119271 0 0 0 -0.623755,0.62375521 l -0.850856,0.85085585 1.984375,1.984375 0.850856,-0.8508559 a 0.44106154,0.44106154 0 0 0 0.623755,-0.6237552 z"
         id="path1"
         style="fill:#aaaaaa;fill-opacity:1;stroke-width:0.220486" /><path
         fill="#ccd6dd"
         d="M 14.874484,-0.11429042 H 11.567193 A 0.88194444,0.88194444 0 0 0 10.685248,0.76765402 V 6.9412651 a 0.88194444,0.88194444 0 0 0 0.881945,0.8819444 h 4.850694 A 0.88194444,0.88194444 0 0 0 17.299832,6.9412651 V 2.3110568 h -1.984375 c -0.220486,0 -0.440973,-0.2204861 -0.440973,-0.4409722 z"
         id="path2-1"
         style="fill:#aaaaaa;fill-opacity:1;stroke-width:0.220486" /><path
         fill="#99aab5"
         d="M 14.874484,-0.11429042 H 14.433512 V 1.8700846 a 0.88194444,0.88194444 0 0 0 0.881945,0.8819444 h 1.984375 V 2.3110568 h -1.984375 c -0.220486,0 -0.440973,-0.2204861 -0.440973,-0.4409722 z m -1.10243,1.76388892 a 0.22048611,0.22048611 0 0 1 -0.220486,0.2204861 h -1.763889 a 0.22048615,0.22048615 0 0 1 0,-0.4409723 h 1.763889 a 0.22048611,0.22048611 0 0 1 0.220486,0.2204862 z m 0,0.8819444 A 0.22048611,0.22048611 0 0 1 13.551568,2.752029 h -1.763889 a 0.22048611,0.22048611 0 0 1 0,-0.4409722 h 1.763889 a 0.22048611,0.22048611 0 0 1 0.220486,0.2204861 z m 2.645833,0.8819444 a 0.22048611,0.22048611 0 0 1 -0.220486,0.2204862 h -4.409722 a 0.22048615,0.22048615 0 0 1 0,-0.4409723 h 4.409722 a 0.22048611,0.22048611 0 0 1 0.220486,0.2204861 z m 0,0.8819445 a 0.22048611,0.22048611 0 0 1 -0.220486,0.2204861 h -4.409722 a 0.22048611,0.22048611 0 1 1 0,-0.4409722 h 4.409722 a 0.22048611,0.22048611 0 0 1 0.220486,0.2204861 z m 0,0.8819444 a 0.22048611,0.22048611 0 0 1 -0.220486,0.2204861 h -4.409722 a 0.22048611,0.22048611 0 1 1 0,-0.4409722 h 4.409722 a 0.22048611,0.22048611 0 0 1 0.220486,0.2204861 z m 0,0.8819445 a 0.22048611,0.22048611 0 0 1 -0.220486,0.2204861 h -4.409722 a 0.22048611,0.22048611 0 1 1 0,-0.4409722 h 4.409722 a 0.22048611,0.22048611 0 0 1 0.220486,0.2204861 z"
         id="path3"
         style="fill:#333333;fill-opacity:1;stroke-width:0.220486" /></g></g></svg>
