<?xml version="1.0" encoding="UTF-8" standalone="no"?>
<!-- Created with Inkscape (http://www.inkscape.org/) -->

<svg
   width="90"
   height="30"
   viewBox="0 0 23.812499 7.9375002"
   version="1.1"
   id="svg1"
   inkscape:version="1.3.2 (1:1.3.2+202311252150+091e20ef0f)"
   sodipodi:docname="page-icon.svg"
   xml:space="preserve"
   xmlns:inkscape="http://www.inkscape.org/namespaces/inkscape"
   xmlns:sodipodi="http://sodipodi.sourceforge.net/DTD/sodipodi-0.dtd"
   xmlns="http://www.w3.org/2000/svg"
   xmlns:svg="http://www.w3.org/2000/svg"><sodipodi:namedview
     id="namedview1"
     pagecolor="#ffffff"
     bordercolor="#000000"
     borderopacity="0.25"
     inkscape:showpageshadow="false"
     inkscape:pageopacity="0.0"
     inkscape:pagecheckerboard="0"
     inkscape:deskcolor="#d1d1d1"
     inkscape:document-units="px"
     inkscape:zoom="7.4521198"
     inkscape:cx="60.318408"
     inkscape:cy="25.965766"
     inkscape:window-width="2526"
     inkscape:window-height="1404"
     inkscape:window-x="2594"
     inkscape:window-y="0"
     inkscape:window-maximized="1"
     inkscape:current-layer="g8" /><defs
     id="defs1"><inkscape:path-effect
   effect="bspline"
   id="path-effect8"
   is_visible="true"
   lpeversion="1.3"
   weight="33.333333"
   steps="2"
   helper_size="0"
   apply_no_weight="true"
   apply_with_weight="true"
   only_selected="false"
   uniform="false" />
	
	
</defs><g
     inkscape:label="Livello 1"
     inkscape:groupmode="layer"
     id="layer1"
     transform="translate(-1.7746318e-6,-0.0318939)"><g
       style="fill:none"
       id="g8"
       transform="matrix(0.39678239,0,0,0.39678239,-1.5862013,-0.76074526)"><path
         id="path1"
         style="color:#000000;fill:#ffffff;stroke-linecap:round;stroke-linejoin:round;-inkscape-stroke:none"
         d="M 7.4307577 1.9976672 C 6.7270843 2.0007469 6.1954519 2.0421694 5.6386729 2.3258688 C 5.0742824 2.6134255 4.6134233 3.0742846 4.3258666 3.6386751 C 3.9476008 4.3810471 4.0002698 5.0790707 4.0002698 6.1991684 L 4.0002698 17.800834 C 4.0002698 18.920932 3.9475711 19.618933 4.3258666 20.361327 C 4.6134129 20.925653 5.0741673 21.386578 5.6386729 21.674133 C 6.3810504 22.052419 7.0790684 21.99973 8.1991662 21.99973 L 15.8012 21.99973 C 16.921298 21.99973 17.619294 22.052445 18.361694 21.674133 C 18.693798 21.504949 18.988209 21.274378 19.234293 20.999497 C 19.406451 20.807193 19.554838 20.593663 19.673198 20.361327 C 20.051513 19.618927 20.000097 18.920932 20.000097 17.800834 L 20.000097 9.0006033 A 1 1 0 0 0 19.966235 8.8338978 A 1 1 0 0 0 19.938885 8.6919376 A 1 1 0 0 0 19.923256 8.6177015 A 1 1 0 0 0 19.70706 8.2934071 L 13.706962 2.2933091 A 1 1 0 0 0 13.382667 2.0758104 A 1 1 0 0 0 12.999766 2.000272 L 8.1991662 2.000272 C 7.9191418 2.000272 7.6653156 1.9966406 7.4307577 1.9976672 z M 8.1991662 3.9994364 L 11.999532 3.9994364 L 11.999532 7.3999694 C 11.999532 7.9600184 11.949043 8.379666 12.218333 8.9081338 C 12.409929 9.2840535 12.715881 9.588997 13.092235 9.7807333 C 13.620669 10.04999 14.038999 9.9995343 14.599097 9.9995343 L 17.99963 9.9995343 L 17.99963 17.800834 C 17.99963 18.920932 17.947915 19.340365 17.89023 19.453563 C 17.79438 19.641721 17.640785 19.795311 17.452627 19.891165 C 17.33943 19.948849 16.921298 20.000566 15.8012 20.000566 L 8.1991662 20.000566 C 7.0790684 20.000566 6.6596977 19.948878 6.5464368 19.891165 C 6.3582839 19.795321 6.2047676 19.641837 6.1088347 19.453563 C 6.0511507 19.340359 5.9994342 18.920932 5.9994342 17.800834 L 5.9994342 6.1991684 C 5.9994342 5.0790707 6.0511214 4.6597054 6.1088347 4.546439 C 6.2047572 4.358171 6.3581688 4.2047594 6.5464368 4.1088369 C 6.6597032 4.0511235 7.0790684 3.9994364 8.1991662 3.9994364 z M 13.999999 5.4138289 L 16.58654 8.0003699 L 14.599097 8.0003699 C 14.26394 8.0003699 14.093639 7.9832926 14.020837 7.9795317 C 14.017075 7.9067189 13.999999 7.7350966 13.999999 7.3999694 L 13.999999 5.4138289 z " /></g><g
       id="path8"
       style="fill:#ffffff"><path
         style="color:#000000;fill:#ffffff;stroke-linecap:round;stroke-linejoin:bevel;-inkscape-stroke:none;paint-order:stroke markers fill"
         d="M 4.6835937,7.1914062 A 0.379545,0.379545 0 0 0 4.3027344,7.5722656 0.379545,0.379545 0 0 0 4.6835937,7.9511719 H 23.441406 A 0.379545,0.379545 0 0 0 23.820312,7.5722656 0.379545,0.379545 0 0 0 23.441406,7.1914062 Z"
         id="path9" /></g></g><style
     type="text/css"
     id="style1">
	.st0{fill:none;}
</style></svg>
