<?xml version="1.0" encoding="UTF-8" standalone="no"?>
<!-- Created with Inkscape (http://www.inkscape.org/) -->

<svg
   width="90"
   height="30"
   viewBox="0 0 23.812499 7.9375002"
   version="1.1"
   id="svg1"
   inkscape:version="1.3.2 (1:1.3.2+202311252150+091e20ef0f)"
   sodipodi:docname="user-edit-icon.svg"
   xml:space="preserve"
   xmlns:inkscape="http://www.inkscape.org/namespaces/inkscape"
   xmlns:sodipodi="http://sodipodi.sourceforge.net/DTD/sodipodi-0.dtd"
   xmlns="http://www.w3.org/2000/svg"
   xmlns:svg="http://www.w3.org/2000/svg"><sodipodi:namedview
     id="namedview1"
     pagecolor="#ffffff"
     bordercolor="#000000"
     borderopacity="0.25"
     inkscape:showpageshadow="false"
     inkscape:pageopacity="0.0"
     inkscape:pagecheckerboard="0"
     inkscape:deskcolor="#d1d1d1"
     inkscape:document-units="px"
     inkscape:zoom="14.90424"
     inkscape:cx="41.565354"
     inkscape:cy="23.583894"
     inkscape:window-width="2526"
     inkscape:window-height="1404"
     inkscape:window-x="2594"
     inkscape:window-y="0"
     inkscape:window-maximized="1"
     inkscape:current-layer="layer1" /><defs
     id="defs1">
	
	
</defs><g
     inkscape:label="Livello 1"
     inkscape:groupmode="layer"
     id="layer1"
     transform="translate(-1.7746318e-6,-0.0318939)"><path
       id="path1"
       style="fill:#ffffff;stroke-width:0.396875"
       d="M 3.1750017 0.0318939 C 2.0837645 0.0318939 1.1906268 0.92503171 1.1906268 2.0162689 C 1.1906268 3.1075061 2.0837645 4.0006439 3.1750017 4.0006439 C 4.2662272 4.0006439 5.1593767 3.1075109 5.1593767 2.0162689 C 5.1593767 0.92502691 4.2662272 0.0318939 3.1750017 0.0318939 z M 17.482139 0.0318939 C 16.807451 0.0318939 16.291514 0.54783359 16.291514 1.2225189 L 16.291514 6.7787688 C 16.291514 6.9267686 16.317978 7.0663292 16.363861 7.1952809 L 6.3267473 7.1952809 C 6.1392129 5.6232152 4.7961699 4.3975189 3.1750017 4.3975189 C 1.4262036 4.3975189 1.7746318e-06 5.8237167 1.7746318e-06 7.5725188 A 0.396875 0.396875 0 0 0 0.39687677 7.9693938 A 0.396875 0.396875 0 0 0 0.79375177 7.5725188 C 0.79375177 6.2526898 1.8551765 5.1912689 3.1750017 5.1912689 C 4.4948316 5.1912689 5.5562517 6.252689 5.5562517 7.5725188 A 0.396875 0.396875 0 0 0 5.9531267 7.9693938 A 0.396875 0.396875 0 0 0 5.9768979 7.964743 L 17.388604 7.964743 C 17.419537 7.9669796 17.450469 7.9693938 17.482139 7.9693938 L 19.069639 7.9693938 L 19.069639 7.1756438 L 17.482139 7.1756438 C 17.244013 7.1756438 17.085264 7.0168936 17.085264 6.7787688 L 17.085264 1.2225189 C 17.085264 0.98439516 17.244013 0.82564389 17.482139 0.82564389 L 21.450889 0.82564389 C 21.689013 0.82564389 21.847764 0.98439516 21.847764 1.2225189 L 21.847764 4.2388722 L 22.641514 3.4451222 L 22.641514 1.2225189 C 22.641514 0.54783359 22.125575 0.0318939 21.450889 0.0318939 L 17.482139 0.0318939 z M 3.1750017 0.82564389 C 3.8372462 0.82564389 4.3656267 1.3540095 4.3656267 2.0162689 C 4.3656267 2.6785283 3.8372462 3.2068939 3.1750017 3.2068939 C 2.5127375 3.2068939 1.9843768 2.6785331 1.9843768 2.0162689 C 1.9843768 1.3540047 2.5127375 0.82564389 3.1750017 0.82564389 z M 23.11797 4.0006439 C 23.07829 4.0006439 22.999011 4.0405256 22.959324 4.0802256 L 22.641514 4.3975189 L 23.435264 5.1912689 L 23.753074 4.8739756 C 23.832454 4.7945956 23.832454 4.6356433 23.753074 4.5959564 L 23.236826 4.0802256 C 23.236826 4.0008457 23.157654 4.0006439 23.11797 4.0006439 z M 22.443076 4.5959564 L 19.863389 7.1756438 L 19.863389 7.9693938 L 20.657139 7.9693938 L 23.236826 5.3897064 L 22.443076 4.5959564 z " /></g><style
     type="text/css"
     id="style1">
	.st0{fill:none;}
</style></svg>
