<?xml version="1.0" encoding="UTF-8" standalone="no"?>
<!-- Created with Inkscape (http://www.inkscape.org/) -->

<svg
   width="30"
   height="30"
   viewBox="0 0 7.9374997 7.9375002"
   version="1.1"
   id="svg1"
   inkscape:version="1.3.2 (1:1.3.2+202311252150+091e20ef0f)"
   sodipodi:docname="user-edit-icon.svg"
   xml:space="preserve"
   xmlns:inkscape="http://www.inkscape.org/namespaces/inkscape"
   xmlns:sodipodi="http://sodipodi.sourceforge.net/DTD/sodipodi-0.dtd"
   xmlns="http://www.w3.org/2000/svg"
   xmlns:svg="http://www.w3.org/2000/svg"><sodipodi:namedview
     id="namedview1"
     pagecolor="#ffffff"
     bordercolor="#000000"
     borderopacity="0.25"
     inkscape:showpageshadow="false"
     inkscape:pageopacity="0.0"
     inkscape:pagecheckerboard="0"
     inkscape:deskcolor="#d1d1d1"
     inkscape:document-units="px"
     inkscape:zoom="9.9916667"
     inkscape:cx="21.76814"
     inkscape:cy="23.569641"
     inkscape:window-width="2526"
     inkscape:window-height="1404"
     inkscape:window-x="2594"
     inkscape:window-y="0"
     inkscape:window-maximized="1"
     inkscape:current-layer="layer1" /><defs
     id="defs1" /><g
     inkscape:label="Livello 1"
     inkscape:groupmode="layer"
     id="layer1"
     transform="translate(-1.7746318e-6,-0.0318939)"><g
       id="g7"
       transform="matrix(1.8353635,0,0,1.8353635,-3.3153503,-2.3865732)"><path
         d="m 3.8727981,3.4273419 c 0.5825553,0 1.0548186,-0.4722591 1.0548186,-1.0548186 0,-0.5825594 -0.4722633,-1.0548186 -1.0548186,-1.0548186 -0.5825594,0 -1.0548186,0.4722592 -1.0548186,1.0548186 0,0.5825595 0.4722592,1.0548186 1.0548186,1.0548186 z"
         fill="#292d32"
         id="path1"
         style="fill:#333333;fill-opacity:1;stroke-width:0.210964" /><path
         opacity="0.4"
         d="m 3.8728403,3.9547512 c -1.0569324,0 -1.9176686,0.7088381 -1.9176686,1.5822279 0,0.05907 0.046412,0.1054819 0.1054818,0.1054819 h 3.6243652 c 0.05907,0 0.1054818,-0.046412 0.1054818,-0.1054819 0,-0.8733898 -0.8607319,-1.5822279 -1.9176602,-1.5822279 z"
         fill="#292d32"
         id="path2-4"
         style="opacity:1;fill:#aaaaaa;fill-opacity:1;stroke-width:0.210964" /><path
         d="m 5.8619962,4.0054036 c -0.1898674,-0.1898673 -0.3396516,-0.1286879 -0.4683395,0 L 4.646824,4.7522152 C 4.617289,4.7817502 4.589885,4.8366002 4.583556,4.8766838 L 4.543473,5.1614848 C 4.528705,5.264857 4.600433,5.3365847 4.7038054,5.3218172 l 0.28478,-0.040083 c 0.040083,-0.00633 0.097064,-0.033754 0.1244896,-0.063289 L 5.8598654,4.4716334 C 5.9906629,4.3450552 6.0518635,4.195271 5.8619962,4.0054036 Z"
         fill="#292d32"
         id="path3"
         style="fill:#333333;fill-opacity:1;stroke-width:0.210964" /></g></g></svg>
