<?xml version="1.0" encoding="UTF-8" standalone="no"?>
<!-- Created with Inkscape (http://www.inkscape.org/) -->

<svg
   width="270"
   height="54"
   viewBox="0 0 71.437498 14.2875"
   version="1.1"
   id="svg1"
   inkscape:version="1.3.2 (091e20ef0f, 2023-11-25)"
   sodipodi:docname="structure-logo-new.svg"
   xml:space="preserve"
   xmlns:inkscape="http://www.inkscape.org/namespaces/inkscape"
   xmlns:sodipodi="http://sodipodi.sourceforge.net/DTD/sodipodi-0.dtd"
   xmlns="http://www.w3.org/2000/svg"
   xmlns:svg="http://www.w3.org/2000/svg"><sodipodi:namedview
     id="namedview1"
     pagecolor="#ffffff"
     bordercolor="#000000"
     borderopacity="0.25"
     inkscape:showpageshadow="false"
     inkscape:pageopacity="0.0"
     inkscape:pagecheckerboard="0"
     inkscape:deskcolor="#d1d1d1"
     inkscape:document-units="px"
     inkscape:zoom="4.2796577"
     inkscape:cx="139.02981"
     inkscape:cy="57.364401"
     inkscape:window-width="2528"
     inkscape:window-height="1404"
     inkscape:window-x="2592"
     inkscape:window-y="0"
     inkscape:window-maximized="1"
     inkscape:current-layer="layer1" /><defs
     id="defs1"><inkscape:path-effect
   effect="fillet_chamfer"
   id="path-effect1"
   is_visible="true"
   lpeversion="1"
   nodesatellites_param="F,0,0,1,0,16.416105,0,1 @ F,0,0,1,0,17.56708,0,1 @ F,0,0,1,0,16.166174,0,1 @ F,0,0,1,0,12.027104,0,1"
   radius="0"
   unit="px"
   method="auto"
   mode="F"
   chamfer_steps="1"
   flexible="false"
   use_knot_distance="true"
   apply_no_radius="true"
   apply_with_radius="true"
   only_selected="false"
   hide_knots="false" />
	
	
	
	
	

		
		
	
	
	
	
	
	
	
	
	
	
	
	
	
	
	
	
	
	
	
	
	
	
	
	
	
	
	
	
	
	
	
	
	
	
	
	
	
	
	
	
	
	
	
	
	
<style
   id="style1">.cls-1{fill:#ffffff;}.cls-2{fill:#e5e5e5;}.cls-3{fill:#426572;}.cls-4{fill:#fbc907;}.cls-5{fill:#f3a70f;}.cls-6{fill:#f9f9f9;}.cls-7{opacity:0.5;}.cls-8{fill:#7490a8;}</style><inkscape:path-effect
   effect="fillet_chamfer"
   id="path-effect1-6"
   is_visible="true"
   lpeversion="1"
   nodesatellites_param="F,0,0,1,0,16.416105,0,1 @ F,0,0,1,0,17.56708,0,1 @ F,0,0,1,0,16.166174,0,1 @ F,0,0,1,0,12.027104,0,1"
   radius="0"
   unit="px"
   method="auto"
   mode="F"
   chamfer_steps="1"
   flexible="false"
   use_knot_distance="true"
   apply_no_radius="true"
   apply_with_radius="true"
   only_selected="false"
   hide_knots="false" /><style
   id="style1-0">.cls-1{fill:#ffffff;}.cls-2{fill:#e5e5e5;}.cls-3{fill:#426572;}.cls-4{fill:#fbc907;}.cls-5{fill:#f3a70f;}.cls-6{fill:#f9f9f9;}.cls-7{opacity:0.5;}.cls-8{fill:#7490a8;}</style><style
   id="style1-54">.cls-1{fill:#ffffff;}.cls-2{fill:#e5e5e5;}.cls-3{fill:#426572;}.cls-4{fill:#fbc907;}.cls-5{fill:#f3a70f;}.cls-6{fill:#f9f9f9;}.cls-7{opacity:0.5;}.cls-8{fill:#7490a8;}</style><style
   id="style1-5">.cls-1{fill:#ffffff;}.cls-2{fill:#e5e5e5;}.cls-3{fill:#426572;}.cls-4{fill:#fbc907;}.cls-5{fill:#f3a70f;}.cls-6{fill:#f9f9f9;}.cls-7{opacity:0.5;}.cls-8{fill:#7490a8;}</style><style
   id="style1-6">.cls-1{fill:#ffffff;}.cls-2{fill:#e5e5e5;}.cls-3{fill:#426572;}.cls-4{fill:#fbc907;}.cls-5{fill:#f3a70f;}.cls-6{fill:#f9f9f9;}.cls-7{opacity:0.5;}.cls-8{fill:#7490a8;}</style><style
   id="style1-8">.cls-1{fill:#ffffff;}.cls-2{fill:#e5e5e5;}.cls-3{fill:#426572;}.cls-4{fill:#fbc907;}.cls-5{fill:#f3a70f;}.cls-6{fill:#f9f9f9;}.cls-7{opacity:0.5;}.cls-8{fill:#7490a8;}</style><style
   id="style1-5-6">.cls-1{fill:#ffffff;}.cls-2{fill:#e5e5e5;}.cls-3{fill:#426572;}.cls-4{fill:#fbc907;}.cls-5{fill:#f3a70f;}.cls-6{fill:#f9f9f9;}.cls-7{opacity:0.5;}.cls-8{fill:#7490a8;}</style><inkscape:path-effect
   effect="fillet_chamfer"
   id="path-effect1-7"
   is_visible="true"
   lpeversion="1"
   nodesatellites_param="F,0,0,1,0,16.416105,0,1 @ F,0,0,1,0,17.56708,0,1 @ F,0,0,1,0,16.166174,0,1 @ F,0,0,1,0,12.027104,0,1"
   radius="0"
   unit="px"
   method="auto"
   mode="F"
   chamfer_steps="1"
   flexible="false"
   use_knot_distance="true"
   apply_no_radius="true"
   apply_with_radius="true"
   only_selected="false"
   hide_knots="false" /><style
   id="style1-9">.cls-1{fill:#ffffff;}.cls-2{fill:#e5e5e5;}.cls-3{fill:#426572;}.cls-4{fill:#fbc907;}.cls-5{fill:#f3a70f;}.cls-6{fill:#f9f9f9;}.cls-7{opacity:0.5;}.cls-8{fill:#7490a8;}</style><style
   id="style1-54-2">.cls-1{fill:#ffffff;}.cls-2{fill:#e5e5e5;}.cls-3{fill:#426572;}.cls-4{fill:#fbc907;}.cls-5{fill:#f3a70f;}.cls-6{fill:#f9f9f9;}.cls-7{opacity:0.5;}.cls-8{fill:#7490a8;}</style><style
   id="style1-5-0">.cls-1{fill:#ffffff;}.cls-2{fill:#e5e5e5;}.cls-3{fill:#426572;}.cls-4{fill:#fbc907;}.cls-5{fill:#f3a70f;}.cls-6{fill:#f9f9f9;}.cls-7{opacity:0.5;}.cls-8{fill:#7490a8;}</style><style
   id="style1-6-2">.cls-1{fill:#ffffff;}.cls-2{fill:#e5e5e5;}.cls-3{fill:#426572;}.cls-4{fill:#fbc907;}.cls-5{fill:#f3a70f;}.cls-6{fill:#f9f9f9;}.cls-7{opacity:0.5;}.cls-8{fill:#7490a8;}</style></defs><g
     inkscape:label="Livello 1"
     inkscape:groupmode="layer"
     id="layer1"><g
       id="g46"
       transform="matrix(0.13224538,0,0,0.13224538,0.52916666,0.53154705)"><path
         fill="#34495e"
         d="m 40.972,72.902 c 0,0 -38.986,0.031 -38.944,0.041 0.017,0.865 0,4.022 0,4.022 l 38.943,23.052 38.944,-23.052 c 0,0 -0.035,-3.198 -0.008,-3.987 -0.092,-0.194 -38.935,-0.076 -38.935,-0.076 z"
         id="path1-3" /><path
         fill="#ecf0f1"
         d="m 40.972,25.932 c 0,0 -38.986,0.031 -38.944,0.041 0.017,0.865 0,46.996 0,46.996 L 40.972,96.02 79.916,72.969 c 0,0 -0.004,-46.171 0.022,-46.96 -0.089,-0.196 -38.966,-0.077 -38.966,-0.077 z"
         id="path2-6" /><path
         fill="#2c3e50"
         d="m 2.028,72.943 c 0.017,0.865 0,4.022 0,4.022 l 38.943,23.052 V 72.902 c 0.001,0 -38.986,0.032 -38.943,0.041 z"
         id="path3-7" /><path
         fill="#bdc3c7"
         d="m 2.028,25.973 c 0.017,0.865 0,46.996 0,46.996 L 40.972,96.02 V 25.932 c 0,0 -38.987,0.031 -38.944,0.041 z"
         id="path4-5" /><path
         fill="#bdc3c7"
         d="m 40.972,23.968 c 0,0 -40.983,0.031 -40.941,0.041 0.018,0.865 0,4.022 0,4.022 l 40.94,24.051 40.94,-24.051 c 0,0 -0.033,-3.198 -0.008,-3.987 -0.09,-0.195 -40.931,-0.076 -40.931,-0.076 z"
         id="path5" /><path
         fill="#95a5a6"
         d="m 46.994,54.949 7.004,-3.998 v 12.992 l -7.004,3.996 z m 10.007,-5.997 7.005,-3.998 v 12.993 l -7.005,3.996 z M 0.034,28.032 40.86,52.016 h 0.111 V 24.033 H 0.034 v 0.217 c 0.008,0.758 0.003,2.276 0,3.141 z m 66.974,14.924 7.007,-3.997 V 51.95 l -7.007,3.997 z m -20.014,28.993 7.004,-3.998 v 12.992 l -7.004,3.998 z M 67.008,59.955 74.015,55.958 V 68.95 l -7.007,3.997 z"
         id="path6-3" /><path
         fill="#2c3e50"
         d="m 57.008,72.955 7.005,-3.997 v 17.421 l -7.005,4.146 z"
         id="path7-5" /><path
         fill="#c0392c"
         d="m 57.008,65.955 7.005,-3.997 v 3.992 l -7.005,3.997 z"
         id="path8-6" /><path
         fill="#ecf0f1"
         d="M 40.972,-0.018 0,24.033 40.972,48.084 82.006,24.033 Z"
         id="path9-2" /><path
         fill="#d48a6d"
         d="M 40.972,4.011 5.991,24.033 40.972,44.055 75.953,24.033 Z"
         id="path10-9" /><path
         fill="#7f8c8d"
         d="m 34.981,54.98 -6.989,-3.998 v 12.992 l 6.989,3.996 z m -9.985,-5.997 -6.989,-3.998 v 12.994 l 6.989,3.996 z M 15.011,42.987 8.022,38.989 V 51.98 l 6.989,3.998 z m 19.97,28.982 -6.989,-3.996 v 12.99 l 6.989,3.998 z m -9.985,-5.996 -6.989,-3.996 v 12.99 l 6.989,3.998 z M 15.011,59.977 8.022,55.979 v 12.992 l 6.989,3.998 z"
         id="path11-1" /><path
         fill="#bdc3c7"
         d="m 74.015,44.58 -7.007,4.372 v 1.999 l 7.007,-4.372 z m 0,17 -7.007,4.372 v 1.999 l 7.007,-4.373 z M 64.006,50.576 57.001,54.949 v 1.998 l 7.005,-4.373 z m -10.008,5.996 -7.004,4.373 v 1.998 l 7.004,-4.371 z m 0,17 -7.004,4.373 v 1.998 l 7.004,-4.371 z"
         id="path12-2" /><path
         fill="#95a5a6"
         d="m 27.992,56.604 v 2 l 6.989,4.371 v -1.998 z m 0,16.99 v 1.998 l 6.989,4.373 v -2 z m -9.985,-5.996 v 1.998 l 6.989,4.373 v -2 z m 0,-16.991 v 1.998 l 6.989,4.374 V 54.98 Z M 8.019,61.6 v 1.998 l 6.992,4.375 v -2 z m 0,-16.991 v 1.999 l 6.992,4.374 v -1.999 z"
         id="path13-7" /><path
         fill="#aa6f57"
         d="m 40.972,6.011 33.234,19.022 1.747,-1 L 40.972,4.011 5.991,24.033 l 1.747,1 z"
         id="path14" /></g><path
       d="m 65.427229,5.7649192 c -0.287589,0 -0.514715,0.1681881 -0.68186,0.5049377 l -0.02973,-0.4313416 h -0.984531 v 3.9893002 h 1.043505 V 7.1881027 c 0.09832,-0.2482608 0.292387,-0.3723673 0.582434,-0.3723673 0.105695,0 0.220222,0.00958 0.343124,0.029244 l 0.01121,-1.0357072 c -0.0762,-0.029496 -0.171081,-0.044353 -0.28415,-0.044353 z"
       style="font-weight:bold;font-size:8.00613px;font-family:'Roboto Condensed';-inkscape-font-specification:'Roboto Condensed,  Bold';letter-spacing:0px;fill:#0d7474;stroke-width:2.12373;stroke-linecap:round;stroke-linejoin:round"
       id="path42" /><path
       d="m 59.992325,5.8385153 v 2.5807385 c 0,0.5260177 0.10351,0.9045681 0.309981,1.1356225 0.206475,0.2310543 0.474334,0.3470226 0.803709,0.3470226 0.366247,0 0.657587,-0.1475884 0.873894,-0.4425514 l 0.02583,0.368468 h 0.980632 V 5.8385153 H 61.939456 V 8.7180249 C 61.833762,8.9244991 61.660297,9.028006 61.41941,9.028006 c -0.255634,0 -0.383578,-0.2031778 -0.383578,-0.6087522 V 5.8385153 Z"
       style="font-weight:bold;font-size:8.00613px;font-family:'Roboto Condensed';-inkscape-font-specification:'Roboto Condensed,  Bold';letter-spacing:0px;fill:#0d7474;stroke-width:2.12373;stroke-linecap:round;stroke-linejoin:round"
       id="path45" /><path
       d="m 57.86876,4.8539843 v 0.984531 h -0.464484 v 0.7851879 h 0.464484 v 2.0943217 c 0,0.4252386 0.092,0.729041 0.276351,0.9109349 0.184353,0.181894 0.431612,0.2729391 0.741323,0.2729391 0.216306,0 0.409418,-0.033548 0.579021,-0.099915 l 0.0034,-0.8149187 c -0.06882,0.019664 -0.151245,0.029731 -0.247107,0.029731 -0.113073,0 -0.194052,-0.026831 -0.243209,-0.080907 -0.04671,-0.054076 -0.07018,-0.1647679 -0.07018,-0.3319137 V 6.6237032 h 0.534669 V 5.8385153 h -0.534657 v -0.984531 z"
       style="font-weight:bold;font-size:8.00613px;font-family:'Roboto Condensed';-inkscape-font-specification:'Roboto Condensed,  Bold';letter-spacing:0px;fill:#0d7474;stroke-width:2.12373;stroke-linecap:round;stroke-linejoin:round"
       id="path40" /><path
       d="m 55.549751,4.8539843 v 0.984531 h -0.464484 v 0.7851879 h 0.464484 v 2.0943217 c 0,0.4252386 0.092,0.729041 0.276351,0.9109349 0.184352,0.181894 0.431611,0.2729391 0.741323,0.2729391 0.216307,0 0.408929,-0.033548 0.578533,-0.099915 l 0.0039,-0.8149187 c -0.06882,0.019664 -0.151245,0.029731 -0.247108,0.029731 -0.113073,0 -0.19405,-0.026831 -0.243208,-0.080907 -0.04671,-0.054076 -0.07018,-0.1647679 -0.07018,-0.3319137 V 6.6237032 H 57.12403 V 5.8385153 h -0.534668 v -0.984531 z"
       style="font-weight:bold;font-size:8.00613px;font-family:'Roboto Condensed';-inkscape-font-specification:'Roboto Condensed,  Bold';letter-spacing:0px;fill:#0d7474;stroke-width:2.12373;stroke-linecap:round;stroke-linejoin:round"
       id="path39" /><path
       d="m 51.637946,5.8385153 v 2.5807385 c 0,0.5260177 0.103023,0.9045681 0.309494,1.1356225 0.206474,0.2310543 0.474334,0.3470226 0.803709,0.3470226 0.366246,0 0.657586,-0.1475884 0.873893,-0.4425514 l 0.02583,0.368468 h 0.980632 V 5.8385153 h -1.046917 v 2.8795096 c -0.105695,0.2064742 -0.27916,0.3099811 -0.520047,0.3099811 -0.255634,0 -0.383577,-0.2031778 -0.383577,-0.6087522 V 5.8385153 Z"
       style="font-weight:bold;font-size:8.00613px;font-family:'Roboto Condensed';-inkscape-font-specification:'Roboto Condensed,  Bold';letter-spacing:0px;fill:#0d7474;stroke-width:2.12373;stroke-linecap:round;stroke-linejoin:round"
       id="path44" /><path
       d="m 50.852271,5.7649192 c -0.287589,0 -0.514715,0.1681881 -0.681861,0.5049377 L 50.14068,5.8385153 h -0.984531 v 3.9893002 h 1.043505 V 7.1881027 c 0.09832,-0.2482608 0.292386,-0.3723673 0.582434,-0.3723673 0.105694,0 0.220222,0.00958 0.343123,0.029244 l 0.01121,-1.0357072 c -0.0762,-0.029496 -0.17108,-0.044353 -0.284149,-0.044353 z"
       style="font-weight:bold;font-size:8.00613px;font-family:'Roboto Condensed';-inkscape-font-specification:'Roboto Condensed,  Bold';letter-spacing:0px;fill:#0d7474;stroke-width:2.12373;stroke-linecap:round;stroke-linejoin:round"
       id="path41" /><path
       d="m 47.01065,4.8539843 v 0.984531 h -0.464972 v 0.7851879 h 0.464972 v 2.0943217 c 0,0.4252386 0.092,0.729041 0.276351,0.9109349 0.184352,0.1818938 0.431611,0.2729391 0.741323,0.2729391 0.216306,0 0.408929,-0.033548 0.578534,-0.099915 l 0.0039,-0.8149187 c -0.06882,0.019664 -0.151245,0.029731 -0.247108,0.029731 -0.113072,0 -0.19405,-0.026831 -0.243208,-0.080907 -0.0467,-0.054076 -0.07018,-0.1647679 -0.07018,-0.3319137 V 6.6237032 H 48.58493 V 5.8385153 h -0.534668 v -0.984531 z"
       style="font-weight:bold;font-size:8.00613px;font-family:'Roboto Condensed';-inkscape-font-specification:'Roboto Condensed,  Bold';letter-spacing:0px;fill:#0d7474;stroke-width:2.12373;stroke-linecap:round;stroke-linejoin:round"
       id="path38" /><path
       d="m 44.488399,4.385601 c -0.498979,0 -0.906755,0.1380092 -1.22384,0.413308 -0.317085,0.2728409 -0.475695,0.6350938 -0.475695,1.0873707 0,0.4621089 0.150937,0.8200596 0.453275,1.0732363 0.28513,0.2384285 0.618158,0.4348882 0.999153,0.5897438 0.380993,0.1548557 0.615791,0.2923774 0.70428,0.4128207 0.09095,0.1179853 0.13647,0.2694096 0.13647,0.4537616 0,0.1720619 -0.04313,0.3158143 -0.12916,0.4313415 -0.08602,0.1130693 -0.233131,0.1696123 -0.442063,0.1696123 -0.255635,0 -0.448746,-0.06661 -0.579022,-0.1993431 -0.127817,-0.1327335 -0.191544,-0.3613005 -0.191544,-0.68576 h -1.087858 c 0,0.4080324 0.09104,0.7425011 0.272939,1.0030519 0.181894,0.2605508 0.414296,0.4536618 0.69697,0.5790212 0.285131,0.1253591 0.581262,0.188133 0.888515,0.188133 0.51127,0 0.915696,-0.1303372 1.213118,-0.3908879 C 46.021358,9.2480023 46.1699,8.8804723 46.1699,8.4085312 46.1699,7.9660865 46.045793,7.609577 45.797533,7.339194 45.549272,7.0688112 45.174558,6.84408 44.67312,6.6646441 44.432233,6.5589489 44.237681,6.4468165 44.0902,6.3288313 43.945176,6.210846 43.872823,6.0646988 43.872823,5.8901788 c 0,-0.1720618 0.04792,-0.3182092 0.14378,-0.4386524 0.09832,-0.1204433 0.249259,-0.1808223 0.453275,-0.1808223 0.221222,0 0.379831,0.072354 0.475694,0.2173766 0.09832,0.1450236 0.14768,0.3295091 0.14768,0.5531895 h 1.083958 c 0,-0.4842312 -0.153819,-0.8809863 -0.461072,-1.1906977 C 45.411343,4.5408612 45.002127,4.385601 44.488399,4.385601 Z"
       style="font-weight:bold;font-size:8.00613px;font-family:'Roboto Condensed';-inkscape-font-specification:'Roboto Condensed,  Bold';letter-spacing:0px;fill:#0d7474;stroke-width:2.12373;stroke-linecap:round;stroke-linejoin:round"
       id="path37" /><path
       d="m 67.460768,5.6908357 c -0.447372,0 -0.803865,0.1255423 -1.069338,0.3762663 -0.263014,0.2482659 -0.3943,0.5467786 -0.3943,0.8958258 h 1.043506 c 0,-0.3048018 0.130331,-0.4571734 0.390888,-0.4571734 0.240892,0 0.361157,0.1633916 0.361157,0.4903159 v 0.3207038 h -0.28025 c -0.535861,0 -0.934043,0.1193118 -1.194597,0.3577454 -0.260556,0.2359755 -0.390889,0.5570154 -0.390889,0.9625984 0,0.3613374 0.11164,0.649784 0.335326,0.8660949 0.226143,0.2163109 0.500222,0.3246027 0.82223,0.3246027 0.317092,0 0.570572,-0.127937 0.759843,-0.3835771 0.02212,0.1229038 0.05135,0.2264063 0.08822,0.309981 H 68.98338 V 9.6913459 C 68.892419,9.50699 68.844503,9.2377013 68.839598,8.883738 V 7.0106921 c 0,-0.4670348 -0.131285,-0.8033967 -0.394299,-1.0098754 -0.260557,-0.2064785 -0.588781,-0.309981 -0.984531,-0.309981 z m 0.08481,2.2493122 h 0.247108 v 0.8295405 c -0.03933,0.06391 -0.09971,0.1190098 -0.180822,0.1657132 -0.08112,0.046703 -0.177902,0.070184 -0.290974,0.070184 -0.233517,0 -0.350434,-0.1475821 -0.350434,-0.4425516 0,-0.1745235 0.04648,-0.3221056 0.139881,-0.4425515 0.09341,-0.1204459 0.238595,-0.1803349 0.435241,-0.1803346 z"
       style="font-weight:bold;font-size:8.0063px;font-family:'Roboto Condensed';-inkscape-font-specification:'Roboto Condensed,  Bold';letter-spacing:0px;fill:#0d7474;stroke-width:2.12377;stroke-linecap:round;stroke-linejoin:round"
       id="path47" /><path
       fill="#ffce31"
       d="m 15.106688,7.878485 2.69457,-2.693893 1.26035,1.260687 -2.694653,2.693893 z"
       id="path1-7"
       style="fill:#0f8a8a;fill-opacity:1;stroke-width:0.0844852" /><path
       d="M 19.615324,4.792074 19.454802,4.631552 c -0.304147,-0.304147 -0.794161,-0.304147 -1.106756,0 l -0.549153,0.549153 1.267278,1.267278 0.549153,-0.549154 c 0.304146,-0.304146 0.304146,-0.802609 0,-1.106755"
       fill="#ed4c5c"
       id="path2-1"
       style="fill:#1d9c22;fill-opacity:1;stroke-width:0.0844852" /><path
       fill="#93a2aa"
       d="M 17.459432,5.527939 17.80582,5.181381 19.066338,6.4419 18.71995,6.788373 Z"
       id="path3-7-5"
       style="stroke-width:0.0844852" /><path
       fill="#c7d3d8"
       d="M 17.59089,5.659314 17.937279,5.31284 18.92905,6.304527 18.582492,6.650916 Z"
       id="path4-4"
       style="stroke-width:0.0844852" /><path
       fill="#fed0ac"
       d="m 15.103816,7.875782 -0.549154,1.436247 0.380184,0.380183 1.436247,-0.549153 z"
       id="path5-9"
       style="stroke-width:0.0844852" /><path
       d="m 14.461729,9.565484 c -0.07604,0.202765 0.02534,0.295699 0.22811,0.219662 L 15.382617,9.523242 14.732081,8.872706 14.461729,9.565484"
       fill="#333333"
       id="path6-7"
       style="fill:#1d9c22;fill-opacity:1;stroke-width:0.0844852" /><path
       fill="#ffdf85"
       d="M 15.102971,7.882118 17.456727,5.528362 17.874929,5.946563 15.521172,8.30032 Z"
       id="path7-2"
       style="fill:#17b5b5;fill-opacity:1;stroke-width:0.0844852" /><path
       fill="#ff8736"
       d="m 15.949006,8.724181 2.353756,-2.353756 0.418201,0.418202 -2.353756,2.353756 z"
       id="path8-4"
       style="fill:#0d7474;fill-opacity:1;stroke-width:0.0844852" /><path
       d="m 34.093419,5.835211 1.090889,3.975467 h 0.995805 L 37.271519,5.835211 H 36.187348 L 35.687636,8.337383 35.180691,5.835211 Z"
       style="font-weight:bold;font-size:7.52446px;font-family:'Roboto Condensed';-inkscape-font-specification:'Roboto Condensed,  Bold';letter-spacing:0px;fill:#1d9c22;stroke-width:2.11625;stroke-linecap:square;stroke-linejoin:round"
       id="path66" /><path
       d="m 26.962071,5.835211 v 2.571935 c 0,0.524165 0.102761,0.901474 0.308508,1.131714 0.205747,0.230241 0.47277,0.345199 0.800985,0.345199 0.364956,0 0.655203,-0.146876 0.870748,-0.4408 l 0.02584,0.367419 h 0.977201 V 5.835211 h -1.043347 v 2.869592 c -0.105322,0.205746 -0.278277,0.308508 -0.518314,0.308508 -0.254735,0 -0.381889,-0.202019 -0.381889,-0.606165 V 5.83521 Z"
       style="font-weight:bold;font-size:7.52446px;font-family:'Roboto Condensed';-inkscape-font-specification:'Roboto Condensed,  Bold';letter-spacing:0px;fill:#1d9c22;stroke-width:2.11625;stroke-linecap:square;stroke-linejoin:round"
       id="path65" /><path
       d="m 32.175706,5.76183 c -0.489873,0 -0.881064,0.166597 -1.172538,0.499711 -0.289025,0.330664 -0.433049,0.808399 -0.433049,1.432987 v 0.26045 c 0,0.624588 0.145709,1.102323 0.437183,1.432987 0.291474,0.330665 0.683316,0.496094 1.175639,0.496094 0.489873,0 0.879378,-0.165429 1.168404,-0.496094 0.291474,-0.330664 0.437183,-0.808399 0.437183,-1.432987 v -0.26045 c 0,-0.624588 -0.145709,-1.102323 -0.437183,-1.432987 C 33.062319,5.928427 32.670478,5.76183 32.175706,5.76183 Z m 0,0.863513 c 0.382101,0 0.573092,0.35642 0.573092,1.069185 v 0.326596 c -0.01225,0.666227 -0.200901,0.999422 -0.565857,0.999422 -0.382101,0 -0.573092,-0.355252 -0.573092,-1.065568 V 7.628383 c 0.01225,-0.668677 0.200902,-1.00304 0.565857,-1.00304 z"
       style="font-weight:bold;font-size:7.52446px;font-family:'Roboto Condensed';-inkscape-font-specification:'Roboto Condensed,  Bold';letter-spacing:0px;fill:#1d9c22;stroke-width:2.11625;stroke-linecap:square;stroke-linejoin:round"
       id="path63" /><path
       d="m 22.427981,4.461134 v 5.349544 h 1.084171 V 6.301849 l 1.579749,3.508829 h 1.080037 V 4.461134 H 25.091901 V 7.973581 L 23.512152,4.461134 Z"
       style="font-weight:bold;font-size:7.52446px;font-family:'Roboto Condensed';-inkscape-font-specification:'Roboto Condensed,  Bold';letter-spacing:0px;fill:#1d9c22;stroke-width:2.11625;stroke-linecap:square;stroke-linejoin:round"
       id="path62" /><path
       d="m 39.077581,5.6908357 c -0.447372,0 -0.803865,0.1255423 -1.069338,0.3762663 -0.263014,0.2482659 -0.3943,0.5467786 -0.3943,0.8958258 h 1.043506 c 0,-0.3048018 0.130331,-0.4571734 0.390888,-0.4571734 0.240892,0 0.361157,0.1633916 0.361157,0.4903159 v 0.3207038 h -0.28025 c -0.535861,0 -0.934043,0.1193118 -1.194597,0.3577454 -0.260556,0.2359755 -0.390889,0.5570154 -0.390889,0.9625984 0,0.3613374 0.11164,0.649784 0.335326,0.8660949 0.226143,0.2163109 0.500222,0.3246027 0.82223,0.3246027 0.317092,0 0.570572,-0.127937 0.759843,-0.3835771 0.02212,0.1229038 0.05135,0.2264063 0.08822,0.309981 h 1.050816 V 9.6913459 C 40.509232,9.50699 40.461316,9.2377013 40.456411,8.883738 V 7.0106921 c 0,-0.4670348 -0.131285,-0.8033967 -0.394299,-1.0098754 -0.260557,-0.2064785 -0.588781,-0.309981 -0.984531,-0.309981 z m 0.08481,2.2493122 h 0.247108 v 0.8295405 c -0.03933,0.06391 -0.09971,0.1190098 -0.180822,0.1657132 -0.08112,0.046703 -0.177902,0.070184 -0.290974,0.070184 -0.233517,0 -0.350434,-0.1475821 -0.350434,-0.4425516 0,-0.1745235 0.04648,-0.3221056 0.139881,-0.4425515 0.09341,-0.1204459 0.238595,-0.1803349 0.435241,-0.1803346 z"
       style="font-weight:bold;font-size:8.0063px;font-family:'Roboto Condensed';-inkscape-font-specification:'Roboto Condensed,  Bold';letter-spacing:0px;fill:#1d9c22;fill-opacity:1;stroke-width:2.12377;stroke-linecap:round;stroke-linejoin:round"
       id="path48" /></g></svg>
