<?xml version="1.0" encoding="UTF-8" standalone="no"?>
<!-- Created with Inkscape (http://www.inkscape.org/) -->

<svg
   width="310"
   height="54"
   viewBox="0 0 82.020832 14.2875"
   version="1.1"
   id="svg1"
   inkscape:version="1.3.2 (091e20ef0f, 2023-11-25)"
   sodipodi:docname="structure-logo-edit.svg"
   xml:space="preserve"
   xmlns:inkscape="http://www.inkscape.org/namespaces/inkscape"
   xmlns:sodipodi="http://sodipodi.sourceforge.net/DTD/sodipodi-0.dtd"
   xmlns="http://www.w3.org/2000/svg"
   xmlns:svg="http://www.w3.org/2000/svg"><sodipodi:namedview
     id="namedview1"
     pagecolor="#ffffff"
     bordercolor="#000000"
     borderopacity="0.25"
     inkscape:showpageshadow="false"
     inkscape:pageopacity="0.0"
     inkscape:pagecheckerboard="0"
     inkscape:deskcolor="#d1d1d1"
     inkscape:document-units="px"
     inkscape:zoom="4.2796577"
     inkscape:cx="139.02981"
     inkscape:cy="57.364401"
     inkscape:window-width="2528"
     inkscape:window-height="1404"
     inkscape:window-x="2592"
     inkscape:window-y="0"
     inkscape:window-maximized="1"
     inkscape:current-layer="layer1" /><defs
     id="defs1"><inkscape:path-effect
   effect="fillet_chamfer"
   id="path-effect1"
   is_visible="true"
   lpeversion="1"
   nodesatellites_param="F,0,0,1,0,16.416105,0,1 @ F,0,0,1,0,17.56708,0,1 @ F,0,0,1,0,16.166174,0,1 @ F,0,0,1,0,12.027104,0,1"
   radius="0"
   unit="px"
   method="auto"
   mode="F"
   chamfer_steps="1"
   flexible="false"
   use_knot_distance="true"
   apply_no_radius="true"
   apply_with_radius="true"
   only_selected="false"
   hide_knots="false" />
	
	
	
	
	

		
		
	
	
	
	
	
	
	
	
	
	
	
	
	
	
	
	
	
	
	
	
	
	
	
	
	
	
	
	
	
	
	
	
	
	
	
	
	
	
	
	
	
	
	
	
	
<style
   id="style1">.cls-1{fill:#ffffff;}.cls-2{fill:#e5e5e5;}.cls-3{fill:#426572;}.cls-4{fill:#fbc907;}.cls-5{fill:#f3a70f;}.cls-6{fill:#f9f9f9;}.cls-7{opacity:0.5;}.cls-8{fill:#7490a8;}</style><inkscape:path-effect
   effect="fillet_chamfer"
   id="path-effect1-6"
   is_visible="true"
   lpeversion="1"
   nodesatellites_param="F,0,0,1,0,16.416105,0,1 @ F,0,0,1,0,17.56708,0,1 @ F,0,0,1,0,16.166174,0,1 @ F,0,0,1,0,12.027104,0,1"
   radius="0"
   unit="px"
   method="auto"
   mode="F"
   chamfer_steps="1"
   flexible="false"
   use_knot_distance="true"
   apply_no_radius="true"
   apply_with_radius="true"
   only_selected="false"
   hide_knots="false" /><style
   id="style1-0">.cls-1{fill:#ffffff;}.cls-2{fill:#e5e5e5;}.cls-3{fill:#426572;}.cls-4{fill:#fbc907;}.cls-5{fill:#f3a70f;}.cls-6{fill:#f9f9f9;}.cls-7{opacity:0.5;}.cls-8{fill:#7490a8;}</style><style
   id="style1-54">.cls-1{fill:#ffffff;}.cls-2{fill:#e5e5e5;}.cls-3{fill:#426572;}.cls-4{fill:#fbc907;}.cls-5{fill:#f3a70f;}.cls-6{fill:#f9f9f9;}.cls-7{opacity:0.5;}.cls-8{fill:#7490a8;}</style><style
   id="style1-5">.cls-1{fill:#ffffff;}.cls-2{fill:#e5e5e5;}.cls-3{fill:#426572;}.cls-4{fill:#fbc907;}.cls-5{fill:#f3a70f;}.cls-6{fill:#f9f9f9;}.cls-7{opacity:0.5;}.cls-8{fill:#7490a8;}</style><style
   id="style1-6">.cls-1{fill:#ffffff;}.cls-2{fill:#e5e5e5;}.cls-3{fill:#426572;}.cls-4{fill:#fbc907;}.cls-5{fill:#f3a70f;}.cls-6{fill:#f9f9f9;}.cls-7{opacity:0.5;}.cls-8{fill:#7490a8;}</style><style
   id="style1-8">.cls-1{fill:#ffffff;}.cls-2{fill:#e5e5e5;}.cls-3{fill:#426572;}.cls-4{fill:#fbc907;}.cls-5{fill:#f3a70f;}.cls-6{fill:#f9f9f9;}.cls-7{opacity:0.5;}.cls-8{fill:#7490a8;}</style><style
   id="style1-5-6">.cls-1{fill:#ffffff;}.cls-2{fill:#e5e5e5;}.cls-3{fill:#426572;}.cls-4{fill:#fbc907;}.cls-5{fill:#f3a70f;}.cls-6{fill:#f9f9f9;}.cls-7{opacity:0.5;}.cls-8{fill:#7490a8;}</style></defs><g
     inkscape:label="Livello 1"
     inkscape:groupmode="layer"
     id="layer1"><g
       id="g46"
       transform="matrix(0.13224538,0,0,0.13224538,0.52916666,0.53154705)"><path
         fill="#34495e"
         d="m 40.972,72.902 c 0,0 -38.986,0.031 -38.944,0.041 0.017,0.865 0,4.022 0,4.022 l 38.943,23.052 38.944,-23.052 c 0,0 -0.035,-3.198 -0.008,-3.987 -0.092,-0.194 -38.935,-0.076 -38.935,-0.076 z"
         id="path1-3" /><path
         fill="#ecf0f1"
         d="m 40.972,25.932 c 0,0 -38.986,0.031 -38.944,0.041 0.017,0.865 0,46.996 0,46.996 L 40.972,96.02 79.916,72.969 c 0,0 -0.004,-46.171 0.022,-46.96 -0.089,-0.196 -38.966,-0.077 -38.966,-0.077 z"
         id="path2-6" /><path
         fill="#2c3e50"
         d="m 2.028,72.943 c 0.017,0.865 0,4.022 0,4.022 l 38.943,23.052 V 72.902 c 0.001,0 -38.986,0.032 -38.943,0.041 z"
         id="path3-7" /><path
         fill="#bdc3c7"
         d="m 2.028,25.973 c 0.017,0.865 0,46.996 0,46.996 L 40.972,96.02 V 25.932 c 0,0 -38.987,0.031 -38.944,0.041 z"
         id="path4-5" /><path
         fill="#bdc3c7"
         d="m 40.972,23.968 c 0,0 -40.983,0.031 -40.941,0.041 0.018,0.865 0,4.022 0,4.022 l 40.94,24.051 40.94,-24.051 c 0,0 -0.033,-3.198 -0.008,-3.987 -0.09,-0.195 -40.931,-0.076 -40.931,-0.076 z"
         id="path5" /><path
         fill="#95a5a6"
         d="m 46.994,54.949 7.004,-3.998 v 12.992 l -7.004,3.996 z m 10.007,-5.997 7.005,-3.998 v 12.993 l -7.005,3.996 z M 0.034,28.032 40.86,52.016 h 0.111 V 24.033 H 0.034 v 0.217 c 0.008,0.758 0.003,2.276 0,3.141 z m 66.974,14.924 7.007,-3.997 V 51.95 l -7.007,3.997 z m -20.014,28.993 7.004,-3.998 v 12.992 l -7.004,3.998 z M 67.008,59.955 74.015,55.958 V 68.95 l -7.007,3.997 z"
         id="path6-3" /><path
         fill="#2c3e50"
         d="m 57.008,72.955 7.005,-3.997 v 17.421 l -7.005,4.146 z"
         id="path7-5" /><path
         fill="#c0392c"
         d="m 57.008,65.955 7.005,-3.997 v 3.992 l -7.005,3.997 z"
         id="path8-6" /><path
         fill="#ecf0f1"
         d="M 40.972,-0.018 0,24.033 40.972,48.084 82.006,24.033 Z"
         id="path9-2" /><path
         fill="#d48a6d"
         d="M 40.972,4.011 5.991,24.033 40.972,44.055 75.953,24.033 Z"
         id="path10-9" /><path
         fill="#7f8c8d"
         d="m 34.981,54.98 -6.989,-3.998 v 12.992 l 6.989,3.996 z m -9.985,-5.997 -6.989,-3.998 v 12.994 l 6.989,3.996 z M 15.011,42.987 8.022,38.989 V 51.98 l 6.989,3.998 z m 19.97,28.982 -6.989,-3.996 v 12.99 l 6.989,3.998 z m -9.985,-5.996 -6.989,-3.996 v 12.99 l 6.989,3.998 z M 15.011,59.977 8.022,55.979 v 12.992 l 6.989,3.998 z"
         id="path11-1" /><path
         fill="#bdc3c7"
         d="m 74.015,44.58 -7.007,4.372 v 1.999 l 7.007,-4.372 z m 0,17 -7.007,4.372 v 1.999 l 7.007,-4.373 z M 64.006,50.576 57.001,54.949 v 1.998 l 7.005,-4.373 z m -10.008,5.996 -7.004,4.373 v 1.998 l 7.004,-4.371 z m 0,17 -7.004,4.373 v 1.998 l 7.004,-4.371 z"
         id="path12-2" /><path
         fill="#95a5a6"
         d="m 27.992,56.604 v 2 l 6.989,4.371 v -1.998 z m 0,16.99 v 1.998 l 6.989,4.373 v -2 z m -9.985,-5.996 v 1.998 l 6.989,4.373 v -2 z m 0,-16.991 v 1.998 l 6.989,4.374 V 54.98 Z M 8.019,61.6 v 1.998 l 6.992,4.375 v -2 z m 0,-16.991 v 1.999 l 6.992,4.374 v -1.999 z"
         id="path13-7" /><path
         fill="#aa6f57"
         d="m 40.972,6.011 33.234,19.022 1.747,-1 L 40.972,4.011 5.991,24.033 l 1.747,1 z"
         id="path14" /></g><g
       id="g48"
       transform="matrix(0.94316032,0,0,0.94316032,30.398737,0.40604855)"><path
         d="m 43.749784,5.6818237 c -0.304921,0 -0.545735,0.178324 -0.722953,0.5353678 L 42.995308,5.7598551 H 41.951444 V 9.989571 h 1.106392 V 7.1907755 c 0.104246,-0.2632222 0.310007,-0.394808 0.617534,-0.394808 0.112065,0 0.233494,0.010157 0.363802,0.031006 l 0.01189,-1.0981242 c -0.08079,-0.031274 -0.181391,-0.047026 -0.301274,-0.047026 z"
         style="font-weight:bold;font-size:8.00613px;font-family:'Roboto Condensed';-inkscape-font-specification:'Roboto Condensed,  Bold';letter-spacing:0px;fill:#0d7474;stroke-width:2.25172;stroke-linecap:round;stroke-linejoin:round"
         id="path42" /><path
         d="m 37.987345,5.7598551 v 2.736267 c 0,0.5577182 0.109748,0.959082 0.328662,1.2040609 0.218918,0.2449789 0.502919,0.367936 0.852144,0.367936 0.388319,0 0.697217,-0.1564828 0.926559,-0.4692218 L 40.1221,9.989571 h 1.03973 V 5.7598551 h -1.11001 v 3.0530436 c -0.112064,0.2189174 -0.295983,0.3286621 -0.551387,0.3286621 -0.27104,0 -0.406694,-0.2154223 -0.406694,-0.6454387 v -2.736267 z"
         style="font-weight:bold;font-size:8.00613px;font-family:'Roboto Condensed';-inkscape-font-specification:'Roboto Condensed,  Bold';letter-spacing:0px;fill:#0d7474;stroke-width:2.25172;stroke-linecap:round;stroke-linejoin:round"
         id="path45" /><path
         d="m 35.735803,4.7159912 v 1.0438639 h -0.492477 v 0.8325073 h 0.492477 v 2.2205363 c 0,0.4508656 0.09754,0.7729767 0.293005,0.9658325 0.195463,0.1928559 0.457623,0.2893878 0.785999,0.2893878 0.229342,0 0.434091,-0.03557 0.613916,-0.1059365 l 0.0036,-0.8640299 c -0.07297,0.020849 -0.160359,0.031523 -0.261999,0.031523 -0.119887,0 -0.205746,-0.028448 -0.257866,-0.085783 -0.04952,-0.057335 -0.07441,-0.1746977 -0.07441,-0.3519165 V 6.5923624 h 0.566891 V 5.7598551 H 36.838061 V 4.7159912 Z"
         style="font-weight:bold;font-size:8.00613px;font-family:'Roboto Condensed';-inkscape-font-specification:'Roboto Condensed,  Bold';letter-spacing:0px;fill:#0d7474;stroke-width:2.25172;stroke-linecap:round;stroke-linejoin:round"
         id="path40" /><path
         d="m 33.277038,4.7159912 v 1.0438639 h -0.492476 v 0.8325073 h 0.492476 v 2.2205363 c 0,0.4508656 0.09754,0.7729767 0.293006,0.9658325 0.195461,0.1928559 0.457622,0.2893878 0.785998,0.2893878 0.229343,0 0.433574,-0.03557 0.613399,-0.1059365 l 0.0041,-0.8640299 c -0.07297,0.020849 -0.16036,0.031523 -0.262,0.031523 -0.119887,0 -0.205745,-0.028448 -0.257865,-0.085783 -0.04952,-0.057335 -0.07441,-0.1746977 -0.07441,-0.3519165 V 6.5923624 h 0.56689 V 5.7598551 h -0.56689 V 4.7159912 Z"
         style="font-weight:bold;font-size:8.00613px;font-family:'Roboto Condensed';-inkscape-font-specification:'Roboto Condensed,  Bold';letter-spacing:0px;fill:#0d7474;stroke-width:2.25172;stroke-linecap:round;stroke-linejoin:round"
         id="path39" /><path
         d="m 29.129488,5.7598551 v 2.736267 c 0,0.5577182 0.109231,0.959082 0.328145,1.2040609 0.218918,0.2449789 0.50292,0.367936 0.852145,0.367936 0.388318,0 0.697216,-0.1564828 0.926558,-0.4692218 l 0.02739,0.3906738 h 1.03973 V 5.7598551 h -1.110009 v 3.0530436 c -0.112065,0.2189174 -0.295984,0.3286621 -0.551388,0.3286621 -0.27104,0 -0.406694,-0.2154223 -0.406694,-0.6454387 v -2.736267 z"
         style="font-weight:bold;font-size:8.00613px;font-family:'Roboto Condensed';-inkscape-font-specification:'Roboto Condensed,  Bold';letter-spacing:0px;fill:#0d7474;stroke-width:2.25172;stroke-linecap:round;stroke-linejoin:round"
         id="path44" /><path
         d="m 28.296464,5.6818237 c -0.304921,0 -0.545734,0.178324 -0.722954,0.5353678 L 27.541988,5.7598551 H 26.498124 V 9.989571 h 1.106392 V 7.1907755 c 0.104247,-0.2632222 0.310007,-0.394808 0.617534,-0.394808 0.112064,0 0.233494,0.010157 0.363802,0.031006 l 0.01188,-1.0981242 c -0.08079,-0.031274 -0.18139,-0.047026 -0.301273,-0.047026 z"
         style="font-weight:bold;font-size:8.00613px;font-family:'Roboto Condensed';-inkscape-font-specification:'Roboto Condensed,  Bold';letter-spacing:0px;fill:#0d7474;stroke-width:2.25172;stroke-linecap:round;stroke-linejoin:round"
         id="path41" /><path
         d="m 24.223327,4.7159912 v 1.0438639 h -0.492993 v 0.8325073 h 0.492993 v 2.2205363 c 0,0.4508656 0.09754,0.7729767 0.293006,0.9658325 0.195462,0.1928557 0.457622,0.2893878 0.785998,0.2893878 0.229342,0 0.433574,-0.03557 0.6134,-0.1059365 l 0.0041,-0.8640299 c -0.07297,0.020849 -0.16036,0.031523 -0.262,0.031523 -0.119886,0 -0.205745,-0.028448 -0.257865,-0.085783 -0.04952,-0.057335 -0.07441,-0.1746977 -0.07441,-0.3519165 V 6.5923624 h 0.56689 V 5.7598551 h -0.56689 V 4.7159912 Z"
         style="font-weight:bold;font-size:8.00613px;font-family:'Roboto Condensed';-inkscape-font-specification:'Roboto Condensed,  Bold';letter-spacing:0px;fill:#0d7474;stroke-width:2.25172;stroke-linecap:round;stroke-linejoin:round"
         id="path38" /><path
         d="m 21.549072,4.2193807 c -0.52905,0 -0.9614,0.1463263 -1.297595,0.4382161 -0.336194,0.2892837 -0.504362,0.6733678 -0.504362,1.1529012 0,0.489958 0.160033,0.8694806 0.480591,1.137915 0.302314,0.2527975 0.655412,0.4610968 1.059367,0.6252848 0.403954,0.1641881 0.652902,0.3099976 0.746724,0.4376994 0.09643,0.1250957 0.144694,0.2856456 0.144694,0.4811076 0,0.1824312 -0.04573,0.3348469 -0.136943,0.4573364 -0.09121,0.1198834 -0.247181,0.179834 -0.468705,0.179834 -0.27104,0 -0.475789,-0.070624 -0.613916,-0.2113566 -0.13552,-0.1407327 -0.203088,-0.3830743 -0.203088,-0.7270874 h -1.153418 c 0,0.4326225 0.09653,0.787248 0.289388,1.063501 0.192856,0.2762529 0.439264,0.4810018 0.738973,0.613916 0.302314,0.1329138 0.616292,0.1994708 0.942061,0.1994708 0.542082,0 0.970881,-0.138192 1.286227,-0.4144448 0.315345,-0.278859 0.472839,-0.6685382 0.472839,-1.1689209 0,-0.4691087 -0.131586,-0.8471033 -0.394808,-1.1337809 C 22.673879,7.0642949 22.276583,6.8260203 21.744926,6.6357706 21.489522,6.5237057 21.283245,6.4048156 21.126876,6.27972 20.973112,6.1546243 20.896399,5.9996695 20.896399,5.8146321 c 0,-0.1824311 0.05081,-0.3373861 0.152445,-0.4650879 0.104247,-0.1277018 0.26428,-0.1917195 0.480591,-0.1917195 0.234554,0 0.402722,0.076714 0.504362,0.2304768 0.104247,0.1537635 0.15658,0.349367 0.15658,0.5865275 h 1.149283 c 0,-0.5134134 -0.163089,-0.934079 -0.488859,-1.2624552 C 22.527638,4.3839977 22.09376,4.2193807 21.549072,4.2193807 Z"
         style="font-weight:bold;font-size:8.00613px;font-family:'Roboto Condensed';-inkscape-font-specification:'Roboto Condensed,  Bold';letter-spacing:0px;fill:#0d7474;stroke-width:2.25172;stroke-linecap:round;stroke-linejoin:round"
         id="path37" /><path
         d="m 46.466931,5.6032755 c -0.474332,0 -0.85231,0.1331082 -1.133781,0.3989421 -0.278865,0.2632277 -0.418063,0.5797303 -0.418063,0.9498128 h 1.106393 c 0,-0.3231707 0.138186,-0.484725 0.414445,-0.484725 0.255409,0 0.382922,0.1732384 0.382922,0.5198649 v 0.340031 h -0.297139 c -0.568155,0 -0.990333,0.1265022 -1.26659,0.379305 -0.276258,0.2501966 -0.414445,0.590584 -0.414445,1.0206095 0,0.3831135 0.118368,0.6889433 0.355534,0.9182902 0.239772,0.2293469 0.530368,0.344165 0.871782,0.344165 0.336201,0 0.604957,-0.1356472 0.805635,-0.4066935 0.02345,0.1303107 0.05444,0.2400508 0.09354,0.3286621 h 1.114143 V 9.844877 C 47.984861,9.6494109 47.934057,9.3638935 47.928857,8.9885985 V 7.0026733 c 0,-0.4951808 -0.139197,-0.8518136 -0.418062,-1.0707357 -0.276259,-0.218922 -0.624264,-0.3286621 -1.043864,-0.3286621 z m 0.08992,2.3848673 h 0.261999 v 0.8795329 c -0.0417,0.067762 -0.105714,0.1261819 -0.191719,0.1756999 -0.08601,0.049518 -0.188623,0.074414 -0.308509,0.074414 -0.24759,0 -0.371553,-0.1564762 -0.371553,-0.469222 0,-0.1850412 0.04928,-0.3415174 0.148311,-0.469222 0.09904,-0.1277045 0.252974,-0.1912028 0.461471,-0.1912028 z"
         style="font-weight:bold;font-size:8.0063px;font-family:'Roboto Condensed';-inkscape-font-specification:'Roboto Condensed,  Bold';letter-spacing:0px;fill:#0d7474;stroke-width:2.25176;stroke-linecap:round;stroke-linejoin:round"
         id="path47" /></g><g
       id="g39"
       transform="matrix(1.0000044,0,0,1.0000044,4.6833086,-28.626886)"><path
         fill="#ffce31"
         d="m 10.423337,36.595586 2.69457,-2.693893 1.260349,1.260687 -2.694653,2.693893 z"
         id="path1-7-9"
         style="fill:#0f8a8a;fill-opacity:1;stroke-width:0.0844852" /><path
         d="M 14.931972,33.509175 14.77145,33.348653 c -0.304147,-0.304147 -0.79416,-0.304147 -1.106756,0 l -0.549153,0.549153 1.267278,1.267278 0.549153,-0.549154 c 0.304146,-0.304146 0.304146,-0.802609 0,-1.106755"
         fill="#ed4c5c"
         id="path2-1-2"
         style="fill:#f07109;fill-opacity:1;stroke-width:0.0844852" /><path
         fill="#93a2aa"
         d="m 12.77608,34.24504 0.346389,-0.346558 1.260518,1.260519 -0.346389,0.346473 z"
         id="path3-6"
         style="stroke-width:0.0844852" /><path
         fill="#c7d3d8"
         d="m 12.907539,34.376415 0.346389,-0.346474 0.991771,0.991687 -0.346558,0.346389 z"
         id="path4-6"
         style="stroke-width:0.0844852" /><path
         fill="#fed0ac"
         d="M 10.420465,36.592883 9.8713106,38.02913 10.251495,38.409314 11.687742,37.86016 Z"
         id="path5-4"
         style="stroke-width:0.0844852" /><path
         d="m 9.7783776,38.282586 c -0.07604,0.202764 0.02534,0.295698 0.2281104,0.219661 l 0.692778,-0.261904 -0.650536,-0.650536 -0.2703524,0.692779"
         fill="#333333"
         id="path6-7-9"
         style="fill:#f07109;fill-opacity:1;stroke-width:0.0844852" /><path
         fill="#ffdf85"
         d="m 10.41962,36.599219 2.353756,-2.353756 0.418202,0.418201 -2.353757,2.353757 z"
         id="path7-2-5"
         style="fill:#17b5b5;fill-opacity:1;stroke-width:0.0844852" /><path
         fill="#ff8736"
         d="m 11.265654,37.441282 2.353757,-2.353756 0.418201,0.418202 -2.353756,2.353756 z"
         id="path8-0"
         style="fill:#0d7474;fill-opacity:1;stroke-width:0.0844852" /><path
         d="m 33.878326,34.624141 v 3.67006 h 0.960149 v -3.67006 z"
         style="font-weight:bold;font-size:6.94737px;font-family:'Roboto Condensed';-inkscape-font-specification:'Roboto Condensed,  Bold';letter-spacing:0px;fill:#f07109;fill-opacity:1;stroke-width:1.95394;stroke-linecap:square;stroke-linejoin:round"
         id="path106" /><path
         d="m 33.878326,34.624141 h 0.960149 v 3.67006 h -0.960149 z"
         style="font-weight:bold;font-size:6.94737px;font-family:'Roboto Condensed';-inkscape-font-specification:'Roboto Condensed,  Bold';letter-spacing:0px;fill:#f07109;fill-opacity:1;stroke-width:1.95394;stroke-linecap:square;stroke-linejoin:round"
         id="path105" /><path
         d="m 30.085793,34.624141 v 3.67006 h 0.963766 v -3.67006 z"
         style="font-weight:bold;font-size:6.94737px;font-family:'Roboto Condensed';-inkscape-font-specification:'Roboto Condensed,  Bold';letter-spacing:0px;fill:#f07109;fill-opacity:1;stroke-width:1.95394;stroke-linecap:square;stroke-linejoin:round"
         id="path104" /><path
         d="m 30.085793,34.624141 h 0.963766 v 3.67006 h -0.963766 z"
         style="font-weight:bold;font-size:6.94737px;font-family:'Roboto Condensed';-inkscape-font-specification:'Roboto Condensed,  Bold';letter-spacing:0px;fill:#f07109;fill-opacity:1;stroke-width:1.95394;stroke-linecap:square;stroke-linejoin:round"
         id="path103" /><path
         d="m 40.096552,34.555928 c -0.411595,0 -0.739677,0.115558 -0.98392,0.346232 -0.241981,0.228413 -0.362768,0.503105 -0.362768,0.824239 h 0.960148 c 0,-0.280427 0.119947,-0.420646 0.359668,-0.420646 0.221628,0 0.332279,0.150355 0.332279,0.451136 v 0.295072 h -0.257865 c -0.49301,0 -0.859437,0.109812 -1.099158,0.329179 -0.23972,0.217105 -0.359668,0.512068 -0.359668,0.885217 0,0.332442 0.103228,0.598354 0.309025,0.797367 0.208059,0.199013 0.460286,0.29869 0.756543,0.29869 0.291735,0 0.524529,-0.117753 0.698666,-0.35295 0.02035,0.113076 0.04721,0.207846 0.08113,0.284737 h 0.966866 v -0.05736 c -0.08366,-0.169614 -0.127757,-0.41745 -0.13229,-0.743107 v -1.72341 c 0,-0.429687 -0.120787,-0.739175 -0.362769,-0.929142 -0.239719,-0.189967 -0.541784,-0.285254 -0.905887,-0.285254 z m 0.07803,2.069641 h 0.227376 v 0.763261 c -0.03618,0.0588 -0.09177,0.109477 -0.166398,0.152446 -0.07463,0.04297 -0.163654,0.06459 -0.267684,0.06459 -0.214844,0 -0.322461,-0.135829 -0.322461,-0.40721 0,-0.160568 0.04274,-0.296397 0.128675,-0.407211 0.08594,-0.110814 0.219572,-0.165881 0.400492,-0.165881 z"
         style="font-weight:bold;font-size:6.94737px;font-family:'Roboto Condensed';-inkscape-font-specification:'Roboto Condensed,  Bold';letter-spacing:0px;fill:#f07109;fill-opacity:1;stroke-width:1.95394;stroke-linecap:square;stroke-linejoin:round"
         id="path102" /><path
         d="m 36.934987,34.555928 c -0.490747,0 -0.855819,0.155261 -1.09554,0.465088 -0.23972,0.309827 -0.359668,0.745009 -0.359668,1.305864 v 0.295072 c 0.0045,0.551809 0.126666,0.980406 0.366386,1.28571 0.23972,0.303042 0.603953,0.454752 1.09244,0.454752 0.368626,0 0.677276,-0.119108 0.926041,-0.356567 0.251024,-0.237459 0.377556,-0.565023 0.379822,-0.983403 h -0.90227 c 0,0.361842 -0.140219,0.542603 -0.420646,0.542603 -0.217107,0 -0.35158,-0.0816 -0.403593,-0.24443 -0.05201,-0.162828 -0.07803,-0.405758 -0.07803,-0.729154 V 36.32688 c 0,-0.314351 0.02602,-0.555085 0.07803,-0.722437 0.05428,-0.167352 0.186554,-0.251147 0.396875,-0.251147 0.28495,0 0.427364,0.213878 0.427364,0.641304 h 0.90227 c -0.0023,-0.470394 -0.123565,-0.828043 -0.363285,-1.072286 -0.237459,-0.244243 -0.552693,-0.366386 -0.946196,-0.366386 z"
         style="font-weight:bold;font-size:6.94737px;font-family:'Roboto Condensed';-inkscape-font-specification:'Roboto Condensed,  Bold';letter-spacing:0px;fill:#f07109;fill-opacity:1;stroke-width:1.95394;stroke-linecap:square;stroke-linejoin:round"
         id="path100" /><path
         d="m 36.934987,34.555928 c 0.393503,0 0.708737,0.122143 0.946196,0.366386 0.23972,0.244243 0.361023,0.601892 0.363285,1.072286 h -0.90227 c 0,-0.427426 -0.142414,-0.641304 -0.427364,-0.641304 -0.210321,0 -0.342599,0.0838 -0.396875,0.251147 -0.05201,0.167352 -0.07803,0.408086 -0.07803,0.722437 v 0.264583 c 0,0.323396 0.02602,0.566326 0.07803,0.729154 0.05201,0.162829 0.186486,0.24443 0.403593,0.24443 0.280427,0 0.420646,-0.180761 0.420646,-0.542603 h 0.90227 c -0.0023,0.41838 -0.128798,0.745944 -0.379822,0.983403 -0.248765,0.237459 -0.557415,0.356567 -0.926041,0.356567 -0.488487,0 -0.85272,-0.15171 -1.09244,-0.454752 -0.23972,-0.305304 -0.361863,-0.733901 -0.366386,-1.28571 V 36.32688 c 0,-0.560855 0.119948,-0.996037 0.359668,-1.305864 0.239721,-0.309827 0.604793,-0.465088 1.09554,-0.465088 z"
         style="font-weight:bold;font-size:6.94737px;font-family:'Roboto Condensed';-inkscape-font-specification:'Roboto Condensed,  Bold';letter-spacing:0px;fill:#f07109;fill-opacity:1;stroke-width:1.95394;stroke-linecap:square;stroke-linejoin:round"
         id="path99" /><path
         d="m 24.516107,34.555928 c -0.452302,0 -0.812985,0.153905 -1.082104,0.461471 -0.266859,0.305304 -0.400493,0.746231 -0.400493,1.322917 v 0.240812 c 0,0.576685 0.134474,1.017612 0.403593,1.322916 0.26912,0.305304 0.631158,0.45837 1.085722,0.45837 0.452302,0 0.811629,-0.153066 1.078487,-0.45837 0.26912,-0.305304 0.403593,-0.746231 0.403593,-1.322916 v -0.240812 c 0,-0.576686 -0.134473,-1.017613 -0.403593,-1.322917 -0.266858,-0.307566 -0.628379,-0.461471 -1.085205,-0.461471 z m 0,0.797368 c 0.352796,0 0.529167,0.32892 0.529167,0.98702 v 0.30179 c -0.01131,0.615131 -0.185484,0.922941 -0.522449,0.922941 -0.352796,0 -0.529166,-0.328081 -0.529166,-0.983919 v -0.301791 c 0.01131,-0.617392 0.185483,-0.926041 0.522448,-0.926041 z"
         style="font-weight:bold;font-size:6.94737px;font-family:'Roboto Condensed';-inkscape-font-specification:'Roboto Condensed,  Bold';letter-spacing:0px;fill:#f07109;fill-opacity:1;stroke-width:1.95394;stroke-linecap:square;stroke-linejoin:round"
         id="path98" /><path
         d="m 17.921161,33.354968 v 4.939233 h 1.000972 v -1.336352 l -0.09147,-2.04587 0.983403,3.382222 h 0.682129 l 0.983402,-3.382222 -0.09147,2.04587 v 1.336352 h 1.000972 v -4.939233 h -1.302757 l -0.929659,3.568774 -0.932759,-3.568774 z"
         style="font-weight:bold;font-size:6.94737px;font-family:'Roboto Condensed';-inkscape-font-specification:'Roboto Condensed,  Bold';letter-spacing:0px;fill:#f07109;fill-opacity:1;stroke-width:1.95394;stroke-linecap:square;stroke-linejoin:round"
         id="path97" /><path
         d="m 30.567934,33.161698 c -0.160567,0 -0.288455,0.04848 -0.383439,0.145728 -0.09498,0.09498 -0.142627,0.217126 -0.142627,0.366386 0,0.146998 0.04764,0.269141 0.142627,0.366385 0.09498,0.09498 0.222872,0.142627 0.383439,0.142627 0.158306,0 0.284839,-0.04764 0.379822,-0.142627 0.09498,-0.09724 0.14211,-0.219387 0.14211,-0.366385 0,-0.14926 -0.04713,-0.271403 -0.14211,-0.366386 -0.09498,-0.09725 -0.221516,-0.145728 -0.379822,-0.145728 z"
         style="font-weight:bold;font-size:6.94737px;font-family:'Roboto Condensed';-inkscape-font-specification:'Roboto Condensed,  Bold';letter-spacing:0px;fill:#f07109;fill-opacity:1;stroke-width:1.95394;stroke-linecap:square;stroke-linejoin:round"
         id="path96" /><path
         d="m 28.372719,33.083667 v 1.838647 c -0.185443,-0.244243 -0.421789,-0.366386 -0.709,-0.366386 -0.398027,0 -0.69654,0.150354 -0.895553,0.451135 -0.196751,0.29852 -0.295072,0.745193 -0.295072,1.33997 v 0.261483 c 0.0023,0.567639 0.105489,1.001465 0.309025,1.302246 0.203536,0.300781 0.496304,0.451652 0.878499,0.451652 0.314351,0 0.568771,-0.148159 0.763261,-0.444417 l 0.04393,0.379822 0.868681,-0.0036 v -5.210532 z m -0.430464,2.272729 c 0.192228,0 0.335481,0.09174 0.430464,0.274919 v 1.669149 c -0.09272,0.171874 -0.23733,0.257865 -0.434082,0.257865 -0.19449,0 -0.327607,-0.07721 -0.399975,-0.230994 -0.07011,-0.156044 -0.10542,-0.402524 -0.10542,-0.739489 v -0.240813 c 0,-0.348272 0.03751,-0.600498 0.112138,-0.756542 0.07463,-0.156045 0.206908,-0.234095 0.396875,-0.234095 z"
         style="font-weight:bold;font-size:6.94737px;font-family:'Roboto Condensed';-inkscape-font-specification:'Roboto Condensed,  Bold';letter-spacing:0px;fill:#f07109;fill-opacity:1;stroke-width:1.95394;stroke-linecap:square;stroke-linejoin:round"
         id="path95" /><path
         d="m 33.427191,33.012353 c -0.447779,0 -0.798326,0.123499 -1.051615,0.370003 -0.251029,0.246505 -0.3784,0.602798 -0.382923,1.068669 v 0.173116 h -0.444417 v 0.722437 h 0.444417 v 2.947623 h 0.959632 v -2.947623 h 0.56689 v -0.722437 h -0.56689 v -0.156063 c 0.0023,-0.395764 0.182183,-0.593762 0.539502,-0.593762 0.232935,0 0.489551,0.05068 0.769979,0.152446 l 0.139009,-0.813904 c -0.379933,-0.133429 -0.704463,-0.200505 -0.973584,-0.200505 z"
         style="font-weight:bold;font-size:6.94737px;font-family:'Roboto Condensed';-inkscape-font-specification:'Roboto Condensed,  Bold';letter-spacing:0px;fill:#f07109;fill-opacity:1;stroke-width:1.95394;stroke-linecap:square;stroke-linejoin:round"
         id="path94" /></g></g></svg>
