<?xml version="1.0" encoding="UTF-8" standalone="no"?>
<!-- Created with Inkscape (http://www.inkscape.org/) -->

<svg
   width="300"
   height="54"
   viewBox="0 0 79.374998 14.2875"
   version="1.1"
   id="svg1"
   inkscape:version="1.3.2 (091e20ef0f, 2023-11-25)"
   sodipodi:docname="transport-logo-edit.svg"
   xml:space="preserve"
   xmlns:inkscape="http://www.inkscape.org/namespaces/inkscape"
   xmlns:sodipodi="http://sodipodi.sourceforge.net/DTD/sodipodi-0.dtd"
   xmlns="http://www.w3.org/2000/svg"
   xmlns:svg="http://www.w3.org/2000/svg"><sodipodi:namedview
     id="namedview1"
     pagecolor="#ffffff"
     bordercolor="#000000"
     borderopacity="0.25"
     inkscape:showpageshadow="false"
     inkscape:pageopacity="0.0"
     inkscape:pagecheckerboard="0"
     inkscape:deskcolor="#d1d1d1"
     inkscape:document-units="px"
     inkscape:zoom="3.026175"
     inkscape:cx="45.602121"
     inkscape:cy="3.8001768"
     inkscape:window-width="2528"
     inkscape:window-height="1404"
     inkscape:window-x="2592"
     inkscape:window-y="0"
     inkscape:window-maximized="1"
     inkscape:current-layer="layer1" /><defs
     id="defs1"><inkscape:path-effect
   effect="fillet_chamfer"
   id="path-effect1"
   is_visible="true"
   lpeversion="1"
   nodesatellites_param="F,0,0,1,0,16.416105,0,1 @ F,0,0,1,0,17.56708,0,1 @ F,0,0,1,0,16.166174,0,1 @ F,0,0,1,0,12.027104,0,1"
   radius="0"
   unit="px"
   method="auto"
   mode="F"
   chamfer_steps="1"
   flexible="false"
   use_knot_distance="true"
   apply_no_radius="true"
   apply_with_radius="true"
   only_selected="false"
   hide_knots="false" />
	
	
	
	
	

		
		
	
	
	
	
	
	
	
	
	
	
	
	
	
	
	
	
	
	
	
	
	
	
	
	
	
	
	
	
	
	
	
	
	
	
	
	
	
	
	
	
	
	
	
	
	
<style
   id="style1">.cls-1{fill:#ffffff;}.cls-2{fill:#e5e5e5;}.cls-3{fill:#426572;}.cls-4{fill:#fbc907;}.cls-5{fill:#f3a70f;}.cls-6{fill:#f9f9f9;}.cls-7{opacity:0.5;}.cls-8{fill:#7490a8;}</style><inkscape:path-effect
   effect="fillet_chamfer"
   id="path-effect1-3"
   is_visible="true"
   lpeversion="1"
   nodesatellites_param="F,0,0,1,0,16.416105,0,1 @ F,0,0,1,0,17.56708,0,1 @ F,0,0,1,0,16.166174,0,1 @ F,0,0,1,0,12.027104,0,1"
   radius="0"
   unit="px"
   method="auto"
   mode="F"
   chamfer_steps="1"
   flexible="false"
   use_knot_distance="true"
   apply_no_radius="true"
   apply_with_radius="true"
   only_selected="false"
   hide_knots="false" /><style
   id="style1-56">.cls-1{fill:#ffffff;}.cls-2{fill:#e5e5e5;}.cls-3{fill:#426572;}.cls-4{fill:#fbc907;}.cls-5{fill:#f3a70f;}.cls-6{fill:#f9f9f9;}.cls-7{opacity:0.5;}.cls-8{fill:#7490a8;}</style><inkscape:path-effect
   effect="fillet_chamfer"
   id="path-effect1-6"
   is_visible="true"
   lpeversion="1"
   nodesatellites_param="F,0,0,1,0,16.416105,0,1 @ F,0,0,1,0,17.56708,0,1 @ F,0,0,1,0,16.166174,0,1 @ F,0,0,1,0,12.027104,0,1"
   radius="0"
   unit="px"
   method="auto"
   mode="F"
   chamfer_steps="1"
   flexible="false"
   use_knot_distance="true"
   apply_no_radius="true"
   apply_with_radius="true"
   only_selected="false"
   hide_knots="false" /><style
   id="style1-0">.cls-1{fill:#ffffff;}.cls-2{fill:#e5e5e5;}.cls-3{fill:#426572;}.cls-4{fill:#fbc907;}.cls-5{fill:#f3a70f;}.cls-6{fill:#f9f9f9;}.cls-7{opacity:0.5;}.cls-8{fill:#7490a8;}</style><style
   id="style1-54">.cls-1{fill:#ffffff;}.cls-2{fill:#e5e5e5;}.cls-3{fill:#426572;}.cls-4{fill:#fbc907;}.cls-5{fill:#f3a70f;}.cls-6{fill:#f9f9f9;}.cls-7{opacity:0.5;}.cls-8{fill:#7490a8;}</style><style
   id="style1-5">.cls-1{fill:#ffffff;}.cls-2{fill:#e5e5e5;}.cls-3{fill:#426572;}.cls-4{fill:#fbc907;}.cls-5{fill:#f3a70f;}.cls-6{fill:#f9f9f9;}.cls-7{opacity:0.5;}.cls-8{fill:#7490a8;}</style><style
   id="style1-6">.cls-1{fill:#ffffff;}.cls-2{fill:#e5e5e5;}.cls-3{fill:#426572;}.cls-4{fill:#fbc907;}.cls-5{fill:#f3a70f;}.cls-6{fill:#f9f9f9;}.cls-7{opacity:0.5;}.cls-8{fill:#7490a8;}</style><style
   id="style1-8">.cls-1{fill:#ffffff;}.cls-2{fill:#e5e5e5;}.cls-3{fill:#426572;}.cls-4{fill:#fbc907;}.cls-5{fill:#f3a70f;}.cls-6{fill:#f9f9f9;}.cls-7{opacity:0.5;}.cls-8{fill:#7490a8;}</style><style
   id="style1-5-6">.cls-1{fill:#ffffff;}.cls-2{fill:#e5e5e5;}.cls-3{fill:#426572;}.cls-4{fill:#fbc907;}.cls-5{fill:#f3a70f;}.cls-6{fill:#f9f9f9;}.cls-7{opacity:0.5;}.cls-8{fill:#7490a8;}</style></defs><g
     inkscape:label="Livello 1"
     inkscape:groupmode="layer"
     id="layer1"><path
       d="M 9.2371414,1.6826085 H 6.4040739 c 0,-0.5063435 -0.4987861,-0.91821994 -1.1156561,-0.91821994 -0.61687,0 -1.1147115,0.41187644 -1.1147115,0.91821994 H 1.3396942 c -0.44777394,0 -0.81052749,0.3797576 -0.81052749,0.849259 v 9.0423885 c 0,0.467612 0.36275355,0.847369 0.81052749,0.847369 h 7.8974472 c 0.4487186,0 0.8095826,-0.379757 0.8095826,-0.847369 V 2.5328121 c 0,-0.4695013 -0.360864,-0.8502036 -0.8095826,-0.8502036 z"
       fill="#7eb47f"
       id="path1"
       style="fill:#b3b3b3;fill-opacity:1;stroke-width:0.0147605" /><path
       d="M 4.8869327,3.3168888 H 2.2843649 c -0.5082328,0 -0.9191646,0.2663972 -0.9191646,0.5951426 v 1.8846181 c 0,0.3287454 0.4118764,0.5951425 0.9191646,0.5951425 h 2.6025678 z m 3.4064827,0 H 5.6908475 V 6.391792 h 2.6025679 c 0.5072881,0 0.9191646,-0.2663971 0.9191646,-0.5951425 V 3.9120314 c 0,-0.3287454 -0.4118765,-0.5951426 -0.9191646,-0.5951426 z"
       fill="#4a5a4e"
       id="path2"
       style="fill:#555555;fill-opacity:1;stroke-width:0.0147605" /><path
       d="m 4.2171612,1.7279527 a 0.9937936,0.90877323 0 1 0 1.9875872,0 0.9937936,0.90877323 0 1 0 -1.9875872,0 z"
       fill="#e1d250"
       id="path3"
       style="fill:#ffffff;stroke-width:0.0147605" /><path
       d="m 5.2109548,2.9276845 c -0.7075584,0 -1.2838075,-0.536573 -1.2838075,-1.1987871 0,-0.6622142 0.5762491,-1.19973185 1.2838075,-1.19973185 0.7075584,0 1.2838075,0.53751765 1.2838075,1.19973185 0,0.6622141 -0.5762491,1.1987871 -1.2838075,1.1987871 z m 0,-1.8175465 c -0.387315,0 -0.702835,0.2777332 -0.702835,0.6187594 0,0.3400814 0.31552,0.6178146 0.702835,0.6178146 0.387315,0 0.702835,-0.2777332 0.702835,-0.6178146 0,-0.3410262 -0.31552,-0.6187594 -0.702835,-0.6187594 z"
       fill="#609a62"
       id="path4"
       style="fill:#999999;fill-opacity:1;stroke-width:0.0147605" /><path
       d="m 2.0670906,13.758334 -0.4137657,-0.406208 1.1147114,-1.13266 0.4128211,0.407153 z"
       fill="#4a5a4e"
       id="path5-3"
       style="stroke-width:0.0147605" /><path
       d="M 8.4200012,13.758334 7.3052898,12.627563 7.7209449,12.219466 8.833767,13.350237 Z"
       fill="#4a5a4e"
       id="path6"
       style="stroke-width:0.0147605" /><path
       d="M 9.1162236,8.8252638 C 9.0557646,8.3869366 8.6637263,8.0487445 8.1866676,8.0487445 c -0.4770588,0 -0.8700418,0.3381921 -0.9305007,0.7765193 H 3.4925988 C 3.4321398,8.3869366 3.0391568,8.0487445 2.5620981,8.0487445 c -0.476114,0 -0.8681524,0.3381921 -0.9305007,0.7765193 H 0.52916671 V 11.5752 c 0,0.467612 0.36275355,0.84737 0.81052749,0.84737 h 7.8974472 c 0.4487186,0 0.8095826,-0.379758 0.8095826,-0.84737 V 8.8252638 Z"
       fill="#4a5a4e"
       id="path7"
       style="fill:#555555;fill-opacity:1;stroke-width:0.0147605" /><path
       d="m 2.0047424,9.169124 a 0.56018974,0.53657297 0 1 0 1.1203794,0 0.56018974,0.53657297 0 1 0 -1.1203794,0 z"
       fill="#ffffff"
       id="path8"
       style="stroke-width:0.0147605" /><path
       d="m 7.6926048,9.169124 a 0.56113441,0.53657297 0 1 0 1.1222688,0 0.56113441,0.53657297 0 1 0 -1.1222688,0 z"
       fill="#ffffff"
       id="path9"
       style="stroke-width:0.0147605" /><rect
       style="fill:#ff6600;fill-opacity:1;stroke-width:0.79375;stroke-linecap:round;stroke-linejoin:round"
       id="rect65"
       width="9.5175571"
       height="0.35890648"
       x="0.5291667"
       y="10.78323" /><g
       id="g65"
       transform="translate(32.057757,0.58145587)"><path
         d="m 37.641858,4.1341145 v 1.0035563 h -0.473872 v 0.8009847 h 0.473872 v 2.135787 c 0,0.4336478 0.09364,0.7431345 0.281637,0.9286254 0.187998,0.1854911 0.44019,0.2780192 0.756026,0.2780192 0.220584,0 0.417187,-0.033607 0.590145,-0.1012858 l 0.0041,-0.830957 c -0.07019,0.020053 -0.154422,0.029972 -0.252181,0.029972 -0.115305,0 -0.197913,-0.027536 -0.248047,-0.082682 -0.04763,-0.055146 -0.07131,-0.1680295 -0.07131,-0.3384807 V 5.9386555 h 0.545186 V 5.1376708 H 38.702259 V 4.1341145 Z"
         style="font-weight:bold;font-size:7.70039px;font-family:'Roboto Condensed';-inkscape-font-specification:'Roboto Condensed,  Bold';letter-spacing:0px;fill:#0d7474;stroke-width:2.16573;stroke-linecap:round;stroke-linejoin:round"
         id="path48" /><path
         d="m 36.453817,5.06274 c -0.293276,0 -0.525113,0.1718051 -0.695565,0.515214 l -0.03049,-0.4402832 h -1.003556 v 4.0684855 h 1.064018 V 6.5138142 c 0.100266,-0.2531701 0.297979,-0.3798217 0.593762,-0.3798217 0.107785,-5e-7 0.224518,0.010436 0.349849,0.030489 l 0.01137,-1.056783 C 36.6655,5.0776192 36.569122,5.06274 36.453817,5.06274 Z"
         style="font-weight:bold;font-size:7.70039px;font-family:'Roboto Condensed';-inkscape-font-specification:'Roboto Condensed,  Bold';letter-spacing:0px;fill:#0d7474;stroke-width:2.16573;stroke-linecap:round;stroke-linejoin:round"
         id="path60" /><path
         d="m 36.453817,5.06274 c 0.115305,0 0.211683,0.014879 0.289388,0.044958 l -0.01137,1.056783 C 36.606504,6.144428 36.489771,6.133992 36.381986,6.133992 c -0.295783,0 -0.493496,0.1266516 -0.593762,0.3798217 V 9.2061563 H 34.724207 V 5.1376708 h 1.003556 l 0.03049,0.4402832 C 35.928704,5.2345451 36.160541,5.06274 36.453817,5.06274 Z"
         style="font-weight:bold;font-size:7.70039px;font-family:'Roboto Condensed';-inkscape-font-specification:'Roboto Condensed,  Bold';letter-spacing:0px;fill:#0d7474;stroke-width:2.16573;stroke-linecap:round;stroke-linejoin:round"
         id="path59" /><path
         d="m 32.415304,5.06274 c -0.501327,0 -0.90112,0.1701776 -1.19941,0.5110799 -0.295783,0.3383957 -0.443384,0.8273853 -0.443384,1.4665772 v 0.2671671 c 0,0.6391919 0.148712,1.1276647 0.447001,1.4660604 0.29829,0.3383957 0.699711,0.5074625 1.203545,0.5074625 0.501326,0 0.900009,-0.1690668 1.195792,-0.5074625 0.29829,-0.3383957 0.447001,-0.8268685 0.447001,-1.4660604 V 7.0403971 c 0,-0.6391919 -0.148711,-1.1281815 -0.447001,-1.4665772 C 33.323065,5.2329176 32.921644,5.06274 32.415304,5.06274 Z m 0,0.883667 c 0.391035,0 0.586528,0.3645593 0.586528,1.0939901 v 0.3343465 c -0.01253,0.6818046 -0.205288,1.0231933 -0.578776,1.0231933 -0.391035,0 -0.586528,-0.3634486 -0.586528,-1.0903727 V 6.9727009 C 31.849061,6.2883896 32.041816,5.946407 32.415304,5.946407 Z"
         style="font-weight:bold;font-size:7.70039px;font-family:'Roboto Condensed';-inkscape-font-specification:'Roboto Condensed,  Bold';letter-spacing:0px;fill:#0d7474;stroke-width:2.16573;stroke-linecap:round;stroke-linejoin:round"
         id="path58" /><path
         d="m 28.93748,5.06274 c -0.348422,0 -0.626524,0.1492284 -0.834574,0.4475179 l -0.03772,-0.3725871 h -0.981335 v 5.6327312 h 1.0604 V 8.8754272 c 0.205544,0.2707166 0.472615,0.4056599 0.800985,0.4056599 0.433647,0 0.759124,-0.1701775 0.977201,-0.5110799 0.220584,-0.343409 0.331246,-0.8335092 0.331246,-1.4701944 V 6.9913045 C 30.248666,6.3470993 30.135782,5.8646969 29.915198,5.5438476 29.697121,5.2229984 29.371128,5.06274 28.93748,5.06274 Z m -0.315743,0.8872844 c 0.208051,0 0.354541,0.08372 0.439767,0.2516642 0.08523,0.1679445 0.12764,0.4449353 0.12764,0.830957 v 0.2671672 c 0,0.3759952 -0.0413,0.652986 -0.124023,0.830957 -0.08021,0.1779711 -0.225591,0.2671671 -0.436149,0.2671671 -0.225597,0 -0.386966,-0.090307 -0.484725,-0.2707845 V 6.2321777 c 0.09776,-0.1879976 0.256906,-0.2821533 0.47749,-0.2821533 z"
         style="font-weight:bold;font-size:7.70039px;font-family:'Roboto Condensed';-inkscape-font-specification:'Roboto Condensed,  Bold';letter-spacing:0px;fill:#0d7474;stroke-width:2.16573;stroke-linecap:round;stroke-linejoin:round"
         id="path56" /><path
         d="m 24.933074,5.06274 c -0.441168,0 -0.785889,0.1200646 -1.034046,0.3607015 -0.248156,0.2381304 -0.37207,0.5266678 -0.37207,0.8650635 0,0.3258625 0.09912,0.5813873 0.297139,0.7668782 0.200531,0.185491 0.486331,0.350709 0.857312,0.4960938 0.253171,0.1102919 0.433267,0.2055583 0.541053,0.2857706 0.107785,0.080212 0.161747,0.1732574 0.161747,0.278536 0,0.2581834 -0.142641,0.3870565 -0.428398,0.3870565 -0.152904,0 -0.278445,-0.037456 -0.376204,-0.1126546 -0.09777,-0.075199 -0.148996,-0.2233167 -0.153996,-0.4439006 h -1.00769 c 0,0.3308758 0.128873,0.6370303 0.387056,0.9177734 0.26069,0.2782365 0.636796,0.4170288 1.128097,0.4170288 0.4537,0 0.814927,-0.111256 1.083138,-0.3343465 0.268209,-0.2230905 0.402042,-0.5149601 0.402042,-0.8759155 0,-0.3358891 -0.09638,-0.5980009 -0.289388,-0.7859985 C 25.938362,7.096829 25.639905,6.9261347 25.23383,6.7732299 24.97314,6.6654446 24.792527,6.5751378 24.692261,6.5024454 24.594503,6.429753 24.546017,6.3410737 24.546017,6.235795 c 0,-0.2657032 0.127763,-0.3984253 0.383439,-0.3984253 0.27573,0 0.413412,0.1663287 0.413412,0.4997111 h 1.064017 c 0,-0.3810085 -0.131611,-0.687757 -0.394808,-0.920874 C 25.74888,5.1805832 25.389281,5.06274 24.933074,5.06274 Z"
         style="font-weight:bold;font-size:7.70039px;font-family:'Roboto Condensed';-inkscape-font-specification:'Roboto Condensed,  Bold';letter-spacing:0px;fill:#0d7474;stroke-width:2.16573;stroke-linecap:round;stroke-linejoin:round"
         id="path54" /><path
         d="m 24.933074,5.06274 c 0.456207,0 0.815806,0.1178432 1.079003,0.3534668 0.263197,0.233117 0.394808,0.5398655 0.394808,0.920874 h -1.064017 c 0,-0.3333824 -0.137682,-0.4997111 -0.413412,-0.4997111 -0.255676,0 -0.383439,0.1327221 -0.383439,0.3984253 0,0.1052787 0.04849,0.193958 0.146244,0.2666504 0.100266,0.072692 0.280879,0.1629992 0.541569,0.2707845 0.406075,0.1529048 0.704532,0.3235991 0.895036,0.5115967 0.193011,0.1879976 0.289388,0.4501094 0.289388,0.7859985 0,0.3609554 -0.133833,0.652825 -0.402042,0.8759155 -0.268211,0.2230905 -0.629438,0.3343465 -1.083138,0.3343465 -0.491301,0 -0.867407,-0.1387923 -1.128097,-0.4170288 C 23.546794,8.5833152 23.417921,8.2771607 23.417921,7.9462849 h 1.00769 c 0.005,0.2205839 0.05622,0.3687015 0.153996,0.4439006 0.09776,0.075199 0.2233,0.1126546 0.376204,0.1126546 0.285757,0 0.428398,-0.1288731 0.428398,-0.3870565 0,-0.1052786 -0.05396,-0.1983236 -0.161747,-0.278536 C 25.114676,7.7570353 24.93458,7.6617689 24.681409,7.551477 24.310428,7.4060922 24.024628,7.2408742 23.824097,7.0553832 23.626073,6.8698923 23.526958,6.6143675 23.526958,6.288505 c 0,-0.3383957 0.123914,-0.6269331 0.37207,-0.8650635 C 24.147185,5.1828046 24.491906,5.06274 24.933074,5.06274 Z"
         style="font-weight:bold;font-size:7.70039px;font-family:'Roboto Condensed';-inkscape-font-specification:'Roboto Condensed,  Bold';letter-spacing:0px;fill:#0d7474;stroke-width:2.16573;stroke-linecap:round;stroke-linejoin:round"
         id="path53" /><path
         d="m 21.406157,5.06274 c -0.456207,0 -0.819656,0.1277624 -1.090373,0.3834391 -0.268209,0.2531701 -0.402042,0.5576972 -0.402042,0.9136394 h 1.064017 c 0,-0.3108228 0.132723,-0.4661215 0.398426,-0.4661215 0.24565,0 0.368453,0.1663287 0.368453,0.4997111 V 6.72052 h -0.285771 c -0.546447,0 -0.95231,0.121692 -1.218013,0.3648356 -0.265704,0.2406369 -0.398943,0.5677407 -0.398943,0.9813354 0,0.3684753 0.114511,0.6630831 0.342615,0.883667 0.230611,0.2205838 0.509822,0.3307291 0.838192,0.3307291 0.323356,0 0.581619,-0.1299838 0.77463,-0.3906738 0.02256,0.1253318 0.05283,0.2305174 0.09043,0.315743 h 1.071253 V 9.1420775 C 22.866275,8.9540799 22.817273,8.6798274 22.812273,8.318872 V 6.4089111 c 0,-0.4762606 -0.133832,-0.8198708 -0.402043,-1.0304281 C 22.144527,5.1679257 21.809725,5.06274 21.406157,5.06274 Z m 0.08682,2.2934001 h 0.251665 v 0.8459432 c -0.04011,0.065173 -0.101249,0.1218727 -0.183968,0.1694986 -0.08272,0.047626 -0.181835,0.071313 -0.29714,0.071313 -0.23813,0 -0.357084,-0.1503391 -0.357084,-0.4511352 0,-0.1779711 0.04738,-0.3283102 0.142627,-0.4511353 0.09525,-0.1228251 0.24337,-0.1844848 0.4439,-0.1844843 z"
         style="font-weight:bold;font-size:7.70039px;font-family:'Roboto Condensed';-inkscape-font-specification:'Roboto Condensed,  Bold';letter-spacing:0px;fill:#0d7474;stroke-width:2.16573;stroke-linecap:round;stroke-linejoin:round"
         id="path52" /><path
         d="m 19.244532,5.06274 c -0.293276,0 -0.52563,0.1718051 -0.696082,0.515214 L 18.51848,5.1376708 h -1.003556 v 4.0684855 h 1.064017 V 6.5138142 c 0.100266,-0.2531701 0.29798,-0.3798217 0.593763,-0.3798217 0.107785,0 0.224517,0.010436 0.349849,0.030489 l 0.01137,-1.056783 C 19.456214,5.0776192 19.359837,5.06274 19.244532,5.06274 Z"
         style="font-weight:bold;font-size:7.70039px;font-family:'Roboto Condensed';-inkscape-font-specification:'Roboto Condensed,  Bold';letter-spacing:0px;fill:#0d7474;stroke-width:2.16573;stroke-linecap:round;stroke-linejoin:round"
         id="path50" /><path
         d="m 19.244532,5.06274 c 0.115305,0 0.211682,0.014879 0.289388,0.044958 L 19.52255,6.164481 C 19.397218,6.144428 19.280486,6.133992 19.172701,6.133992 c -0.295783,0 -0.493497,0.1266516 -0.593763,0.3798217 V 9.2061563 H 17.514922 V 5.1376708 h 1.003556 l 0.02997,0.4402832 C 18.718902,5.2345451 18.951256,5.06274 19.244532,5.06274 Z"
         style="font-weight:bold;font-size:7.70039px;font-family:'Roboto Condensed';-inkscape-font-specification:'Roboto Condensed,  Bold';letter-spacing:0px;fill:#0d7474;stroke-width:2.16573;stroke-linecap:round;stroke-linejoin:round"
         id="path49" /><path
         d="m 13.382357,3.7315551 v 0.9213908 h 1.331185 v 4.5532104 h 1.105359 V 4.6529459 h 1.35754 V 3.7315551 Z"
         style="font-weight:bold;font-size:7.70039px;font-family:'Roboto Condensed';-inkscape-font-specification:'Roboto Condensed,  Bold';letter-spacing:0px;fill:#0d7474;stroke-width:2.16573;stroke-linecap:round;stroke-linejoin:round"
         id="path47" /><path
         d="m 41.341341,5.06274 c -0.501327,0 -0.90112,0.1701776 -1.19941,0.5110799 -0.295783,0.3383957 -0.443384,0.8273853 -0.443384,1.4665772 v 0.2671671 c 0,0.6391919 0.148712,1.1276647 0.447001,1.4660604 0.29829,0.3383957 0.699711,0.5074625 1.203545,0.5074625 0.501326,0 0.900009,-0.1690668 1.195792,-0.5074625 0.29829,-0.3383957 0.447001,-0.8268685 0.447001,-1.4660604 V 7.0403971 c 0,-0.6391919 -0.148711,-1.1281815 -0.447001,-1.4665772 C 42.249102,5.2329176 41.847681,5.06274 41.341341,5.06274 Z m 0,0.883667 c 0.391035,0 0.586528,0.3645593 0.586528,1.0939901 v 0.3343465 c -0.01253,0.6818046 -0.205288,1.0231933 -0.578776,1.0231933 -0.391035,0 -0.586528,-0.3634486 -0.586528,-1.0903727 V 6.9727009 C 40.775098,6.2883896 40.967853,5.946407 41.341341,5.946407 Z"
         style="font-weight:bold;font-size:7.70039px;font-family:'Roboto Condensed';-inkscape-font-specification:'Roboto Condensed,  Bold';letter-spacing:0px;fill:#0d7474;stroke-width:2.16573;stroke-linecap:round;stroke-linejoin:round"
         id="path65" /></g><g
       id="g39"
       transform="matrix(1.0000044,0,0,1.0000044,2.7280304,-28.626897)"><path
         fill="#ffce31"
         d="m 10.423337,36.595586 2.69457,-2.693893 1.260349,1.260687 -2.694653,2.693893 z"
         id="path1-7-9"
         style="fill:#0f8a8a;fill-opacity:1;stroke-width:0.0844852" /><path
         d="M 14.931972,33.509175 14.77145,33.348653 c -0.304147,-0.304147 -0.79416,-0.304147 -1.106756,0 l -0.549153,0.549153 1.267278,1.267278 0.549153,-0.549154 c 0.304146,-0.304146 0.304146,-0.802609 0,-1.106755"
         fill="#ed4c5c"
         id="path2-1-2"
         style="fill:#f07109;fill-opacity:1;stroke-width:0.0844852" /><path
         fill="#93a2aa"
         d="m 12.77608,34.24504 0.346389,-0.346558 1.260518,1.260519 -0.346389,0.346473 z"
         id="path3-6"
         style="stroke-width:0.0844852" /><path
         fill="#c7d3d8"
         d="m 12.907539,34.376415 0.346389,-0.346474 0.991771,0.991687 -0.346558,0.346389 z"
         id="path4-6"
         style="stroke-width:0.0844852" /><path
         fill="#fed0ac"
         d="M 10.420465,36.592883 9.8713106,38.02913 10.251495,38.409314 11.687742,37.86016 Z"
         id="path5-4"
         style="stroke-width:0.0844852" /><path
         d="m 9.7783776,38.282586 c -0.07604,0.202764 0.02534,0.295698 0.2281104,0.219661 l 0.692778,-0.261904 -0.650536,-0.650536 -0.2703524,0.692779"
         fill="#333333"
         id="path6-7-9"
         style="fill:#f07109;fill-opacity:1;stroke-width:0.0844852" /><path
         fill="#ffdf85"
         d="m 10.41962,36.599219 2.353756,-2.353756 0.418202,0.418201 -2.353757,2.353757 z"
         id="path7-2-5"
         style="fill:#17b5b5;fill-opacity:1;stroke-width:0.0844852" /><path
         fill="#ff8736"
         d="m 11.265654,37.441282 2.353757,-2.353756 0.418201,0.418202 -2.353756,2.353756 z"
         id="path8-0"
         style="fill:#0d7474;fill-opacity:1;stroke-width:0.0844852" /><path
         d="m 33.878326,34.624141 v 3.67006 h 0.960149 v -3.67006 z"
         style="font-weight:bold;font-size:6.94737px;font-family:'Roboto Condensed';-inkscape-font-specification:'Roboto Condensed,  Bold';letter-spacing:0px;fill:#f07109;fill-opacity:1;stroke-width:1.95394;stroke-linecap:square;stroke-linejoin:round"
         id="path106" /><path
         d="m 33.878326,34.624141 h 0.960149 v 3.67006 h -0.960149 z"
         style="font-weight:bold;font-size:6.94737px;font-family:'Roboto Condensed';-inkscape-font-specification:'Roboto Condensed,  Bold';letter-spacing:0px;fill:#f07109;fill-opacity:1;stroke-width:1.95394;stroke-linecap:square;stroke-linejoin:round"
         id="path105" /><path
         d="m 30.085793,34.624141 v 3.67006 h 0.963766 v -3.67006 z"
         style="font-weight:bold;font-size:6.94737px;font-family:'Roboto Condensed';-inkscape-font-specification:'Roboto Condensed,  Bold';letter-spacing:0px;fill:#f07109;fill-opacity:1;stroke-width:1.95394;stroke-linecap:square;stroke-linejoin:round"
         id="path104" /><path
         d="m 30.085793,34.624141 h 0.963766 v 3.67006 h -0.963766 z"
         style="font-weight:bold;font-size:6.94737px;font-family:'Roboto Condensed';-inkscape-font-specification:'Roboto Condensed,  Bold';letter-spacing:0px;fill:#f07109;fill-opacity:1;stroke-width:1.95394;stroke-linecap:square;stroke-linejoin:round"
         id="path103" /><path
         d="m 40.096552,34.555928 c -0.411595,0 -0.739677,0.115558 -0.98392,0.346232 -0.241981,0.228413 -0.362768,0.503105 -0.362768,0.824239 h 0.960148 c 0,-0.280427 0.119947,-0.420646 0.359668,-0.420646 0.221628,0 0.332279,0.150355 0.332279,0.451136 v 0.295072 h -0.257865 c -0.49301,0 -0.859437,0.109812 -1.099158,0.329179 -0.23972,0.217105 -0.359668,0.512068 -0.359668,0.885217 0,0.332442 0.103228,0.598354 0.309025,0.797367 0.208059,0.199013 0.460286,0.29869 0.756543,0.29869 0.291735,0 0.524529,-0.117753 0.698666,-0.35295 0.02035,0.113076 0.04721,0.207846 0.08113,0.284737 h 0.966866 v -0.05736 c -0.08366,-0.169614 -0.127757,-0.41745 -0.13229,-0.743107 v -1.72341 c 0,-0.429687 -0.120787,-0.739175 -0.362769,-0.929142 -0.239719,-0.189967 -0.541784,-0.285254 -0.905887,-0.285254 z m 0.07803,2.069641 h 0.227376 v 0.763261 c -0.03618,0.0588 -0.09177,0.109477 -0.166398,0.152446 -0.07463,0.04297 -0.163654,0.06459 -0.267684,0.06459 -0.214844,0 -0.322461,-0.135829 -0.322461,-0.40721 0,-0.160568 0.04274,-0.296397 0.128675,-0.407211 0.08594,-0.110814 0.219572,-0.165881 0.400492,-0.165881 z"
         style="font-weight:bold;font-size:6.94737px;font-family:'Roboto Condensed';-inkscape-font-specification:'Roboto Condensed,  Bold';letter-spacing:0px;fill:#f07109;fill-opacity:1;stroke-width:1.95394;stroke-linecap:square;stroke-linejoin:round"
         id="path102" /><path
         d="m 36.934987,34.555928 c -0.490747,0 -0.855819,0.155261 -1.09554,0.465088 -0.23972,0.309827 -0.359668,0.745009 -0.359668,1.305864 v 0.295072 c 0.0045,0.551809 0.126666,0.980406 0.366386,1.28571 0.23972,0.303042 0.603953,0.454752 1.09244,0.454752 0.368626,0 0.677276,-0.119108 0.926041,-0.356567 0.251024,-0.237459 0.377556,-0.565023 0.379822,-0.983403 h -0.90227 c 0,0.361842 -0.140219,0.542603 -0.420646,0.542603 -0.217107,0 -0.35158,-0.0816 -0.403593,-0.24443 -0.05201,-0.162828 -0.07803,-0.405758 -0.07803,-0.729154 V 36.32688 c 0,-0.314351 0.02602,-0.555085 0.07803,-0.722437 0.05428,-0.167352 0.186554,-0.251147 0.396875,-0.251147 0.28495,0 0.427364,0.213878 0.427364,0.641304 h 0.90227 c -0.0023,-0.470394 -0.123565,-0.828043 -0.363285,-1.072286 -0.237459,-0.244243 -0.552693,-0.366386 -0.946196,-0.366386 z"
         style="font-weight:bold;font-size:6.94737px;font-family:'Roboto Condensed';-inkscape-font-specification:'Roboto Condensed,  Bold';letter-spacing:0px;fill:#f07109;fill-opacity:1;stroke-width:1.95394;stroke-linecap:square;stroke-linejoin:round"
         id="path100" /><path
         d="m 36.934987,34.555928 c 0.393503,0 0.708737,0.122143 0.946196,0.366386 0.23972,0.244243 0.361023,0.601892 0.363285,1.072286 h -0.90227 c 0,-0.427426 -0.142414,-0.641304 -0.427364,-0.641304 -0.210321,0 -0.342599,0.0838 -0.396875,0.251147 -0.05201,0.167352 -0.07803,0.408086 -0.07803,0.722437 v 0.264583 c 0,0.323396 0.02602,0.566326 0.07803,0.729154 0.05201,0.162829 0.186486,0.24443 0.403593,0.24443 0.280427,0 0.420646,-0.180761 0.420646,-0.542603 h 0.90227 c -0.0023,0.41838 -0.128798,0.745944 -0.379822,0.983403 -0.248765,0.237459 -0.557415,0.356567 -0.926041,0.356567 -0.488487,0 -0.85272,-0.15171 -1.09244,-0.454752 -0.23972,-0.305304 -0.361863,-0.733901 -0.366386,-1.28571 V 36.32688 c 0,-0.560855 0.119948,-0.996037 0.359668,-1.305864 0.239721,-0.309827 0.604793,-0.465088 1.09554,-0.465088 z"
         style="font-weight:bold;font-size:6.94737px;font-family:'Roboto Condensed';-inkscape-font-specification:'Roboto Condensed,  Bold';letter-spacing:0px;fill:#f07109;fill-opacity:1;stroke-width:1.95394;stroke-linecap:square;stroke-linejoin:round"
         id="path99" /><path
         d="m 24.516107,34.555928 c -0.452302,0 -0.812985,0.153905 -1.082104,0.461471 -0.266859,0.305304 -0.400493,0.746231 -0.400493,1.322917 v 0.240812 c 0,0.576685 0.134474,1.017612 0.403593,1.322916 0.26912,0.305304 0.631158,0.45837 1.085722,0.45837 0.452302,0 0.811629,-0.153066 1.078487,-0.45837 0.26912,-0.305304 0.403593,-0.746231 0.403593,-1.322916 v -0.240812 c 0,-0.576686 -0.134473,-1.017613 -0.403593,-1.322917 -0.266858,-0.307566 -0.628379,-0.461471 -1.085205,-0.461471 z m 0,0.797368 c 0.352796,0 0.529167,0.32892 0.529167,0.98702 v 0.30179 c -0.01131,0.615131 -0.185484,0.922941 -0.522449,0.922941 -0.352796,0 -0.529166,-0.328081 -0.529166,-0.983919 v -0.301791 c 0.01131,-0.617392 0.185483,-0.926041 0.522448,-0.926041 z"
         style="font-weight:bold;font-size:6.94737px;font-family:'Roboto Condensed';-inkscape-font-specification:'Roboto Condensed,  Bold';letter-spacing:0px;fill:#f07109;fill-opacity:1;stroke-width:1.95394;stroke-linecap:square;stroke-linejoin:round"
         id="path98" /><path
         d="m 17.921161,33.354968 v 4.939233 h 1.000972 v -1.336352 l -0.09147,-2.04587 0.983403,3.382222 h 0.682129 l 0.983402,-3.382222 -0.09147,2.04587 v 1.336352 h 1.000972 v -4.939233 h -1.302757 l -0.929659,3.568774 -0.932759,-3.568774 z"
         style="font-weight:bold;font-size:6.94737px;font-family:'Roboto Condensed';-inkscape-font-specification:'Roboto Condensed,  Bold';letter-spacing:0px;fill:#f07109;fill-opacity:1;stroke-width:1.95394;stroke-linecap:square;stroke-linejoin:round"
         id="path97" /><path
         d="m 30.567934,33.161698 c -0.160567,0 -0.288455,0.04848 -0.383439,0.145728 -0.09498,0.09498 -0.142627,0.217126 -0.142627,0.366386 0,0.146998 0.04764,0.269141 0.142627,0.366385 0.09498,0.09498 0.222872,0.142627 0.383439,0.142627 0.158306,0 0.284839,-0.04764 0.379822,-0.142627 0.09498,-0.09724 0.14211,-0.219387 0.14211,-0.366385 0,-0.14926 -0.04713,-0.271403 -0.14211,-0.366386 -0.09498,-0.09725 -0.221516,-0.145728 -0.379822,-0.145728 z"
         style="font-weight:bold;font-size:6.94737px;font-family:'Roboto Condensed';-inkscape-font-specification:'Roboto Condensed,  Bold';letter-spacing:0px;fill:#f07109;fill-opacity:1;stroke-width:1.95394;stroke-linecap:square;stroke-linejoin:round"
         id="path96" /><path
         d="m 28.372719,33.083667 v 1.838647 c -0.185443,-0.244243 -0.421789,-0.366386 -0.709,-0.366386 -0.398027,0 -0.69654,0.150354 -0.895553,0.451135 -0.196751,0.29852 -0.295072,0.745193 -0.295072,1.33997 v 0.261483 c 0.0023,0.567639 0.105489,1.001465 0.309025,1.302246 0.203536,0.300781 0.496304,0.451652 0.878499,0.451652 0.314351,0 0.568771,-0.148159 0.763261,-0.444417 l 0.04393,0.379822 0.868681,-0.0036 v -5.210532 z m -0.430464,2.272729 c 0.192228,0 0.335481,0.09174 0.430464,0.274919 v 1.669149 c -0.09272,0.171874 -0.23733,0.257865 -0.434082,0.257865 -0.19449,0 -0.327607,-0.07721 -0.399975,-0.230994 -0.07011,-0.156044 -0.10542,-0.402524 -0.10542,-0.739489 v -0.240813 c 0,-0.348272 0.03751,-0.600498 0.112138,-0.756542 0.07463,-0.156045 0.206908,-0.234095 0.396875,-0.234095 z"
         style="font-weight:bold;font-size:6.94737px;font-family:'Roboto Condensed';-inkscape-font-specification:'Roboto Condensed,  Bold';letter-spacing:0px;fill:#f07109;fill-opacity:1;stroke-width:1.95394;stroke-linecap:square;stroke-linejoin:round"
         id="path95" /><path
         d="m 33.427191,33.012353 c -0.447779,0 -0.798326,0.123499 -1.051615,0.370003 -0.251029,0.246505 -0.3784,0.602798 -0.382923,1.068669 v 0.173116 h -0.444417 v 0.722437 h 0.444417 v 2.947623 h 0.959632 v -2.947623 h 0.56689 v -0.722437 h -0.56689 v -0.156063 c 0.0023,-0.395764 0.182183,-0.593762 0.539502,-0.593762 0.232935,0 0.489551,0.05068 0.769979,0.152446 l 0.139009,-0.813904 c -0.379933,-0.133429 -0.704463,-0.200505 -0.973584,-0.200505 z"
         style="font-weight:bold;font-size:6.94737px;font-family:'Roboto Condensed';-inkscape-font-specification:'Roboto Condensed,  Bold';letter-spacing:0px;fill:#f07109;fill-opacity:1;stroke-width:1.95394;stroke-linecap:square;stroke-linejoin:round"
         id="path94" /></g></g></svg>
