<?xml version="1.0" encoding="UTF-8" standalone="no"?>
<!-- Created with Inkscape (http://www.inkscape.org/) -->

<svg
   width="256"
   height="54"
   viewBox="0 0 67.733332 14.2875"
   version="1.1"
   id="svg1"
   inkscape:version="1.3.2 (091e20ef0f, 2023-11-25)"
   sodipodi:docname="place-logo-show.svg"
   xml:space="preserve"
   xmlns:inkscape="http://www.inkscape.org/namespaces/inkscape"
   xmlns:sodipodi="http://sodipodi.sourceforge.net/DTD/sodipodi-0.dtd"
   xmlns="http://www.w3.org/2000/svg"
   xmlns:svg="http://www.w3.org/2000/svg"><sodipodi:namedview
     id="namedview1"
     pagecolor="#ffffff"
     bordercolor="#000000"
     borderopacity="0.25"
     inkscape:showpageshadow="false"
     inkscape:pageopacity="0.0"
     inkscape:pagecheckerboard="0"
     inkscape:deskcolor="#d1d1d1"
     inkscape:document-units="px"
     inkscape:zoom="3.026175"
     inkscape:cx="37.671318"
     inkscape:cy="0.49567523"
     inkscape:window-width="2528"
     inkscape:window-height="1404"
     inkscape:window-x="2592"
     inkscape:window-y="0"
     inkscape:window-maximized="1"
     inkscape:current-layer="layer1" /><defs
     id="defs1"><inkscape:path-effect
   effect="fillet_chamfer"
   id="path-effect1"
   is_visible="true"
   lpeversion="1"
   nodesatellites_param="F,0,0,1,0,16.416105,0,1 @ F,0,0,1,0,17.56708,0,1 @ F,0,0,1,0,16.166174,0,1 @ F,0,0,1,0,12.027104,0,1"
   radius="0"
   unit="px"
   method="auto"
   mode="F"
   chamfer_steps="1"
   flexible="false"
   use_knot_distance="true"
   apply_no_radius="true"
   apply_with_radius="true"
   only_selected="false"
   hide_knots="false" />
	
	
	
	
	

		
		
	
	
	
	
	
	
	
	
	
	
	
	
	
	
	
	
	
	
	
	
	
	
	
	
	
	
	
	
	
	
	
	
	
	
	
	
	
	
	
	
	
	
	
	
	
<style
   id="style1">.cls-1{fill:#ffffff;}.cls-2{fill:#e5e5e5;}.cls-3{fill:#426572;}.cls-4{fill:#fbc907;}.cls-5{fill:#f3a70f;}.cls-6{fill:#f9f9f9;}.cls-7{opacity:0.5;}.cls-8{fill:#7490a8;}</style></defs><g
     inkscape:label="Livello 1"
     inkscape:groupmode="layer"
     id="layer1"><path
       d="m 31.935424,5.1060927 c -0.429616,0 -0.764741,0.1628648 -1.005625,0.4881812 -0.238399,0.3253163 -0.357571,0.8182519 -0.357571,1.478818 v 0.2640747 c 0,0.6307659 0.119177,1.1143058 0.357571,1.4495556 0.240884,0.3327663 0.573838,0.4988868 0.998488,0.4988868 0.32035,0 0.582167,-0.1314511 0.785801,-0.3946844 v 0.3240267 c 0,0.2806164 -0.05705,0.4730957 -0.171293,0.5773956 -0.114232,0.1067829 -0.278184,0.1598722 -0.491749,0.1598722 -0.153967,0 -0.308893,-0.034669 -0.465343,-0.104203 -0.153966,-0.067049 -0.279277,-0.1486675 -0.376128,-0.2455174 l -0.354003,0.7301303 c 0.14155,0.153967 0.3362,0.269169 0.584533,0.346152 0.250816,0.07947 0.469655,0.119191 0.655905,0.119191 0.501634,0 0.906096,-0.126396 1.21403,-0.379696 0.307932,-0.250817 0.461773,-0.65311 0.461773,-1.2068927 V 5.1803191 h -0.953524 l -0.04069,0.3540027 C 32.581425,5.2487388 32.300473,5.1060927 31.935424,5.1060927 Z m 0.30547,0.8792971 c 0.2086,0 0.36641,0.084503 0.473194,0.253369 V 8.167931 c -0.104303,0.1564499 -0.264281,0.2348124 -0.480331,0.2348124 -0.404783,0 -0.607371,-0.3553443 -0.607371,-1.0655768 V 7.0730919 c 0,-0.382433 0.04983,-0.6594148 0.149166,-0.8307646 0.101817,-0.1713497 0.256742,-0.2569375 0.465342,-0.2569375 z"
       style="font-weight:bold;font-size:5.52362px;font-family:'Roboto Condensed';-inkscape-font-specification:'Roboto Condensed,  Bold';letter-spacing:0px;fill:#0d7474;stroke-width:2.14559;stroke-linecap:round;stroke-linejoin:round"
       id="path20" /><path
       d="m 28.411811,5.1060927 c -0.496665,0 -0.892818,0.1690047 -1.188335,0.5067378 -0.293033,0.3352496 -0.439648,0.8191611 -0.439648,1.4524106 v 0.2647882 c 0,0.6332495 0.1477,1.1171608 0.443217,1.4524106 0.295515,0.3352497 0.692755,0.5031691 1.191904,0.5031691 0.496666,0 0.891733,-0.1679194 1.184768,-0.5031691 0.295514,-0.3352498 0.443216,-0.8191611 0.443216,-1.4524106 V 7.0652411 c 0,-0.6332495 -0.147702,-1.117161 -0.443216,-1.4524106 C 29.310682,5.2750974 28.913445,5.1060927 28.411811,5.1060927 Z m 0,0.8757285 c 0.387401,0 0.580964,0.3607704 0.580964,1.0834199 v 0.3318775 c -0.01243,0.675466 -0.203809,1.0134756 -0.573826,1.0134756 -0.387399,0 -0.580964,-0.3603988 -0.580964,-1.0805649 V 6.9981518 c 0.01243,-0.6779494 0.203811,-1.0163306 0.573826,-1.0163306 z"
       style="font-weight:bold;font-size:5.52362px;font-family:'Roboto Condensed';-inkscape-font-specification:'Roboto Condensed,  Bold';letter-spacing:0px;fill:#0d7474;stroke-width:2.14559;stroke-linecap:round;stroke-linejoin:round"
       id="path19" /><path
       d="m 23.126037,5.1803191 v 2.6079154 c 0,0.5314328 0.104012,0.9135073 0.312608,1.1469405 0.208599,0.2334332 0.47944,0.350434 0.812207,0.350434 0.370015,0 0.664332,-0.1487859 0.882866,-0.4467856 l 0.02641,0.3725594 h 0.990637 V 5.1803191 h -1.057726 v 2.909817 c -0.106789,0.2085999 -0.281928,0.3126073 -0.525294,0.3126073 -0.258266,0 -0.387547,-0.2047593 -0.387547,-0.6145089 V 5.1803191 Z"
       style="font-weight:bold;font-size:5.52362px;font-family:'Roboto Condensed';-inkscape-font-specification:'Roboto Condensed,  Bold';letter-spacing:0px;fill:#0d7474;stroke-width:2.14559;stroke-linecap:round;stroke-linejoin:round"
       id="path21" /><path
       d="m 19.602424,3.7878606 v 5.4235222 h 3.016875 V 8.3021095 H 20.700833 V 3.7878606 Z"
       style="font-weight:bold;font-size:5.52362px;font-family:'Roboto Condensed';-inkscape-font-specification:'Roboto Condensed,  Bold';letter-spacing:0px;fill:#0d7474;stroke-width:2.14559;stroke-linecap:round;stroke-linejoin:round"
       id="path18" /><g
       id="g26"
       transform="matrix(0.02583822,0,0,0.02583822,0.5073592,0.52916561)"><path
         style="fill:#326e7d"
         d="m 461.644,205.363 c -4.662,0 -8.44,3.778 -8.44,8.44 v 56.264 h 16.879 v -56.264 c 10e-4,-4.663 -3.777,-8.44 -8.439,-8.44 z"
         id="path1" /><path
         style="fill:#4393a8"
         d="m 50.356,171.604 c -4.662,0 -8.44,3.778 -8.44,8.44 v 56.264 h 16.879 v -56.264 c 10e-4,-4.662 -3.777,-8.44 -8.439,-8.44 z"
         id="path2" /><path
         style="fill:#b3efff"
         d="M 400.316,56.264 H 366.558 V 0 h 33.758 c 15.54,0 28.132,12.592 28.132,28.132 0,15.54 -12.591,28.132 -28.132,28.132 z"
         id="path3" /><path
         style="fill:#d9f7ff"
         d="M 366.558,0 H 169.635 c -15.54,0 -28.132,12.592 -28.132,28.132 H 28.976 c -15.54,0 -28.132,12.592 -28.132,28.132 0,15.54 12.592,28.132 28.132,28.132 h 199.736 c 15.54,0 28.132,-12.592 28.132,-28.132 h 109.714 c 15.54,0 28.132,-12.592 28.132,-28.132 C 394.69,12.592 382.098,0 366.558,0 Z"
         id="path4" /><polygon
         style="fill:#e86c16"
         points="511.156,512 511.156,444.484 466.145,421.978 488.651,512 "
         id="polygon4" /><polygon
         style="fill:#ffa850"
         points="488.651,512 488.651,421.978 389.626,421.978 412.132,512 "
         id="polygon5" /><polygon
         style="fill:#66defe"
         points="488.651,247.56 454.892,346.022 488.651,444.484 511.156,444.484 511.156,247.56 "
         id="polygon6" /><rect
         x="389.62601"
         y="247.56"
         style="fill:#8ce6fe"
         width="99.024002"
         height="196.923"
         id="rect6" /><path
         style="fill:#875b51"
         d="m 461.644,469.802 c -4.662,0 -8.44,3.778 -8.44,8.44 V 512 h 16.879 v -33.758 c 10e-4,-4.662 -3.777,-8.44 -8.439,-8.44 z"
         id="path6" /><g
         id="g9">
	<path
   style="fill:#ffffff"
   d="m 461.644,402.286 c -4.662,0 -8.44,-3.778 -8.44,-8.44 v -11.253 c 0,-4.662 3.778,-8.44 8.44,-8.44 4.662,0 8.44,3.778 8.44,8.44 v 11.253 c 0,4.662 -3.778,8.44 -8.44,8.44 z"
   id="path7" />
	<path
   style="fill:#ffffff"
   d="m 461.644,357.275 c -4.662,0 -8.44,-3.778 -8.44,-8.44 v -11.253 c 0,-4.662 3.778,-8.44 8.44,-8.44 4.662,0 8.44,3.778 8.44,8.44 v 11.253 c 0,4.662 -3.778,8.44 -8.44,8.44 z"
   id="path8" />
	<path
   style="fill:#ffffff"
   d="m 461.644,312.264 c -4.662,0 -8.44,-3.778 -8.44,-8.44 v -11.253 c 0,-4.662 3.778,-8.44 8.44,-8.44 4.662,0 8.44,3.778 8.44,8.44 v 11.253 c 0,4.662 -3.778,8.44 -8.44,8.44 z"
   id="path9" />
</g><polygon
         style="fill:#705147"
         points="412.132,512 389.626,512 344.615,365.152 389.626,206.128 412.132,213.802 "
         id="polygon9" /><polygon
         style="fill:#875b51"
         points="389.626,512 313.108,512 290.602,202.549 313.108,180.044 389.626,206.128 "
         id="polygon10" /><g
         id="g13">
	<path
   style="fill:#ffffff"
   d="m 362.62,402.286 c -4.662,0 -8.44,-3.778 -8.44,-8.44 v -11.253 c 0,-4.662 3.778,-8.44 8.44,-8.44 4.662,0 8.44,3.778 8.44,8.44 v 11.253 c -10e-4,4.662 -3.778,8.44 -8.44,8.44 z"
   id="path10" />
	<path
   style="fill:#ffffff"
   d="m 362.62,357.275 c -4.662,0 -8.44,-3.778 -8.44,-8.44 v -11.253 c 0,-4.662 3.778,-8.44 8.44,-8.44 4.662,0 8.44,3.778 8.44,8.44 v 11.253 c -10e-4,4.662 -3.778,8.44 -8.44,8.44 z"
   id="path11" />
	<path
   style="fill:#ffffff"
   d="m 362.62,312.264 c -4.662,0 -8.44,-3.778 -8.44,-8.44 v -11.253 c 0,-4.662 3.778,-8.44 8.44,-8.44 4.662,0 8.44,3.778 8.44,8.44 v 11.253 c -10e-4,4.662 -3.778,8.44 -8.44,8.44 z"
   id="path12" />
	<path
   style="fill:#ffffff"
   d="m 362.62,267.253 c -4.662,0 -8.44,-3.778 -8.44,-8.44 V 247.56 c 0,-4.662 3.778,-8.44 8.44,-8.44 4.662,0 8.44,3.778 8.44,8.44 v 11.253 c -10e-4,4.662 -3.778,8.44 -8.44,8.44 z"
   id="path13" />
</g><polygon
         style="fill:#875b51"
         points="77.363,512 99.868,376.967 0.844,399.473 0.844,512 "
         id="polygon13" /><polygon
         style="fill:#705147"
         points="99.868,512 122.374,376.967 77.363,376.967 77.363,512 "
         id="polygon14" /><polygon
         style="fill:#8ce6fe"
         points="77.363,213.802 43.604,306.637 77.363,399.473 122.374,399.473 122.374,213.802 "
         id="polygon15" /><rect
         x="0.84399998"
         y="213.802"
         style="fill:#b3efff"
         width="76.518997"
         height="185.67"
         id="rect15" /><path
         style="fill:#4d392f"
         d="m 50.356,469.802 c -4.662,0 -8.44,3.778 -8.44,8.44 V 512 h 16.879 v -33.758 c 10e-4,-4.662 -3.777,-8.44 -8.439,-8.44 z"
         id="path15" /><g
         id="g19">
	<path
   style="fill:#ffffff"
   d="m 50.356,452.923 c -4.662,0 -8.44,-3.778 -8.44,-8.44 V 433.23 c 0,-4.662 3.778,-8.44 8.44,-8.44 4.662,0 8.44,3.778 8.44,8.44 v 11.253 c 0,4.663 -3.778,8.44 -8.44,8.44 z"
   id="path16-5" />
	<path
   style="fill:#ffffff"
   d="m 50.356,357.275 c -4.662,0 -8.44,-3.778 -8.44,-8.44 v -11.253 c 0,-4.662 3.778,-8.44 8.44,-8.44 4.662,0 8.44,3.778 8.44,8.44 v 11.253 c 0,4.662 -3.778,8.44 -8.44,8.44 z"
   id="path17-6" />
	<path
   style="fill:#ffffff"
   d="m 50.356,312.264 c -4.662,0 -8.44,-3.778 -8.44,-8.44 v -11.253 c 0,-4.662 3.778,-8.44 8.44,-8.44 4.662,0 8.44,3.778 8.44,8.44 v 11.253 c 0,4.662 -3.778,8.44 -8.44,8.44 z"
   id="path18-2" />
	<path
   style="fill:#ffffff"
   d="m 50.356,267.253 c -4.662,0 -8.44,-3.778 -8.44,-8.44 V 247.56 c 0,-4.662 3.778,-8.44 8.44,-8.44 4.662,0 8.44,3.778 8.44,8.44 v 11.253 c 0,4.662 -3.778,8.44 -8.44,8.44 z"
   id="path19-9" />
</g><polygon
         style="fill:#ffd686"
         points="142.629,317.89 176.387,512 198.892,512 221.398,123.78 176.387,123.78 "
         id="polygon19" /><rect
         x="99.867996"
         y="123.78"
         style="fill:#ffedc6"
         width="76.518997"
         height="388.22"
         id="rect19" /><g
         id="g24">
	<path
   style="fill:#ffffff"
   d="m 149.38,357.275 c -4.662,0 -8.44,-3.778 -8.44,-8.44 v -11.253 c 0,-4.662 3.778,-8.44 8.44,-8.44 4.662,0 8.44,3.778 8.44,8.44 v 11.253 c 0,4.662 -3.778,8.44 -8.44,8.44 z"
   id="path20-1" />
	<path
   style="fill:#ffffff"
   d="m 149.38,312.264 c -4.662,0 -8.44,-3.778 -8.44,-8.44 v -11.253 c 0,-4.662 3.778,-8.44 8.44,-8.44 4.662,0 8.44,3.778 8.44,8.44 v 11.253 c 0,4.662 -3.778,8.44 -8.44,8.44 z"
   id="path21-2" />
	<path
   style="fill:#ffffff"
   d="m 149.38,267.253 c -4.662,0 -8.44,-3.778 -8.44,-8.44 V 247.56 c 0,-4.662 3.778,-8.44 8.44,-8.44 4.662,0 8.44,3.778 8.44,8.44 v 11.253 c 0,4.662 -3.778,8.44 -8.44,8.44 z"
   id="path22-7" />
	<path
   style="fill:#ffffff"
   d="m 149.38,222.242 c -4.662,0 -8.44,-3.778 -8.44,-8.44 v -11.253 c 0,-4.662 3.778,-8.44 8.44,-8.44 4.662,0 8.44,3.778 8.44,8.44 v 11.253 c 0,4.662 -3.778,8.44 -8.44,8.44 z"
   id="path23" />
	<path
   style="fill:#ffffff"
   d="m 149.38,177.231 c -4.662,0 -8.44,-3.778 -8.44,-8.44 v -11.253 c 0,-4.662 3.778,-8.44 8.44,-8.44 4.662,0 8.44,3.778 8.44,8.44 v 11.253 c 0,4.662 -3.778,8.44 -8.44,8.44 z"
   id="path24" />
</g><path
         style="fill:#b3efff"
         d="m 483.024,90.022 h -33.758 v 56.264 h 33.758 c 15.54,0 28.132,-12.592 28.132,-28.132 0,-15.54 -12.592,-28.132 -28.132,-28.132 z"
         id="path25" /><path
         style="fill:#d9f7ff"
         d="m 449.266,90.022 h -50.637 c -15.54,0 -28.132,12.592 -28.132,28.132 0,15.54 12.592,28.132 28.132,28.132 h 50.637 c 15.54,0 28.132,-12.592 28.132,-28.132 0,-15.54 -12.592,-28.132 -28.132,-28.132 z"
         id="path26" /><path
         style="fill:#4393a8"
         d="m 290.602,84.396 c 0,-18.645 -15.114,-33.758 -33.758,-33.758 L 234.339,180.045 314.796,157.54 V 84.396 Z"
         id="path27" /><path
         style="fill:#55b9d3"
         d="m 223.086,84.396 h -24.193 v 73.143 l 57.952,22.505 V 50.637 c -18.646,0 -33.759,15.114 -33.759,33.759 z"
         id="path28" /><polygon
         style="fill:#4393a8"
         points="256.844,393.846 198.892,416.352 198.892,450.11 281.037,512 314.796,512 314.796,416.352 "
         id="polygon28" /><g
         id="g29">
	<rect
   x="198.892"
   y="450.10999"
   style="fill:#55b9d3"
   width="82.144997"
   height="61.889999"
   id="rect28" />
	<polygon
   style="fill:#55b9d3"
   points="281.037,157.538 258.532,286.945 281.037,416.352 314.796,416.352 314.796,157.538 "
   id="polygon29" />
</g><rect
         x="198.892"
         y="157.53799"
         style="fill:#66defe"
         width="82.144997"
         height="258.81299"
         id="rect29" /><circle
         style="fill:#326e7d"
         cx="256.84399"
         cy="84.396004"
         r="8.4399996"
         id="circle29" /><g
         id="g33">
	<path
   style="fill:#ffffff"
   d="m 256.844,391.033 c -4.662,0 -8.44,-3.778 -8.44,-8.44 V 371.34 c 0,-4.662 3.778,-8.44 8.44,-8.44 4.662,0 8.44,3.778 8.44,8.44 v 11.253 c 0,4.662 -3.778,8.44 -8.44,8.44 z"
   id="path29" />
	<path
   style="fill:#ffffff"
   d="m 256.844,346.022 c -4.662,0 -8.44,-3.778 -8.44,-8.44 V 326.33 c 0,-4.662 3.778,-8.44 8.44,-8.44 4.662,0 8.44,3.778 8.44,8.44 v 11.253 c 0,4.661 -3.778,8.439 -8.44,8.439 z"
   id="path30" />
	<path
   style="fill:#ffffff"
   d="m 256.844,301.011 c -4.662,0 -8.44,-3.778 -8.44,-8.44 v -11.253 c 0,-4.662 3.778,-8.44 8.44,-8.44 4.662,0 8.44,3.778 8.44,8.44 v 11.253 c 0,4.662 -3.778,8.44 -8.44,8.44 z"
   id="path31" />
	<path
   style="fill:#ffffff"
   d="m 256.844,256 c -4.662,0 -8.44,-3.778 -8.44,-8.44 v -11.253 c 0,-4.662 3.778,-8.44 8.44,-8.44 4.662,0 8.44,3.778 8.44,8.44 v 11.253 c 0,4.662 -3.778,8.44 -8.44,8.44 z"
   id="path32" />
	<path
   style="fill:#ffffff"
   d="m 256.844,210.989 c -4.662,0 -8.44,-3.778 -8.44,-8.44 v -11.253 c 0,-4.662 3.778,-8.44 8.44,-8.44 4.662,0 8.44,3.778 8.44,8.44 v 11.253 c 0,4.662 -3.778,8.44 -8.44,8.44 z"
   id="path33" />
</g><path
         style="fill:#66defe"
         d="M 281.037,132.22 H 232.65 c -4.662,0 -8.44,-3.778 -8.44,-8.44 0,-4.662 3.778,-8.44 8.44,-8.44 h 48.387 c 4.662,0 8.44,3.778 8.44,8.44 0,4.662 -3.778,8.44 -8.44,8.44 z"
         id="path34" /><path
         style="fill:#b3efff"
         d="m 317.609,424.791 h -121.53 c -4.662,0 -8.44,-3.778 -8.44,-8.44 0,-4.662 3.778,-8.44 8.44,-8.44 h 121.53 c 4.662,0 8.44,3.778 8.44,8.44 0,4.662 -3.778,8.44 -8.44,8.44 z"
         id="path35" /><path
         style="fill:#326e7d"
         d="m 256.844,469.802 c -4.662,0 -8.44,3.778 -8.44,8.44 V 512 h 16.879 v -33.758 c 10e-4,-4.662 -3.777,-8.44 -8.439,-8.44 z"
         id="path36" /></g><path
       d="m 35.925091,5.1060927 c -0.496665,0 -0.892818,0.1690047 -1.188335,0.5067378 -0.293033,0.3352496 -0.439648,0.8191611 -0.439648,1.4524106 v 0.2647882 c 0,0.6332495 0.1477,1.1171608 0.443217,1.4524106 0.295515,0.3352497 0.692755,0.5031691 1.191904,0.5031691 0.496666,0 0.891733,-0.1679194 1.184768,-0.5031691 0.295514,-0.3352498 0.443216,-0.8191611 0.443216,-1.4524106 V 7.0652411 c 0,-0.6332495 -0.147702,-1.117161 -0.443216,-1.4524106 C 36.823962,5.2750974 36.426725,5.1060927 35.925091,5.1060927 Z m 0,0.8757285 c 0.387401,0 0.580964,0.3607704 0.580964,1.0834199 v 0.3318775 c -0.01243,0.675466 -0.203809,1.0134756 -0.573826,1.0134756 -0.387399,0 -0.580964,-0.3603988 -0.580964,-1.0805649 V 6.9981518 c 0.01243,-0.6779494 0.203811,-1.0163306 0.573826,-1.0163306 z"
       style="font-weight:bold;font-size:5.52362px;font-family:'Roboto Condensed';-inkscape-font-specification:'Roboto Condensed,  Bold';letter-spacing:0px;fill:#0d7474;stroke-width:2.14559;stroke-linecap:round;stroke-linejoin:round"
       id="path5" /></g></svg>
