<?xml version="1.0" encoding="UTF-8" standalone="no"?>
<!-- Created with Inkscape (http://www.inkscape.org/) -->

<svg
   width="290"
   height="54"
   viewBox="0 0 76.729165 14.2875"
   version="1.1"
   id="svg1"
   inkscape:version="1.3.2 (091e20ef0f, 2023-11-25)"
   sodipodi:docname="place-logo-edit.svg"
   xml:space="preserve"
   xmlns:inkscape="http://www.inkscape.org/namespaces/inkscape"
   xmlns:sodipodi="http://sodipodi.sourceforge.net/DTD/sodipodi-0.dtd"
   xmlns="http://www.w3.org/2000/svg"
   xmlns:svg="http://www.w3.org/2000/svg"><sodipodi:namedview
     id="namedview1"
     pagecolor="#ffffff"
     bordercolor="#000000"
     borderopacity="0.25"
     inkscape:showpageshadow="false"
     inkscape:pageopacity="0.0"
     inkscape:pagecheckerboard="0"
     inkscape:deskcolor="#d1d1d1"
     inkscape:document-units="px"
     inkscape:zoom="3.026175"
     inkscape:cx="156.30292"
     inkscape:cy="45.767347"
     inkscape:window-width="2528"
     inkscape:window-height="1404"
     inkscape:window-x="2592"
     inkscape:window-y="0"
     inkscape:window-maximized="1"
     inkscape:current-layer="layer1" /><defs
     id="defs1"><inkscape:path-effect
   effect="fillet_chamfer"
   id="path-effect1"
   is_visible="true"
   lpeversion="1"
   nodesatellites_param="F,0,0,1,0,16.416105,0,1 @ F,0,0,1,0,17.56708,0,1 @ F,0,0,1,0,16.166174,0,1 @ F,0,0,1,0,12.027104,0,1"
   radius="0"
   unit="px"
   method="auto"
   mode="F"
   chamfer_steps="1"
   flexible="false"
   use_knot_distance="true"
   apply_no_radius="true"
   apply_with_radius="true"
   only_selected="false"
   hide_knots="false" />
	
	
	
	
	

		
		
	
	
	
	
	
	
	
	
	
	
	
	
	
	
	
	
	
	
	
	
	
	
	
	
	
	
	
	
	
	
	
	
	
	
	
	
	
	
	
	
	
	
	
	
	
<style
   id="style1">.cls-1{fill:#ffffff;}.cls-2{fill:#e5e5e5;}.cls-3{fill:#426572;}.cls-4{fill:#fbc907;}.cls-5{fill:#f3a70f;}.cls-6{fill:#f9f9f9;}.cls-7{opacity:0.5;}.cls-8{fill:#7490a8;}</style><style
   id="style1-54">.cls-1{fill:#ffffff;}.cls-2{fill:#e5e5e5;}.cls-3{fill:#426572;}.cls-4{fill:#fbc907;}.cls-5{fill:#f3a70f;}.cls-6{fill:#f9f9f9;}.cls-7{opacity:0.5;}.cls-8{fill:#7490a8;}</style><style
   id="style1-5">.cls-1{fill:#ffffff;}.cls-2{fill:#e5e5e5;}.cls-3{fill:#426572;}.cls-4{fill:#fbc907;}.cls-5{fill:#f3a70f;}.cls-6{fill:#f9f9f9;}.cls-7{opacity:0.5;}.cls-8{fill:#7490a8;}</style><style
   id="style1-6">.cls-1{fill:#ffffff;}.cls-2{fill:#e5e5e5;}.cls-3{fill:#426572;}.cls-4{fill:#fbc907;}.cls-5{fill:#f3a70f;}.cls-6{fill:#f9f9f9;}.cls-7{opacity:0.5;}.cls-8{fill:#7490a8;}</style><style
   id="style1-8">.cls-1{fill:#ffffff;}.cls-2{fill:#e5e5e5;}.cls-3{fill:#426572;}.cls-4{fill:#fbc907;}.cls-5{fill:#f3a70f;}.cls-6{fill:#f9f9f9;}.cls-7{opacity:0.5;}.cls-8{fill:#7490a8;}</style><style
   id="style1-5-6">.cls-1{fill:#ffffff;}.cls-2{fill:#e5e5e5;}.cls-3{fill:#426572;}.cls-4{fill:#fbc907;}.cls-5{fill:#f3a70f;}.cls-6{fill:#f9f9f9;}.cls-7{opacity:0.5;}.cls-8{fill:#7490a8;}</style></defs><g
     inkscape:label="Livello 1"
     inkscape:groupmode="layer"
     id="layer1"><g
       id="g26"
       transform="matrix(0.02583822,0,0,0.02583822,0.5073592,0.52916561)"><path
         style="fill:#326e7d"
         d="m 461.644,205.363 c -4.662,0 -8.44,3.778 -8.44,8.44 v 56.264 h 16.879 v -56.264 c 10e-4,-4.663 -3.777,-8.44 -8.439,-8.44 z"
         id="path1" /><path
         style="fill:#4393a8"
         d="m 50.356,171.604 c -4.662,0 -8.44,3.778 -8.44,8.44 v 56.264 h 16.879 v -56.264 c 10e-4,-4.662 -3.777,-8.44 -8.439,-8.44 z"
         id="path2" /><path
         style="fill:#b3efff"
         d="M 400.316,56.264 H 366.558 V 0 h 33.758 c 15.54,0 28.132,12.592 28.132,28.132 0,15.54 -12.591,28.132 -28.132,28.132 z"
         id="path3" /><path
         style="fill:#d9f7ff"
         d="M 366.558,0 H 169.635 c -15.54,0 -28.132,12.592 -28.132,28.132 H 28.976 c -15.54,0 -28.132,12.592 -28.132,28.132 0,15.54 12.592,28.132 28.132,28.132 h 199.736 c 15.54,0 28.132,-12.592 28.132,-28.132 h 109.714 c 15.54,0 28.132,-12.592 28.132,-28.132 C 394.69,12.592 382.098,0 366.558,0 Z"
         id="path4" /><polygon
         style="fill:#e86c16"
         points="511.156,512 511.156,444.484 466.145,421.978 488.651,512 "
         id="polygon4" /><polygon
         style="fill:#ffa850"
         points="488.651,512 488.651,421.978 389.626,421.978 412.132,512 "
         id="polygon5" /><polygon
         style="fill:#66defe"
         points="488.651,444.484 511.156,444.484 511.156,247.56 488.651,247.56 454.892,346.022 "
         id="polygon6" /><rect
         x="389.62601"
         y="247.56"
         style="fill:#8ce6fe"
         width="99.024002"
         height="196.923"
         id="rect6" /><path
         style="fill:#875b51"
         d="m 461.644,469.802 c -4.662,0 -8.44,3.778 -8.44,8.44 V 512 h 16.879 v -33.758 c 10e-4,-4.662 -3.777,-8.44 -8.439,-8.44 z"
         id="path6" /><g
         id="g9">
	<path
   style="fill:#ffffff"
   d="m 461.644,402.286 c -4.662,0 -8.44,-3.778 -8.44,-8.44 v -11.253 c 0,-4.662 3.778,-8.44 8.44,-8.44 4.662,0 8.44,3.778 8.44,8.44 v 11.253 c 0,4.662 -3.778,8.44 -8.44,8.44 z"
   id="path7" />
	<path
   style="fill:#ffffff"
   d="m 461.644,357.275 c -4.662,0 -8.44,-3.778 -8.44,-8.44 v -11.253 c 0,-4.662 3.778,-8.44 8.44,-8.44 4.662,0 8.44,3.778 8.44,8.44 v 11.253 c 0,4.662 -3.778,8.44 -8.44,8.44 z"
   id="path8" />
	<path
   style="fill:#ffffff"
   d="m 461.644,312.264 c -4.662,0 -8.44,-3.778 -8.44,-8.44 v -11.253 c 0,-4.662 3.778,-8.44 8.44,-8.44 4.662,0 8.44,3.778 8.44,8.44 v 11.253 c 0,4.662 -3.778,8.44 -8.44,8.44 z"
   id="path9" />
</g><polygon
         style="fill:#705147"
         points="344.615,365.152 389.626,206.128 412.132,213.802 412.132,512 389.626,512 "
         id="polygon9" /><polygon
         style="fill:#875b51"
         points="290.602,202.549 313.108,180.044 389.626,206.128 389.626,512 313.108,512 "
         id="polygon10" /><g
         id="g13">
	<path
   style="fill:#ffffff"
   d="m 362.62,402.286 c -4.662,0 -8.44,-3.778 -8.44,-8.44 v -11.253 c 0,-4.662 3.778,-8.44 8.44,-8.44 4.662,0 8.44,3.778 8.44,8.44 v 11.253 c -10e-4,4.662 -3.778,8.44 -8.44,8.44 z"
   id="path10" />
	<path
   style="fill:#ffffff"
   d="m 362.62,357.275 c -4.662,0 -8.44,-3.778 -8.44,-8.44 v -11.253 c 0,-4.662 3.778,-8.44 8.44,-8.44 4.662,0 8.44,3.778 8.44,8.44 v 11.253 c -10e-4,4.662 -3.778,8.44 -8.44,8.44 z"
   id="path11" />
	<path
   style="fill:#ffffff"
   d="m 362.62,312.264 c -4.662,0 -8.44,-3.778 -8.44,-8.44 v -11.253 c 0,-4.662 3.778,-8.44 8.44,-8.44 4.662,0 8.44,3.778 8.44,8.44 v 11.253 c -10e-4,4.662 -3.778,8.44 -8.44,8.44 z"
   id="path12" />
	<path
   style="fill:#ffffff"
   d="m 362.62,267.253 c -4.662,0 -8.44,-3.778 -8.44,-8.44 V 247.56 c 0,-4.662 3.778,-8.44 8.44,-8.44 4.662,0 8.44,3.778 8.44,8.44 v 11.253 c -10e-4,4.662 -3.778,8.44 -8.44,8.44 z"
   id="path13" />
</g><polygon
         style="fill:#875b51"
         points="77.363,512 99.868,376.967 0.844,399.473 0.844,512 "
         id="polygon13" /><polygon
         style="fill:#705147"
         points="99.868,512 122.374,376.967 77.363,376.967 77.363,512 "
         id="polygon14" /><polygon
         style="fill:#8ce6fe"
         points="77.363,399.473 122.374,399.473 122.374,213.802 77.363,213.802 43.604,306.637 "
         id="polygon15" /><rect
         x="0.84399998"
         y="213.802"
         style="fill:#b3efff"
         width="76.518997"
         height="185.67"
         id="rect15" /><path
         style="fill:#4d392f"
         d="m 50.356,469.802 c -4.662,0 -8.44,3.778 -8.44,8.44 V 512 h 16.879 v -33.758 c 10e-4,-4.662 -3.777,-8.44 -8.439,-8.44 z"
         id="path15" /><g
         id="g19">
	<path
   style="fill:#ffffff"
   d="m 50.356,452.923 c -4.662,0 -8.44,-3.778 -8.44,-8.44 V 433.23 c 0,-4.662 3.778,-8.44 8.44,-8.44 4.662,0 8.44,3.778 8.44,8.44 v 11.253 c 0,4.663 -3.778,8.44 -8.44,8.44 z"
   id="path16-5" />
	<path
   style="fill:#ffffff"
   d="m 50.356,357.275 c -4.662,0 -8.44,-3.778 -8.44,-8.44 v -11.253 c 0,-4.662 3.778,-8.44 8.44,-8.44 4.662,0 8.44,3.778 8.44,8.44 v 11.253 c 0,4.662 -3.778,8.44 -8.44,8.44 z"
   id="path17-6" />
	<path
   style="fill:#ffffff"
   d="m 50.356,312.264 c -4.662,0 -8.44,-3.778 -8.44,-8.44 v -11.253 c 0,-4.662 3.778,-8.44 8.44,-8.44 4.662,0 8.44,3.778 8.44,8.44 v 11.253 c 0,4.662 -3.778,8.44 -8.44,8.44 z"
   id="path18-2" />
	<path
   style="fill:#ffffff"
   d="m 50.356,267.253 c -4.662,0 -8.44,-3.778 -8.44,-8.44 V 247.56 c 0,-4.662 3.778,-8.44 8.44,-8.44 4.662,0 8.44,3.778 8.44,8.44 v 11.253 c 0,4.662 -3.778,8.44 -8.44,8.44 z"
   id="path19-9" />
</g><polygon
         style="fill:#ffd686"
         points="198.892,512 221.398,123.78 176.387,123.78 142.629,317.89 176.387,512 "
         id="polygon19" /><rect
         x="99.867996"
         y="123.78"
         style="fill:#ffedc6"
         width="76.518997"
         height="388.22"
         id="rect19" /><g
         id="g24">
	<path
   style="fill:#ffffff"
   d="m 149.38,357.275 c -4.662,0 -8.44,-3.778 -8.44,-8.44 v -11.253 c 0,-4.662 3.778,-8.44 8.44,-8.44 4.662,0 8.44,3.778 8.44,8.44 v 11.253 c 0,4.662 -3.778,8.44 -8.44,8.44 z"
   id="path20-1" />
	<path
   style="fill:#ffffff"
   d="m 149.38,312.264 c -4.662,0 -8.44,-3.778 -8.44,-8.44 v -11.253 c 0,-4.662 3.778,-8.44 8.44,-8.44 4.662,0 8.44,3.778 8.44,8.44 v 11.253 c 0,4.662 -3.778,8.44 -8.44,8.44 z"
   id="path21-2" />
	<path
   style="fill:#ffffff"
   d="m 149.38,267.253 c -4.662,0 -8.44,-3.778 -8.44,-8.44 V 247.56 c 0,-4.662 3.778,-8.44 8.44,-8.44 4.662,0 8.44,3.778 8.44,8.44 v 11.253 c 0,4.662 -3.778,8.44 -8.44,8.44 z"
   id="path22-7" />
	<path
   style="fill:#ffffff"
   d="m 149.38,222.242 c -4.662,0 -8.44,-3.778 -8.44,-8.44 v -11.253 c 0,-4.662 3.778,-8.44 8.44,-8.44 4.662,0 8.44,3.778 8.44,8.44 v 11.253 c 0,4.662 -3.778,8.44 -8.44,8.44 z"
   id="path23" />
	<path
   style="fill:#ffffff"
   d="m 149.38,177.231 c -4.662,0 -8.44,-3.778 -8.44,-8.44 v -11.253 c 0,-4.662 3.778,-8.44 8.44,-8.44 4.662,0 8.44,3.778 8.44,8.44 v 11.253 c 0,4.662 -3.778,8.44 -8.44,8.44 z"
   id="path24" />
</g><path
         style="fill:#b3efff"
         d="m 483.024,90.022 h -33.758 v 56.264 h 33.758 c 15.54,0 28.132,-12.592 28.132,-28.132 0,-15.54 -12.592,-28.132 -28.132,-28.132 z"
         id="path25" /><path
         style="fill:#d9f7ff"
         d="m 449.266,90.022 h -50.637 c -15.54,0 -28.132,12.592 -28.132,28.132 0,15.54 12.592,28.132 28.132,28.132 h 50.637 c 15.54,0 28.132,-12.592 28.132,-28.132 0,-15.54 -12.592,-28.132 -28.132,-28.132 z"
         id="path26" /><path
         style="fill:#4393a8"
         d="m 290.602,84.396 c 0,-18.645 -15.114,-33.758 -33.758,-33.758 L 234.339,180.045 314.796,157.54 V 84.396 Z"
         id="path27" /><path
         style="fill:#55b9d3"
         d="m 223.086,84.396 h -24.193 v 73.143 l 57.952,22.505 V 50.637 c -18.646,0 -33.759,15.114 -33.759,33.759 z"
         id="path28" /><polygon
         style="fill:#4393a8"
         points="256.844,393.846 198.892,416.352 198.892,450.11 281.037,512 314.796,512 314.796,416.352 "
         id="polygon28" /><g
         id="g29">
	<rect
   x="198.892"
   y="450.10999"
   style="fill:#55b9d3"
   width="82.144997"
   height="61.889999"
   id="rect28" />
	<polygon
   style="fill:#55b9d3"
   points="281.037,416.352 314.796,416.352 314.796,157.538 281.037,157.538 258.532,286.945 "
   id="polygon29" />
</g><rect
         x="198.892"
         y="157.53799"
         style="fill:#66defe"
         width="82.144997"
         height="258.81299"
         id="rect29" /><circle
         style="fill:#326e7d"
         cx="256.84399"
         cy="84.396004"
         r="8.4399996"
         id="circle29" /><g
         id="g33">
	<path
   style="fill:#ffffff"
   d="m 256.844,391.033 c -4.662,0 -8.44,-3.778 -8.44,-8.44 V 371.34 c 0,-4.662 3.778,-8.44 8.44,-8.44 4.662,0 8.44,3.778 8.44,8.44 v 11.253 c 0,4.662 -3.778,8.44 -8.44,8.44 z"
   id="path29" />
	<path
   style="fill:#ffffff"
   d="m 256.844,346.022 c -4.662,0 -8.44,-3.778 -8.44,-8.44 V 326.33 c 0,-4.662 3.778,-8.44 8.44,-8.44 4.662,0 8.44,3.778 8.44,8.44 v 11.253 c 0,4.661 -3.778,8.439 -8.44,8.439 z"
   id="path30" />
	<path
   style="fill:#ffffff"
   d="m 256.844,301.011 c -4.662,0 -8.44,-3.778 -8.44,-8.44 v -11.253 c 0,-4.662 3.778,-8.44 8.44,-8.44 4.662,0 8.44,3.778 8.44,8.44 v 11.253 c 0,4.662 -3.778,8.44 -8.44,8.44 z"
   id="path31" />
	<path
   style="fill:#ffffff"
   d="m 256.844,256 c -4.662,0 -8.44,-3.778 -8.44,-8.44 v -11.253 c 0,-4.662 3.778,-8.44 8.44,-8.44 4.662,0 8.44,3.778 8.44,8.44 v 11.253 c 0,4.662 -3.778,8.44 -8.44,8.44 z"
   id="path32" />
	<path
   style="fill:#ffffff"
   d="m 256.844,210.989 c -4.662,0 -8.44,-3.778 -8.44,-8.44 v -11.253 c 0,-4.662 3.778,-8.44 8.44,-8.44 4.662,0 8.44,3.778 8.44,8.44 v 11.253 c 0,4.662 -3.778,8.44 -8.44,8.44 z"
   id="path33" />
</g><path
         style="fill:#66defe"
         d="M 281.037,132.22 H 232.65 c -4.662,0 -8.44,-3.778 -8.44,-8.44 0,-4.662 3.778,-8.44 8.44,-8.44 h 48.387 c 4.662,0 8.44,3.778 8.44,8.44 0,4.662 -3.778,8.44 -8.44,8.44 z"
         id="path34" /><path
         style="fill:#b3efff"
         d="m 317.609,424.791 h -121.53 c -4.662,0 -8.44,-3.778 -8.44,-8.44 0,-4.662 3.778,-8.44 8.44,-8.44 h 121.53 c 4.662,0 8.44,3.778 8.44,8.44 0,4.662 -3.778,8.44 -8.44,8.44 z"
         id="path35" /><path
         style="fill:#326e7d"
         d="m 256.844,469.802 c -4.662,0 -8.44,3.778 -8.44,8.44 V 512 h 16.879 v -33.758 c 10e-4,-4.662 -3.777,-8.44 -8.439,-8.44 z"
         id="path36" /></g><g
       id="g38"
       transform="translate(9.2255895,0.65500907)"><path
         d="m 56.080528,5.1060927 c -0.429616,0 -0.764741,0.1628648 -1.005625,0.4881812 -0.238399,0.3253163 -0.357571,0.8182519 -0.357571,1.478818 v 0.2640747 c 0,0.6307659 0.119177,1.1143058 0.357571,1.4495556 0.240884,0.3327663 0.573838,0.4988868 0.998488,0.4988868 0.32035,0 0.582167,-0.1314511 0.785801,-0.3946844 v 0.3240267 c 0,0.2806164 -0.05705,0.4730957 -0.171293,0.5773956 -0.114232,0.1067829 -0.278184,0.1598722 -0.491749,0.1598722 -0.153967,0 -0.308893,-0.034669 -0.465343,-0.104203 C 55.576841,9.7809671 55.45153,9.6993486 55.354679,9.6024987 l -0.354003,0.7301303 c 0.14155,0.153967 0.3362,0.269169 0.584533,0.346152 0.250816,0.07947 0.469655,0.119191 0.655905,0.119191 0.501634,0 0.906096,-0.126396 1.21403,-0.379696 0.307932,-0.250817 0.461773,-0.65311 0.461773,-1.2068927 V 5.1803191 h -0.953524 l -0.04069,0.3540027 C 56.726529,5.2487388 56.445577,5.1060927 56.080528,5.1060927 Z m 0.30547,0.8792971 c 0.2086,0 0.36641,0.084503 0.473194,0.253369 V 8.167931 c -0.104303,0.1564499 -0.264281,0.2348124 -0.480331,0.2348124 -0.404783,0 -0.607371,-0.3553443 -0.607371,-1.0655768 V 7.0730919 c 0,-0.382433 0.04983,-0.6594148 0.149166,-0.8307646 0.101817,-0.1713497 0.256742,-0.2569375 0.465342,-0.2569375 z"
         style="font-weight:bold;font-size:5.52362px;font-family:'Roboto Condensed';-inkscape-font-specification:'Roboto Condensed,  Bold';letter-spacing:0px;fill:#0d7474;stroke-width:2.14559;stroke-linecap:round;stroke-linejoin:round"
         id="path20" /><path
         d="m 52.556915,5.1060927 c -0.496665,0 -0.892818,0.1690047 -1.188335,0.5067378 -0.293033,0.3352496 -0.439648,0.8191611 -0.439648,1.4524106 v 0.2647882 c 0,0.6332495 0.1477,1.1171608 0.443217,1.4524106 0.295515,0.3352497 0.692755,0.5031691 1.191904,0.5031691 0.496666,0 0.891733,-0.1679194 1.184768,-0.5031691 0.295514,-0.3352498 0.443216,-0.8191611 0.443216,-1.4524106 V 7.0652411 c 0,-0.6332495 -0.147702,-1.117161 -0.443216,-1.4524106 C 53.455786,5.2750974 53.058549,5.1060927 52.556915,5.1060927 Z m 0,0.8757285 c 0.387401,0 0.580964,0.3607704 0.580964,1.0834199 v 0.3318775 c -0.01243,0.675466 -0.203809,1.0134756 -0.573826,1.0134756 -0.387399,0 -0.580964,-0.3603988 -0.580964,-1.0805649 V 6.9981518 C 51.995519,6.3202024 52.1869,5.9818212 52.556915,5.9818212 Z"
         style="font-weight:bold;font-size:5.52362px;font-family:'Roboto Condensed';-inkscape-font-specification:'Roboto Condensed,  Bold';letter-spacing:0px;fill:#0d7474;stroke-width:2.14559;stroke-linecap:round;stroke-linejoin:round"
         id="path19" /><path
         d="m 47.271141,5.1803191 v 2.6079154 c 0,0.5314328 0.104012,0.9135073 0.312608,1.1469405 0.208599,0.2334332 0.47944,0.350434 0.812207,0.350434 0.370015,0 0.664332,-0.1487859 0.882866,-0.4467856 l 0.02641,0.3725594 h 0.990637 V 5.1803191 h -1.057726 v 2.909817 c -0.106789,0.2085999 -0.281928,0.3126073 -0.525294,0.3126073 -0.258266,0 -0.387547,-0.2047593 -0.387547,-0.6145089 V 5.1803191 Z"
         style="font-weight:bold;font-size:5.52362px;font-family:'Roboto Condensed';-inkscape-font-specification:'Roboto Condensed,  Bold';letter-spacing:0px;fill:#0d7474;stroke-width:2.14559;stroke-linecap:round;stroke-linejoin:round"
         id="path21" /><path
         d="m 43.747528,3.7878606 v 5.4235222 h 3.016875 V 8.3021095 H 44.845937 V 3.7878606 Z"
         style="font-weight:bold;font-size:5.52362px;font-family:'Roboto Condensed';-inkscape-font-specification:'Roboto Condensed,  Bold';letter-spacing:0px;fill:#0d7474;stroke-width:2.14559;stroke-linecap:round;stroke-linejoin:round"
         id="path18" /><path
         d="m 60.070195,5.1060927 c -0.496665,0 -0.892818,0.1690047 -1.188335,0.5067378 -0.293033,0.3352496 -0.439648,0.8191611 -0.439648,1.4524106 v 0.2647882 c 0,0.6332495 0.1477,1.1171608 0.443217,1.4524106 0.295515,0.3352497 0.692755,0.5031691 1.191904,0.5031691 0.496666,0 0.891733,-0.1679194 1.184768,-0.5031691 0.295514,-0.3352498 0.443216,-0.8191611 0.443216,-1.4524106 V 7.0652411 c 0,-0.6332495 -0.147702,-1.117161 -0.443216,-1.4524106 C 60.969066,5.2750974 60.571829,5.1060927 60.070195,5.1060927 Z m 0,0.8757285 c 0.387401,0 0.580964,0.3607704 0.580964,1.0834199 v 0.3318775 c -0.01243,0.675466 -0.203809,1.0134756 -0.573826,1.0134756 -0.387399,0 -0.580964,-0.3603988 -0.580964,-1.0805649 V 6.9981518 c 0.01243,-0.6779494 0.203811,-1.0163306 0.573826,-1.0163306 z"
         style="font-weight:bold;font-size:5.52362px;font-family:'Roboto Condensed';-inkscape-font-specification:'Roboto Condensed,  Bold';letter-spacing:0px;fill:#0d7474;stroke-width:2.14559;stroke-linecap:round;stroke-linejoin:round"
         id="path37" /></g><g
       id="g39"
       transform="translate(7.6288265,-28.62674)"><path
         fill="#ffce31"
         d="m 10.423337,36.595586 2.69457,-2.693893 1.260349,1.260687 -2.694653,2.693893 z"
         id="path1-7-9"
         style="fill:#0f8a8a;fill-opacity:1;stroke-width:0.0844852" /><path
         d="M 14.931972,33.509175 14.77145,33.348653 c -0.304147,-0.304147 -0.79416,-0.304147 -1.106756,0 l -0.549153,0.549153 1.267278,1.267278 0.549153,-0.549154 c 0.304146,-0.304146 0.304146,-0.802609 0,-1.106755"
         fill="#ed4c5c"
         id="path2-1-2"
         style="fill:#f07109;fill-opacity:1;stroke-width:0.0844852" /><path
         fill="#93a2aa"
         d="m 12.77608,34.24504 0.346389,-0.346558 1.260518,1.260519 -0.346389,0.346473 z"
         id="path3-6"
         style="stroke-width:0.0844852" /><path
         fill="#c7d3d8"
         d="m 12.907539,34.376415 0.346389,-0.346474 0.991771,0.991687 -0.346558,0.346389 z"
         id="path4-6"
         style="stroke-width:0.0844852" /><path
         fill="#fed0ac"
         d="M 10.420465,36.592883 9.8713106,38.02913 10.251495,38.409314 11.687742,37.86016 Z"
         id="path5-4"
         style="stroke-width:0.0844852" /><path
         d="m 9.7783776,38.282586 c -0.07604,0.202764 0.02534,0.295698 0.2281104,0.219661 l 0.692778,-0.261904 -0.650536,-0.650536 -0.2703524,0.692779"
         fill="#333333"
         id="path6-7-9"
         style="fill:#f07109;fill-opacity:1;stroke-width:0.0844852" /><path
         fill="#ffdf85"
         d="m 10.41962,36.599219 2.353756,-2.353756 0.418202,0.418201 -2.353757,2.353757 z"
         id="path7-2-5"
         style="fill:#17b5b5;fill-opacity:1;stroke-width:0.0844852" /><path
         fill="#ff8736"
         d="m 11.265654,37.441282 2.353757,-2.353756 0.418201,0.418202 -2.353756,2.353756 z"
         id="path8-0"
         style="fill:#0d7474;fill-opacity:1;stroke-width:0.0844852" /><path
         d="m 33.878326,34.624141 v 3.67006 h 0.960149 v -3.67006 z"
         style="font-weight:bold;font-size:6.94737px;font-family:'Roboto Condensed';-inkscape-font-specification:'Roboto Condensed,  Bold';letter-spacing:0px;fill:#f07109;fill-opacity:1;stroke-width:1.95394;stroke-linecap:square;stroke-linejoin:round"
         id="path106" /><path
         d="m 33.878326,34.624141 h 0.960149 v 3.67006 h -0.960149 z"
         style="font-weight:bold;font-size:6.94737px;font-family:'Roboto Condensed';-inkscape-font-specification:'Roboto Condensed,  Bold';letter-spacing:0px;fill:#f07109;fill-opacity:1;stroke-width:1.95394;stroke-linecap:square;stroke-linejoin:round"
         id="path105" /><path
         d="m 30.085793,34.624141 v 3.67006 h 0.963766 v -3.67006 z"
         style="font-weight:bold;font-size:6.94737px;font-family:'Roboto Condensed';-inkscape-font-specification:'Roboto Condensed,  Bold';letter-spacing:0px;fill:#f07109;fill-opacity:1;stroke-width:1.95394;stroke-linecap:square;stroke-linejoin:round"
         id="path104" /><path
         d="m 30.085793,34.624141 h 0.963766 v 3.67006 h -0.963766 z"
         style="font-weight:bold;font-size:6.94737px;font-family:'Roboto Condensed';-inkscape-font-specification:'Roboto Condensed,  Bold';letter-spacing:0px;fill:#f07109;fill-opacity:1;stroke-width:1.95394;stroke-linecap:square;stroke-linejoin:round"
         id="path103" /><path
         d="m 40.096552,34.555928 c -0.411595,0 -0.739677,0.115558 -0.98392,0.346232 -0.241981,0.228413 -0.362768,0.503105 -0.362768,0.824239 h 0.960148 c 0,-0.280427 0.119947,-0.420646 0.359668,-0.420646 0.221628,0 0.332279,0.150355 0.332279,0.451136 v 0.295072 h -0.257865 c -0.49301,0 -0.859437,0.109812 -1.099158,0.329179 -0.23972,0.217105 -0.359668,0.512068 -0.359668,0.885217 0,0.332442 0.103228,0.598354 0.309025,0.797367 0.208059,0.199013 0.460286,0.29869 0.756543,0.29869 0.291735,0 0.524529,-0.117753 0.698666,-0.35295 0.02035,0.113076 0.04721,0.207846 0.08113,0.284737 h 0.966866 v -0.05736 c -0.08366,-0.169614 -0.127757,-0.41745 -0.13229,-0.743107 v -1.72341 c 0,-0.429687 -0.120787,-0.739175 -0.362769,-0.929142 -0.239719,-0.189967 -0.541784,-0.285254 -0.905887,-0.285254 z m 0.07803,2.069641 h 0.227376 v 0.763261 c -0.03618,0.0588 -0.09177,0.109477 -0.166398,0.152446 -0.07463,0.04297 -0.163654,0.06459 -0.267684,0.06459 -0.214844,0 -0.322461,-0.135829 -0.322461,-0.40721 0,-0.160568 0.04274,-0.296397 0.128675,-0.407211 0.08594,-0.110814 0.219572,-0.165881 0.400492,-0.165881 z"
         style="font-weight:bold;font-size:6.94737px;font-family:'Roboto Condensed';-inkscape-font-specification:'Roboto Condensed,  Bold';letter-spacing:0px;fill:#f07109;fill-opacity:1;stroke-width:1.95394;stroke-linecap:square;stroke-linejoin:round"
         id="path102" /><path
         d="m 36.934987,34.555928 c -0.490747,0 -0.855819,0.155261 -1.09554,0.465088 -0.23972,0.309827 -0.359668,0.745009 -0.359668,1.305864 v 0.295072 c 0.0045,0.551809 0.126666,0.980406 0.366386,1.28571 0.23972,0.303042 0.603953,0.454752 1.09244,0.454752 0.368626,0 0.677276,-0.119108 0.926041,-0.356567 0.251024,-0.237459 0.377556,-0.565023 0.379822,-0.983403 h -0.90227 c 0,0.361842 -0.140219,0.542603 -0.420646,0.542603 -0.217107,0 -0.35158,-0.0816 -0.403593,-0.24443 -0.05201,-0.162828 -0.07803,-0.405758 -0.07803,-0.729154 V 36.32688 c 0,-0.314351 0.02602,-0.555085 0.07803,-0.722437 0.05428,-0.167352 0.186554,-0.251147 0.396875,-0.251147 0.28495,0 0.427364,0.213878 0.427364,0.641304 h 0.90227 c -0.0023,-0.470394 -0.123565,-0.828043 -0.363285,-1.072286 -0.237459,-0.244243 -0.552693,-0.366386 -0.946196,-0.366386 z"
         style="font-weight:bold;font-size:6.94737px;font-family:'Roboto Condensed';-inkscape-font-specification:'Roboto Condensed,  Bold';letter-spacing:0px;fill:#f07109;fill-opacity:1;stroke-width:1.95394;stroke-linecap:square;stroke-linejoin:round"
         id="path100" /><path
         d="m 36.934987,34.555928 c 0.393503,0 0.708737,0.122143 0.946196,0.366386 0.23972,0.244243 0.361023,0.601892 0.363285,1.072286 h -0.90227 c 0,-0.427426 -0.142414,-0.641304 -0.427364,-0.641304 -0.210321,0 -0.342599,0.0838 -0.396875,0.251147 -0.05201,0.167352 -0.07803,0.408086 -0.07803,0.722437 v 0.264583 c 0,0.323396 0.02602,0.566326 0.07803,0.729154 0.05201,0.162829 0.186486,0.24443 0.403593,0.24443 0.280427,0 0.420646,-0.180761 0.420646,-0.542603 h 0.90227 c -0.0023,0.41838 -0.128798,0.745944 -0.379822,0.983403 -0.248765,0.237459 -0.557415,0.356567 -0.926041,0.356567 -0.488487,0 -0.85272,-0.15171 -1.09244,-0.454752 -0.23972,-0.305304 -0.361863,-0.733901 -0.366386,-1.28571 V 36.32688 c 0,-0.560855 0.119948,-0.996037 0.359668,-1.305864 0.239721,-0.309827 0.604793,-0.465088 1.09554,-0.465088 z"
         style="font-weight:bold;font-size:6.94737px;font-family:'Roboto Condensed';-inkscape-font-specification:'Roboto Condensed,  Bold';letter-spacing:0px;fill:#f07109;fill-opacity:1;stroke-width:1.95394;stroke-linecap:square;stroke-linejoin:round"
         id="path99" /><path
         d="m 24.516107,34.555928 c -0.452302,0 -0.812985,0.153905 -1.082104,0.461471 -0.266859,0.305304 -0.400493,0.746231 -0.400493,1.322917 v 0.240812 c 0,0.576685 0.134474,1.017612 0.403593,1.322916 0.26912,0.305304 0.631158,0.45837 1.085722,0.45837 0.452302,0 0.811629,-0.153066 1.078487,-0.45837 0.26912,-0.305304 0.403593,-0.746231 0.403593,-1.322916 v -0.240812 c 0,-0.576686 -0.134473,-1.017613 -0.403593,-1.322917 -0.266858,-0.307566 -0.628379,-0.461471 -1.085205,-0.461471 z m 0,0.797368 c 0.352796,0 0.529167,0.32892 0.529167,0.98702 v 0.30179 c -0.01131,0.615131 -0.185484,0.922941 -0.522449,0.922941 -0.352796,0 -0.529166,-0.328081 -0.529166,-0.983919 v -0.301791 c 0.01131,-0.617392 0.185483,-0.926041 0.522448,-0.926041 z"
         style="font-weight:bold;font-size:6.94737px;font-family:'Roboto Condensed';-inkscape-font-specification:'Roboto Condensed,  Bold';letter-spacing:0px;fill:#f07109;fill-opacity:1;stroke-width:1.95394;stroke-linecap:square;stroke-linejoin:round"
         id="path98" /><path
         d="m 17.921161,33.354968 v 4.939233 h 1.000972 v -1.336352 l -0.09147,-2.04587 0.983403,3.382222 h 0.682129 l 0.983402,-3.382222 -0.09147,2.04587 v 1.336352 h 1.000972 v -4.939233 h -1.302757 l -0.929659,3.568774 -0.932759,-3.568774 z"
         style="font-weight:bold;font-size:6.94737px;font-family:'Roboto Condensed';-inkscape-font-specification:'Roboto Condensed,  Bold';letter-spacing:0px;fill:#f07109;fill-opacity:1;stroke-width:1.95394;stroke-linecap:square;stroke-linejoin:round"
         id="path97" /><path
         d="m 30.567934,33.161698 c -0.160567,0 -0.288455,0.04848 -0.383439,0.145728 -0.09498,0.09498 -0.142627,0.217126 -0.142627,0.366386 0,0.146998 0.04764,0.269141 0.142627,0.366385 0.09498,0.09498 0.222872,0.142627 0.383439,0.142627 0.158306,0 0.284839,-0.04764 0.379822,-0.142627 0.09498,-0.09724 0.14211,-0.219387 0.14211,-0.366385 0,-0.14926 -0.04713,-0.271403 -0.14211,-0.366386 -0.09498,-0.09725 -0.221516,-0.145728 -0.379822,-0.145728 z"
         style="font-weight:bold;font-size:6.94737px;font-family:'Roboto Condensed';-inkscape-font-specification:'Roboto Condensed,  Bold';letter-spacing:0px;fill:#f07109;fill-opacity:1;stroke-width:1.95394;stroke-linecap:square;stroke-linejoin:round"
         id="path96" /><path
         d="m 28.372719,33.083667 v 1.838647 c -0.185443,-0.244243 -0.421789,-0.366386 -0.709,-0.366386 -0.398027,0 -0.69654,0.150354 -0.895553,0.451135 -0.196751,0.29852 -0.295072,0.745193 -0.295072,1.33997 v 0.261483 c 0.0023,0.567639 0.105489,1.001465 0.309025,1.302246 0.203536,0.300781 0.496304,0.451652 0.878499,0.451652 0.314351,0 0.568771,-0.148159 0.763261,-0.444417 l 0.04393,0.379822 0.868681,-0.0036 v -5.210532 z m -0.430464,2.272729 c 0.192228,0 0.335481,0.09174 0.430464,0.274919 v 1.669149 c -0.09272,0.171874 -0.23733,0.257865 -0.434082,0.257865 -0.19449,0 -0.327607,-0.07721 -0.399975,-0.230994 -0.07011,-0.156044 -0.10542,-0.402524 -0.10542,-0.739489 v -0.240813 c 0,-0.348272 0.03751,-0.600498 0.112138,-0.756542 0.07463,-0.156045 0.206908,-0.234095 0.396875,-0.234095 z"
         style="font-weight:bold;font-size:6.94737px;font-family:'Roboto Condensed';-inkscape-font-specification:'Roboto Condensed,  Bold';letter-spacing:0px;fill:#f07109;fill-opacity:1;stroke-width:1.95394;stroke-linecap:square;stroke-linejoin:round"
         id="path95" /><path
         d="m 33.427191,33.012353 c -0.447779,0 -0.798326,0.123499 -1.051615,0.370003 -0.251029,0.246505 -0.3784,0.602798 -0.382923,1.068669 v 0.173116 h -0.444417 v 0.722437 h 0.444417 v 2.947623 h 0.959632 v -2.947623 h 0.56689 v -0.722437 h -0.56689 v -0.156063 c 0.0023,-0.395764 0.182183,-0.593762 0.539502,-0.593762 0.232935,0 0.489551,0.05068 0.769979,0.152446 l 0.139009,-0.813904 c -0.379933,-0.133429 -0.704463,-0.200505 -0.973584,-0.200505 z"
         style="font-weight:bold;font-size:6.94737px;font-family:'Roboto Condensed';-inkscape-font-specification:'Roboto Condensed,  Bold';letter-spacing:0px;fill:#f07109;fill-opacity:1;stroke-width:1.95394;stroke-linecap:square;stroke-linejoin:round"
         id="path94" /></g></g></svg>
