<?xml version="1.0" encoding="UTF-8" standalone="no"?>
<!-- Created with Inkscape (http://www.inkscape.org/) -->

<svg
   width="256"
   height="54"
   viewBox="0 0 67.733332 14.2875"
   version="1.1"
   id="svg1"
   inkscape:version="1.3.2 (091e20ef0f, 2023-11-25)"
   sodipodi:docname="place-logo.svg"
   xml:space="preserve"
   xmlns:inkscape="http://www.inkscape.org/namespaces/inkscape"
   xmlns:sodipodi="http://sodipodi.sourceforge.net/DTD/sodipodi-0.dtd"
   xmlns="http://www.w3.org/2000/svg"
   xmlns:svg="http://www.w3.org/2000/svg"><sodipodi:namedview
     id="namedview1"
     pagecolor="#ffffff"
     bordercolor="#000000"
     borderopacity="0.25"
     inkscape:showpageshadow="false"
     inkscape:pageopacity="0.0"
     inkscape:pagecheckerboard="0"
     inkscape:deskcolor="#d1d1d1"
     inkscape:document-units="px"
     inkscape:zoom="3.026175"
     inkscape:cx="133.17141"
     inkscape:cy="120.11863"
     inkscape:window-width="2528"
     inkscape:window-height="1404"
     inkscape:window-x="2592"
     inkscape:window-y="0"
     inkscape:window-maximized="1"
     inkscape:current-layer="layer1" /><defs
     id="defs1"><inkscape:path-effect
   effect="fillet_chamfer"
   id="path-effect1"
   is_visible="true"
   lpeversion="1"
   nodesatellites_param="F,0,0,1,0,16.416105,0,1 @ F,0,0,1,0,17.56708,0,1 @ F,0,0,1,0,16.166174,0,1 @ F,0,0,1,0,12.027104,0,1"
   radius="0"
   unit="px"
   method="auto"
   mode="F"
   chamfer_steps="1"
   flexible="false"
   use_knot_distance="true"
   apply_no_radius="true"
   apply_with_radius="true"
   only_selected="false"
   hide_knots="false" />
	
	
	
	
	

		
		
	
	
	
	
	
	
	
	
	
	
	
	
	
	
	
	
	
	
	
	
	
	
	
	
	
	
	
	
	
	
	
	
	
	
	
	
	
	
	
	
	
	
	
	
	
<style
   id="style1">.cls-1{fill:#ffffff;}.cls-2{fill:#e5e5e5;}.cls-3{fill:#426572;}.cls-4{fill:#fbc907;}.cls-5{fill:#f3a70f;}.cls-6{fill:#f9f9f9;}.cls-7{opacity:0.5;}.cls-8{fill:#7490a8;}</style></defs><g
     inkscape:label="Livello 1"
     inkscape:groupmode="layer"
     id="layer1"><g
       id="g27"
       transform="matrix(1.3811233,0,0,1.3811233,-32.966174,-2.7226498)"><path
         d="m 51.630886,5.7221313 v 2.9186849 h 0.765845 V 5.7221313 Z"
         style="font-weight:bold;font-size:5.52362px;font-family:'Roboto Condensed';-inkscape-font-specification:'Roboto Condensed,  Bold';letter-spacing:0px;fill:#0d7474;stroke-width:1.55351;stroke-linecap:round;stroke-linejoin:round"
         id="path22" /><path
         d="m 52.013808,4.5599283 c -0.127661,0 -0.228856,0.038439 -0.304374,0.1157552 -0.07552,0.075518 -0.113688,0.1727837 -0.113688,0.2914551 0,0.1168734 0.03817,0.2141388 0.113688,0.2914551 0.07552,0.075518 0.176713,0.1131714 0.304374,0.1131714 0.125864,0 0.226789,-0.037653 0.302308,-0.1131714 0.07552,-0.077316 0.113171,-0.1745817 0.113171,-0.2914551 0,-0.1186714 -0.03765,-0.2159369 -0.113171,-0.2914551 -0.07552,-0.077316 -0.176444,-0.1157552 -0.302308,-0.1157552 z"
         style="font-weight:bold;font-size:5.52362px;font-family:'Roboto Condensed';-inkscape-font-specification:'Roboto Condensed,  Bold';letter-spacing:0px;fill:#0d7474;stroke-width:1.55351;stroke-linecap:round;stroke-linejoin:round"
         id="path17" /><path
         d="m 48.858445,4.4979166 v 4.1428996 h 0.763261 V 6.5019286 c 0.07372,-0.1312577 0.182235,-0.1968872 0.326079,-0.1968872 0.111479,0 0.195407,0.034779 0.251147,0.1049032 0.05754,0.070124 0.0863,0.1990255 0.0863,0.3860229 v 1.8448487 h 0.763261 v -1.839681 c 0,-0.4135519 -0.07531,-0.7056174 -0.226343,-0.8764323 -0.151036,-0.1708149 -0.347139,-0.2563151 -0.588078,-0.2563151 -0.242737,0 -0.446945,0.1032827 -0.612366,0.3100586 V 4.4979166 Z"
         style="font-weight:bold;font-size:5.52362px;font-family:'Roboto Condensed';-inkscape-font-specification:'Roboto Condensed,  Bold';letter-spacing:0px;fill:#0d7474;stroke-width:1.55351;stroke-linecap:round;stroke-linejoin:round"
         id="path16" /><path
         d="m 46.991893,5.6683878 c -0.311063,0 -0.55371,0.117922 -0.728121,0.3534668 -0.172613,0.2355447 -0.258899,0.5924539 -0.258899,1.0707357 v 0.1912028 c 0,0.456705 0.08629,0.8068113 0.258899,1.0495483 0.174411,0.2409389 0.415486,0.3612182 0.722953,0.3612182 0.231949,0 0.421517,-0.095177 0.568958,-0.2857706 V 8.6434 c 0,0.2031798 -0.04131,0.3425441 -0.124024,0.4180623 -0.08271,0.077316 -0.201419,0.1157552 -0.35605,0.1157552 -0.11148,0 -0.223654,-0.025102 -0.336931,-0.075448 C 46.627199,9.0532225 46.536468,8.994127 46.466343,8.924003 l -0.256315,0.5286499 c 0.102489,0.1114795 0.243425,0.1948914 0.42323,0.2506307 0.181603,0.057538 0.340053,0.0863 0.474907,0.0863 0.363207,0 0.656057,-0.091517 0.879016,-0.2749186 0.222958,-0.1816032 0.334346,-0.472883 0.334346,-0.8738484 V 5.7221313 H 47.63113 L 47.60167,5.9784464 C 47.459629,5.7716705 47.256206,5.6683878 46.991893,5.6683878 Z m 0.221175,0.6366536 c 0.151036,0 0.265298,0.061184 0.342615,0.1834514 v 1.3968139 c -0.07552,0.1132773 -0.191352,0.1700155 -0.347783,0.1700155 -0.293082,0 -0.439766,-0.2572864 -0.439766,-0.7715291 V 7.0925903 c 0,-0.2769 0.03608,-0.4774482 0.108004,-0.6015137 0.07372,-0.1240655 0.185893,-0.1860352 0.33693,-0.1860352 z"
         style="font-weight:bold;font-size:5.52362px;font-family:'Roboto Condensed';-inkscape-font-specification:'Roboto Condensed,  Bold';letter-spacing:0px;fill:#0d7474;stroke-width:1.55351;stroke-linecap:round;stroke-linejoin:round"
         id="path20" /><path
         d="m 44.440627,5.6683878 c -0.35961,0 -0.646444,0.1223676 -0.860412,0.3669027 -0.21217,0.2427369 -0.318327,0.5931122 -0.318327,1.0516154 v 0.1917195 c 0,0.4585032 0.106942,0.8088784 0.320911,1.0516154 0.213967,0.242737 0.501588,0.3643188 0.862996,0.3643188 0.35961,0 0.645658,-0.1215818 0.857829,-0.3643188 0.213967,-0.242737 0.32091,-0.5931122 0.32091,-1.0516154 V 7.0869059 c 0,-0.4585032 -0.106943,-0.8088785 -0.32091,-1.0516154 -0.212171,-0.2445351 -0.49979,-0.3669027 -0.862997,-0.3669027 z m 0,0.6340698 c 0.280497,0 0.420646,0.2612152 0.420646,0.7844483 v 0.2402954 c -0.009,0.48907 -0.147568,0.7338053 -0.415478,0.7338053 -0.280496,0 -0.420646,-0.2609462 -0.420646,-0.7823812 V 7.03833 c 0.009,-0.4908681 0.147569,-0.7358724 0.415478,-0.7358724 z"
         style="font-weight:bold;font-size:5.52362px;font-family:'Roboto Condensed';-inkscape-font-specification:'Roboto Condensed,  Bold';letter-spacing:0px;fill:#0d7474;stroke-width:1.55351;stroke-linecap:round;stroke-linejoin:round"
         id="path19" /><path
         d="m 40.613471,5.7221313 v 1.8882568 c 0,0.384783 0.07531,0.6614234 0.226343,0.8304403 0.151036,0.1690169 0.347138,0.2537312 0.588077,0.2537312 0.267909,0 0.481009,-0.1077282 0.639238,-0.3234944 l 0.01912,0.269751 h 0.717269 V 5.7221313 h -0.765845 v 2.1068481 c -0.07732,0.1510364 -0.204129,0.2263428 -0.380338,0.2263428 -0.186997,0 -0.280603,-0.1482556 -0.280603,-0.4449341 V 5.7221313 Z"
         style="font-weight:bold;font-size:5.52362px;font-family:'Roboto Condensed';-inkscape-font-specification:'Roboto Condensed,  Bold';letter-spacing:0px;fill:#0d7474;stroke-width:1.55351;stroke-linecap:round;stroke-linejoin:round"
         id="path21" /><path
         d="m 38.062205,4.7139241 v 3.9268921 h 2.184363 V 7.9824584 H 38.857506 V 4.7139241 Z"
         style="font-weight:bold;font-size:5.52362px;font-family:'Roboto Condensed';-inkscape-font-specification:'Roboto Condensed,  Bold';letter-spacing:0px;fill:#0d7474;stroke-width:1.55351;stroke-linecap:round;stroke-linejoin:round"
         id="path18" /></g><g
       id="g26"
       transform="matrix(0.02583822,0,0,0.02583822,0.5073592,0.52916561)"><path
         style="fill:#326e7d"
         d="m 461.644,205.363 c -4.662,0 -8.44,3.778 -8.44,8.44 v 56.264 h 16.879 v -56.264 c 10e-4,-4.663 -3.777,-8.44 -8.439,-8.44 z"
         id="path1" /><path
         style="fill:#4393a8"
         d="m 50.356,171.604 c -4.662,0 -8.44,3.778 -8.44,8.44 v 56.264 h 16.879 v -56.264 c 10e-4,-4.662 -3.777,-8.44 -8.439,-8.44 z"
         id="path2" /><path
         style="fill:#b3efff"
         d="M 400.316,56.264 H 366.558 V 0 h 33.758 c 15.54,0 28.132,12.592 28.132,28.132 0,15.54 -12.591,28.132 -28.132,28.132 z"
         id="path3" /><path
         style="fill:#d9f7ff"
         d="M 366.558,0 H 169.635 c -15.54,0 -28.132,12.592 -28.132,28.132 H 28.976 c -15.54,0 -28.132,12.592 -28.132,28.132 0,15.54 12.592,28.132 28.132,28.132 h 199.736 c 15.54,0 28.132,-12.592 28.132,-28.132 h 109.714 c 15.54,0 28.132,-12.592 28.132,-28.132 C 394.69,12.592 382.098,0 366.558,0 Z"
         id="path4" /><polygon
         style="fill:#e86c16"
         points="511.156,512 511.156,444.484 466.145,421.978 488.651,512 "
         id="polygon4" /><polygon
         style="fill:#ffa850"
         points="488.651,512 488.651,421.978 389.626,421.978 412.132,512 "
         id="polygon5" /><polygon
         style="fill:#66defe"
         points="488.651,247.56 454.892,346.022 488.651,444.484 511.156,444.484 511.156,247.56 "
         id="polygon6" /><rect
         x="389.62601"
         y="247.56"
         style="fill:#8ce6fe"
         width="99.024002"
         height="196.923"
         id="rect6" /><path
         style="fill:#875b51"
         d="m 461.644,469.802 c -4.662,0 -8.44,3.778 -8.44,8.44 V 512 h 16.879 v -33.758 c 10e-4,-4.662 -3.777,-8.44 -8.439,-8.44 z"
         id="path6" /><g
         id="g9">
	<path
   style="fill:#ffffff"
   d="m 461.644,402.286 c -4.662,0 -8.44,-3.778 -8.44,-8.44 v -11.253 c 0,-4.662 3.778,-8.44 8.44,-8.44 4.662,0 8.44,3.778 8.44,8.44 v 11.253 c 0,4.662 -3.778,8.44 -8.44,8.44 z"
   id="path7" />
	<path
   style="fill:#ffffff"
   d="m 461.644,357.275 c -4.662,0 -8.44,-3.778 -8.44,-8.44 v -11.253 c 0,-4.662 3.778,-8.44 8.44,-8.44 4.662,0 8.44,3.778 8.44,8.44 v 11.253 c 0,4.662 -3.778,8.44 -8.44,8.44 z"
   id="path8" />
	<path
   style="fill:#ffffff"
   d="m 461.644,312.264 c -4.662,0 -8.44,-3.778 -8.44,-8.44 v -11.253 c 0,-4.662 3.778,-8.44 8.44,-8.44 4.662,0 8.44,3.778 8.44,8.44 v 11.253 c 0,4.662 -3.778,8.44 -8.44,8.44 z"
   id="path9" />
</g><polygon
         style="fill:#705147"
         points="412.132,512 389.626,512 344.615,365.152 389.626,206.128 412.132,213.802 "
         id="polygon9" /><polygon
         style="fill:#875b51"
         points="389.626,512 313.108,512 290.602,202.549 313.108,180.044 389.626,206.128 "
         id="polygon10" /><g
         id="g13">
	<path
   style="fill:#ffffff"
   d="m 362.62,402.286 c -4.662,0 -8.44,-3.778 -8.44,-8.44 v -11.253 c 0,-4.662 3.778,-8.44 8.44,-8.44 4.662,0 8.44,3.778 8.44,8.44 v 11.253 c -10e-4,4.662 -3.778,8.44 -8.44,8.44 z"
   id="path10" />
	<path
   style="fill:#ffffff"
   d="m 362.62,357.275 c -4.662,0 -8.44,-3.778 -8.44,-8.44 v -11.253 c 0,-4.662 3.778,-8.44 8.44,-8.44 4.662,0 8.44,3.778 8.44,8.44 v 11.253 c -10e-4,4.662 -3.778,8.44 -8.44,8.44 z"
   id="path11" />
	<path
   style="fill:#ffffff"
   d="m 362.62,312.264 c -4.662,0 -8.44,-3.778 -8.44,-8.44 v -11.253 c 0,-4.662 3.778,-8.44 8.44,-8.44 4.662,0 8.44,3.778 8.44,8.44 v 11.253 c -10e-4,4.662 -3.778,8.44 -8.44,8.44 z"
   id="path12" />
	<path
   style="fill:#ffffff"
   d="m 362.62,267.253 c -4.662,0 -8.44,-3.778 -8.44,-8.44 V 247.56 c 0,-4.662 3.778,-8.44 8.44,-8.44 4.662,0 8.44,3.778 8.44,8.44 v 11.253 c -10e-4,4.662 -3.778,8.44 -8.44,8.44 z"
   id="path13" />
</g><polygon
         style="fill:#875b51"
         points="77.363,512 99.868,376.967 0.844,399.473 0.844,512 "
         id="polygon13" /><polygon
         style="fill:#705147"
         points="99.868,512 122.374,376.967 77.363,376.967 77.363,512 "
         id="polygon14" /><polygon
         style="fill:#8ce6fe"
         points="77.363,213.802 43.604,306.637 77.363,399.473 122.374,399.473 122.374,213.802 "
         id="polygon15" /><rect
         x="0.84399998"
         y="213.802"
         style="fill:#b3efff"
         width="76.518997"
         height="185.67"
         id="rect15" /><path
         style="fill:#4d392f"
         d="m 50.356,469.802 c -4.662,0 -8.44,3.778 -8.44,8.44 V 512 h 16.879 v -33.758 c 10e-4,-4.662 -3.777,-8.44 -8.439,-8.44 z"
         id="path15" /><g
         id="g19">
	<path
   style="fill:#ffffff"
   d="m 50.356,452.923 c -4.662,0 -8.44,-3.778 -8.44,-8.44 V 433.23 c 0,-4.662 3.778,-8.44 8.44,-8.44 4.662,0 8.44,3.778 8.44,8.44 v 11.253 c 0,4.663 -3.778,8.44 -8.44,8.44 z"
   id="path16-5" />
	<path
   style="fill:#ffffff"
   d="m 50.356,357.275 c -4.662,0 -8.44,-3.778 -8.44,-8.44 v -11.253 c 0,-4.662 3.778,-8.44 8.44,-8.44 4.662,0 8.44,3.778 8.44,8.44 v 11.253 c 0,4.662 -3.778,8.44 -8.44,8.44 z"
   id="path17-6" />
	<path
   style="fill:#ffffff"
   d="m 50.356,312.264 c -4.662,0 -8.44,-3.778 -8.44,-8.44 v -11.253 c 0,-4.662 3.778,-8.44 8.44,-8.44 4.662,0 8.44,3.778 8.44,8.44 v 11.253 c 0,4.662 -3.778,8.44 -8.44,8.44 z"
   id="path18-2" />
	<path
   style="fill:#ffffff"
   d="m 50.356,267.253 c -4.662,0 -8.44,-3.778 -8.44,-8.44 V 247.56 c 0,-4.662 3.778,-8.44 8.44,-8.44 4.662,0 8.44,3.778 8.44,8.44 v 11.253 c 0,4.662 -3.778,8.44 -8.44,8.44 z"
   id="path19-9" />
</g><polygon
         style="fill:#ffd686"
         points="142.629,317.89 176.387,512 198.892,512 221.398,123.78 176.387,123.78 "
         id="polygon19" /><rect
         x="99.867996"
         y="123.78"
         style="fill:#ffedc6"
         width="76.518997"
         height="388.22"
         id="rect19" /><g
         id="g24">
	<path
   style="fill:#ffffff"
   d="m 149.38,357.275 c -4.662,0 -8.44,-3.778 -8.44,-8.44 v -11.253 c 0,-4.662 3.778,-8.44 8.44,-8.44 4.662,0 8.44,3.778 8.44,8.44 v 11.253 c 0,4.662 -3.778,8.44 -8.44,8.44 z"
   id="path20-1" />
	<path
   style="fill:#ffffff"
   d="m 149.38,312.264 c -4.662,0 -8.44,-3.778 -8.44,-8.44 v -11.253 c 0,-4.662 3.778,-8.44 8.44,-8.44 4.662,0 8.44,3.778 8.44,8.44 v 11.253 c 0,4.662 -3.778,8.44 -8.44,8.44 z"
   id="path21-2" />
	<path
   style="fill:#ffffff"
   d="m 149.38,267.253 c -4.662,0 -8.44,-3.778 -8.44,-8.44 V 247.56 c 0,-4.662 3.778,-8.44 8.44,-8.44 4.662,0 8.44,3.778 8.44,8.44 v 11.253 c 0,4.662 -3.778,8.44 -8.44,8.44 z"
   id="path22-7" />
	<path
   style="fill:#ffffff"
   d="m 149.38,222.242 c -4.662,0 -8.44,-3.778 -8.44,-8.44 v -11.253 c 0,-4.662 3.778,-8.44 8.44,-8.44 4.662,0 8.44,3.778 8.44,8.44 v 11.253 c 0,4.662 -3.778,8.44 -8.44,8.44 z"
   id="path23" />
	<path
   style="fill:#ffffff"
   d="m 149.38,177.231 c -4.662,0 -8.44,-3.778 -8.44,-8.44 v -11.253 c 0,-4.662 3.778,-8.44 8.44,-8.44 4.662,0 8.44,3.778 8.44,8.44 v 11.253 c 0,4.662 -3.778,8.44 -8.44,8.44 z"
   id="path24" />
</g><path
         style="fill:#b3efff"
         d="m 483.024,90.022 h -33.758 v 56.264 h 33.758 c 15.54,0 28.132,-12.592 28.132,-28.132 0,-15.54 -12.592,-28.132 -28.132,-28.132 z"
         id="path25" /><path
         style="fill:#d9f7ff"
         d="m 449.266,90.022 h -50.637 c -15.54,0 -28.132,12.592 -28.132,28.132 0,15.54 12.592,28.132 28.132,28.132 h 50.637 c 15.54,0 28.132,-12.592 28.132,-28.132 0,-15.54 -12.592,-28.132 -28.132,-28.132 z"
         id="path26" /><path
         style="fill:#4393a8"
         d="m 290.602,84.396 c 0,-18.645 -15.114,-33.758 -33.758,-33.758 L 234.339,180.045 314.796,157.54 V 84.396 Z"
         id="path27" /><path
         style="fill:#55b9d3"
         d="m 223.086,84.396 h -24.193 v 73.143 l 57.952,22.505 V 50.637 c -18.646,0 -33.759,15.114 -33.759,33.759 z"
         id="path28" /><polygon
         style="fill:#4393a8"
         points="256.844,393.846 198.892,416.352 198.892,450.11 281.037,512 314.796,512 314.796,416.352 "
         id="polygon28" /><g
         id="g29">
	<rect
   x="198.892"
   y="450.10999"
   style="fill:#55b9d3"
   width="82.144997"
   height="61.889999"
   id="rect28" />
	<polygon
   style="fill:#55b9d3"
   points="281.037,157.538 258.532,286.945 281.037,416.352 314.796,416.352 314.796,157.538 "
   id="polygon29" />
</g><rect
         x="198.892"
         y="157.53799"
         style="fill:#66defe"
         width="82.144997"
         height="258.81299"
         id="rect29" /><circle
         style="fill:#326e7d"
         cx="256.84399"
         cy="84.396004"
         r="8.4399996"
         id="circle29" /><g
         id="g33">
	<path
   style="fill:#ffffff"
   d="m 256.844,391.033 c -4.662,0 -8.44,-3.778 -8.44,-8.44 V 371.34 c 0,-4.662 3.778,-8.44 8.44,-8.44 4.662,0 8.44,3.778 8.44,8.44 v 11.253 c 0,4.662 -3.778,8.44 -8.44,8.44 z"
   id="path29" />
	<path
   style="fill:#ffffff"
   d="m 256.844,346.022 c -4.662,0 -8.44,-3.778 -8.44,-8.44 V 326.33 c 0,-4.662 3.778,-8.44 8.44,-8.44 4.662,0 8.44,3.778 8.44,8.44 v 11.253 c 0,4.661 -3.778,8.439 -8.44,8.439 z"
   id="path30" />
	<path
   style="fill:#ffffff"
   d="m 256.844,301.011 c -4.662,0 -8.44,-3.778 -8.44,-8.44 v -11.253 c 0,-4.662 3.778,-8.44 8.44,-8.44 4.662,0 8.44,3.778 8.44,8.44 v 11.253 c 0,4.662 -3.778,8.44 -8.44,8.44 z"
   id="path31" />
	<path
   style="fill:#ffffff"
   d="m 256.844,256 c -4.662,0 -8.44,-3.778 -8.44,-8.44 v -11.253 c 0,-4.662 3.778,-8.44 8.44,-8.44 4.662,0 8.44,3.778 8.44,8.44 v 11.253 c 0,4.662 -3.778,8.44 -8.44,8.44 z"
   id="path32" />
	<path
   style="fill:#ffffff"
   d="m 256.844,210.989 c -4.662,0 -8.44,-3.778 -8.44,-8.44 v -11.253 c 0,-4.662 3.778,-8.44 8.44,-8.44 4.662,0 8.44,3.778 8.44,8.44 v 11.253 c 0,4.662 -3.778,8.44 -8.44,8.44 z"
   id="path33" />
</g><path
         style="fill:#66defe"
         d="M 281.037,132.22 H 232.65 c -4.662,0 -8.44,-3.778 -8.44,-8.44 0,-4.662 3.778,-8.44 8.44,-8.44 h 48.387 c 4.662,0 8.44,3.778 8.44,8.44 0,4.662 -3.778,8.44 -8.44,8.44 z"
         id="path34" /><path
         style="fill:#b3efff"
         d="m 317.609,424.791 h -121.53 c -4.662,0 -8.44,-3.778 -8.44,-8.44 0,-4.662 3.778,-8.44 8.44,-8.44 h 121.53 c 4.662,0 8.44,3.778 8.44,8.44 0,4.662 -3.778,8.44 -8.44,8.44 z"
         id="path35" /><path
         style="fill:#326e7d"
         d="m 256.844,469.802 c -4.662,0 -8.44,3.778 -8.44,8.44 V 512 h 16.879 v -33.758 c 10e-4,-4.662 -3.777,-8.44 -8.439,-8.44 z"
         id="path36" /></g></g></svg>
