<?xml version="1.0" encoding="UTF-8" standalone="no"?>
<!-- Created with Inkscape (http://www.inkscape.org/) -->

<svg
   width="260"
   height="26"
   viewBox="0 0 68.791664 6.8791666"
   version="1.1"
   id="svg1"
   inkscape:version="1.3.2 (1:1.3.2+202311252150+091e20ef0f)"
   sodipodi:docname="home_main_logo.svg"
   xmlns:inkscape="http://www.inkscape.org/namespaces/inkscape"
   xmlns:sodipodi="http://sodipodi.sourceforge.net/DTD/sodipodi-0.dtd"
   xmlns="http://www.w3.org/2000/svg"
   xmlns:svg="http://www.w3.org/2000/svg">
  <sodipodi:namedview
     id="namedview1"
     pagecolor="#ffffff"
     bordercolor="#000000"
     borderopacity="0.25"
     inkscape:showpageshadow="false"
     inkscape:pageopacity="0.0"
     inkscape:pagecheckerboard="0"
     inkscape:deskcolor="#d1d1d1"
     inkscape:document-units="px"
     inkscape:zoom="6.0422711"
     inkscape:cx="104.84468"
     inkscape:cy="15.805315"
     inkscape:window-width="2526"
     inkscape:window-height="1404"
     inkscape:window-x="34"
     inkscape:window-y="0"
     inkscape:window-maximized="1"
     inkscape:current-layer="layer1" />
  <defs
     id="defs1" />
  <g
     inkscape:label="Livello 1"
     inkscape:groupmode="layer"
     id="layer1">
    <path
       id="path1"
       style="fill:#cccccc;fill-opacity:1;stroke-width:0.291261"
       d="M 6.6456985,5.9988038 H 7.5195859 V 3.4380751 H 6.5251613 l 0.1205572,0.1205572 z" />
    <path
       id="path34"
       style="fill:#cccccc;fill-opacity:1;stroke-width:0.291261"
       d="M 2.8593164,5.9988038 H 5.1894461 V 5.0718597 A 1.1120381,1.1120381 0 0 0 4.0771132,3.9601765 H 3.9710096 A 1.1120381,1.1120381 0 0 0 2.8593364,5.0718597 Z" />
    <path
       id="path33"
       style="fill:#2b6b00;fill-opacity:1;stroke-width:0.291261"
       d="M 1.4030541,5.9988038 H 0.5291667 A 0.8737858,0.8737858 0 0 0 1.4030541,6.8726812 H 6.6456985 A 0.8737858,0.8737858 0 0 0 7.5195859,5.9988038 H 6.6456985 5.1894461 2.8593164 Z" />
    <path
       id="path32"
       style="fill:#cccccc;fill-opacity:1;stroke-width:0.291261"
       d="M 0.5291667,3.4380751 V 5.9988038 H 1.4030541 V 3.5586023 L 1.5236113,3.4380551 Z" />
    <path
       id="path31"
       style="fill:#d40000;fill-opacity:1;stroke-width:0.291261"
       d="M 3.9100663,0.0119753 A 0.72815485,0.72815485 0 0 0 3.5091519,0.2163658 L 0.5291667,3.1970007 V 3.4380751 H 1.5235813 L 4.0240464,0.9369602 6.5251613,3.4380751 H 7.5195859 V 3.1970007 L 4.538941,0.2163658 A 0.72815485,0.72815485 0 0 0 3.9100663,0.0119753 Z" />
    <path
       d="m 9.2008697,1.9203297 c -0.7770298,0 -1.2846875,1.0464018 -1.2846875,2.0202754 0,0.9324317 0.4454949,1.6783751 1.0567573,1.833777 v 0.849548 c 0,0.1243256 0.1036046,0.2382957 0.2382856,0.2382957 0.1346811,0 0.2382857,-0.1036046 0.2382857,-0.2382957 V 5.7640266 C 10.050418,5.6086147 10.495913,4.8626713 10.495913,3.9302396 10.485517,2.9667315 9.967534,1.9203297 9.2008697,1.9203297 Z M 9.4391553,5.2770899 V 4.7901531 c 0,-0.1243256 -0.1036046,-0.2382957 -0.2382856,-0.2382957 -0.134691,0 -0.2382957,0.1036046 -0.2382957,0.2382957 V 5.2874453 C 8.6310492,5.1113224 8.3823981,4.5622229 8.3823981,3.9406051 c 0,-0.7873953 0.404053,-1.5540596 0.8184716,-1.5540596 0.4144085,0 0.8184613,0.7666643 0.8184613,1.5540596 0,0.6112523 -0.2486408,1.1499964 -0.5801757,1.3364848 z"
       id="path1-7"
       style="fill:#2b6b00;fill-opacity:1;stroke-width:0.103604" />
    <path
       d="m 14.184198,3.1739308 c 0,-1.2432357 -0.621618,-2.569365 -1.55405,-2.569365 -0.932432,0 -1.554059,1.3261293 -1.554059,2.569365 0,1.2018037 0.559465,2.1653218 1.315764,2.3414447 v 1.1189201 c 0,0.1243256 0.103604,0.2382857 0.238295,0.2382857 0.134681,0 0.238286,-0.1036047 0.238286,-0.2382857 V 5.5153755 c 0.745943,-0.1657674 1.315764,-1.139641 1.315764,-2.3414447 z m -1.32612,1.8545079 V 4.2617744 c 0,-0.1243255 -0.103604,-0.2382956 -0.238295,-0.2382956 -0.134681,0 -0.238286,0.1036046 -0.238286,0.2382956 V 5.0284387 C 11.904916,4.8315949 11.531949,4.0649206 11.531949,3.1842962 c 0,-1.0774782 0.528379,-2.1031591 1.087834,-2.1031591 0.559465,0 1.087843,1.0256809 1.087843,2.1031591 0.0104,0.8806244 -0.372976,1.6472987 -0.849548,1.8441425 z"
       id="path2"
       style="fill:#2b6b00;fill-opacity:1;stroke-width:0.103604" />
    <g
       id="path35">
      <path
         style="color:#000000;fill:#aa4400;stroke-linecap:round;stroke-linejoin:round;-inkscape-stroke:none"
         d="M 9.2008597,4.5518574 V 6.6108459"
         id="path5" />
      <path
         style="color:#000000;fill:#aa4400;stroke-linecap:round;stroke-linejoin:round;-inkscape-stroke:none"
         d="M 9.2011719,4.2832031 A 0.2683225,0.2683225 0 0 0 8.9316406,4.5527344 V 6.6113281 A 0.2683225,0.2683225 0 0 0 9.2011719,6.8789062 0.2683225,0.2683225 0 0 0 9.46875,6.6113281 V 4.5527344 A 0.2683225,0.2683225 0 0 0 9.2011719,4.2832031 Z"
         id="path6" />
    </g>
    <g
       id="path36">
      <path
         style="color:#000000;fill:#aa4400;stroke-linecap:round;stroke-linejoin:round;-inkscape-stroke:none"
         d="m 12.646931,4.2835349 -0.01669,2.3126774"
         id="path3" />
      <path
         style="color:#000000;fill:#aa4400;stroke-linecap:round;stroke-linejoin:round;-inkscape-stroke:none"
         d="M 12.648438,4.015625 A 0.2683225,0.2683225 0 0 0 12.378906,4.28125 l -0.01758,2.3125 a 0.2683225,0.2683225 0 0 0 0.267578,0.2714844 0.2683225,0.2683225 0 0 0 0.269532,-0.2675782 l 0.01758,-2.3125 A 0.2683225,0.2683225 0 0 0 12.648438,4.015625 Z"
         id="path4" />
    </g>
    <path
       d="m 20.937494,0.17286218 q 0,-0.0960357 0.09604,-0.0960357 h 0.489782 q 0.09604,0 0.09604,0.0960357 V 6.7032898 q 0,0.096036 -0.09604,0.096036 H 21.03353 q -0.09604,0 -0.09604,-0.096036 V 3.7742009 q 0,-0.038414 -0.03841,-0.038414 h -1.709435 q -0.03841,0 -0.03841,0.038414 v 2.9290889 q 0,0.096036 -0.09604,0.096036 h -0.489782 q -0.09604,0 -0.09604,-0.096036 V 0.17286218 q 0,-0.0960357 0.09604,-0.0960357 h 0.489782 q 0.09604,0 0.09604,0.0960357 V 3.0923475 q 0,0.038414 0.03841,0.038414 h 1.709435 q 0.03841,0 0.03841,-0.038414 z M 24.490798,6.876154 q -0.739475,0 -1.200446,-0.4609713 Q 22.838984,5.9542113 22.838984,5.1955293 V 1.6806227 q 0,-0.75868206 0.451368,-1.21965342 0.460971,-0.4609713628247 1.200446,-0.4609713628247 0.749079,0 1.21005,0.4609713628247 0.460971,0.46097136 0.460971,1.21965342 v 3.5149066 q 0,0.7490784 -0.460971,1.2196534 -0.460971,0.4609713 -1.21005,0.4609713 z m 0,-0.5954213 q 0.441764,0 0.710664,-0.2881071 0.278504,-0.2977107 0.278504,-0.758682 V 1.651812 q 0,-0.470575 -0.278504,-0.75868207 -0.2689,-0.29771067 -0.710664,-0.29771067 -0.432161,0 -0.701061,0.29771067 -0.2689,0.28810707 -0.2689,0.75868207 v 3.5821316 q 0,0.4609713 0.2689,0.758682 0.2689,0.2881071 0.701061,0.2881071 z m 5.819758,-6.13668123 q 0.02881,-0.06722499 0.115243,-0.06722499 h 0.499385 q 0.09604,0 0.09604,0.0960357 V 6.7032898 q 0,0.096036 -0.09604,0.096036 h -0.489782 q -0.09604,0 -0.09604,-0.096036 V 1.5557763 q 0,-0.028811 -0.01921,-0.028811 -0.0096,0 -0.02881,0.019207 l -0.998771,2.0743711 q -0.02881,0.067225 -0.09604,0.067225 -0.07683,0 -0.105639,-0.067225 L 28.092131,1.5557763 q -0.01921,-0.019207 -0.03841,-0.019207 -0.0096,0 -0.0096,0.028811 v 5.13791 q 0,0.096036 -0.09604,0.096036 h -0.489782 q -0.09604,0 -0.09604,-0.096036 V 0.17286218 q 0,-0.0960357 0.09604,-0.0960357 h 0.499385 q 0.08643,0 0.115243,0.06722499 l 1.094807,2.21842463 q 0.0096,0.019207 0.02881,0.019207 0.01921,0 0.02881,-0.019207 z m 5.118701,0.43216065 q 0,0.0960357 -0.09604,0.0960357 h -2.228028 q -0.03841,0 -0.03841,0.0384143 v 2.3816854 q 0,0.038414 0.03841,0.038414 h 1.402121 q 0.09604,0 0.09604,0.096036 v 0.4129535 q 0,0.096036 -0.09604,0.096036 h -1.402121 q -0.03841,0 -0.03841,0.038414 v 2.3912889 q 0,0.038414 0.03841,0.038414 h 2.228028 q 0.09604,0 0.09604,0.096036 v 0.40335 q 0,0.096036 -0.09604,0.096036 h -2.85226 q -0.09604,0 -0.09604,-0.096036 V 0.17286218 q 0,-0.0960357 0.09604,-0.0960357 h 2.85226 q 0.09604,0 0.09604,0.0960357 z"
       id="text36"
       style="font-stretch:condensed;font-size:9.60357px;font-family:'Barlow Condensed';-inkscape-font-specification:'Barlow Condensed,  Condensed';letter-spacing:0px;fill:#2b6b00;stroke-width:1.28048;stroke-linecap:round;stroke-linejoin:round"
       aria-label="HOME" />
  </g>
</svg>
