<?xml version="1.0" encoding="UTF-8" standalone="no"?>
<!-- Created with Inkscape (http://www.inkscape.org/) -->

<svg
   width="256"
   height="54"
   viewBox="0 0 67.733332 14.2875"
   version="1.1"
   id="svg1"
   inkscape:version="1.3.2 (091e20ef0f, 2023-11-25)"
   sodipodi:docname="reason-logo-show.svg"
   xml:space="preserve"
   xmlns:inkscape="http://www.inkscape.org/namespaces/inkscape"
   xmlns:sodipodi="http://sodipodi.sourceforge.net/DTD/sodipodi-0.dtd"
   xmlns="http://www.w3.org/2000/svg"
   xmlns:svg="http://www.w3.org/2000/svg"><sodipodi:namedview
     id="namedview1"
     pagecolor="#ffffff"
     bordercolor="#000000"
     borderopacity="0.25"
     inkscape:showpageshadow="false"
     inkscape:pageopacity="0.0"
     inkscape:pagecheckerboard="0"
     inkscape:deskcolor="#d1d1d1"
     inkscape:document-units="px"
     inkscape:zoom="11.313708"
     inkscape:cx="60.45763"
     inkscape:cy="37.786019"
     inkscape:window-width="2528"
     inkscape:window-height="1404"
     inkscape:window-x="2592"
     inkscape:window-y="0"
     inkscape:window-maximized="1"
     inkscape:current-layer="layer1" /><defs
     id="defs1"><style
       id="style1">.cls-1{fill:#ffffff;}.cls-2{fill:#e5e5e5;}.cls-3{fill:#426572;}.cls-4{fill:#fbc907;}.cls-5{fill:#f3a70f;}.cls-6{fill:#f9f9f9;}.cls-7{opacity:0.5;}.cls-8{fill:#7490a8;}</style></defs><g
     inkscape:label="Livello 1"
     inkscape:groupmode="layer"
     id="layer1"><rect
       class="cls-1"
       height="12.579011"
       rx="1.3074983"
       ry="1.3074983"
       width="9.5241079"
       x="1.6534376"
       y="0.96691668"
       id="rect1"
       style="stroke-width:0.03594" /><path
       class="cls-2"
       d="m 1.554962,12.251727 v -0.796791 a 1.3509857,1.3509857 0 0 0 1.3509857,1.351345 h 7.0083058 a 1.3509857,1.3509857 0 0 0 1.3499075,-1.351345 v 0.796072 A 1.3509857,1.3509857 0 0 1 9.9131753,13.601994 H 2.9048695 A 1.3509857,1.3509857 0 0 1 1.554962,12.251727 Z"
       id="path1"
       style="stroke-width:0.03594" /><path
       class="cls-3"
       d="M 9.9426462,13.758333 H 2.9343403 A 1.5684229,1.5684229 0 0 1 1.3687926,12.192066 V 2.095793 A 1.5684229,1.5684229 0 0 1 2.9354185,0.52916711 H 9.9437244 A 1.5684229,1.5684229 0 0 1 11.51035,2.095793 V 4.9497908 H 11.07907 V 2.095793 A 1.1364237,1.1364237 0 0 0 9.9426462,0.96044747 H 2.9343403 A 1.1364237,1.1364237 0 0 0 1.800073,2.095793 v 10.096273 a 1.1364237,1.1364237 0 0 0 1.1353455,1.135346 H 9.9437244 A 1.1364237,1.1364237 0 0 0 11.07907,12.192066 V 10.58986 h 0.43128 v 1.602206 a 1.5684229,1.5684229 0 0 1 -1.5677038,1.566267 z"
       id="path2"
       style="stroke-width:0.03594;fill:#666666;fill-opacity:1" /><rect
       class="cls-3"
       height="0.43128037"
       width="3.3064828"
       x="3.4339068"
       y="6.3669057"
       id="rect6"
       style="stroke-width:0.03594;fill:#666666;fill-opacity:1" /><rect
       class="cls-3"
       height="0.43128037"
       width="3.3064828"
       x="3.4339068"
       y="7.4077296"
       id="rect7"
       style="stroke-width:0.03594;fill:#666666;fill-opacity:1" /><rect
       class="cls-3"
       height="0.43128037"
       width="3.3064828"
       x="3.4339068"
       y="8.4489117"
       id="rect8"
       style="stroke-width:0.03594;fill:#666666;fill-opacity:1" /><g
       class="cls-7"
       id="g13"
       transform="matrix(0.03594003,0,0,0.03594003,1.3687926,0.52916711)"
       style="fill:#b3b3b3"><path
         class="cls-8"
         d="m 38,35.95 h 34.77 c 3.86,0 3.87,-6 0,-6 H 38 c -3.86,0 -3.87,6 0,6 z"
         id="path12"
         style="fill:#b3b3b3" /><path
         class="cls-8"
         d="m 87.17,35.95 h 86.34 c 3.86,0 3.87,-6 0,-6 H 87.17 c -3.86,0 -3.87,6 0,6 z"
         id="path13"
         style="fill:#b3b3b3" /></g><path
       d="M 7.9938272,2.7683065 V 4.7857543 H 9.4252644 V 4.1315307 H 8.7198811 V 2.7683065 Z"
       style="font-size:2.82223px;font-family:'Futura XBlk BT';-inkscape-font-specification:'Futura XBlk BT';letter-spacing:0px;fill:#666666;stroke-width:0.79375;stroke-linecap:square;stroke-linejoin:round"
       id="path20" /><path
       d="M 6.865214,2.7683065 V 4.7857543 H 7.6021199 V 2.7683065 Z"
       style="font-size:2.82223px;font-family:'Futura XBlk BT';-inkscape-font-specification:'Futura XBlk BT';letter-spacing:0px;fill:#666666;stroke-width:0.79375;stroke-linecap:square;stroke-linejoin:round"
       id="path19" /><path
       d="m 5.5050903,2.7228312 c -0.1525032,0 -0.2944406,0.026068 -0.4258138,0.077515 -0.1313732,0.051447 -0.247128,0.1259755 -0.3472656,0.2242758 -0.099219,0.097382 -0.1750111,0.2103802 -0.2273763,0.3389973 -0.051447,0.1276985 -0.077515,0.2668798 -0.077515,0.4175456 0,0.1497471 0.026068,0.2888136 0.077515,0.4165121 0.051447,0.1276984 0.1272387,0.2408119 0.2273763,0.3400309 0.1010563,0.099219 0.2168111,0.1748957 0.3472656,0.2263427 0.1313732,0.050528 0.2733106,0.075448 0.4258138,0.075448 0.2067061,0 0.3913626,-0.045475 0.5539713,-0.1364257 0.1626089,-0.091869 0.2950149,-0.2241606 0.3979086,-0.396875 0.04226,-0.073495 0.074588,-0.1576708 0.096635,-0.2532146 0.022049,-0.095544 0.033073,-0.2015378 0.033073,-0.3172932 0,-0.015618 -6.303e-4,-0.033532 -0.00155,-0.053744 -9.133e-4,-0.020211 -0.00229,-0.050643 -0.00413,-0.091984 H 5.466333 v 0.4738729 h 0.315743 c -0.00827,0.052366 -0.034451,0.093075 -0.078548,0.1224731 -0.043179,0.029398 -0.099678,0.044442 -0.1694987,0.044442 -0.1175928,0 -0.208543,-0.039217 -0.2728516,-0.1173055 -0.064309,-0.079008 -0.096635,-0.189882 -0.096635,-0.3322795 0,-0.137804 0.031695,-0.2474151 0.095085,-0.3291789 0.064309,-0.081764 0.1503783,-0.1224731 0.2578654,-0.1224731 0.061553,0 0.1160422,0.01378 0.1638143,0.041341 0.047772,0.027561 0.088482,0.069017 0.1224732,0.125057 L 6.4502522,3.256132 C 6.3482772,3.0815801 6.2167325,2.9492889 6.055961,2.859257 5.8951897,2.7683063 5.7117964,2.7228312 5.5050903,2.7228312 Z"
       style="font-size:2.82223px;font-family:'Futura XBlk BT';-inkscape-font-specification:'Futura XBlk BT';letter-spacing:0px;fill:#666666;stroke-width:0.79375;stroke-linecap:square;stroke-linejoin:round"
       id="path7" /><path
       d="m 3.7036499,2.7202474 c -0.1534219,0 -0.2961057,0.025551 -0.4283977,0.076998 -0.1313732,0.050528 -0.2471279,0.1255735 -0.3472656,0.2247924 -0.099219,0.0983 -0.175011,0.2119306 -0.2273763,0.3405477 -0.051447,0.1286172 -0.076998,0.2679133 -0.076998,0.4185791 0,0.20395 0.045475,0.3844724 0.1364258,0.541569 0.091869,0.1570967 0.2269166,0.2872634 0.4051432,0.3901571 0.073496,0.040423 0.1555461,0.071486 0.2464966,0.093534 0.090951,0.022049 0.1854034,0.033073 0.2837036,0.033073 0.079008,0 0.1581872,-0.00827 0.2371949,-0.024805 0.079008,-0.015618 0.1581871,-0.03916 0.2371948,-0.071313 l 0.023254,-0.7596436 c -0.085438,0.065227 -0.1646181,0.1133434 -0.2371948,0.1436605 -0.071658,0.029398 -0.1420527,0.043925 -0.2118734,0.043925 -0.1157554,0 -0.2080837,-0.035197 -0.2769857,-0.1059367 C 3.3980697,3.9946454 3.3636189,3.899676 3.3636189,3.7811645 c 0,-0.1212676 0.035829,-0.2178447 0.107487,-0.2904215 0.072577,-0.073495 0.1677759,-0.1105876 0.2862875,-0.1105876 0.076251,0 0.1491724,0.01579 0.2180745,0.047026 0.068902,0.031235 0.1364257,0.07872 0.2025716,0.1421101 V 2.8220499 C 4.1027066,2.7880586 4.0249051,2.763139 3.9449788,2.7466023 3.8659711,2.729147 3.7854137,2.7202474 3.7036499,2.7202474 Z"
       style="font-size:2.82223px;font-family:'Futura XBlk BT';-inkscape-font-specification:'Futura XBlk BT';letter-spacing:0px;fill:#666666;stroke-width:0.79375;stroke-linecap:square;stroke-linejoin:round"
       id="path6" /><g
       id="g1"
       transform="matrix(0.77380638,0,0,0.77380638,2.2856977,1.6348112)"><rect
         style="fill:#d40000;fill-opacity:1;stroke:none;stroke-width:0.718159;stroke-linecap:square;stroke-linejoin:round"
         id="rect20"
         width="4.6779079"
         height="4.6330762"
         x="8.9252071"
         y="5.4225535"
         ry="0.61636746" /><path
         id="rect21"
         style="fill:#940000;fill-opacity:1;stroke-width:0.788829;stroke-linecap:square;stroke-linejoin:round"
         d="m 13.603115,9.3119877 v 0 C 13.633409,9.7370015 13.36492,10.05563 12.986748,10.05563 H 9.5415746 c -0.3414676,0 -0.6559093,-0.2529411 -0.6163675,-0.7436423 v 0 z"
         sodipodi:nodetypes="ccssccc" /></g><path
       d="m 65.124191,5.8197997 c -0.506531,0 -0.902496,0.1687417 -1.188041,0.5064291 -0.283061,0.3352044 -0.42478,0.829569 -0.42478,1.4825968 v 0.3312459 c 0,0.583504 0.149042,1.0390862 0.447001,1.3668417 0.300443,0.3277554 0.725083,0.4914428 1.273824,0.4914428 0.345137,0 0.631978,-0.064154 0.860413,-0.1932698 0.230918,-0.1291158 0.399659,-0.2657804 0.506429,-0.4097941 L 66.182008,8.7581217 C 65.951089,9.0014552 65.65806,9.123474 65.302992,9.123474 c -0.225953,0 -0.402534,-0.063536 -0.529167,-0.1901692 C 64.649674,8.804189 64.5816,8.5797505 64.569186,8.2594441 h 2.089279 V 7.7416462 C 66.653499,7.1010334 66.523022,6.620697 66.267274,6.3003906 66.011525,5.9800841 65.630722,5.8197997 65.124191,5.8197997 Z m -0.0041,0.8753988 c 0.183741,0 0.313084,0.061885 0.387573,0.1860352 0.07449,0.1216667 0.114407,0.3039197 0.119373,0.5472534 v 0.093534 h -1.054199 c 0.0149,-0.2905105 0.06327,-0.5003032 0.145211,-0.6294189 0.08442,-0.1315988 0.2183,-0.197404 0.402042,-0.1974037 z"
       style="font-weight:bold;font-size:7.62777px;font-family:'Roboto Condensed';-inkscape-font-specification:'Roboto Condensed,  Bold';letter-spacing:0px;fill:#0d7474;stroke-width:2.1453;stroke-linecap:square;stroke-linejoin:round"
       id="path53" /><path
       d="m 61.78331,5.8197997 c -0.384864,0 -0.69811,0.1563646 -0.938961,0.469222 l -0.02946,-0.3948079 h -0.98702 V 9.923942 h 1.054199 V 6.9964721 c 0.106769,-0.1986397 0.255294,-0.2976562 0.446484,-0.2976562 0.153946,0 0.269777,0.045588 0.346749,0.1374593 0.07946,0.089388 0.118856,0.2620493 0.118856,0.5177978 v 2.569869 h 1.054199 V 7.3618245 c 0,-0.571089 -0.09953,-0.9709744 -0.298173,-1.19941 C 62.354032,5.9339789 62.09865,5.8197997 61.78331,5.8197997 Z"
       style="font-weight:bold;font-size:7.62777px;font-family:'Roboto Condensed';-inkscape-font-specification:'Roboto Condensed,  Bold';letter-spacing:0px;fill:#0d7474;stroke-width:2.1453;stroke-linecap:square;stroke-linejoin:round"
       id="path52" /><path
       d="m 57.563413,5.8197997 c -0.4966,0 -0.892565,0.1687417 -1.188042,0.5064291 -0.292993,0.3352044 -0.439766,0.8194606 -0.439766,1.4526245 v 0.2645833 c 0,0.6331638 0.147907,1.1169033 0.443384,1.4521077 0.295476,0.3352044 0.692576,0.5028117 1.191658,0.5028117 0.496599,0 0.89143,-0.1676073 1.184424,-0.5028117 0.295476,-0.3352044 0.443384,-0.8189439 0.443384,-1.4521077 V 7.7788533 c 0,-0.6331639 -0.147908,-1.1174201 -0.443384,-1.4526245 C 58.462077,5.9885414 58.064977,5.8197997 57.563413,5.8197997 Z m 0,0.8753988 c 0.387347,0 0.580843,0.361103 0.580843,1.0836548 v 0.3312459 c -0.01241,0.6753748 -0.203642,1.0133748 -0.573609,1.0133748 -0.387347,0 -0.580843,-0.3599687 -0.580843,-1.0800374 V 7.7116739 c 0.01242,-0.6778578 0.203642,-1.0164754 0.573609,-1.0164754 z"
       style="font-weight:bold;font-size:7.62777px;font-family:'Roboto Condensed';-inkscape-font-specification:'Roboto Condensed,  Bold';letter-spacing:0px;fill:#0d7474;stroke-width:2.1453;stroke-linecap:square;stroke-linejoin:round"
       id="path51" /><path
       d="M 54.177573,5.8942138 V 9.923942 h 1.057816 V 5.8942138 Z"
       style="font-weight:bold;font-size:7.62777px;font-family:'Roboto Condensed';-inkscape-font-specification:'Roboto Condensed,  Bold';letter-spacing:0px;fill:#0d7474;stroke-width:2.1453;stroke-linecap:square;stroke-linejoin:round"
       id="path58" /><path
       d="m 54.706739,4.2891438 c -0.176293,0 -0.316877,0.052911 -0.421162,0.1596802 -0.104286,0.1042858 -0.156063,0.2386817 -0.156063,0.4025594 0,0.1613947 0.05178,0.2952738 0.156063,0.4020427 0.104285,0.1042858 0.244869,0.1565795 0.421162,0.1565795 0.17381,0 0.312743,-0.052294 0.417029,-0.1565795 0.104286,-0.1067689 0.15658,-0.240648 0.15658,-0.4020427 0,-0.1638777 -0.05229,-0.2982736 -0.15658,-0.4025594 C 55.019482,4.3420552 54.880549,4.2891438 54.706739,4.2891438 Z"
       style="font-weight:bold;font-size:7.62777px;font-family:'Roboto Condensed';-inkscape-font-specification:'Roboto Condensed,  Bold';letter-spacing:0px;fill:#0d7474;stroke-width:2.1453;stroke-linecap:square;stroke-linejoin:round"
       id="path44" /><path
       d="m 52.002512,5.8197997 c -0.437008,0 -0.778411,0.1192334 -1.024227,0.357601 -0.245817,0.2358846 -0.368453,0.521074 -0.368453,0.8562784 0,0.3227894 0.09788,0.5764187 0.294039,0.7601603 0.19864,0.1837417 0.48156,0.3474291 0.849044,0.4914429 0.250782,0.1092518 0.429632,0.203731 0.536401,0.2831869 0.106769,0.079456 0.160197,0.1711496 0.160197,0.2754353 0,0.2557486 -0.141719,0.3839559 -0.42478,0.3839559 -0.151463,0 -0.275233,-0.037648 -0.372071,-0.1121378 -0.09687,-0.07449 -0.148029,-0.2207461 -0.152962,-0.4392497 h -0.997872 c 0,0.3277554 0.127691,0.6303762 0.383439,0.9084717 0.258231,0.2756125 0.630577,0.4134114 1.117245,0.4134114 0.449422,0 0.807122,-0.1102593 1.072802,-0.3312459 0.265681,-0.2209867 0.398426,-0.510096 0.398426,-0.8676473 0,-0.3327214 -0.09561,-0.5925391 -0.286804,-0.7787638 C 52.998228,7.8344743 52.70293,7.6657327 52.300685,7.5142699 52.042453,7.4075011 51.863603,7.3180761 51.764283,7.2460693 c -0.09684,-0.072007 -0.14521,-0.1602975 -0.14521,-0.2645834 0,-0.2631975 0.126556,-0.3942911 0.379821,-0.3942911 0.27313,0 0.409795,0.1648218 0.409795,0.4950602 h 1.053682 c 0,-0.3774153 -0.129959,-0.6816872 -0.390674,-0.9126058 -0.260714,-0.2334016 -0.61728,-0.3498495 -1.069185,-0.3498495 z"
       style="font-weight:bold;font-size:7.62777px;font-family:'Roboto Condensed';-inkscape-font-specification:'Roboto Condensed,  Bold';letter-spacing:0px;fill:#0d7474;stroke-width:2.1453;stroke-linecap:square;stroke-linejoin:round"
       id="path50" /><path
       d="m 48.538641,5.8197997 c -0.437008,0 -0.778411,0.1192334 -1.024227,0.357601 -0.245817,0.2358846 -0.368453,0.521074 -0.368453,0.8562784 0,0.3227894 0.09788,0.5764187 0.294039,0.7601603 0.198639,0.1837417 0.48156,0.3474291 0.849043,0.4914429 0.250783,0.1092518 0.429633,0.203731 0.536402,0.2831869 0.106768,0.079456 0.160197,0.1711496 0.160197,0.2754353 0,0.2557486 -0.141203,0.3839559 -0.424264,0.3839559 -0.151463,0 -0.27575,-0.037648 -0.372587,-0.1121378 -0.09687,-0.07449 -0.148029,-0.2207461 -0.152962,-0.4392497 h -0.997872 c 0,0.3277554 0.127691,0.6303762 0.383439,0.9084717 0.258232,0.2756125 0.630577,0.4134114 1.117245,0.4134114 0.449422,0 0.807122,-0.1102593 1.072802,-0.3312459 0.265681,-0.2209867 0.398426,-0.510096 0.398426,-0.8676473 0,-0.3327214 -0.09561,-0.5925391 -0.286805,-0.7787638 C 49.534357,7.8344743 49.239059,7.6657327 48.836814,7.5142699 48.578582,7.4075011 48.399732,7.3180761 48.300412,7.2460693 48.203575,7.1740624 48.155201,7.0857718 48.155201,6.9814859 c 0,-0.2631975 0.126556,-0.3942911 0.379822,-0.3942911 0.27313,0 0.409794,0.1648218 0.409794,0.4950602 h 1.0542 c 0,-0.3774153 -0.130477,-0.6816872 -0.391191,-0.9126058 C 49.347112,5.9362476 48.990545,5.8197997 48.538641,5.8197997 Z"
       style="font-weight:bold;font-size:7.62777px;font-family:'Roboto Condensed';-inkscape-font-specification:'Roboto Condensed,  Bold';letter-spacing:0px;fill:#0d7474;stroke-width:2.1453;stroke-linecap:square;stroke-linejoin:round"
       id="path49" /><path
       d="M 45.324366,5.8942138 V 9.923942 h 1.057817 V 5.8942138 Z"
       style="font-weight:bold;font-size:7.62777px;font-family:'Roboto Condensed';-inkscape-font-specification:'Roboto Condensed,  Bold';letter-spacing:0px;fill:#0d7474;stroke-width:2.1453;stroke-linecap:square;stroke-linejoin:round"
       id="path57" /><path
       d="m 45.853533,4.2891438 c -0.176292,0 -0.316877,0.052911 -0.421163,0.1596802 -0.104286,0.1042858 -0.156063,0.2386817 -0.156063,0.4025594 0,0.1613947 0.05178,0.2952738 0.156063,0.4020427 0.104286,0.1042858 0.244871,0.1565795 0.421163,0.1565795 0.17381,0 0.312743,-0.052294 0.417029,-0.1565795 0.104286,-0.1067689 0.15658,-0.240648 0.15658,-0.4020427 0,-0.1638777 -0.05229,-0.2982736 -0.15658,-0.4025594 C 46.166276,4.3420552 46.027343,4.2891438 45.853533,4.2891438 Z"
       style="font-weight:bold;font-size:7.62777px;font-family:'Roboto Condensed';-inkscape-font-specification:'Roboto Condensed,  Bold';letter-spacing:0px;fill:#0d7474;stroke-width:2.1453;stroke-linecap:square;stroke-linejoin:round"
       id="path43" /><path
       d="M 39.544358,4.5010172 V 9.923942 h 1.098641 V 8.4568481 l -0.10077,-2.2458578 1.080038,3.7129517 h 0.748791 L 43.451096,6.2109903 43.350844,8.4568481 V 9.923942 h 1.09864 V 4.5010172 H 43.019081 L 41.998471,8.419641 40.974244,4.5010172 Z"
       style="font-weight:bold;font-size:7.62777px;font-family:'Roboto Condensed';-inkscape-font-specification:'Roboto Condensed,  Bold';letter-spacing:0px;fill:#0d7474;stroke-width:2.1453;stroke-linecap:square;stroke-linejoin:round"
       id="path46" /><path
       d="m 29.449365,5.8942138 1.106392,4.0297282 h 1.009241 L 32.670874,5.8942138 H 31.572233 L 31.065804,8.4304931 30.551623,5.8942138 Z"
       style="font-weight:bold;font-size:7.62777px;font-family:'Roboto Condensed';-inkscape-font-specification:'Roboto Condensed,  Bold';letter-spacing:0px;fill:#0d7474;stroke-width:2.1453;stroke-linecap:square;stroke-linejoin:round"
       id="path55" /><path
       d="M 27.858764,5.8942138 V 9.923942 h 1.057817 V 5.8942138 Z"
       style="font-weight:bold;font-size:7.62777px;font-family:'Roboto Condensed';-inkscape-font-specification:'Roboto Condensed,  Bold';letter-spacing:0px;fill:#0d7474;stroke-width:2.1453;stroke-linecap:square;stroke-linejoin:round"
       id="path54" /><path
       d="m 28.387931,4.2891438 c -0.176293,0 -0.316878,0.052911 -0.421163,0.1596802 -0.104286,0.1042858 -0.156063,0.2386817 -0.156063,0.4025594 0,0.1613947 0.05178,0.2952738 0.156063,0.4020427 0.104285,0.1042858 0.24487,0.1565795 0.421163,0.1565795 0.17381,0 0.312744,-0.052294 0.417029,-0.1565795 0.104286,-0.1067689 0.156579,-0.240648 0.156579,-0.4020427 0,-0.1638777 -0.05229,-0.2982736 -0.156579,-0.4025594 C 28.700675,4.3420552 28.561741,4.2891438 28.387931,4.2891438 Z"
       style="font-weight:bold;font-size:7.62777px;font-family:'Roboto Condensed';-inkscape-font-specification:'Roboto Condensed,  Bold';letter-spacing:0px;fill:#0d7474;stroke-width:2.1453;stroke-linecap:square;stroke-linejoin:round"
       id="path41" /><path
       d="M 25.642879,4.8999593 V 5.8942138 H 25.173657 V 6.687447 h 0.469222 v 2.1156332 c 0,0.4295581 0.09334,0.7360988 0.279569,0.9198404 0.186225,0.1837417 0.435418,0.2754354 0.748275,0.2754354 0.218503,0 0.41365,-0.033211 0.584977,-0.1002523 l 0.0036,-0.8232055 c -0.06952,0.019864 -0.152761,0.029972 -0.249597,0.029972 -0.114218,0 -0.19632,-0.02754 -0.24598,-0.082166 -0.04717,-0.054626 -0.07028,-0.1665364 -0.07028,-0.3353801 V 6.687447 H 27.23348 V 5.8942138 H 26.693461 V 4.8999593 Z"
       style="font-weight:bold;font-size:7.62777px;font-family:'Roboto Condensed';-inkscape-font-specification:'Roboto Condensed,  Bold';letter-spacing:0px;fill:#0d7474;stroke-width:2.1453;stroke-linecap:square;stroke-linejoin:round"
       id="path47" /><path
       d="m 23.181014,5.8197997 c -0.4966,0 -0.892565,0.1687417 -1.188041,0.5064291 -0.292994,0.3352044 -0.439767,0.8194606 -0.439767,1.4526245 v 0.2645833 c 0,0.6331638 0.147907,1.1169033 0.443384,1.4521077 0.295476,0.3352044 0.692576,0.5028117 1.191658,0.5028117 0.496599,0 0.891431,-0.1676073 1.184424,-0.5028117 0.295477,-0.3352044 0.443384,-0.8189439 0.443384,-1.4521077 V 7.7788533 c 0,-0.6331639 -0.147907,-1.1174201 -0.443384,-1.4526245 C 24.079679,5.9885414 23.682579,5.8197997 23.181014,5.8197997 Z m 0,0.8753988 c 0.387347,0 0.580843,0.361103 0.580843,1.0836548 v 0.3312459 c -0.01242,0.6753748 -0.203642,1.0133748 -0.573609,1.0133748 -0.387347,0 -0.580843,-0.3599687 -0.580843,-1.0800374 V 7.7116739 c 0.01242,-0.6778578 0.203642,-1.0164754 0.573609,-1.0164754 z"
       style="font-weight:bold;font-size:7.62777px;font-family:'Roboto Condensed';-inkscape-font-specification:'Roboto Condensed,  Bold';letter-spacing:0px;fill:#0d7474;stroke-width:2.1453;stroke-linecap:square;stroke-linejoin:round"
       id="path48" /><path
       d="M 15.940629,4.5010172 V 9.923942 H 17.03927 V 8.4568481 L 16.939018,6.2109903 18.019055,9.923942 H 18.76733 L 19.847367,6.2109903 19.747115,8.4568481 V 9.923942 h 1.098641 V 4.5010172 H 19.415352 L 18.395259,8.419641 17.371033,4.5010172 Z"
       style="font-weight:bold;font-size:7.62777px;font-family:'Roboto Condensed';-inkscape-font-specification:'Roboto Condensed,  Bold';letter-spacing:0px;fill:#0d7474;stroke-width:2.1453;stroke-linecap:square;stroke-linejoin:round"
       id="path45" /><path
       d="m 34.831466,5.8197997 c -0.4966,0 -0.892565,0.1687417 -1.188041,0.5064291 -0.292994,0.3352044 -0.439767,0.8194606 -0.439767,1.4526245 v 0.2645833 c 0,0.6331638 0.147907,1.1169033 0.443384,1.4521077 0.295476,0.3352044 0.692576,0.5028117 1.191658,0.5028117 0.496599,0 0.891431,-0.1676073 1.184424,-0.5028117 0.295477,-0.3352044 0.443384,-0.8189439 0.443384,-1.4521077 V 7.7788533 c 0,-0.6331639 -0.147907,-1.1174201 -0.443384,-1.4526245 C 35.730131,5.9885414 35.333031,5.8197997 34.831466,5.8197997 Z m 0,0.8753988 c 0.387347,0 0.580843,0.361103 0.580843,1.0836548 V 8.1100992 C 35.399889,8.785474 35.208667,9.123474 34.8387,9.123474 c -0.387347,0 -0.580843,-0.3599687 -0.580843,-1.0800374 V 7.7116739 c 0.01242,-0.6778578 0.203642,-1.0164754 0.573609,-1.0164754 z"
       style="font-weight:bold;font-size:7.62777px;font-family:'Roboto Condensed';-inkscape-font-specification:'Roboto Condensed,  Bold';letter-spacing:0px;fill:#0d7474;stroke-width:2.1453;stroke-linecap:square;stroke-linejoin:round"
       id="path3" /></g></svg>
