<?xml version="1.0" encoding="UTF-8" standalone="no"?>
<!-- Uploaded to: SVG Repo, www.svgrepo.com, Generator: SVG Repo Mixer Tools -->

<svg
   width="800px"
   height="800px"
   viewBox="0 0 24 24"
   version="1.1"
   id="svg8"
   sodipodi:docname="vehicles-vehicle-logo.svg"
   inkscape:version="1.4.3 (0d15f75042, 2025-12-25)"
   xml:space="preserve"
   xmlns:inkscape="http://www.inkscape.org/namespaces/inkscape"
   xmlns:sodipodi="http://sodipodi.sourceforge.net/DTD/sodipodi-0.dtd"
   xmlns="http://www.w3.org/2000/svg"
   xmlns:svg="http://www.w3.org/2000/svg"><defs
     id="defs8" /><sodipodi:namedview
     id="namedview8"
     pagecolor="#ffffff"
     bordercolor="#000000"
     borderopacity="0.25"
     inkscape:showpageshadow="2"
     inkscape:pageopacity="0.0"
     inkscape:pagecheckerboard="0"
     inkscape:deskcolor="#d1d1d1"
     inkscape:zoom="0.53121397"
     inkscape:cx="510.15225"
     inkscape:cy="306.84434"
     inkscape:window-width="2518"
     inkscape:window-height="1404"
     inkscape:window-x="2602"
     inkscape:window-y="0"
     inkscape:window-maximized="1"
     inkscape:current-layer="svg8" /><g
     id="g2"
     transform="matrix(0.05132282,0,0,0.05132282,-1.0616573,-1.0616576)"
     style="stroke-width:0.918719;fill:#1a1715;fill-opacity:1">
	<path
   style="fill:#1a1715;stroke-width:0.918719;fill-opacity:1"
   d="m 40.9,377.1 v 68.3 c 0,6.5 5.3,11.8 11.8,11.8 H 89 c 6.5,0 11.8,-5.3 11.8,-11.8 v -68.3 z"
   id="path1" />
	<path
   style="fill:#1a1715;stroke-width:0.918719;fill-opacity:1"
   d="m 408.1,377.1 v 68.3 c 0,6.5 5.3,11.8 11.8,11.8 h 36.3 c 6.5,0 11.8,-5.3 11.8,-11.8 v -68.3 z"
   id="path2" />
</g><g
     id="g4"
     transform="matrix(0.05132282,0,0,0.05132282,-1.0616573,-1.0616576)"
     style="stroke-width:0.918719;fill:#4d4640;fill-opacity:1">
	<path
   style="fill:#4d4640;stroke-width:0.918719;fill-opacity:1"
   d="m 72.6,206.5 h -9.8 v -30.3 c 0,0 -37.6,-7.1 -41.2,8.8 -3.6,15.9 3.7,25.2 17.2,28.8 13.5,3.6 35.8,6.4 35.8,6.4 z"
   id="path3" />
	<path
   style="fill:#4d4640;stroke-width:0.918719;fill-opacity:1"
   d="m 436.4,206.5 h 9.8 v -30.3 c 0,0 37.6,-7.1 41.2,8.8 3.6,15.9 -3.7,25.2 -17.2,28.8 -13.5,3.6 -35.8,6.4 -35.8,6.4 z"
   id="path4" />
</g><path
     style="fill:#e5d1c2;stroke-width:0.0471513;fill-opacity:1"
     d="M 22.849645,12.384922 C 22.654618,11.897354 21.905305,11.471375 21.653823,10.183173 21.40234,8.8949699 20.653028,3.5317348 19.000433,2.5206751 17.522336,1.6173935 12,1.5968644 12,1.5968644 c 0,0 -5.522335,0.020529 -7.0004323,0.9238107 C 3.346973,3.5317348 2.5976598,8.8898367 2.3461779,10.17804 2.0946962,11.466243 1.345383,11.897354 1.1503563,12.384922 0.95532951,12.872488 0.99125549,15.243602 0.99125549,15.243602 L 1.309457,16.080164 2.1049607,16.511275 12,16.65498 l 9.89504,-0.143705 0.795504,-0.431111 0.318202,-0.836562 c 0,0 0.03592,-2.376246 -0.159101,-2.85868 z"
     id="path5" /><path
     style="fill:#4d4640;stroke-width:0.0471513;fill-opacity:1"
     d="m 22.48012,15.510481 -0.667196,-0.754445 c 0,0 -2.217147,1.062382 -3.19228,1.062382 -0.975133,0 -12.2661538,0 -13.2412874,0 -0.9751335,0 -3.1922793,-1.062382 -3.1922793,-1.062382 L 1.5198805,15.510481 0.98612323,15.243602 v 3.500216 C 1.5198805,19.985831 5.5538542,20.694086 5.5538542,20.694086 H 18.441015 c 0,0 4.033973,-0.708255 4.567731,-1.950268 v -3.500216 z"
     id="path6" /><g
     id="g8"
     transform="matrix(0.05132282,0,0,0.05132282,-1.0616573,-1.0616576)"
     style="stroke-width:0.918719;fill:#1a1715;fill-opacity:1">
	<path
   style="fill:#1a1715;stroke-width:0.918719;fill-opacity:1"
   d="M 346.1,410.1 H 162.9 c -1.4,0 -2.6,-0.5 -3.6,-1.5 l -12.8,-13 c -3.1,-3.2 -0.9,-8.5 3.6,-8.5 h 208.7 c 4.5,0 6.7,5.4 3.6,8.5 l -12.8,13 c -0.9,0.9 -2.2,1.5 -3.5,1.5 z"
   id="path7" />
	<path
   style="fill:#1a1715;stroke-width:0.918719;fill-opacity:1"
   d="m 127.6,362 c 0,8.3 6.7,15.1 15.1,15.1 h 223.7 c 8.3,0 15.1,-6.7 15.1,-15.1 z"
   id="path8" />
</g><g
     id="g9"
     transform="matrix(0.05132282,0,0,0.05132282,-1.0616573,-1.0616576)"
     style="stroke-width:0.918719;fill:#f6bd60;fill-opacity:1">
	<ellipse
   style="fill:#f6bd60;stroke-width:0.918719;fill-opacity:1"
   cx="433.70001"
   cy="371.89999"
   rx="13.7"
   ry="9.8999996"
   id="ellipse8" />
	<ellipse
   style="fill:#f6bd60;stroke-width:0.918719;fill-opacity:1"
   cx="75.300003"
   cy="371.89999"
   rx="13.7"
   ry="9.8999996"
   id="ellipse9" />
</g><g
     id="g10"
     transform="matrix(0.05132282,0,0,0.05132282,-1.0616573,-1.0616576)"
     style="stroke-width:0.918719;fill:#1a1715;fill-opacity:1">
	<path
   style="fill:#1a1715;stroke-width:0.918719;fill-opacity:1"
   d="M 379.7,328.9 C 369.4,311.3 349,299.3 325.4,299.3 H 183.6 c -23.6,0 -44.1,12 -54.3,29.6 z"
   id="path9" />
	<polygon
   style="fill:#1a1715;stroke-width:0.918719;fill-opacity:1"
   points="165.7,284.2 156.4,267.2 352.6,267.2 343.3,284.2 "
   id="polygon9" />
</g><path
     style="fill:#ffe8d6;stroke-width:0.0471513;fill-opacity:1"
     d="m 2.4488236,10.917089 c 0,0 3.3462478,1.467833 3.2949251,2.602067 -0.051323,1.134234 -3.0229141,0.359259 -3.6131265,-0.436244 -0.5902125,-0.795504 0.3182014,-2.165823 0.3182014,-2.165823 z"
     id="path10" /><g
     id="g11"
     transform="matrix(0.05132282,0,0,0.05132282,-1.0616573,-1.0616576)"
     style="stroke-width:0.918719">
	<ellipse
   style="fill:#ffffff;stroke-width:0.918719"
   cx="78.900002"
   cy="262"
   rx="16.6"
   ry="18.9"
   id="ellipse10" />
	<ellipse
   style="fill:#ffffff;stroke-width:0.918719"
   cx="108.9"
   cy="276.89999"
   rx="13.4"
   ry="15"
   id="ellipse11" />
</g><path
     style="fill:#ffe8d6;stroke-width:0.0471513;fill-opacity:1"
     d="m 21.546045,10.917089 c 0,0 -3.346248,1.467833 -3.294925,2.602067 0.05132,1.134234 3.022914,0.359259 3.613126,-0.436244 0.590213,-0.795504 -0.318201,-2.165823 -0.318201,-2.165823 z"
     id="path11" /><g
     id="g13"
     transform="matrix(0.05132282,0,0,0.05132282,-1.0616573,-1.0616576)"
     style="stroke-width:0.918719">
	<ellipse
   style="fill:#ffffff;stroke-width:0.918719"
   cx="430.10001"
   cy="262"
   rx="16.6"
   ry="18.9"
   id="ellipse12" />
	<ellipse
   style="fill:#ffffff;stroke-width:0.918719"
   cx="400.10001"
   cy="276.89999"
   rx="13.4"
   ry="15"
   id="ellipse13" />
</g><g
     id="g14"
     transform="matrix(0.05132282,0,0,0.05132282,-1.0616573,-1.0616576)"
     style="stroke-width:0.918719;fill:#999999;fill-opacity:1">
	<path
   style="fill:#999999;stroke-width:0.918719;fill-opacity:1"
   d="m 131.3,64.3 c -6.2,9.8 -13.1,23 -14.3,34.1 l 5.5,0.6 c 1.2,-12.1 10.4,-27.5 16.8,-36.9 -2.8,0.7 -5.5,1.5 -8,2.2 z"
   id="path13" />
	<path
   style="fill:#999999;stroke-width:0.918719;fill-opacity:1"
   d="m 369.6,62.1 c 6.4,9.4 15.6,24.8 16.8,36.9 l 5.5,-0.6 c -1.1,-11.2 -8.1,-24.3 -14.3,-34.1 -2.4,-0.7 -5.1,-1.5 -8,-2.2 z"
   id="path14" />
</g><path
     style="fill:#4d4640;stroke-width:0.0471513;fill-opacity:1"
     d="M 20.175726,8.8795724 C 14.72011,9.197774 9.25423,9.197774 3.7986138,8.8795724 3.3880312,8.8539106 3.0852266,8.4484604 3.1827399,8.0532757 3.5419997,6.6470299 3.9012594,5.2048587 4.2605192,3.7318938 4.3323711,3.4393537 4.5838529,3.2237978 4.8763929,3.208401 c 4.7370958,-0.2412173 9.4844571,-0.2412173 14.2215531,0 0.287408,0.015396 0.544023,0.2309527 0.615874,0.5234928 0.35926,1.4729649 0.718519,2.9151361 1.077779,4.3213819 0.102643,0.3900526 -0.200159,0.8006349 -0.615873,0.8262967 z"
     id="path16" /><path
     style="fill:#a7d7dc;stroke-width:0.0471513;fill-opacity:1"
     d="M 20.175726,9.1618479 C 14.72011,9.4800494 9.25423,9.4800494 3.7986138,9.1618479 3.3880312,9.1361872 3.0852266,8.7307359 3.1827399,8.3355511 3.5419997,6.9293049 3.9012594,5.4871341 4.2605192,4.0141692 c 0.071852,-0.29254 0.3233337,-0.5080959 0.6158737,-0.5234928 4.7370958,-0.2412172 9.4844571,-0.2412172 14.2215531,0 0.287408,0.015397 0.544023,0.2309528 0.615874,0.5234928 0.35926,1.4729649 0.718519,2.9151357 1.077779,4.3213819 0.102643,0.3951848 -0.200159,0.8006361 -0.615873,0.8262968 z"
     id="path17" /></svg>
