<?xml version="1.0" encoding="UTF-8" standalone="no"?>
<!-- Uploaded to: SVG Repo, www.svgrepo.com, Generator: SVG Repo Mixer Tools -->

<svg
   width="800px"
   height="800px"
   viewBox="0 0 24 24"
   version="1.1"
   id="svg8"
   sodipodi:docname="places-place-info-logo.svg"
   inkscape:version="1.4.3 (0d15f75042, 2025-12-25)"
   xml:space="preserve"
   xmlns:inkscape="http://www.inkscape.org/namespaces/inkscape"
   xmlns:sodipodi="http://sodipodi.sourceforge.net/DTD/sodipodi-0.dtd"
   xmlns="http://www.w3.org/2000/svg"
   xmlns:svg="http://www.w3.org/2000/svg"><defs
     id="defs8" /><sodipodi:namedview
     id="namedview8"
     pagecolor="#ffffff"
     bordercolor="#000000"
     borderopacity="0.25"
     inkscape:showpageshadow="2"
     inkscape:pageopacity="0.0"
     inkscape:pagecheckerboard="0"
     inkscape:deskcolor="#d1d1d1"
     inkscape:zoom="0.75124997"
     inkscape:cx="1198.0034"
     inkscape:cy="560.39936"
     inkscape:window-width="2518"
     inkscape:window-height="1404"
     inkscape:window-x="2602"
     inkscape:window-y="0"
     inkscape:window-maximized="1"
     inkscape:current-layer="svg8"
     showgrid="false" /><path
     style="fill:#a7d7dc;fill-opacity:1;stroke-width:0.046875"
     d="m 18.260859,3.1304531 v 0 c 0,0.5763281 -0.467156,1.0434844 -1.043484,1.0434844 h -2.086969 c -0.576328,0 -1.043484,-0.4671563 -1.043484,-1.0434844 v 0 c 0,-0.5763281 0.467156,-1.0434843 1.043484,-1.0434843 h 2.086969 c 0.576328,0 1.043484,0.4671562 1.043484,1.0434843 z M 7.826109,0 H 2.608688 C 2.032359,0 1.565203,0.4671562 1.565203,1.0434844 v 0 c 0,0.1902656 0.05175,0.3681562 0.140719,0.5217187 H 1.043484 C 0.467156,1.5652031 0,2.0323594 0,2.6086875 v 0 c 0,0.5763281 0.467156,1.0434844 1.043484,1.0434844 h 2.086969 c 0.576328,0 1.043485,-0.4671563 1.043485,-1.0434844 v 0 c 0,-0.1902656 -0.05175,-0.3681563 -0.140719,-0.5217188 h 3.79289 c 0.576329,0 1.043485,-0.4671562 1.043485,-1.0434843 v 0 C 8.869547,0.4671562 8.402391,0 7.826109,0 Z"
     id="path2" /><path
     style="fill:#a7d7dc;fill-opacity:1;stroke-width:0.046875"
     d="m 23.478281,14.086964 v 9.91303 H 18.260859 V 13.565197 h 4.695657 c 0.28814,0 0.521765,0.233578 0.521765,0.521767 z m -7.30439,-5.2174226 h -3.130453 v 2.6086876 h 3.652171 V 9.3912601 c 4.7e-5,-0.2881406 -0.233531,-0.5217187 -0.521718,-0.5217187 z"
     id="path5" /><path
     style="fill:#678188;fill-opacity:1;stroke-width:0.046875"
     d="M 9.391313,5.7391351 V 7.3043382 H 7.826109 V 5.7391351 c 0,-0.2881406 0.233579,-0.5217187 0.521719,-0.5217187 h 0.521719 c 0.288187,-4.69e-5 0.521766,0.2335312 0.521766,0.5217187 z M 3.652172,9.9130257 V 23.999994 H 8.347828 V 9.391307 H 4.173891 c -0.288141,0 -0.521719,0.2335781 -0.521719,0.5217187 z M 18.260859,10.95651 h -5.217375 v 13.043484 h 5.739141 V 11.478276 c 0,-0.288188 -0.233578,-0.521766 -0.521766,-0.521766 z M 12,3.2608539 c -0.216094,0 -0.391312,0.1752187 -0.391312,0.3913125 v 3.6521718 c 0,0.2160938 0.175218,0.3913126 0.391312,0.3913126 0.216094,0 0.391313,-0.1752188 0.391313,-0.3913126 V 3.6521664 C 12.391313,3.4360726 12.216094,3.2608539 12,3.2608539 Z"
     id="path6" /><path
     style="fill:#b4cfd4;fill-opacity:1;stroke-width:0.046875"
     d="m 5.217375,21.391307 v 2.608687 H 0.521719 v -2.608687 c 0,-0.28814 0.233578,-0.521719 0.521719,-0.521719 h 3.652171 c 0.288188,-4.6e-5 0.521766,0.233531 0.521766,0.521719 z M 5.478281,10.565198 c -0.216093,0 -0.391312,0.175218 -0.391312,0.391312 v 6.782625 c 0,0.216094 0.175219,0.391312 0.391312,0.391312 0.216094,0 0.391313,-0.175218 0.391313,-0.391312 V 10.95651 C 5.869547,10.740416 5.694375,10.565198 5.478281,10.565198 Z M 13.043484,6.7826195 H 7.826109 V 23.999994 H 13.56525 V 7.3043382 C 13.565203,7.0161976 13.331625,6.7826195 13.043484,6.7826195 Z m 3.652172,5.3478285 c -0.216093,0 -0.391312,0.175218 -0.391312,0.391313 v 3.652172 c 0,0.216093 0.175219,0.391312 0.391312,0.391312 0.216094,0 0.391313,-0.175219 0.391313,-0.391312 v -3.652219 c 0,-0.216094 -0.175219,-0.391266 -0.391313,-0.391266 z"
     id="path7" /><path
     style="fill:#4c8e7c;fill-opacity:1;stroke-width:0.046875"
     d="m 19.453406,23.18015 v 0.819844 H 10.434797 V 23.18015 c 0,-1.213968 0.660094,-2.273108 1.640484,-2.840108 -1.4e-4,-0.0098 -7.5e-4,-0.01955 -7.5e-4,-0.02948 0,-1.132031 0.917672,-2.049703 2.049703,-2.049703 0.991641,0 1.818657,0.704204 2.008594,1.639782 h 0.04106 c 1.81125,0 3.279515,1.468265 3.279515,3.279515 z"
     id="path8" /><path
     style="fill:#6eccb4;fill-opacity:1;stroke-width:0.046875"
     d="M 17.485125,23.999994 H 10.434797 V 23.18015 c 0,-1.178578 0.622219,-2.21114 1.555594,-2.789155 0.135422,-0.02817 0.275718,-0.04312 0.419531,-0.04312 0.991641,0 1.818656,0.704203 2.008594,1.639781 h 0.04106 c 1.362047,-4.7e-5 2.529938,0.830297 3.025547,2.012344 z"
     id="path9" /><path
     style="fill:#ffffff;fill-opacity:1;stroke-width:0.046875"
     d="m 11.869547,9.391307 v 6.782626 c 0,0.216093 -0.175219,0.391312 -0.391313,0.391312 -0.216093,0 -0.391312,-0.17522 -0.391312,-0.391312 V 9.391307 c 0,-0.2160938 0.175219,-0.3913125 0.391312,-0.3913125 0.216094,0 0.391313,0.1752187 0.391313,0.3913125 z"
     id="path10" /><path
     style="fill:#dee2e6;fill-opacity:1;stroke-width:0.046875"
     d="m 19.956516,15.130448 c 0,-0.216094 0.175218,-0.391312 0.391312,-0.391312 h 0.521719 c 0.216094,0 0.391312,0.175218 0.391312,0.391312 0,0.216094 -0.175218,0.391313 -0.391312,0.391313 h -0.521719 c -0.216094,-4.7e-5 -0.391312,-0.175219 -0.391312,-0.391313 z m 0.913031,1.17389 h -0.521719 c -0.216094,0 -0.391312,0.17522 -0.391312,0.391312 0,0.216094 0.175218,0.391313 0.391312,0.391313 h 0.521719 c 0.216094,0 0.391312,-0.175219 0.391312,-0.391313 0,-0.216093 -0.175171,-0.391312 -0.391312,-0.391312 z m 0,1.565204 h -0.521719 c -0.216094,0 -0.391312,0.175218 -0.391312,0.391311 0,0.216094 0.175218,0.391313 0.391312,0.391313 h 0.521719 c 0.216094,0 0.391312,-0.175219 0.391312,-0.391313 0,-0.216093 -0.175171,-0.391312 -0.391312,-0.391311 z"
     id="path11" /><path
     style="fill:#80746b;fill-opacity:1;stroke-width:0.046875"
     d="m 24,23.608681 c 0,0.216094 -0.175219,0.391313 -0.391313,0.391313 H 0.391313 C 0.175219,23.999994 0,23.824776 0,23.608681 0,23.392588 0.175219,23.21737 0.391313,23.21737 H 23.608687 C 23.824781,23.21737 24,23.392588 24,23.608681 Z"
     id="path12-3" /></svg>
