<?xml version="1.0" encoding="UTF-8" standalone="no"?>
<!-- Created with Inkscape (http://www.inkscape.org/) -->

<svg
   width="220"
   height="57"
   viewBox="0 0 58.208332 15.08125"
   version="1.1"
   id="svg1"
   inkscape:version="1.3.2 (1:1.3.2+202311252150+091e20ef0f)"
   sodipodi:docname="sidebar_logo.svg"
   xmlns:inkscape="http://www.inkscape.org/namespaces/inkscape"
   xmlns:sodipodi="http://sodipodi.sourceforge.net/DTD/sodipodi-0.dtd"
   xmlns="http://www.w3.org/2000/svg"
   xmlns:svg="http://www.w3.org/2000/svg">
  <sodipodi:namedview
     id="namedview1"
     pagecolor="#ffffff"
     bordercolor="#000000"
     borderopacity="0.25"
     inkscape:showpageshadow="2"
     inkscape:pageopacity="0.0"
     inkscape:pagecheckerboard="0"
     inkscape:deskcolor="#d1d1d1"
     inkscape:document-units="px"
     inkscape:zoom="6.0523498"
     inkscape:cx="93.93046"
     inkscape:cy="28.666552"
     inkscape:window-width="2526"
     inkscape:window-height="1404"
     inkscape:window-x="34"
     inkscape:window-y="0"
     inkscape:window-maximized="1"
     inkscape:current-layer="layer1"
     showgrid="false" />
  <defs
     id="defs1" />
  <g
     inkscape:label="Livello 1"
     inkscape:groupmode="layer"
     id="layer1">
    <g
       id="g1"
       transform="matrix(0.83127869,0,0,0.83127869,7.1074503,0)">
      <path
         style="font-weight:bold;font-size:16.6571px;font-family:Barlow;-inkscape-font-specification:'Barlow Bold';letter-spacing:0px;fill:#e6e6e6;fill-opacity:1;stroke-width:0.527548"
         d="m 16.183703,8.4074323 q 0.03166,0 0.05065,0.025315 0.02531,0.019003 0.02531,0.050646 v 0.6203942 q 0,0.03166 -0.02531,0.056975 -0.019,0.019003 -0.05065,0.019003 h -1.133165 q -0.03166,0 -0.03166,0.03166 v 3.5514295 q 0,0.03166 -0.02531,0.05697 -0.019,0.019 -0.05065,0.019 h -0.740672 q -0.03166,0 -0.05697,-0.019 -0.019,-0.02531 -0.019,-0.05697 V 9.2114254 q 0,-0.03166 -0.03166,-0.03166 h -1.101517 q -0.03166,0 -0.05697,-0.019003 -0.019,-0.025315 -0.019,-0.056975 V 8.4833933 q 0,-0.03166 0.019,-0.050646 0.02532,-0.025315 0.05697,-0.025315 z m 3.076638,4.4313767 q -0.0633,0 -0.08863,-0.05697 l -0.791317,-1.75356 q -0.01266,-0.02531 -0.03796,-0.02531 h -0.58874 q -0.03166,0 -0.03166,0.03166 v 1.728238 q 0,0.03166 -0.02532,0.05697 -0.019,0.019 -0.05065,0.019 h -0.740673 q -0.03166,0 -0.05698,-0.019 -0.019,-0.02531 -0.019,-0.05697 V 8.4834143 q 0,-0.03166 0.019,-0.050646 0.02531,-0.025315 0.05698,-0.025315 h 1.810534 q 0.405152,0 0.709018,0.1645961 0.310197,0.164592 0.474793,0.4684579 0.170924,0.303865 0.170924,0.7026897 0,0.430476 -0.215238,0.740673 -0.215237,0.303866 -0.601403,0.430479 -0.03166,0.01266 -0.019,0.04432 l 0.860955,1.791539 q 0.01266,0.02531 0.01266,0.03796 0,0.05065 -0.06963,0.05065 z M 17.753672,9.1734282 q -0.03166,0 -0.03166,0.03166 v 1.0825248 q 0,0.03166 0.03166,0.03166 h 0.8293 q 0.265884,0 0.430476,-0.158265 0.170924,-0.158264 0.170924,-0.4114842 0,-0.2532238 -0.170924,-0.4114846 -0.164592,-0.1645961 -0.430476,-0.1645961 z m 5.874724,3.6653808 q -0.0633,0 -0.0823,-0.0633 l -0.189915,-0.620391 q -0.01266,-0.02531 -0.03166,-0.02531 h -1.557313 q -0.019,0 -0.03166,0.02531 l -0.183587,0.620391 q -0.019,0.0633 -0.0823,0.0633 h -0.803978 q -0.03796,0 -0.05698,-0.019 -0.019,-0.02531 -0.0064,-0.06963 l 1.367395,-4.2794431 q 0.019,-0.063312 0.0823,-0.063312 h 0.993896 q 0.0633,0 0.0823,0.063312 l 1.367395,4.2794431 q 0.0064,0.01266 0.0064,0.03166 0,0.05697 -0.06964,0.05697 z m -1.664932,-1.437032 q -0.0063,0.03796 0.02532,0.03796 h 1.114174 q 0.03801,0 0.02531,-0.03796 L 22.558519,9.5216074 q -0.0064,-0.025315 -0.019,-0.019003 -0.01266,0 -0.019,0.019003 z m 5.640504,-2.9183761 q 0,-0.03166 0.019,-0.050646 0.02531,-0.025315 0.05698,-0.025315 h 0.740672 q 0.03166,0 0.05065,0.025315 0.02531,0.019003 0.02531,0.050646 v 4.2794431 q 0,0.03166 -0.02531,0.05698 -0.019,0.019 -0.05065,0.019 h -0.715349 q -0.0633,0 -0.08863,-0.05065 l -1.63961,-2.709466 q -0.01266,-0.019 -0.02531,-0.01266 -0.01266,0 -0.01266,0.02532 l 0.01266,2.671484 q 0,0.03166 -0.02531,0.05697 -0.019,0.019 -0.05065,0.019 h -0.740673 q -0.03166,0 -0.05698,-0.019 -0.019,-0.02531 -0.019,-0.05697 V 8.4834067 q 0,-0.03166 0.019,-0.050646 0.02531,-0.025315 0.05698,-0.025315 h 0.715354 q 0.0633,0 0.08863,0.050646 l 1.633279,2.6968113 q 0.01266,0.019 0.02531,0.019 0.01266,-0.0064 0.01266,-0.03166 z m 4.722579,-0.075969 q 0.03166,0 0.05065,0.025315 0.02531,0.019003 0.02531,0.050646 V 9.103787 q 0,0.03166 -0.02531,0.056975 -0.019,0.019003 -0.05065,0.019003 h -1.133166 q -0.03166,0 -0.03166,0.03166 v 3.55143 q 0,0.03166 -0.02531,0.05697 -0.019,0.019 -0.05065,0.019 h -0.740673 q -0.03166,0 -0.05697,-0.019 -0.019,-0.02531 -0.019,-0.05697 V 9.2114246 q 0,-0.03166 -0.03166,-0.03166 h -1.101511 q -0.03166,0 -0.05697,-0.019003 -0.019,-0.025315 -0.019,-0.056975 V 8.4833925 q 0,-0.03166 0.019,-0.050646 0.02531,-0.025315 0.05697,-0.025315 z m 2.044743,4.5010121 q -0.493781,0 -0.873614,-0.202578 -0.373502,-0.202574 -0.582408,-0.563417 -0.208906,-0.36717 -0.208906,-0.841959 V 9.9457544 q 0,-0.4684612 0.208906,-0.8293003 0.208906,-0.3608425 0.582408,-0.5570889 0.379833,-0.2025741 0.873614,-0.2025741 0.500113,0 0.873614,0.2025741 0.379834,0.1962464 0.58874,0.5570889 0.20891,0.3608391 0.20891,0.8293003 V 11.30049 q 0,0.474789 -0.20891,0.841959 -0.208906,0.367171 -0.58874,0.569749 -0.373501,0.196247 -0.873614,0.196246 z m 0,-0.765995 q 0.34818,0 0.563417,-0.22157 0.215242,-0.221568 0.215242,-0.58874 V 9.9394224 q 0,-0.3671704 -0.215242,-0.5887398 -0.208906,-0.2279015 -0.563417,-0.2279015 -0.348179,0 -0.563417,0.2279015 -0.208906,0.2215694 -0.208906,0.5887398 v 1.3927166 q 0,0.367172 0.208906,0.58874 0.215238,0.22157 0.563417,0.22157 z m 4.785876,0.696359 q -0.0633,0 -0.08863,-0.05697 l -0.791314,-1.753559 q -0.01266,-0.02531 -0.03801,-0.02531 h -0.588739 q -0.03166,0 -0.03166,0.03166 v 1.728238 q 0,0.03166 -0.02531,0.05697 -0.019,0.019 -0.05065,0.019 H 36.8022 q -0.03166,0 -0.05698,-0.019 -0.019,-0.02531 -0.019,-0.05697 V 8.4834134 q 0,-0.03166 0.019,-0.050646 0.02531,-0.025315 0.05698,-0.025315 h 1.810533 q 0.405156,0 0.709022,0.1645962 0.310197,0.164592 0.474789,0.4684579 0.170924,0.303865 0.170924,0.7026897 0,0.4304758 -0.215237,0.7406728 -0.215238,0.303866 -0.6014,0.430479 -0.03166,0.01266 -0.019,0.04432 l 0.860955,1.791539 q 0.01266,0.02531 0.01266,0.03796 0,0.05065 -0.06963,0.05065 z M 37.650498,9.1734273 q -0.03166,0 -0.03166,0.03166 v 1.0825247 q 0,0.03166 0.03166,0.03166 h 0.8293 q 0.265883,0 0.430479,-0.158265 0.170924,-0.158264 0.170924,-0.411484 0,-0.2532238 -0.170924,-0.4114846 -0.164596,-0.1645962 -0.430479,-0.1645962 z"
         id="text45"
         aria-label="TRANTOR" />
      <g
         id="path46"
         style="fill:#e6e6e6;fill-opacity:1"
         transform="matrix(0.38005037,0,0,0.38005037,-33.368015,-16.330169)">
        <path
           style="color:#000000;fill:#e6e6e6;fill-opacity:1;stroke-linecap:round;-inkscape-stroke:none"
           d="m 121.78691,52.786229 27.59758,-0.04453"
           id="path50" />
        <path
           style="color:#000000;fill:#e6e6e6;fill-opacity:1;stroke-linecap:round;-inkscape-stroke:none"
           d="m 149.38477,52.345703 -27.59766,0.04297 a 0.39687499,0.39687499 0 0 0 -0.39648,0.398437 0.39687499,0.39687499 0 0 0 0.39648,0.396485 l 27.59766,-0.04492 a 0.39687499,0.39687499 0 0 0 0.39648,-0.398438 0.39687499,0.39687499 0 0 0 -0.39648,-0.394531 z"
           id="path51" />
      </g>
      <path
         id="path47"
         style="fill:#e6e6e6;fill-opacity:1;stroke:none;stroke-width:0.0805585;stroke-dasharray:none;stroke-opacity:1"
         d="m 26.461302,0 c -2.070119,-7.5919719e-6 -3.748558,1.6666493 -3.748661,3.7226704 -7e-6,2.056097 1.678462,3.7231112 3.748661,3.7231035 2.070197,7.7e-6 3.748235,-1.6670103 3.748227,-3.7231035 C 30.209426,1.6666532 28.531423,-3.7947592e-6 26.461302,0 Z m 0,1.4714814 a 2.2668996,2.2514575 0 0 1 2.266783,2.251189 2.2668996,2.2514575 0 0 1 -2.266783,2.2516221 2.2668996,2.2514575 0 0 1 -2.266783,-2.2516221 2.2668996,2.2514575 0 0 1 2.266783,-2.251189 z" />
      <path
         id="ellipse47"
         style="fill:#e6e6e6;fill-opacity:1;stroke-width:0.0487187"
         d="M 17.300109,3.7227947 A 2.2668996,2.2514575 0 0 1 15.033207,5.9742512 2.2668996,2.2514575 0 0 1 12.766308,3.7227947 2.2668996,2.2514575 0 0 1 15.033207,1.4713345 2.2668996,2.2514575 0 0 1 17.300109,3.7227947 Z" />
      <path
         id="ellipse48"
         style="fill:#e6e6e6;fill-opacity:1;stroke-width:0.0487187"
         d="M 40.156295,3.7227947 A 2.2668996,2.2514575 0 0 1 37.889394,5.9742512 2.2668996,2.2514575 0 0 1 35.622496,3.7227947 2.2668996,2.2514575 0 0 1 37.889394,1.4713345 2.2668996,2.2514575 0 0 1 40.156295,3.7227947 Z" />
      <g
         id="path49"
         style="fill:#e6e6e6;fill-opacity:1"
         transform="matrix(0.38005037,0,0,0.38005037,-33.368015,-16.330169)">
        <path
           style="color:#000000;fill:#e6e6e6;fill-opacity:1;stroke-linecap:round;-inkscape-stroke:none"
           d="m 165.46492,52.786229 27.59758,-0.04453"
           id="path52" />
        <path
           style="color:#000000;fill:#e6e6e6;fill-opacity:1;stroke-linecap:round;-inkscape-stroke:none"
           d="m 193.0625,52.345703 -27.59766,0.04297 a 0.39687499,0.39687499 0 0 0 -0.39648,0.398437 0.39687499,0.39687499 0 0 0 0.39648,0.396485 l 27.59766,-0.04492 a 0.39687499,0.39687499 0 0 0 0.39648,-0.398438 0.39687499,0.39687499 0 0 0 -0.39648,-0.394531 z"
           id="path53" />
      </g>
    </g>
    <path
       d="m 3.7245456,13.693801 q -0.2018147,0 -0.3250003,-0.123185 Q 3.2789807,13.44743 3.2789807,13.240373 v -0.972379 q 0,-0.204436 0.1205646,-0.327622 0.1231856,-0.123185 0.3250003,-0.123185 0.2044357,0 0.3250003,0.123185 0.1231856,0.120565 0.1231856,0.327622 v 0.04456 q 0,0.02621 -0.02621,0.02621 l -0.1362904,0.0079 q -0.02621,0 -0.02621,-0.02621 v -0.06552 q 0,-0.123186 -0.070766,-0.199194 -0.070766,-0.07601 -0.1887099,-0.07601 -0.1153227,0 -0.1887098,0.07601 -0.070766,0.07601 -0.070766,0.199194 v 1.00121 q 0,0.123186 0.070766,0.199194 0.073387,0.07601 0.1887098,0.07601 0.1179437,0 0.1887099,-0.07601 0.070766,-0.07601 0.070766,-0.199194 v -0.06552 q 0,-0.02621 0.02621,-0.02621 l 0.1362904,0.0079 q 0.02621,0 0.02621,0.02621 v 0.04194 q 0,0.207057 -0.1231856,0.330243 -0.1231856,0.123185 -0.3250003,0.123185 z m 4.3219124,0 q -0.2018147,0 -0.3276213,-0.125806 -0.1231856,-0.125807 -0.1231856,-0.332864 v -0.959275 q 0,-0.207056 0.1231856,-0.332863 0.1258066,-0.125806 0.3276213,-0.125806 0.2044356,0 0.3302422,0.125806 0.1258066,0.125807 0.1258066,0.332863 v 0.959275 q 0,0.204436 -0.1258066,0.332864 -0.1258066,0.125806 -0.3302422,0.125806 z m 0,-0.1625 q 0.1205646,0 0.1939518,-0.07863 0.076008,-0.08125 0.076008,-0.207057 v -0.977621 q 0,-0.128428 -0.076008,-0.207057 -0.073387,-0.08125 -0.1939518,-0.08125 -0.1179437,0 -0.1913308,0.08125 -0.073387,0.07863 -0.073387,0.207057 v 0.977621 q 0,0.125807 0.073387,0.207057 0.073387,0.07863 0.1913308,0.07863 z m 4.670502,-1.666937 q 0,-0.02621 0.02621,-0.02621 h 0.131049 q 0.02621,0 0.02621,0.02621 v 1.78226 q 0,0.02621 -0.02621,0.02621 h -0.154638 q -0.02097,0 -0.02883,-0.02097 l -0.511089,-1.355042 q -0.0026,-0.0079 -0.0079,-0.0052 -0.0052,0 -0.0052,0.0079 l 0.0026,1.347179 q 0,0.02621 -0.02621,0.02621 h -0.133669 q -0.02621,0 -0.02621,-0.02621 v -1.78226 q 0,-0.02621 0.02621,-0.02621 h 0.152016 q 0.02097,0 0.02883,0.02097 l 0.513711,1.357663 q 0.0026,0.0079 0.0079,0.0079 0.0052,-0.0026 0.0052,-0.01048 z m 4.062433,1.829437 q -0.193951,0 -0.314516,-0.128427 -0.120565,-0.128428 -0.120565,-0.335484 v -0.06028 q 0,-0.02621 0.02621,-0.02621 h 0.128428 q 0.02621,0 0.02621,0.02621 v 0.05242 q 0,0.138911 0.07077,0.225403 0.07077,0.08387 0.183467,0.08387 0.110081,0 0.183468,-0.08125 0.07339,-0.08125 0.07339,-0.21492 0,-0.08911 -0.03669,-0.152016 -0.03407,-0.06552 -0.09173,-0.112702 -0.05504,-0.0498 -0.186089,-0.149395 -0.131048,-0.09698 -0.207056,-0.165121 -0.07601,-0.07077 -0.125807,-0.167742 -0.04718,-0.09698 -0.04718,-0.228024 0,-0.204436 0.117944,-0.32238 0.117944,-0.120564 0.306654,-0.120564 0.199193,0 0.317137,0.131048 0.120565,0.128428 0.120565,0.343347 v 0.06552 q 0,0.02621 -0.02621,0.02621 h -0.131049 q -0.02621,0 -0.02621,-0.02621 v -0.06814 q 0,-0.138911 -0.07077,-0.222782 -0.06815,-0.08649 -0.183468,-0.08649 -0.104839,0 -0.172984,0.07601 -0.06815,0.07339 -0.06815,0.209678 0,0.08125 0.02883,0.144153 0.03145,0.06028 0.09173,0.115323 0.06028,0.05504 0.178226,0.144153 0.157258,0.115323 0.233266,0.18871 0.07863,0.07077 0.120565,0.157258 0.04193,0.08387 0.04193,0.204436 0,0.214919 -0.123185,0.345968 -0.123186,0.128427 -0.317138,0.128427 z m 4.649527,-1.855647 q 0.02621,0 0.02621,0.02621 v 0.110081 q 0,0.02621 -0.02621,0.02621 h -0.345968 q -0.01048,0 -0.01048,0.01048 v 1.635486 q 0,0.02621 -0.02621,0.02621 h -0.133669 q -0.02621,0 -0.02621,-0.02621 v -1.635486 q 0,-0.01048 -0.01048,-0.01048 h -0.325 q -0.02621,0 -0.02621,-0.02621 v -0.110081 q 0,-0.02621 0.02621,-0.02621 z m 4.282597,0.136291 q 0,0.02621 -0.02621,0.02621 h -0.608065 q -0.01048,0 -0.01048,0.01048 v 0.650001 q 0,0.01048 0.01048,0.01048 h 0.382661 q 0.02621,0 0.02621,0.02621 v 0.112701 q 0,0.02621 -0.02621,0.02621 h -0.382661 q -0.01048,0 -0.01048,0.01048 v 0.652621 q 0,0.01048 0.01048,0.01048 h 0.608065 q 0.02621,0 0.02621,0.02621 v 0.110081 q 0,0.02621 -0.02621,0.02621 H 24.90688 q -0.02621,0 -0.02621,-0.02621 v -1.78226 q 0,-0.02621 0.02621,-0.02621 h 0.778428 q 0.02621,0 0.02621,0.02621 z m 3.467476,1.698388 q -0.02621,0 -0.02621,-0.02621 v -1.78226 q 0,-0.02621 0.02621,-0.02621 h 0.13367 q 0.02621,0 0.02621,0.02621 v 1.635485 q 0,0.01048 0.01048,0.01048 h 0.600203 q 0.02621,0 0.02621,0.02621 v 0.110081 q 0,0.02621 -0.02621,0.02621 z m 4.185624,0 q -0.02621,0 -0.02621,-0.02621 v -1.78226 q 0,-0.02621 0.02621,-0.02621 h 0.133669 q 0.02621,0 0.02621,0.02621 v 1.635485 q 0,0.01048 0.01048,0.01048 h 0.600202 q 0.02621,0 0.02621,0.02621 v 0.110081 q 0,0.02621 -0.02621,0.02621 z m 4.964051,0 q -0.02359,0 -0.02883,-0.02359 l -0.06552,-0.325001 q 0,-0.0052 -0.0052,-0.0079 -0.0026,-0.0026 -0.0079,-0.0026 h -0.474396 q -0.0052,0 -0.01048,0.0026 -0.0026,0.0026 -0.0026,0.0079 l -0.06552,0.325001 q -0.0026,0.02359 -0.02883,0.02359 h -0.133669 q -0.0131,0 -0.02097,-0.0079 -0.0052,-0.0079 -0.0026,-0.02097 l 0.393146,-1.78226 q 0.0052,-0.02359 0.02883,-0.02359 h 0.157259 q 0.02621,0 0.02883,0.02359 l 0.398388,1.78226 v 0.0052 q 0,0.02359 -0.02359,0.02359 z M 37.76778,13.15126 q 0,0.01048 0.0079,0.01048 h 0.414113 q 0.0079,0 0.0079,-0.01048 l -0.209678,-1.030041 q -0.0026,-0.0079 -0.0052,-0.0079 -0.0026,0 -0.0052,0.0079 z m 4.738645,-1.313106 q 0.02621,0 0.02621,0.02621 v 0.110081 q 0,0.02621 -0.02621,0.02621 h -0.345968 q -0.01048,0 -0.01048,0.01048 v 1.635486 q 0,0.02621 -0.02621,0.02621 h -0.13367 q -0.02621,0 -0.02621,-0.02621 v -1.635486 q 0,-0.01048 -0.01048,-0.01048 h -0.325 q -0.02621,0 -0.02621,-0.02621 v -0.110081 q 0,-0.02621 0.02621,-0.02621 z m 3.477958,1.834679 q -0.02621,0 -0.02621,-0.02621 v -1.78226 q 0,-0.02621 0.02621,-0.02621 h 0.133669 q 0.02621,0 0.02621,0.02621 v 1.78226 q 0,0.02621 -0.02621,0.02621 z m 4.091264,0.02097 q -0.201815,0 -0.327621,-0.125806 -0.123186,-0.125807 -0.123186,-0.332864 v -0.959275 q 0,-0.207056 0.123186,-0.332863 0.125806,-0.125806 0.327621,-0.125806 0.204436,0 0.330242,0.125806 0.125807,0.125807 0.125807,0.332863 v 0.959275 q 0,0.204436 -0.125807,0.332864 -0.125806,0.125806 -0.330242,0.125806 z m 0,-0.1625 q 0.120565,0 0.193952,-0.07863 0.07601,-0.08125 0.07601,-0.207057 v -0.977621 q 0,-0.128428 -0.07601,-0.207057 -0.07339,-0.08125 -0.193952,-0.08125 -0.117944,0 -0.191331,0.08125 -0.07339,0.07863 -0.07339,0.207057 v 0.977621 q 0,0.125807 0.07339,0.207057 0.07339,0.07863 0.191331,0.07863 z m 4.670502,-1.666937 q 0,-0.02621 0.02621,-0.02621 h 0.131049 q 0.02621,0 0.02621,0.02621 v 1.78226 q 0,0.02621 -0.02621,0.02621 H 54.74877 q -0.02097,0 -0.02883,-0.02097 L 54.20885,12.296824 q -0.0026,-0.0079 -0.0079,-0.0052 -0.0052,0 -0.0052,0.0079 l 0.0026,1.347179 q 0,0.02621 -0.02621,0.02621 h -0.133669 q -0.02621,0 -0.02621,-0.02621 v -1.78226 q 0,-0.02621 0.02621,-0.02621 h 0.152016 q 0.02097,0 0.02883,0.02097 l 0.51371,1.357663 q 0.0026,0.0079 0.0079,0.0079 0.0052,-0.0026 0.0052,-0.01048 z"
       id="text1"
       style="font-stretch:condensed;font-size:2.62097px;font-family:'Barlow Condensed';-inkscape-font-specification:'Barlow Condensed,  Condensed';letter-spacing:3.14772px;fill:#ffffff;stroke-width:0.349462;stroke-linecap:round;stroke-linejoin:round"
       aria-label="CONSTELLATION" />
  </g>
</svg>
