<?xml version="1.0" encoding="UTF-8" standalone="no"?>
<!-- Created with Inkscape (http://www.inkscape.org/) -->

<svg
   width="220"
   height="72"
   viewBox="0 0 58.208332 19.05"
   version="1.1"
   id="svg1"
   inkscape:version="1.3.2 (1:1.3.2+202311252150+091e20ef0f)"
   sodipodi:docname="sidebar_logo.svg"
   xmlns:inkscape="http://www.inkscape.org/namespaces/inkscape"
   xmlns:sodipodi="http://sodipodi.sourceforge.net/DTD/sodipodi-0.dtd"
   xmlns="http://www.w3.org/2000/svg"
   xmlns:svg="http://www.w3.org/2000/svg">
  <sodipodi:namedview
     id="namedview1"
     pagecolor="#ffffff"
     bordercolor="#000000"
     borderopacity="0.25"
     inkscape:showpageshadow="2"
     inkscape:pageopacity="0.0"
     inkscape:pagecheckerboard="0"
     inkscape:deskcolor="#d1d1d1"
     inkscape:document-units="px"
     inkscape:zoom="4.2796576"
     inkscape:cx="160.17637"
     inkscape:cy="119.05158"
     inkscape:window-width="2526"
     inkscape:window-height="1404"
     inkscape:window-x="34"
     inkscape:window-y="0"
     inkscape:window-maximized="1"
     inkscape:current-layer="layer1" />
  <defs
     id="defs1" />
  <g
     inkscape:label="Livello 1"
     inkscape:groupmode="layer"
     id="layer1">
    <path
       style="font-weight:bold;font-size:16.6571px;font-family:Barlow;-inkscape-font-specification:'Barlow Bold';letter-spacing:0px;fill:#e6e6e6;fill-opacity:1;stroke-width:0.629354"
       d="m 16.843193,10.559068 q 0.03777,0 0.06042,0.0302 0.0302,0.02267 0.0302,0.06042 v 0.740118 q 0,0.03777 -0.0302,0.06797 -0.02267,0.02267 -0.06042,0.02267 h -1.351844 q -0.03777,0 -0.03777,0.03777 v 4.236786 q 0,0.03777 -0.0302,0.06797 -0.02267,0.02267 -0.06042,0.02267 h -0.883608 q -0.03777,0 -0.06797,-0.02267 -0.02267,-0.0302 -0.02267,-0.06797 v -4.236786 q 0,-0.03777 -0.03777,-0.03777 h -1.314088 q -0.03777,0 -0.06797,-0.02267 -0.02267,-0.0302 -0.02267,-0.06797 v -0.740118 q 0,-0.03777 0.02267,-0.06042 0.0302,-0.0302 0.06797,-0.0302 z m 3.670368,5.286545 q -0.07552,0 -0.105732,-0.06797 l -0.944026,-2.091962 q -0.0151,-0.0302 -0.04529,-0.0302 h -0.702355 q -0.03777,0 -0.03777,0.03777 v 2.061754 q 0,0.03777 -0.0302,0.06797 -0.02267,0.02267 -0.06042,0.02267 H 17.70416 q -0.03777,0 -0.06797,-0.02267 -0.02267,-0.0302 -0.02267,-0.06797 v -5.105292 q 0,-0.03777 0.02267,-0.06042 0.03019,-0.0302 0.06797,-0.0302 h 2.159931 q 0.483339,0 0.845845,0.19636 0.370059,0.196355 0.566418,0.558861 0.203909,0.362505 0.203909,0.838295 0,0.513549 -0.256774,0.883608 -0.256774,0.362506 -0.717462,0.513553 -0.03777,0.0151 -0.02267,0.05287 l 1.027102,2.13727 q 0.0151,0.0302 0.0151,0.04529 0,0.06042 -0.08307,0.06042 z m -1.797426,-4.372727 q -0.03777,0 -0.03777,0.03777 v 1.29143 q 0,0.03777 0.03777,0.03777 h 0.989339 q 0.317194,0 0.513549,-0.188807 0.203909,-0.188806 0.203909,-0.490892 0,-0.302091 -0.203909,-0.490893 -0.196355,-0.19636 -0.513549,-0.19636 z m 7.00843,4.372727 q -0.07552,0 -0.09818,-0.07552 L 25.39982,15.029979 q -0.0151,-0.0302 -0.03777,-0.0302 h -1.857844 q -0.02267,0 -0.03777,0.0302 l -0.219016,0.740114 q -0.02267,0.07552 -0.09818,0.07552 h -0.95913 q -0.04529,0 -0.06797,-0.02267 -0.02267,-0.0302 -0.0076,-0.08307 l 1.631275,-5.105291 q 0.02267,-0.07553 0.09818,-0.07553 h 1.185699 q 0.07552,0 0.09818,0.07553 l 1.631275,5.105291 q 0.0076,0.0151 0.0076,0.03777 0,0.06797 -0.08308,0.06797 z m -1.986231,-1.714351 q -0.0075,0.04529 0.0302,0.04529 h 1.329188 q 0.04534,0 0.0302,-0.04529 l -0.679699,-2.243005 q -0.0076,-0.0302 -0.02267,-0.02267 -0.0151,0 -0.02267,0.02267 z m 6.729011,-3.481565 q 0,-0.03777 0.02267,-0.06042 0.0302,-0.0302 0.06797,-0.0302 h 0.883607 q 0.03777,0 0.06042,0.0302 0.0302,0.02267 0.0302,0.06042 v 5.105291 q 0,0.03777 -0.0302,0.06797 -0.02267,0.02267 -0.06042,0.02267 h -0.853398 q -0.07552,0 -0.105731,-0.06042 l -1.956022,-3.23234 q -0.0151,-0.02267 -0.0302,-0.0151 -0.0151,0 -0.0151,0.0302 l 0.0151,3.187028 q 0,0.03777 -0.0302,0.06797 -0.02267,0.02267 -0.06042,0.02267 h -0.883608 q -0.03777,0 -0.06797,-0.02267 -0.02267,-0.0302 -0.02267,-0.06797 v -5.105292 q 0,-0.03777 0.02267,-0.06042 0.0302,-0.0302 0.06797,-0.0302 h 0.853403 q 0.07552,0 0.105731,0.06042 l 1.948469,3.217243 q 0.0151,0.02267 0.0302,0.02267 0.0151,-0.0076 0.0151,-0.03777 z m 5.633943,-0.09063 q 0.03777,0 0.06042,0.0302 0.0302,0.02267 0.0302,0.06042 v 0.740118 q 0,0.03777 -0.0302,0.06797 -0.02267,0.02267 -0.06042,0.02267 h -1.351844 q -0.03777,0 -0.03777,0.03777 v 4.236786 q 0,0.03777 -0.0302,0.06797 -0.02267,0.02267 -0.06042,0.02267 h -0.883608 q -0.03777,0 -0.06797,-0.02267 -0.02267,-0.0302 -0.02267,-0.06797 v -4.236786 q 0,-0.03777 -0.03777,-0.03777 h -1.314081 q -0.03777,0 -0.06797,-0.02267 -0.02267,-0.0302 -0.02267,-0.06797 v -0.740118 q 0,-0.03777 0.02267,-0.06042 0.0302,-0.0302 0.06797,-0.0302 z m 2.439339,5.36962 q -0.589071,0 -1.042205,-0.241672 Q 37.052841,15.445348 36.803621,15.01487 36.5544,14.576843 36.5544,14.010429 v -1.616173 q 0,-0.558865 0.249221,-0.989339 0.24922,-0.430478 0.694801,-0.664596 0.453134,-0.241667 1.042205,-0.241667 0.596624,0 1.042204,0.241667 0.453134,0.234118 0.702355,0.664596 0.249226,0.430474 0.249226,0.989339 v 1.616173 q 0,0.566414 -0.249226,1.004441 -0.249221,0.438027 -0.702355,0.679699 -0.44558,0.234119 -1.042204,0.234118 z m 0,-0.913818 q 0.415371,0 0.672145,-0.264328 0.256779,-0.264327 0.256779,-0.702355 v -1.661484 q 0,-0.438027 -0.256779,-0.702355 -0.249221,-0.271882 -0.672145,-0.271882 -0.415371,0 -0.672146,0.271882 -0.249221,0.264328 -0.249221,0.702355 v 1.661484 q 0,0.438028 0.249221,0.702355 0.256775,0.264328 0.672146,0.264328 z m 5.709455,0.830743 q -0.07552,0 -0.105731,-0.06797 L 43.200329,13.68568 q -0.0151,-0.0302 -0.04534,-0.0302 h -0.702355 q -0.03777,0 -0.03777,0.03777 v 2.061754 q 0,0.03777 -0.0302,0.06797 -0.02267,0.02267 -0.06042,0.02267 h -0.88359 q -0.03777,0 -0.06797,-0.02267 -0.02267,-0.0302 -0.02267,-0.06797 v -5.105292 q 0,-0.03777 0.02267,-0.06042 0.0302,-0.0302 0.06797,-0.0302 h 2.159931 q 0.483343,0 0.845849,0.19636 0.370059,0.196355 0.566414,0.558861 0.203909,0.362505 0.203909,0.838295 0,0.513549 -0.256774,0.883608 -0.256775,0.362506 -0.717458,0.513553 -0.03777,0.0151 -0.02267,0.05287 l 1.027102,2.13727 q 0.0151,0.0302 0.0151,0.04529 0,0.06042 -0.08307,0.06042 z m -1.797425,-4.372727 q -0.03777,0 -0.03777,0.03777 v 1.29143 q 0,0.03777 0.03777,0.03777 h 0.989339 q 0.317193,0 0.513553,-0.188807 0.203909,-0.188806 0.203909,-0.490892 0,-0.302091 -0.203909,-0.490893 -0.19636,-0.19636 -0.513553,-0.19636 z"
       id="text45"
       aria-label="TRANTOR" />
    <path
       style="font-stretch:condensed;font-size:5.76766px;font-family:'Barlow Condensed';-inkscape-font-specification:'Barlow Condensed,  Condensed';letter-spacing:3.12737px;fill:#ffffff;fill-opacity:1;stroke-width:0.217919"
       d="m 14.83859,18.520801 q -0.201356,0 -0.324262,-0.122901 -0.120289,-0.12291 -0.120289,-0.329494 v -0.970169 q 0,-0.203973 0.120289,-0.326878 0.122906,-0.122906 0.324262,-0.122906 0.203973,0 0.324262,0.122906 0.122906,0.120289 0.122906,0.326878 v 0.04448 q 0,0.02616 -0.02616,0.02616 l -0.135981,0.0078 q -0.02616,0 -0.02616,-0.02616 v -0.06537 q 0,-0.122905 -0.0706,-0.198744 -0.07061,-0.07583 -0.188285,-0.07583 -0.115058,0 -0.188281,0.07583 -0.0706,0.07584 -0.0706,0.198744 v 0.998933 q 0,0.122906 0.0706,0.19874 0.07322,0.07584 0.188281,0.07584 0.117678,0 0.188285,-0.07584 0.0706,-0.07583 0.0706,-0.19874 v -0.06537 q 0,-0.02616 0.02616,-0.02616 l 0.135981,0.0078 q 0.02616,0 0.02616,0.02616 v 0.04185 q 0,0.206589 -0.122906,0.329494 -0.122905,0.122906 -0.324262,0.122906 z m 2.589453,0 q -0.201357,0 -0.326878,-0.125517 -0.122906,-0.125522 -0.122906,-0.33211 V 17.10608 q 0,-0.206584 0.122906,-0.332105 0.125521,-0.125522 0.326878,-0.125522 0.203972,0 0.329494,0.125522 0.125517,0.125521 0.125517,0.332105 v 0.957094 q 0,0.203972 -0.125517,0.33211 -0.125522,0.125517 -0.329494,0.125517 z m 0,-0.162128 q 0.120289,0 0.193512,-0.07845 0.07583,-0.08107 0.07583,-0.206588 v -0.975397 q 0,-0.128138 -0.07583,-0.206589 -0.07322,-0.08106 -0.193512,-0.08106 -0.117674,0 -0.190897,0.08106 -0.07322,0.07845 -0.07322,0.206589 v 0.975397 q 0,0.125521 0.07322,0.206588 0.07322,0.07845 0.190897,0.07845 z m 2.937249,-1.663149 q 0,-0.02616 0.02616,-0.02616 h 0.130754 q 0.02616,0 0.02616,0.02616 v 1.778211 q 0,0.02616 -0.02616,0.02616 h -0.154285 q -0.0209,0 -0.02875,-0.0209 l -0.509926,-1.351962 q -0.0027,-0.0078 -0.0078,-0.0052 -0.0052,0 -0.0052,0.0078 l 0.0027,1.344114 q 0,0.02616 -0.02616,0.02616 h -0.133366 q -0.02616,0 -0.02616,-0.02616 v -1.77821 q 0,-0.02616 0.02616,-0.02616 h 0.151669 q 0.02095,0 0.02879,0.0209 l 0.512543,1.354578 q 0.0027,0.0078 0.0078,0.0078 0.0052,-0.0027 0.0052,-0.01047 z m 2.330561,1.825277 q -0.193513,0 -0.313802,-0.128133 -0.12029,-0.128138 -0.12029,-0.334722 v -0.06015 q 0,-0.02616 0.02616,-0.02616 h 0.128133 q 0.02616,0 0.02616,0.02616 v 0.0523 q 0,0.138593 0.0706,0.224887 0.07061,0.08368 0.183053,0.08368 0.10983,0 0.183053,-0.08107 0.07322,-0.08107 0.07322,-0.214432 0,-0.08891 -0.03663,-0.151669 -0.03401,-0.06537 -0.09152,-0.112446 -0.05492,-0.04968 -0.185669,-0.149057 -0.130749,-0.09675 -0.206584,-0.164745 -0.07584,-0.07061 -0.125521,-0.167361 -0.04707,-0.09675 -0.04707,-0.227508 0,-0.203967 0.117678,-0.321645 0.117674,-0.12029 0.305954,-0.12029 0.19874,0 0.316418,0.130749 0.12029,0.128138 0.12029,0.34257 v 0.06537 q 0,0.02616 -0.02616,0.02616 H 22.96257 q -0.02616,0 -0.02616,-0.02616 v -0.06799 q 0,-0.138597 -0.07061,-0.222276 -0.06799,-0.08629 -0.183052,-0.08629 -0.104598,0 -0.172589,0.07583 -0.06799,0.07322 -0.06799,0.2092 0,0.08107 0.02875,0.143825 0.03137,0.06015 0.09153,0.115062 0.06015,0.05492 0.17782,0.143825 0.156902,0.115062 0.232736,0.18828 0.07845,0.07061 0.12029,0.156901 0.04185,0.08368 0.04185,0.203973 0,0.214432 -0.122906,0.345181 -0.122906,0.128133 -0.316418,0.128133 z m 2.916321,-1.851428 q 0.02616,0 0.02616,0.02616 v 0.10983 q 0,0.02616 -0.02616,0.02616 h -0.345182 q -0.01047,0 -0.01047,0.01047 v 1.631769 q 0,0.02616 -0.02616,0.02616 h -0.133365 q -0.02616,0 -0.02616,-0.02616 v -1.631769 q 0,-0.01047 -0.01047,-0.01047 h -0.324262 q -0.02616,0 -0.02616,-0.02616 v -0.10983 q 0,-0.02616 0.02616,-0.02616 z m 2.550223,0.135981 q 0,0.02616 -0.02616,0.02616 h -0.606684 q -0.01047,0 -0.01047,0.01047 v 0.648524 q 0,0.01047 0.01047,0.01047 h 0.381793 q 0.02616,0 0.02616,0.02616 v 0.112446 q 0,0.02616 -0.02616,0.02616 h -0.381793 q -0.01047,0 -0.01047,0.01047 v 0.65114 q 0,0.01047 0.01047,0.01047 h 0.606684 q 0.02616,0 0.02616,0.02616 v 0.10983 q 0,0.02616 -0.02616,0.02616 H 27.35958 q -0.02616,0 -0.02616,-0.02616 v -1.778211 q 0,-0.02616 0.02616,-0.02616 h 0.776657 q 0.02616,0 0.02616,0.02616 z m 1.736956,1.694528 q -0.02616,0 -0.02616,-0.02616 v -1.77821 q 0,-0.02616 0.02616,-0.02616 h 0.133366 q 0.02616,0 0.02616,0.02616 v 1.631769 q 0,0.01047 0.01047,0.01047 h 0.598841 q 0.02616,0 0.02616,0.02616 v 0.109834 q 0,0.02616 -0.02616,0.02616 z m 2.453471,0 q -0.02616,0 -0.02616,-0.02616 v -1.77821 q 0,-0.02616 0.02616,-0.02616 h 0.133365 q 0.02616,0 0.02616,0.02616 v 1.631769 q 0,0.01047 0.01047,0.01047 h 0.598836 q 0.02616,0 0.02616,0.02616 v 0.109834 q 0,0.02616 -0.02616,0.02616 z m 3.230128,0 q -0.02353,0 -0.02875,-0.02353 l -0.06537,-0.324262 q 0,-0.0052 -0.0052,-0.0078 -0.0027,-0.0027 -0.0078,-0.0027 h -0.473319 q -0.0052,0 -0.01047,0.0027 -0.0027,0.0027 -0.0027,0.0078 l -0.06538,0.324262 q -0.0027,0.02353 -0.02875,0.02353 h -0.133366 q -0.01306,0 -0.0209,-0.0078 -0.0052,-0.0078 -0.0027,-0.0209 l 0.392252,-1.778211 q 0.0052,-0.02353 0.02875,-0.02353 h 0.156902 q 0.02616,0 0.02879,0.02353 l 0.39748,1.778211 v 0.0052 q 0,0.02353 -0.02353,0.02353 z m -0.559609,-0.520386 q 0,0.01047 0.0078,0.01047 h 0.413173 q 0.0078,0 0.0078,-0.01047 l -0.2092,-1.027701 q -0.0027,-0.0078 -0.0052,-0.0078 -0.0027,0 -0.0052,0.0078 z m 3.005236,-1.310123 q 0.02616,0 0.02616,0.02616 v 0.10983 q 0,0.02616 -0.02616,0.02616 h -0.345186 q -0.01047,0 -0.01047,0.01047 v 1.631769 q 0,0.02616 -0.02616,0.02616 h -0.133366 q -0.02616,0 -0.02616,-0.02616 v -1.631769 q 0,-0.01047 -0.01047,-0.01047 h -0.324262 q -0.02616,0 -0.02616,-0.02616 v -0.10983 q 0,-0.02616 0.02616,-0.02616 z m 1.747411,1.830509 q -0.02616,0 -0.02616,-0.02616 v -1.77821 q 0,-0.02616 0.02616,-0.02616 h 0.133366 q 0.02616,0 0.02616,0.02616 v 1.77821 q 0,0.02616 -0.02616,0.02616 z m 2.359328,0.0209 q -0.201356,0 -0.326878,-0.125517 -0.122905,-0.125522 -0.122905,-0.33211 v -0.957094 q 0,-0.206588 0.122905,-0.332105 0.125522,-0.125522 0.326878,-0.125522 0.203973,0 0.329494,0.125522 0.125518,0.125517 0.125518,0.332105 v 0.957094 q 0,0.203972 -0.125518,0.33211 -0.125521,0.125517 -0.329494,0.125517 z m 0,-0.162129 q 0.12029,0 0.193513,-0.07845 0.07583,-0.08107 0.07583,-0.206588 v -0.975398 q 0,-0.128137 -0.07583,-0.206588 -0.07322,-0.08107 -0.193513,-0.08107 -0.117673,0 -0.190896,0.08107 -0.07322,0.07845 -0.07322,0.206588 v 0.975398 q 0,0.125521 0.07322,0.206588 0.07322,0.07845 0.190896,0.07845 z m 2.937245,-1.663148 q 0,-0.02616 0.02616,-0.02616 h 0.13075 q 0.02616,0 0.02616,0.02616 v 1.77821 q 0,0.02616 -0.02616,0.02616 h -0.154285 q -0.0209,0 -0.02875,-0.0209 l -0.509931,-1.351967 q -0.0027,-0.0078 -0.0078,-0.0052 -0.0052,0 -0.0052,0.0078 l 0.0027,1.344118 q 0,0.02616 -0.02616,0.02616 h -0.133366 q -0.02616,0 -0.02616,-0.02616 v -1.77821 q 0,-0.02616 0.02616,-0.02616 h 0.151669 q 0.0209,0 0.02875,0.0209 l 0.512543,1.354578 q 0.0027,0.0078 0.0078,0.0078 0.0052,-0.0027 0.0052,-0.01047 z"
       id="text46"
       aria-label="CONSTELLATION" />
    <g
       id="path46"
       style="fill:#e6e6e6;fill-opacity:1"
       transform="matrix(0.45339262,0,0,0.45339262,-42.271032,-18.952404)">
      <path
         style="color:#000000;fill:#e6e6e6;fill-opacity:1;stroke-linecap:round;-inkscape-stroke:none"
         d="m 121.78691,52.786229 27.59758,-0.04453"
         id="path50" />
      <path
         style="color:#000000;fill:#e6e6e6;fill-opacity:1;stroke-linecap:round;-inkscape-stroke:none"
         d="m 149.38477,52.345703 -27.59766,0.04297 a 0.39687499,0.39687499 0 0 0 -0.39648,0.398437 0.39687499,0.39687499 0 0 0 0.39648,0.396485 l 27.59766,-0.04492 a 0.39687499,0.39687499 0 0 0 0.39648,-0.398438 0.39687499,0.39687499 0 0 0 -0.39648,-0.394531 z"
         id="path51" />
    </g>
    <path
       id="path47"
       style="fill:#e6e6e6;fill-opacity:1;stroke:none;stroke-width:0.0961047;stroke-dasharray:none;stroke-opacity:1"
       d="m 29.104075,0.52916652 c -2.469614,-9.06e-6 -4.471674,1.98830798 -4.471796,4.44110318 -9e-6,2.4528858 2.002087,4.4413434 4.471796,4.4413343 2.469707,9.1e-6 4.471803,-1.9884531 4.471794,-4.4413343 -1.23e-4,-2.4527906 -2.002178,-4.44110771 -4.471794,-4.44110318 z"
       sodipodi:nodetypes="ccccc" />
    <path
       id="ellipse47"
       style="fill:#e6e6e6;fill-opacity:1;stroke-width:0.0581204"
       d="M 18.175043,4.9703875 A 2.7043666,2.6859445 0 0 1 15.470674,7.6563308 2.7043666,2.6859445 0 0 1 12.766308,4.9703875 2.7043666,2.6859445 0 0 1 15.470674,2.2844398 2.7043666,2.6859445 0 0 1 18.175043,4.9703875 Z" />
    <path
       id="ellipse48"
       style="fill:#e6e6e6;fill-opacity:1;stroke-width:0.0581204"
       d="M 45.442024,4.9703875 A 2.7043666,2.6859445 0 0 1 42.737655,7.6563308 2.7043666,2.6859445 0 0 1 40.03329,4.9703875 2.7043666,2.6859445 0 0 1 42.737655,2.2844398 2.7043666,2.6859445 0 0 1 45.442024,4.9703875 Z" />
    <g
       id="path49"
       style="fill:#e6e6e6;fill-opacity:1"
       transform="matrix(0.45339262,0,0,0.45339262,-42.271032,-18.952404)">
      <path
         style="color:#000000;fill:#e6e6e6;fill-opacity:1;stroke-linecap:round;-inkscape-stroke:none"
         d="m 165.46492,52.786229 27.59758,-0.04453"
         id="path52" />
      <path
         style="color:#000000;fill:#e6e6e6;fill-opacity:1;stroke-linecap:round;-inkscape-stroke:none"
         d="m 193.0625,52.345703 -27.59766,0.04297 a 0.39687499,0.39687499 0 0 0 -0.39648,0.398437 0.39687499,0.39687499 0 0 0 0.39648,0.396485 l 27.59766,-0.04492 a 0.39687499,0.39687499 0 0 0 0.39648,-0.398438 0.39687499,0.39687499 0 0 0 -0.39648,-0.394531 z"
         id="path53" />
    </g>
  </g>
</svg>
