<?xml version="1.0" encoding="UTF-8" standalone="no"?>
<!-- Uploaded to: SVG Repo, www.svgrepo.com, Generator: SVG Repo Mixer Tools -->

<svg
   width="800px"
   height="800px"
   viewBox="0 0 24 24"
   version="1.1"
   id="svg5"
   sodipodi:docname="user-avatar-male-hover.svg"
   inkscape:version="1.4.2 (ebf0e940d0, 2025-05-08)"
   xmlns:inkscape="http://www.inkscape.org/namespaces/inkscape"
   xmlns:sodipodi="http://sodipodi.sourceforge.net/DTD/sodipodi-0.dtd"
   xmlns="http://www.w3.org/2000/svg"
   xmlns:svg="http://www.w3.org/2000/svg">
  <defs
     id="defs5" />
  <sodipodi:namedview
     id="namedview5"
     pagecolor="#ffffff"
     bordercolor="#000000"
     borderopacity="0.25"
     inkscape:showpageshadow="2"
     inkscape:pageopacity="0.0"
     inkscape:pagecheckerboard="0"
     inkscape:deskcolor="#d1d1d1"
     inkscape:zoom="0.75125"
     inkscape:cx="517.1381"
     inkscape:cy="599.00166"
     inkscape:window-width="2518"
     inkscape:window-height="1404"
     inkscape:window-x="2602"
     inkscape:window-y="0"
     inkscape:window-maximized="1"
     inkscape:current-layer="svg5" />
  <path
     d="M 8,16 C 5.7151,17.1 3.4273,18.2 1.144,19.4 0.24882,19.9 -0.0853,21 0,22 c 0.041664,0.6 -0.18109,1.4 0.44089,1.8 0.59091,0.3 1.2837,0.1 1.9252,0.2 h 20.736 c 0.769,-0.1 0.973,-0.9 0.898,-1.5 0.014,-1 0.068,-2 -0.658,-2.7 -0.591,-0.6 -1.435,-0.9 -2.157,-1.3 -1.728,-0.8 -3.457,-1.7 -5.185,-2.5 h -8 z"
     fill="#c0392b"
     id="path1"
     style="fill:#ff4136;fill-opacity:1" />
  <path
     d="M 8,16 C 7.6742,16.1 7.3572,16.3 7.0312,16.5 7.2281,18.4 9.3683,20 12,20 14.646,20 16.792,18.4 16.969,16.4 16.647,16.3 16.321,16.1 16,16 Z"
     fill="#ecf0f1"
     id="path2" />
  <rect
     height="5"
     width="6"
     y="13.000025"
     x="9"
     fill="#95a5a6"
     id="rect2"
     style="fill:#ffb380" />
  <path
     d="M 12,0 C 9.0374,0 6.582,2.6899 6.0938,6.2188 5.9803,6.1878 5.8537,6.1537 5.75,6.1875 5.2249,6.3585 5.0955,7.356 5.4375,8.4062 5.6382,9.0225 5.9721,9.5077 6.3125,9.7812 7.0888,12.799 9.3275,15 12,15 c 2.672,0 4.911,-2.201 5.688,-5.2188 0.34,-0.2736 0.674,-0.7588 0.874,-1.375 C 18.904,7.356 18.775,6.3585 18.25,6.1875 18.146,6.1537 18.02,6.1878 17.906,6.2188 17.418,2.6898 14.963,0 12,0 Z"
     fill="#bdc3c7"
     id="path3"
     style="fill:#ffccaa" />
  <path
     d="M 11.98,0 C 9.9372,-0.1 8.0414,1.3 7,3.2 6.4698,4.1 6.1161,5.2 5.9602,6.2 6.2946,6.1 6.5604,6.3 6.8632,5.9 7.4922,5.3 7.7716,4.8 8,4 8.3901,3.1 9.2432,1.7 10,2 c 0.693,0.2 1,0.6 2,0.6 1,0 1.307,-0.4 2,-0.6 0.757,-0.3 1.61,1.1 2,2 0.228,0.8 0.468,1.3 1.097,1.9 C 17.4,6.3 17.666,6.1 18,6.2 17.844,5.2 17.49,4.1 16.96,3.2 15.919,1.3 14.023,-0.1 11.98,0 Z"
     fill="#f39c12"
     id="path4"
     style="fill:#333333" />
  <path
     d="m 8,16 c 0,1.657 1.7909,3 4,3 2.209,0 4,-1.343 4,-3 z"
     fill="#95a5a6"
     id="path5"
     style="fill:#ffb380" />
</svg>
