<?xml version="1.0" encoding="UTF-8" standalone="no"?>
<!-- Uploaded to: SVG Repo, www.svgrepo.com, Generator: SVG Repo Mixer Tools -->

<svg
   height="54"
   width="91"
   version="1.1"
   id="Layer_1"
   viewBox="0 0 57.854273 34.331108"
   xml:space="preserve"
   sodipodi:docname="user.svg"
   inkscape:version="1.3.2 (091e20ef0f, 2023-11-25)"
   xmlns:inkscape="http://www.inkscape.org/namespaces/inkscape"
   xmlns:sodipodi="http://sodipodi.sourceforge.net/DTD/sodipodi-0.dtd"
   xmlns="http://www.w3.org/2000/svg"
   xmlns:svg="http://www.w3.org/2000/svg"><defs
   id="defs5" /><sodipodi:namedview
   id="namedview5"
   pagecolor="#ffffff"
   bordercolor="#000000"
   borderopacity="0.25"
   inkscape:showpageshadow="false"
   inkscape:pageopacity="0.0"
   inkscape:pagecheckerboard="0"
   inkscape:deskcolor="#d1d1d1"
   inkscape:zoom="4.2461762"
   inkscape:cx="75.832934"
   inkscape:cy="68.178989"
   inkscape:window-width="2528"
   inkscape:window-height="1404"
   inkscape:window-x="2592"
   inkscape:window-y="0"
   inkscape:window-maximized="1"
   inkscape:current-layer="Layer_1" />





<g
   id="g21"
   transform="translate(-8.3955741)"><g
     id="g2"
     transform="matrix(0.06601337,0,0,0.06601337,34.756243,-0.4752081)"
     style="fill:#0d7474;fill-opacity:1">
	<path
   style="fill:#0d7474;fill-opacity:1"
   d="m 255.2,363.2 c -0.4,0 -0.8,0.4 -1.6,0.4 -0.4,0 -0.8,-0.4 -1.6,-0.4 z"
   id="path1-6" />
	<path
   style="fill:#0d7474;fill-opacity:1"
   d="m 458.4,404 c -46,62.8 -120.8,104 -204.8,104 -84,0 -158.4,-40.8 -204.8,-104 36,-38.4 84.8,-58.8 125.6,-69.2 -3.6,29.2 11.6,68.4 12,67.2 15.2,-35.2 66.8,-38.4 66.8,-38.4 0,0 51.6,2.8 67.2,38.4 0.4,0.8 15.6,-38 12,-67.2 41.2,10.4 90,30.8 126,69.2 z"
   id="path2-7" />
</g><path
     style="fill:#eeb490;fill-opacity:1;stroke-width:0.0660133"
     d="m 55.669279,19.85691 v 0 c 0,0.34327 -0.211243,2.165239 -4.066424,3.643938 H 51.391612 C 47.536431,22.022149 47.325189,20.20018 47.325189,19.85691 v 0 c 0.0264,-0.686538 0.184837,-1.373077 0.475296,-2.006806 1.056214,1.188241 2.323671,1.980401 3.696748,1.980401 1.346674,0 2.640535,-0.765755 3.696749,-1.980401 0.290459,0.633729 0.475297,1.320268 0.475297,2.006806 z"
     id="path3-5" /><path
     style="fill:#f1543f;stroke-width:0.0660133"
     d="m 53.794499,24.108172 -0.844971,1.689942 H 50.04494 l -0.844971,-1.689942 c 1.161834,-0.501702 2.297264,-0.580918 2.297264,-0.580918 0,0 1.161836,0.07922 2.297266,0.580918 z"
     id="path4-3" /><path
     style="fill:#ff7058;stroke-width:0.0660133"
     d="m 49.147158,32.901153 c 0.765755,0.105621 1.557915,0.158432 2.376481,0.158432 0.79216,0 1.584322,-0.05281 2.376482,-0.158432 L 52.975934,25.82452 h -2.904589 z"
     id="path5-5" /><g
     id="g7"
     transform="matrix(0.06601337,0,0,0.06601337,34.756243,-0.4752081)">
	<path
   style="fill:#ffffff"
   d="m 316.8,307.2 c 0,0 2.8,32 -63.2,56.4 0,0 51.6,2.8 67.2,38.4 0.4,1.6 30.4,-76 -4,-94.8 z"
   id="path6" />
	<path
   style="fill:#ffffff"
   d="m 190.4,307.2 c -34,18.8 -4.4,96 -3.6,94.8 C 202,366.8 254,363.6 254,363.6 187.6,339.2 190.4,307.2 190.4,307.2 Z"
   id="path7" />
</g><path
     style="fill:#faccb4;fill-opacity:1;stroke-width:0.0660133"
     d="m 58.705894,14.338193 c -0.554513,0.924187 -1.399484,1.478699 -2.033212,1.373078 -1.267457,2.350076 -3.115831,4.092829 -5.175449,4.092829 -2.059617,0 -3.907991,-1.769159 -5.175447,-4.092829 -0.633729,0.07922 -1.478701,-0.448891 -2.033212,-1.373078 -0.660134,-1.08262 -0.686539,-2.270861 -0.05281,-2.66694 0.158432,-0.07922 0.316864,-0.132027 0.501701,-0.105622 0.422486,1.08262 1.003403,1.742753 1.003403,1.742753 -0.607322,-3.3534789 1.87478,-3.7231542 1.452295,-6.9446068 0,0 1.557915,3.459101 6.020419,1.0298087 l -0.343269,0.6601338 c 6.231662,-1.3994836 4.145639,5.9412033 4.092828,6.1260403 0.712946,-0.897781 1.161836,-1.795563 1.42589,-2.614129 0.105621,0 0.237648,0.05281 0.316864,0.105622 0.686539,0.369674 0.660134,1.58432 0,2.66694 z"
     id="path9" /><path
     style="fill:#324a5e;stroke-width:0.0660133"
     d="m 55.088361,2.8782712 c 0.501702,-0.052811 1.320268,0.3960802 1.320268,0.3960802 C 54.164174,0.71303256 50.49383,2.3501642 50.49383,2.3501642 51.734882,1.2939503 52.843907,1.3995717 52.843907,1.3995717 47.589242,0.60741126 46.69146,3.7496477 46.69146,3.7496477 46.453813,3.3799728 46.453813,2.8518659 46.480218,2.5878124 c -0.369675,0.6337284 0.0264,1.9011851 0.0264,1.9011851 C 46.136943,3.5648103 44.84308,3.7232423 44.84308,3.7232423 c 1.109025,0.1848376 1.293863,0.8713766 1.293863,0.8713766 -2.772562,1.0298086 -2.297266,3.9079917 -2.297266,3.9079917 L 44.499817,7.71045 c -0.818566,3.142237 1.267456,5.571529 1.267456,5.571529 -0.607323,-3.3534793 1.874779,-3.7231546 1.452294,-6.944607 0,0 1.557916,3.4591008 6.020419,1.0298086 l -0.343269,0.6601337 c 6.310879,-1.4258889 4.092829,6.1524457 4.092829,6.1524457 2.244455,-2.851777 1.901185,-5.7827708 1.901185,-5.7827708 l 0.264054,1.0562137 C 59.867729,4.7002403 55.088361,2.8782712 55.088361,2.8782712 Z"
     id="path10" /></g><g
   id="g20"
   transform="translate(-5.4869863)"><path
     style="fill:#803300;stroke-width:0.0624999"
     d="M 25.901888,5.5947011 C 25.181327,3.1152059 22.701895,1.2715219 19.756213,1.2715219 c -2.945682,0 -5.425177,1.8224965 -6.145676,4.3231792 -2.500683,0.8688733 -3.6450554,4.1959919 -2.585432,7.5231729 1.08081,3.348369 4.026492,5.38274 6.590737,4.556304 0.890061,-0.296687 1.631809,-0.890061 2.140371,-1.716559 0.529811,0.805311 1.25031,1.419872 2.140371,1.716559 2.543057,0.826498 5.509927,-1.229123 6.590737,-4.556304 1.05956,-3.327181 -0.08481,-6.6542996 -2.585433,-7.5231729 z"
     id="path1" /><path
     style="fill:#eeb490;stroke-width:0.0624999"
     d="m 23.189269,20.895297 c 0,-2.585433 0,-5.170865 0,-7.777485 -2.288746,0 -4.556304,0 -6.84505,0 0,2.585432 0,5.170865 0,7.777485 l -4.577491,1.08081 7.98936,8.01061 8.010609,-8.01061 z"
     id="path2" /><g
     id="g3"
     transform="matrix(0.06249988,0,0,0.06249988,3.8621808,1.2715219)">
	<path
   style="fill:#f1f3f7"
   d="m 199.375,258.374 c 0,-23.057 0,-46.114 0,-68.832 v 0 c 0,23.057 0,45.775 0,68.832 z"
   id="path3" />
	<polygon
   style="fill:#f1f3f7"
   points="254.305,459.444 382.474,331.274 337.717,320.763 254.305,403.836 170.893,320.763 126.135,331.274 "
   id="polygon3" />
</g><path
     style="fill:#faccb4;stroke-width:0.0624999"
     d="m 23.019769,7.6291347 c -0.656936,1.059623 -1.864871,1.7589341 -3.263556,1.7589341 -1.398685,0 -2.627808,-0.7204986 -3.263556,-1.7589341 C 15.369471,8.5615704 14.67016,9.9602552 14.67016,11.52844 v 2.648995 c 0,2.860932 2.331121,5.255615 5.192053,5.21324 2.754932,-0.06356 5.001302,-2.331121 5.001302,-5.107303 V 11.52844 C 24.863453,9.9602552 24.142954,8.5615704 23.019769,7.6291347 Z"
     id="path5" /><g
     id="g19"
     transform="matrix(0.06601337,0,0,0.06601337,3.5370563,-0.4752081)"
     style="fill:#0d7474;fill-opacity:1">
	<path
   style="fill:#0d7474;fill-opacity:1"
   d="m 255.2,363.2 c -0.4,0 -0.8,0.4 -1.6,0.4 -0.4,0 -0.8,-0.4 -1.6,-0.4 z"
   id="path18" />
	<path
   style="fill:#0d7474;fill-opacity:1"
   d="m 458.4,404 c -46,62.8 -120.8,104 -204.8,104 -84,0 -158.4,-40.8 -204.8,-104 36,-38.4 41.747691,-44.53156 75.86674,-63.89746 l 121.02828,121.3483 c 0.4,0.8 106.9771,-98.25084 121.34639,-121.3483 C 408.24141,350.50254 422.4,365.6 458.4,404 Z"
   id="path19"
   sodipodi:nodetypes="csccccc" />
</g></g></svg>
