<?xml version="1.0" encoding="UTF-8" standalone="no"?>
<!-- Uploaded to: SVG Repo, www.svgrepo.com, Generator: SVG Repo Mixer Tools -->

<svg
   width="800px"
   height="800px"
   viewBox="0 0 24 24"
   version="1.1"
   id="svg8"
   sodipodi:docname="user-avatar-female-hover.svg"
   inkscape:version="1.4.2 (ebf0e940d0, 2025-05-08)"
   xmlns:inkscape="http://www.inkscape.org/namespaces/inkscape"
   xmlns:sodipodi="http://sodipodi.sourceforge.net/DTD/sodipodi-0.dtd"
   xmlns="http://www.w3.org/2000/svg"
   xmlns:svg="http://www.w3.org/2000/svg">
  <defs
     id="defs8" />
  <sodipodi:namedview
     id="namedview8"
     pagecolor="#ffffff"
     bordercolor="#000000"
     borderopacity="0.25"
     inkscape:showpageshadow="2"
     inkscape:pageopacity="0.0"
     inkscape:pagecheckerboard="0"
     inkscape:deskcolor="#d1d1d1"
     inkscape:zoom="0.75125"
     inkscape:cx="422.62895"
     inkscape:cy="488.51913"
     inkscape:window-width="2518"
     inkscape:window-height="1404"
     inkscape:window-x="2602"
     inkscape:window-y="0"
     inkscape:window-maximized="1"
     inkscape:current-layer="svg8" />
  <path
     d="m 6.0625,14 c 1.4648,0.614 3.5685,1 5.9375,1 2.369,0 4.473,-0.386 5.938,-1 H 6.062 Z"
     fill="#d35400"
     id="path1"
     style="fill:#1a1a1a" />
  <path
     d="m 7,5 h 10 l 1,9 H 6 Z"
     fill="#d35400"
     id="path2"
     style="fill:#1a1a1a" />
  <path
     d="M 8,16 C 5.7151,17.1 3.4273,18.2 1.144,19.4 0.24882,19.9 -0.0853,21 0,22 c 0.041664,0.6 -0.18109,1.4 0.44089,1.8 0.59091,0.3 1.2837,0.1 1.9252,0.2 h 20.736 c 0.769,-0.1 0.973,-0.9 0.898,-1.5 0.014,-1 0.068,-2 -0.658,-2.7 -0.591,-0.6 -1.435,-0.9 -2.157,-1.3 -1.728,-0.8 -3.457,-1.7 -5.185,-2.5 h -8 z"
     fill="#16a085"
     id="path3"
     style="fill:#ff4136;fill-opacity:1" />
  <rect
     height="5"
     width="6"
     y="13.000025"
     x="9"
     fill="#95a5a6"
     id="rect3"
     style="fill:#ffb380" />
  <path
     d="M 12,0 C 9.0374,0 6.582,2.7 6.0938,6.2 5.9803,6.2 5.8537,6.1 5.75,6.1 5.2249,6.3 5.0955,7.3 5.4375,8.4 5.6382,9 5.9721,9.5 6.3125,9.7 7.0888,12.8 9.3275,15 12,15 14.672,15 16.911,12.8 17.688,9.7 18.028,9.5 18.362,9 18.562,8.4 18.904,7.3 18.775,6.3 18.25,6.1 18.146,6.1 18.02,6.2 17.906,6.2 17.418,2.7 14.963,0 12,0 Z"
     fill="#bdc3c7"
     id="path4"
     style="fill:#ffccaa" />
  <path
     d="m 8,16 c 0,1.628 1.0517,6.018 2.531,8 h 2.938 C 14.948,22.018 16,17.628 16,16 Z"
     fill="#ecf0f1"
     id="path5" />
  <path
     d="M 12,0 C 8.4125,0 4.8729,3.6 5,7 4.9485,9.2 5.9995,11.6 6.0381,13.8 7.0849,12.5 7.0481,10.9 7.0055,9.3 7.218,8.2 7.0159,6.6 8,6 10.374,4.8 11.819,2.5 12.594,0 Z"
     fill="#f39c12"
     id="path6"
     style="fill:#4d4d4d" />
  <path
     d="m 8,16 c 0,1.4 1.7909,6 4,6 2.209,0 4,-4.6 4,-6 z"
     fill="#95a5a6"
     id="path7"
     style="fill:#ffb380" />
  <path
     d="m 12,0 c 3.587,0 7.127,3.6 7,7 0.051,2.2 -0.999,4.6 -1.038,6.8 C 16.915,12.5 16.952,10.9 16.994,9.3 16.782,8.2 16.984,6.6 16,6 13.626,4.8 12.181,2.5 11.406,0 Z"
     fill="#e67e22"
     id="path8"
     style="fill:#333333" />
</svg>
