<?xml version="1.0" encoding="UTF-8" standalone="no"?>
<!-- Created with Inkscape (http://www.inkscape.org/) -->

<svg
   width="18"
   height="18"
   viewBox="0 0 4.7624998 4.7624998"
   version="1.1"
   id="svg1"
   xml:space="preserve"
   inkscape:version="1.3.2 (1:1.3.2+202311252150+091e20ef0f)"
   sodipodi:docname="ruby-icon.svg"
   xmlns:inkscape="http://www.inkscape.org/namespaces/inkscape"
   xmlns:sodipodi="http://sodipodi.sourceforge.net/DTD/sodipodi-0.dtd"
   xmlns="http://www.w3.org/2000/svg"
   xmlns:svg="http://www.w3.org/2000/svg"><sodipodi:namedview
     id="namedview1"
     pagecolor="#ffffff"
     bordercolor="#000000"
     borderopacity="0.25"
     inkscape:showpageshadow="false"
     inkscape:pageopacity="0.0"
     inkscape:pagecheckerboard="0"
     inkscape:deskcolor="#d1d1d1"
     inkscape:document-units="px"
     inkscape:zoom="13.247204"
     inkscape:cx="21.627206"
     inkscape:cy="3.9631006"
     inkscape:window-width="2526"
     inkscape:window-height="1404"
     inkscape:window-x="2594"
     inkscape:window-y="0"
     inkscape:window-maximized="1"
     inkscape:current-layer="layer1" /><defs
     id="defs1" /><g
     inkscape:label="Livello 1"
     inkscape:groupmode="layer"
     id="layer1"><g
       style="fill:#ffffff"
       id="g1"
       transform="matrix(0.20706199,0,0,0.20706199,-0.10342153,-0.20701972)"><path
         fill-rule="evenodd"
         d="M 5.873,3.26 A 0.75,0.75 0 0 1 6.44,3 h 11.31 a 0.75,0.75 0 0 1 0.576,0.27 l 5,6 a 0.75,0.75 0 0 1 -0.028,0.992 l -10.75,11.5 a 0.75,0.75 0 0 1 -1.096,0 L 0.702,10.262 A 0.75,0.75 0 0 1 0.682,9.259 l 5.19,-6 z M 6.783,4.5 2.258,9.73 12,20.153 21.75,9.723 17.399,4.5 Z"
         id="path1"
         style="fill:#ffffff" /></g></g></svg>
