<?xml version="1.0" encoding="UTF-8" standalone="no"?>
<!-- Created with Inkscape (http://www.inkscape.org/) -->

<svg
   width="260"
   height="26"
   viewBox="0 0 68.791664 6.8791666"
   version="1.1"
   id="svg1"
   inkscape:version="1.3.2 (1:1.3.2+202311252150+091e20ef0f)"
   sodipodi:docname="veichles_navbar_logo.svg"
   xml:space="preserve"
   xmlns:inkscape="http://www.inkscape.org/namespaces/inkscape"
   xmlns:sodipodi="http://sodipodi.sourceforge.net/DTD/sodipodi-0.dtd"
   xmlns="http://www.w3.org/2000/svg"
   xmlns:svg="http://www.w3.org/2000/svg"><sodipodi:namedview
     id="namedview1"
     pagecolor="#ffffff"
     bordercolor="#000000"
     borderopacity="0.25"
     inkscape:showpageshadow="false"
     inkscape:pageopacity="0.0"
     inkscape:pagecheckerboard="0"
     inkscape:deskcolor="#d1d1d1"
     inkscape:document-units="px"
     inkscape:zoom="3.0211356"
     inkscape:cx="76.295815"
     inkscape:cy="54.449725"
     inkscape:window-width="2526"
     inkscape:window-height="1404"
     inkscape:window-x="34"
     inkscape:window-y="0"
     inkscape:window-maximized="1"
     inkscape:current-layer="layer1" /><defs
     id="defs1" /><g
     inkscape:label="Livello 1"
     inkscape:groupmode="layer"
     id="layer1"><path
       d="m 19.967554,6.8008819 q -0.08643,0 -0.105641,-0.086433 L 18.469375,0.18392555 v -0.0192074 q 0,-0.08643339 0.08643,-0.08643339 h 0.537807 q 0.09604,0 0.105641,0.08643339 l 1.037201,5.36847397 q 0.0096,0.019207 0.01921,0.019207 0.0096,0 0.01921,-0.019207 L 21.30247,0.16471813 q 0.01921,-0.08643339 0.105641,-0.08643339 h 0.5186 q 0.105641,0 0.08643,0.10564081 L 20.620606,6.7144485 q -0.0096,0.086433 -0.10564,0.086433 z M 26.08511,0.57767767 q 0,0.0960371 -0.09604,0.0960371 h -2.228061 q -0.03842,0 -0.03842,0.0384148 V 3.0938497 q 0,0.038415 0.03842,0.038415 h 1.402142 q 0.09604,0 0.09604,0.096037 v 0.4129595 q 0,0.096037 -0.09604,0.096037 h -1.402142 q -0.03842,0 -0.03842,0.038415 V 6.167037 q 0,0.038415 0.03842,0.038415 h 2.228061 q 0.09604,0 0.09604,0.096037 v 0.4033559 q 0,0.096037 -0.09604,0.096037 h -2.852302 q -0.09604,0 -0.09604,-0.096037 V 0.17432184 q 0,-0.0960371 0.09604,-0.0960371 h 2.852302 q 0.09604,0 0.09604,0.0960371 z m 1.171642,6.22320423 q -0.09604,0 -0.09604,-0.096037 V 0.17432184 q 0,-0.0960371 0.09604,-0.0960371 h 0.489789 q 0.09604,0 0.09604,0.0960371 V 6.7048448 q 0,0.096037 -0.09604,0.096037 z m 3.438112,0.07683 q -0.739486,0 -1.19086,-0.4513743 Q 29.062233,5.9749628 29.062233,5.2162697 V 1.6532932 q 0,-0.74908938 0.441771,-1.20046376 0.451374,-0.45137438 1.19086,-0.45137438 0.749089,0 1.19086,0.45137438 0.451374,0.44177067 0.451374,1.20046376 v 0.1632631 q 0,0.096037 -0.09604,0.096037 l -0.499393,0.028811 q -0.09604,0 -0.09604,-0.096037 V 1.6052747 q 0,-0.4513744 -0.2593,-0.72988202 -0.2593,-0.27850759 -0.691467,-0.27850759 -0.422563,0 -0.691467,0.27850759 -0.259301,0.27850762 -0.259301,0.72988202 v 3.6686172 q 0,0.4513744 0.259301,0.729882 0.268904,0.2785076 0.691467,0.2785076 0.432167,0 0.691467,-0.2785076 0.2593,-0.2785076 0.2593,-0.729882 V 5.0337992 q 0,-0.096037 0.09604,-0.096037 l 0.499393,0.028811 q 0.09604,0 0.09604,0.096037 v 0.1536594 q 0,0.7586931 -0.451374,1.2100675 -0.451375,0.4513743 -1.19086,0.4513743 z m 4.302454,0 q -0.739485,0 -1.200464,-0.460978 Q 33.34548,5.9557554 33.34548,5.1970623 v -3.514958 q 0,-0.75869306 0.451374,-1.21967115 0.460979,-0.46097809 1.200464,-0.46097809 0.74909,0 1.210068,0.46097809 0.460978,0.46097809 0.460978,1.21967115 v 3.514958 q 0,0.7490894 -0.460978,1.2196712 -0.460978,0.460978 -1.210068,0.460978 z m 0,-0.59543 q 0.441771,0 0.710675,-0.2881113 Q 35.9865,5.6964552 35.9865,5.2354771 V 1.6532932 q 0,-0.4705818 -0.278507,-0.75869309 -0.268904,-0.29771502 -0.710675,-0.29771502 -0.432167,0 -0.701071,0.29771502 -0.268904,0.28811129 -0.268904,0.75869309 v 3.5821839 q 0,0.4609781 0.268904,0.7586931 0.268904,0.2881113 0.701071,0.2881113 z m 2.986748,0.5186004 q -0.09604,0 -0.09604,-0.096037 V 0.17432184 q 0,-0.0960371 0.09604,-0.0960371 h 0.489789 q 0.09604,0 0.09604,0.0960371 V 6.167037 q 0,0.038415 0.03842,0.038415 h 2.19925 q 0.09604,0 0.09604,0.096037 v 0.4033559 q 0,0.096037 -0.09604,0.096037 z m 3.803068,0 q -0.09604,0 -0.09604,-0.096037 V 0.17432184 q 0,-0.0960371 0.09604,-0.0960371 h 0.489789 q 0.09604,0 0.09604,0.0960371 V 6.7048448 q 0,0.096037 -0.09604,0.096037 z"
       id="text1"
       style="font-stretch:condensed;font-size:9.60371px;font-family:'Barlow Condensed';-inkscape-font-specification:'Barlow Condensed,  Condensed';letter-spacing:0px;fill:#2b6b00;stroke-width:1.28049;stroke-linecap:round;stroke-linejoin:round"
       aria-label="VEICOLI" /><g
       id="g22"
       transform="translate(1.101656,-11.937358)"><g
         id="g1"
         transform="matrix(0.14365205,0,0,0.14365205,-0.5724893,9.4334099)"
         style="fill:#808080">
	<path
   fill="#4572ed"
   d="m 14,48.75 c -2.757,0 -5,-2.243 -5,-5 0,-2.757 2.243,-5 5,-5 2.757,0 5,2.243 5,5 0,2.757 -2.243,5 -5,5 z m 0,-8 c -1.654,0 -3,1.346 -3,3 0,1.654 1.346,3 3,3 1.654,0 3,-1.346 3,-3 0,-1.654 -1.346,-3 -3,-3 z"
   id="path1-3"
   style="fill:#808080" />
</g><g
         id="g7"
         transform="matrix(0.14365205,0,0,0.14365205,-0.5724893,9.4334099)"
         style="fill:#808080">
	<path
   fill="#4572ed"
   d="m 50,48.75 c -2.757,0 -5,-2.243 -5,-5 0,-2.757 2.243,-5 5,-5 2.757,0 5,2.243 5,5 0,2.757 -2.243,5 -5,5 z m 0,-8 c -1.654,0 -3,1.346 -3,3 0,1.654 1.346,3 3,3 1.654,0 3,-1.346 3,-3 0,-1.654 -1.346,-3 -3,-3 z"
   id="path7"
   style="fill:#808080" />
</g><g
         id="g9"
         transform="matrix(0.14365205,0,0,0.14365205,-0.5724893,9.4334099)"
         style="fill:#333333">
	<path
   fill="#4572ed"
   d="M 12.355,63.999 H 7.645 C 6.187,63.999 5,62.813 5,61.355 v -3.356 c 0,-0.553 0.447,-1 1,-1 0.553,0 1,0.447 1,1 v 3.356 c 0,0.354 0.289,0.644 0.645,0.644 h 4.711 c 0.355,0 0.645,-0.289 0.645,-0.644 v -1.356 c 0,-0.553 0.447,-1 1,-1 0.553,0 1,0.447 1,1 v 1.356 C 15,62.813 13.813,63.999 12.355,63.999 Z"
   id="path9"
   style="fill:#333333" />
</g><g
         id="g10"
         transform="matrix(0.14365205,0,0,0.14365205,-0.5724893,9.4334099)"
         style="fill:#333333">
	<path
   fill="#4572ed"
   d="m 56.355,63.999 h -4.711 c -1.458,0 -2.645,-1.186 -2.645,-2.644 v -1.356 c 0,-0.553 0.447,-1 1,-1 0.553,0 1,0.447 1,1 v 1.356 c 0,0.354 0.289,0.644 0.645,0.644 h 4.711 C 56.71,61.999 57,61.71 57,61.355 v -3.356 c 0,-0.553 0.447,-1 1,-1 0.553,0 1,0.447 1,1 v 3.356 c 0,1.458 -1.187,2.644 -2.645,2.644 z"
   id="path10"
   style="fill:#333333" />
</g><g
         id="g11"
         transform="matrix(0.14365205,0,0,0.14365205,-0.5724893,9.4334099)"
         style="fill:#ff0000">
	<path
   fill="#4572ed"
   d="M 52.115,55.75 H 11.885 C 6.985,55.75 3,51.765 3,46.865 3,46.805 3.005,46.747 3.016,46.688 L 4.627,37.731 C 4.938,36.003 6.438,34.75 8.193,34.75 h 47.613 c 1.756,0 3.256,1.254 3.566,2.981 l 1.611,8.957 c 0.012,0.059 0.017,0.118 0.017,0.177 0,4.9 -3.985,8.885 -8.885,8.885 z M 5.001,46.951 c 0.046,3.757 3.116,6.799 6.884,6.799 h 40.23 c 3.768,0 6.838,-3.042 6.884,-6.799 L 57.404,38.085 C 57.265,37.312 56.593,36.75 55.806,36.75 H 8.193 c -0.787,0 -1.459,0.562 -1.598,1.335 z"
   id="path11"
   style="fill:#ff0000" />
</g><g
         id="g12"
         transform="matrix(0.14365205,0,0,0.14365205,-0.5724893,9.4334099)"
         style="fill:#333333">
	<path
   fill="#4572ed"
   d="m 54.001,31.75 c -0.378,0 -0.739,-0.215 -0.908,-0.58 C 53.021,31.014 52.455,29.997 48.24,23.492 47.128,21.775 45.242,20.75 43.194,20.75 H 20.851 c -2.067,0 -3.964,1.042 -5.074,2.786 l -4.933,7.751 C 10.548,31.752 9.931,31.89 9.463,31.594 8.997,31.297 8.859,30.679 9.156,30.213 l 4.933,-7.751 c 1.479,-2.324 4.007,-3.712 6.762,-3.712 h 22.344 c 2.729,0 5.242,1.366 6.725,3.654 4.619,7.129 4.897,7.729 4.988,7.926 0.232,0.501 0.015,1.095 -0.487,1.327 -0.137,0.064 -0.279,0.093 -0.42,0.093 z"
   id="path12"
   style="fill:#333333" />
</g><g
         id="g13"
         transform="matrix(0.14365205,0,0,0.14365205,-0.5724893,9.4334099)"
         style="fill:#ff0000">
	<path
   fill="#4572ed"
   d="m 63,31.75 h -5 c -0.553,0 -1,-0.447 -1,-1 0,-0.553 0.447,-1 1,-1 h 5 c 0.553,0 1,0.447 1,1 0,0.553 -0.447,1 -1,1 z"
   id="path13"
   style="fill:#ff0000" />
</g><g
         id="g14"
         transform="matrix(0.14365205,0,0,0.14365205,-0.5724893,9.4334099)"
         style="fill:#ff0000">
	<path
   fill="#4572ed"
   d="M 6,31.75 H 1 c -0.553,0 -1,-0.447 -1,-1 0,-0.553 0.447,-1 1,-1 h 5 c 0.553,0 1,0.447 1,1 0,0.553 -0.447,1 -1,1 z"
   id="path14"
   style="fill:#ff0000" />
</g><g
         id="g15"
         transform="matrix(0.14365205,0,0,0.14365205,-0.5724893,9.4334099)"
         style="fill:#333333">
	<path
   fill="#4572ed"
   d="M 41,44.75 H 23 c -0.553,0 -1,-0.447 -1,-1 0,-0.553 0.447,-1 1,-1 h 18 c 0.553,0 1,0.447 1,1 0,0.553 -0.447,1 -1,1 z"
   id="path15"
   style="fill:#333333" />
</g><g
         id="g16"
         transform="matrix(0.14365205,0,0,0.14365205,-0.5724893,9.4334099)"
         style="fill:#333333">
	<path
   fill="#4572ed"
   d="m 32,48.248 c -1.736,0 -3.473,-0.173 -5.196,-0.518 -0.541,-0.108 -0.893,-0.635 -0.784,-1.177 0.107,-0.542 0.637,-0.897 1.177,-0.784 3.188,0.637 6.42,0.637 9.607,0 0.549,-0.113 1.069,0.243 1.177,0.784 0.108,0.542 -0.243,1.068 -0.784,1.177 -1.724,0.345 -3.461,0.518 -5.197,0.518 z"
   id="path16"
   style="fill:#333333" />
</g><g
         id="g17"
         transform="matrix(0.14365205,0,0,0.14365205,-0.5724893,9.4334099)"
         style="fill:#afdde9">
	<path
   fill="#4572ed"
   d="M 37,25.75 H 27 c -0.553,0 -1,-0.448 -1,-1 0,-0.552 0.447,-1 1,-1 h 10 c 0.553,0 1,0.448 1,1 0,0.552 -0.447,1 -1,1 z"
   id="path17"
   style="fill:#afdde9" />
</g></g></g></svg>
