<?xml version="1.0" encoding="UTF-8" standalone="no"?>
<!-- Created with Inkscape (http://www.inkscape.org/) -->

<svg
   width="260"
   height="26"
   viewBox="0 0 68.791664 6.8791666"
   version="1.1"
   id="svg1"
   inkscape:version="1.3.2 (1:1.3.2+202311252150+091e20ef0f)"
   sodipodi:docname="mission_reasons_navbar_logo.svg"
   xml:space="preserve"
   xmlns:inkscape="http://www.inkscape.org/namespaces/inkscape"
   xmlns:sodipodi="http://sodipodi.sourceforge.net/DTD/sodipodi-0.dtd"
   xmlns="http://www.w3.org/2000/svg"
   xmlns:svg="http://www.w3.org/2000/svg"><sodipodi:namedview
     id="namedview1"
     pagecolor="#ffffff"
     bordercolor="#000000"
     borderopacity="0.25"
     inkscape:showpageshadow="false"
     inkscape:pageopacity="0.0"
     inkscape:pagecheckerboard="0"
     inkscape:deskcolor="#d1d1d1"
     inkscape:document-units="px"
     inkscape:zoom="3.2711538"
     inkscape:cx="107.45444"
     inkscape:cy="28.277484"
     inkscape:window-width="2526"
     inkscape:window-height="1404"
     inkscape:window-x="34"
     inkscape:window-y="0"
     inkscape:window-maximized="1"
     inkscape:current-layer="layer1" /><defs
     id="defs1" /><g
     inkscape:label="Livello 1"
     inkscape:groupmode="layer"
     id="layer1"><path
       d="m 46.491448,2.7667424 q 0.2492,0 0.38626,0.1827466 0.13706,0.1827466 0.13706,0.5067066 v 1.3996729 q 0,0.041533 -0.04153,0.041533 h -0.207667 q -0.04153,0 -0.04153,-0.041533 V 3.4811156 q 0,-0.21182 -0.09137,-0.3322666 -0.08721,-0.1246 -0.232586,-0.1246 -0.157827,0 -0.2492,0.1204466 -0.09137,0.1204467 -0.09137,0.3281133 v 1.3830596 q 0,0.041533 -0.04153,0.041533 h -0.21182 q -0.04153,0 -0.04153,-0.041533 V 3.4811156 q 0,-0.21182 -0.09137,-0.3322666 -0.08723,-0.1246 -0.228434,-0.1246 -0.157826,0 -0.253353,0.1204466 -0.09137,0.1204467 -0.09137,0.3281133 v 1.3830596 q 0,0.041533 -0.04153,0.041533 h -0.207666 q -0.04153,0 -0.04153,-0.041533 V 2.837349 q 0,-0.041533 0.04153,-0.041533 h 0.207666 q 0.04153,0 0.04153,0.041533 v 0.1287533 q 0,0.00831 0.0042,0.012467 0.0082,0 0.01661,-0.00831 0.07891,-0.1038333 0.1869,-0.1536733 0.107987,-0.04984 0.228433,-0.04984 0.157827,0 0.27412,0.078913 0.116294,0.07476 0.178594,0.2159732 0.0042,0.00831 0.01243,0.00831 0.0082,0 0.01243,-0.012466 0.07476,-0.14952 0.203513,-0.2201267 0.12876,-0.070607 0.27412,-0.070607 z m 1.187848,-0.3530332 q -0.10384,0 -0.170287,-0.066453 -0.06231,-0.066453 -0.06231,-0.1661333 0,-0.1038333 0.06231,-0.1661332 0.06645,-0.066453 0.170287,-0.066453 0.09968,0 0.16198,0.066453 0.06645,0.0623 0.06645,0.1661332 0,0.09968 -0.06645,0.1661333 -0.06229,0.066453 -0.16198,0.066453 z m -0.10384,2.4836927 q -0.04153,0 -0.04153,-0.041533 V 2.837349 q 0,-0.041533 0.04153,-0.041533 h 0.21182 q 0.04153,0 0.04153,0.041533 v 2.0185195 q 0,0.041533 -0.04153,0.041533 z m 1.337366,0.020767 q -0.286579,0 -0.461019,-0.1453666 -0.170287,-0.14952 -0.170287,-0.3945666 V 4.349162 q 0,-0.041533 0.04153,-0.041533 h 0.19936 q 0.04153,0 0.04153,0.041533 v 0.02492 q 0,0.1329066 0.09553,0.2242799 0.09968,0.091373 0.257506,0.091373 0.14952,0 0.240894,-0.091373 0.09137,-0.091373 0.09137,-0.2325866 0,-0.1079866 -0.05815,-0.1785933 -0.05815,-0.07476 -0.13706,-0.1162933 Q 48.979266,4.0293557 48.825593,3.9629021 48.663613,3.8964491 48.555626,3.8341488 48.4518,3.7676958 48.37288,3.6514022 48.29812,3.5309555 48.29812,3.3482089 q 0,-0.2658132 0.16198,-0.4194865 0.166133,-0.1536733 0.444406,-0.1536733 0.282427,0 0.44856,0.1578266 0.166134,0.1578266 0.166134,0.4194866 v 0.012467 q 0,0.041533 -0.04153,0.041533 h -0.191053 q -0.04153,0 -0.04153,-0.041533 v -0.02492 q 0,-0.1412133 -0.09553,-0.2325866 -0.09137,-0.091373 -0.240893,-0.091373 -0.14952,0 -0.240893,0.095527 -0.08721,0.091373 -0.08721,0.2284333 0,0.09968 0.05399,0.1702866 0.05399,0.066453 0.132907,0.11214 0.07892,0.041533 0.220126,0.1038333 0.170287,0.07476 0.278274,0.1412133 0.112146,0.066453 0.195206,0.1868999 0.08307,0.1204467 0.08307,0.29904 0,0.2575066 -0.170287,0.4111799 -0.170286,0.1536733 -0.46102,0.1536733 z m 1.4495,0 q -0.28658,0 -0.46102,-0.1453666 -0.170286,-0.14952 -0.170286,-0.3945666 V 4.349162 q 0,-0.041533 0.04153,-0.041533 h 0.19936 q 0.04153,0 0.04153,0.041533 v 0.02492 q 0,0.1329066 0.09553,0.2242799 0.09968,0.091373 0.257506,0.091373 0.14952,0 0.240893,-0.091373 0.09137,-0.091373 0.09137,-0.2325866 0,-0.1079866 -0.05815,-0.1785933 -0.05815,-0.07476 -0.13706,-0.1162933 -0.07476,-0.041533 -0.228433,-0.1079866 -0.16198,-0.066453 -0.269967,-0.1287533 -0.103826,-0.066453 -0.182746,-0.1827466 -0.07476,-0.1204467 -0.07476,-0.3031933 0,-0.2658132 0.16198,-0.4194865 0.166133,-0.1536733 0.444406,-0.1536733 0.282427,0 0.44856,0.1578266 0.166133,0.1578266 0.166133,0.4194866 v 0.012467 q 0,0.041533 -0.04153,0.041533 h -0.191053 q -0.04153,0 -0.04153,-0.041533 v -0.02492 q 0,-0.1412133 -0.09553,-0.2325866 -0.09137,-0.091373 -0.240893,-0.091373 -0.14952,0 -0.240893,0.095527 -0.08723,0.091373 -0.08723,0.2284333 0,0.09968 0.054,0.1702866 0.05399,0.066453 0.132907,0.11214 0.07891,0.041533 0.220126,0.1038333 0.170287,0.07476 0.278274,0.1412133 0.112133,0.066453 0.195206,0.1868999 0.08307,0.1204467 0.08307,0.29904 0,0.2575066 -0.170287,0.4111799 -0.170286,0.1536733 -0.46102,0.1536733 z m 1.183695,-2.5044593 q -0.103827,0 -0.170287,-0.066453 -0.06231,-0.066453 -0.06231,-0.1661333 0,-0.1038333 0.06231,-0.1661332 0.06645,-0.066453 0.170287,-0.066453 0.09968,0 0.16198,0.066453 0.06645,0.0623 0.06645,0.1661332 0,0.09968 -0.06645,0.1661333 -0.06229,0.066453 -0.16198,0.066453 z M 51.44219,4.8974019 q -0.04153,0 -0.04153,-0.041533 V 2.837349 q 0,-0.041533 0.04153,-0.041533 h 0.21182 q 0.04153,0 0.04153,0.041533 v 2.0185195 q 0,0.041533 -0.04153,0.041533 z m 1.395512,0.033227 q -0.29904,0 -0.477633,-0.1744399 -0.17444,-0.17444 -0.17444,-0.4610199 V 3.4022022 q 0,-0.2824266 0.178593,-0.4610198 0.178593,-0.1785933 0.47348,-0.1785933 0.29904,0 0.477633,0.1785933 0.178593,0.1785932 0.178593,0.4610198 v 0.8929665 q 0,0.2865799 -0.178593,0.4610199 -0.178593,0.1744399 -0.477633,0.1744403 z m 0,-0.2616599 q 0.157826,0 0.257506,-0.1079867 0.103827,-0.1079866 0.103827,-0.2865799 V 3.4188156 q 0,-0.1785933 -0.103827,-0.28658 -0.09968,-0.1121399 -0.257506,-0.1121399 -0.157827,0 -0.257507,0.1121399 -0.09968,0.1079867 -0.09968,0.28658 V 4.274402 q 0,0.1785933 0.09968,0.2865799 0.09968,0.1079867 0.257507,0.1079871 z m 1.864843,-1.9022262 q 0.253354,0 0.390414,0.17444 0.141213,0.1744399 0.141213,0.4859398 v 1.4287463 q 0,0.041533 -0.04153,0.041533 h -0.21182 q -0.04153,0 -0.04153,-0.041533 V 3.4520422 q 0,-0.2035133 -0.09137,-0.3156532 -0.08721,-0.11214 -0.245047,-0.11214 -0.166133,0 -0.261659,0.1204466 -0.09137,0.1204467 -0.09137,0.3281133 v 1.3830596 q 0,0.041533 -0.04153,0.041533 h -0.21182 q -0.04153,0 -0.04153,-0.041533 V 2.837349 q 0,-0.041533 0.04153,-0.041533 h 0.21182 q 0.04153,0 0.04153,0.041533 v 0.1329067 q 0,0.00831 0.0084,0.012466 0.0082,0.00415 0.01243,-0.00831 0.07476,-0.1038334 0.1869,-0.1536733 0.116293,-0.053993 0.245046,-0.053993 z m 2.267719,1.150473 q 0,0.041533 -0.04153,0.041533 h -0.94696 q -0.01661,0 -0.01661,0.016613 v 0.3031933 q 0,0.1744399 0.09552,0.2865799 0.09968,0.1079866 0.257507,0.1079866 0.132906,0 0.22428,-0.078913 0.09553,-0.083067 0.1246,-0.2118199 0.01243,-0.03738 0.04569,-0.03738 l 0.207667,0.00831 q 0.01661,0 0.02907,0.012467 0.01243,0.012467 0.0082,0.033227 -0.03323,0.2450466 -0.203514,0.3904133 -0.166133,0.1412133 -0.4361,0.1412133 -0.294886,0 -0.473479,-0.17444 -0.17444,-0.17444 -0.17444,-0.4610199 v -0.897124 q 0,-0.2824265 0.17444,-0.4568665 0.178593,-0.1785933 0.473479,-0.1785933 0.29904,0 0.47348,0.1785933 0.178594,0.17444 0.178594,0.4568665 z M 56.31819,3.0200957 q -0.157826,0 -0.257506,0.1121399 -0.09552,0.1079867 -0.09552,0.28658 v 0.2782732 q 0,0.016613 0.01661,0.016613 h 0.681146 q 0.01661,0 0.01661,-0.016613 V 3.4188156 q 0,-0.1785933 -0.09968,-0.28658 -0.09968,-0.1121399 -0.26166,-0.1121399 z"
       id="text19"
       style="font-stretch:condensed;font-size:3.175px;font-family:'Barlow Condensed';-inkscape-font-specification:'Barlow Condensed,  Condensed';letter-spacing:0px;fill:#2b6b00;stroke-width:0.553777;stroke-linecap:round;stroke-linejoin:round"
       aria-label="missione" /><path
       d="m 21.417712,0.14551071 q 0.02881,-0.06722597 0.115245,-0.06722597 h 0.499393 q 0.09604,0 0.09604,0.0960371 V 6.7048448 q 0,0.096037 -0.09604,0.096037 h -0.48979 q -0.09604,0 -0.09604,-0.096037 V 1.5572561 q 0,-0.028811 -0.01921,-0.028811 -0.0096,0 -0.02881,0.019207 l -0.998786,2.0744014 q -0.02881,0.067226 -0.09604,0.067226 -0.07683,0 -0.105641,-0.067226 L 19.199255,1.5572561 q -0.01921,-0.019207 -0.03842,-0.019207 -0.0096,0 -0.0096,0.028811 v 5.137985 q 0,0.096037 -0.09604,0.096037 H 18.56541 q -0.09604,0 -0.09604,-0.096037 V 0.17432184 q 0,-0.0960371 0.09604,-0.0960371 h 0.499393 q 0.08643,0 0.115245,0.06722597 l 1.094823,2.21845709 q 0.0096,0.019207 0.02881,0.019207 0.01921,0 0.02881,-0.019207 z m 3.562976,6.73220079 q -0.739486,0 -1.200464,-0.460978 -0.451375,-0.4609781 -0.451375,-1.2196712 v -3.514958 q 0,-0.75869306 0.451375,-1.21967115 0.460978,-0.46097809 1.200464,-0.46097809 0.749089,0 1.210067,0.46097809 0.460978,0.46097809 0.460978,1.21967115 v 3.514958 q 0,0.7490894 -0.460978,1.2196712 -0.460978,0.460978 -1.210067,0.460978 z m 0,-0.59543 q 0.44177,0 0.710674,-0.2881113 0.278508,-0.297715 0.278508,-0.7586931 V 1.6532932 q 0,-0.4705818 -0.278508,-0.75869309 -0.268904,-0.29771502 -0.710674,-0.29771502 -0.432167,0 -0.701071,0.29771502 -0.268904,0.28811129 -0.268904,0.75869309 v 3.5821839 q 0,0.4609781 0.268904,0.7586931 0.268904,0.2881113 0.701071,0.2881113 z m 5.83905,-6.20399676 q 0.09604,0 0.09604,0.0960371 v 0.40335583 q 0,0.0960371 -0.09604,0.0960371 h -1.26769 q -0.03842,0 -0.03842,0.0384148 V 6.7048448 q 0,0.096037 -0.09604,0.096037 h -0.489789 q -0.09604,0 -0.09604,-0.096037 V 0.71212961 q 0,-0.0384148 -0.03842,-0.0384148 h -1.19086 q -0.09604,0 -0.09604,-0.0960371 V 0.17432184 q 0,-0.0960371 0.09604,-0.0960371 z m 1.210051,6.72259716 q -0.09604,0 -0.09604,-0.096037 V 0.17432184 q 0,-0.0960371 0.09604,-0.0960371 h 0.489789 q 0.09604,0 0.09604,0.0960371 V 6.7048448 q 0,0.096037 -0.09604,0.096037 z m 3.111586,0 q -0.08643,0 -0.105641,-0.086433 L 33.643196,0.18392555 v -0.0192074 q 0,-0.08643339 0.08643,-0.08643339 h 0.537808 q 0.09604,0 0.105641,0.08643339 l 1.0372,5.36847397 q 0.0096,0.019207 0.01921,0.019207 0.0096,0 0.01921,-0.019207 L 36.47629,0.16471813 q 0.01921,-0.08643339 0.105641,-0.08643339 h 0.5186 q 0.105641,0 0.08643,0.10564081 L 35.794427,6.7144485 q -0.0096,0.086433 -0.105641,0.086433 z m 3.169216,0 q -0.09604,0 -0.09604,-0.096037 V 0.17432184 q 0,-0.0960371 0.09604,-0.0960371 h 0.489789 q 0.09604,0 0.09604,0.0960371 V 6.7048448 q 0,0.096037 -0.09604,0.096037 z"
       id="text20"
       style="font-stretch:condensed;font-size:9.60371px;font-family:'Barlow Condensed';-inkscape-font-specification:'Barlow Condensed,  Condensed';letter-spacing:0px;fill:#2b6b00;stroke-width:1.28049;stroke-linecap:round;stroke-linejoin:round"
       aria-label="MOTIVI" /><g
       id="g23"
       transform="translate(0,-8.7155758)"><g
         style="fill:#4d4d4d;fill-opacity:1"
         id="g21"
         transform="matrix(0.00806877,0,0,0.00806877,5.8091354,8.9051477)"><g
           id="g1"
           style="fill:#4d4d4d;fill-opacity:1">
	<path
   d="m 678.02,85.46 c 0,47.266 -38.255,85.503 -85.529,85.503 -47.254,0 -85.554,-38.237 -85.554,-85.503 0,-47.201 38.3,-85.46 85.554,-85.46 47.274,0 85.529,38.259 85.529,85.46 z m 42.103,275.998 c -43.254,9.093 -73.185,11.286 -94.029,9.875 -36.518,-2.431 -45.472,-15.756 -49.753,-22.265 -8.435,-12.435 -11.217,-28.429 -13.891,-47.983 l -37.298,115.973 c -4.783,12.239 -12.608,43.88 -23.216,65.474 2.869,3.473 5.632,6.837 8.304,10.025 37.604,45.421 55.731,68.315 58.166,91.928 1.456,13.976 4.412,43.056 -123.854,201.062 -8.303,10.221 -20.758,15.19 -32.995,14.366 -7.78,-0.522 -15.519,-3.364 -22.019,-8.658 -16.78,-13.542 -19.28,-38.217 -5.717,-54.927 42.819,-52.778 91.443,-119.206 104.397,-145.228 -3.563,-5.469 -9.304,-12.954 -15.52,-20.833 -26.279,45.291 -87.813,132.684 -126.896,187.153 -8.15,11.395 -21.323,17.103 -34.407,16.209 -6.979,-0.454 -13.934,-2.798 -20.106,-7.204 -17.52,-12.521 -21.541,-36.936 -8.999,-54.491 55.883,-78.036 120.656,-172.655 127.872,-189.476 2,-5.836 4.413,-13.064 6.695,-21.006 -18.063,-23.396 -33.365,-46.139 -40.494,-66.318 -6.651,-18.838 -1.349,-39.693 4.456,-58.052 19.562,-62.066 57.209,-117.338 81.749,-177.517 -38.669,-1.584 -96.639,5.1 -170.736,40.212 -2.521,1.172 -5.086,2.019 -7.716,2.496 l 14.955,27.126 -42.842,23.525 20.237,36.805 L 150.484,398.89 55,225.13 l 125.917,-69.141 19.28,35.091 42.864,-23.524 12.52,22.744 c 2.608,-2.8 5.761,-5.209 9.477,-6.988 140.631,-66.688 237.77,-44.64 267.635,-34.853 4.848,1.085 9.848,2.691 15.193,4.949 17.236,7.205 28.388,14.821 35.234,22.764 3.434,2.17 6.586,5.1 9.085,8.68 21.91,31.836 27.278,71.789 31.213,100.869 0.935,7.4 2.261,16.688 3.564,23.089 15.673,0.477 50.059,-2.191 80.271,-8.551 17.084,-3.515 33.495,7.292 37.082,24.176 3.523,16.927 -7.323,33.463 -24.212,37.023 z m -463.52,-104.384 -25.931,-47.114 -13.716,7.51 25.888,47.114 z"
   id="path1-5"
   style="fill:#4d4d4d;fill-opacity:1" />
</g></g><path
         style="color:#000000;fill:#4d4d4d;fill-opacity:1;stroke-width:0.273695;-inkscape-stroke:none"
         d="m 4.2709166,9.5207182 c -0.5160842,0 -0.9070426,-0.00151 -1.2284196,0.041696 C 2.721119,9.6056222 2.455956,9.7020644 2.256693,9.9013255 2.057432,10.100588 1.960989,10.365752 1.917781,10.687129 c -0.04321,0.321378 -0.0417,0.712336 -0.0417,1.22842 v 1.09478 c 0,0.516079 -0.0015,0.907041 0.0417,1.22842 0.04321,0.32138 0.139645,0.586549 0.338912,0.785804 0.199262,0.199266 0.464426,0.295702 0.785804,0.338911 0.321378,0.04321 0.7123354,0.0417 1.2284196,0.0417 h 0.5473899 c 0.5160786,0 0.9070401,0.0015 1.2284199,-0.0417 0.32138,-0.04321 0.5865493,-0.139639 0.7858039,-0.338911 0.1992716,-0.199254 0.2957023,-0.464424 0.3389113,-0.785804 0.043209,-0.32138 0.041696,-0.712341 0.041696,-1.22842 v -1.09478 c 0,-0.516084 0.00151,-0.907042 -0.041696,-1.22842 C 7.1282326,10.365751 7.0317961,10.100588 6.8325303,9.9013252 6.6332752,9.7020582 6.3681058,9.6056219 6.0467264,9.5624139 5.7253472,9.5192059 5.3343851,9.5207182 4.8183065,9.5207182 Z m 0,0.4105424 h 0.5473899 c 0.5160786,0 0.8990233,0.00153 1.1738946,0.038488 0.2748716,0.036955 0.4286846,0.1004574 0.5500629,0.2218424 0.1213949,0.121393 0.1848867,0.275194 0.2218426,0.550063 0.036956,0.274869 0.038488,0.657811 0.038488,1.173895 v 1.09478 c 0,0.516078 -0.00153,0.899023 -0.038488,1.173894 -0.036956,0.274871 -0.1004535,0.428684 -0.2218426,0.550063 -0.1213788,0.121389 -0.2751918,0.184887 -0.5500629,0.221843 -0.2748707,0.03696 -0.657816,0.03849 -1.1738946,0.03849 H 4.2709166 c -0.5160842,0 -0.8990266,-0.0015 -1.1738946,-0.03849 C 2.822153,14.919173 2.668352,14.855681 2.546959,14.734286 2.425574,14.612908 2.362072,14.459095 2.325116,14.184223 2.288156,13.909352 2.286626,13.526407 2.286626,13.010329 v -1.09478 c 0,-0.516084 0.0015,-0.899025 0.03849,-1.173895 0.03696,-0.274869 0.100452,-0.42867 0.221843,-0.550062 C 2.668351,10.0702 2.822153,10.006704 3.097022,9.969749 3.371891,9.932794 3.7548324,9.931261 4.2709166,9.9312606 Z"
         id="path1-6" /><path
         style="color:#000000;fill:#ff0000;fill-opacity:1;stroke-width:0.273695;stroke-linecap:round;-inkscape-stroke:none"
         d="M 3.449832,12.257668 A 0.20527122,0.20527122 0 0 0 3.24456,12.462939 0.20527122,0.20527122 0 0 0 3.449832,12.66821 H 5.6393914 A 0.20527122,0.20527122 0 0 0 5.8446626,12.462939 0.20527122,0.20527122 0 0 0 5.6393914,12.257668 Z"
         id="path2-2" /><path
         style="color:#000000;fill:#ff0000;fill-opacity:1;stroke-width:0.273695;stroke-linecap:round;-inkscape-stroke:none"
         d="M 3.449832,11.162888 A 0.20527122,0.20527122 0 0 0 3.24456,11.368159 0.20527122,0.20527122 0 0 0 3.449832,11.57343 H 5.6393914 A 0.20527122,0.20527122 0 0 0 5.8446626,11.368159 0.20527122,0.20527122 0 0 0 5.6393914,11.162888 Z"
         id="path3-9" /><path
         style="color:#000000;fill:#2b6b00;fill-opacity:1;stroke-width:0.273695;stroke-linecap:round;-inkscape-stroke:none"
         d="M 3.449832,13.352448 A 0.20527122,0.20527122 0 0 0 3.24456,13.557719 0.20527122,0.20527122 0 0 0 3.449832,13.76299 H 4.8183065 A 0.20527122,0.20527122 0 0 0 5.0235777,13.557719 0.20527122,0.20527122 0 0 0 4.8183065,13.352448 Z"
         id="path4-1" /></g></g></svg>
