<?xml version="1.0" encoding="UTF-8" standalone="no"?>
<!-- Created with Inkscape (http://www.inkscape.org/) -->

<svg
   width="307"
   height="180"
   viewBox="0 0 81.227073 47.624994"
   version="1.1"
   id="svg1"
   inkscape:version="1.3.2 (1:1.3.2+202311252150+091e20ef0f)"
   sodipodi:docname="login_logo.svg"
   xmlns:inkscape="http://www.inkscape.org/namespaces/inkscape"
   xmlns:sodipodi="http://sodipodi.sourceforge.net/DTD/sodipodi-0.dtd"
   xmlns="http://www.w3.org/2000/svg"
   xmlns:svg="http://www.w3.org/2000/svg">
  <sodipodi:namedview
     id="namedview1"
     pagecolor="#ffffff"
     bordercolor="#000000"
     borderopacity="0.25"
     inkscape:showpageshadow="false"
     inkscape:pageopacity="0.0"
     inkscape:pagecheckerboard="0"
     inkscape:deskcolor="#d1d1d1"
     inkscape:document-units="px"
     inkscape:zoom="1.0681327"
     inkscape:cx="396.48632"
     inkscape:cy="261.67161"
     inkscape:window-width="2526"
     inkscape:window-height="1404"
     inkscape:window-x="34"
     inkscape:window-y="0"
     inkscape:window-maximized="1"
     inkscape:current-layer="layer1" />
  <defs
     id="defs1" />
  <g
     inkscape:label="Livello 1"
     inkscape:groupmode="layer"
     id="layer1">
    <g
       id="g53"
       style="fill:#2b6b00;fill-opacity:1"
       transform="matrix(1.1270678,0,0,1.1270678,-136.81478,-48.42834)">
      <path
         style="font-weight:bold;font-size:16.6571px;font-family:Barlow;-inkscape-font-specification:'Barlow Bold';letter-spacing:0px;fill:#2b6b00;fill-opacity:1;stroke-width:1.3881"
         d="m 130.38197,65.090327 q 0.0833,0 0.13326,0.06663 0.0666,0.04997 0.0666,0.133257 v 1.632396 q 0,0.08329 -0.0666,0.149914 -0.05,0.04997 -0.13326,0.04997 h -2.98162 q -0.0833,0 -0.0833,0.08329 v 9.344633 q 0,0.08329 -0.0666,0.149914 -0.05,0.04997 -0.13326,0.04997 h -1.94888 q -0.0833,0 -0.14991,-0.04997 -0.05,-0.06663 -0.05,-0.149914 v -9.344633 q 0,-0.08329 -0.0833,-0.08329 h -2.89834 q -0.0833,0 -0.14991,-0.04997 -0.05,-0.06663 -0.05,-0.149914 v -1.632396 q 0,-0.08329 0.05,-0.133257 0.0666,-0.06663 0.14991,-0.06663 z m 8.09534,11.659971 q -0.16657,0 -0.2332,-0.149914 l -2.08214,-4.614017 q -0.0333,-0.06663 -0.0999,-0.06663 h -1.54911 q -0.0833,0 -0.0833,0.08329 v 4.547388 q 0,0.08329 -0.0666,0.149914 -0.05,0.04997 -0.13326,0.04997 h -1.94888 q -0.0833,0 -0.14992,-0.04997 -0.05,-0.06663 -0.05,-0.149914 v -11.2602 q 0,-0.08329 0.05,-0.133257 0.0666,-0.06663 0.14992,-0.06663 h 4.76393 q 1.06605,0 1.86559,0.433085 0.8162,0.433084 1.24929,1.232625 0.44974,0.799541 0.44974,1.848938 0,1.132683 -0.56634,1.948881 -0.56634,0.799541 -1.58243,1.132683 -0.0833,0.03331 -0.05,0.1166 l 2.26537,4.713959 q 0.0333,0.06663 0.0333,0.09994 0,0.133257 -0.18323,0.133257 z m -3.96439,-9.644462 q -0.0833,0 -0.0833,0.08329 v 2.848364 q 0,0.08329 0.0833,0.08329 h 2.18208 q 0.6996,0 1.13268,-0.416427 0.44974,-0.416428 0.44974,-1.082712 0,-0.666284 -0.44974,-1.082711 -0.43308,-0.433085 -1.13268,-0.433085 z m 15.45775,9.644462 q -0.16657,0 -0.21654,-0.166571 l -0.49971,-1.632396 q -0.0333,-0.06663 -0.0833,-0.06663 h -4.09765 q -0.05,0 -0.0833,0.06663 l -0.48306,1.632396 q -0.05,0.166571 -0.21654,0.166571 h -2.11545 q -0.0999,0 -0.14991,-0.04997 -0.05,-0.06663 -0.0167,-0.183228 l 3.59793,-11.2602 q 0.05,-0.166571 0.21654,-0.166571 h 2.61517 q 0.16657,0 0.21654,0.166571 l 3.59793,11.2602 q 0.0167,0.03331 0.0167,0.08329 0,0.149914 -0.18323,0.149914 z m -4.38082,-3.781162 q -0.0166,0.09994 0.0666,0.09994 h 2.93165 q 0.1,0 0.0666,-0.09994 l -1.49914,-4.947159 q -0.0167,-0.06663 -0.05,-0.04997 -0.0333,0 -0.05,0.04997 z m 14.84147,-7.678924 q 0,-0.08329 0.05,-0.133257 0.0666,-0.06663 0.14992,-0.06663 h 1.94888 q 0.0833,0 0.13326,0.06663 0.0666,0.04997 0.0666,0.133257 v 11.2602 q 0,0.08329 -0.0666,0.149914 -0.05,0.04997 -0.13326,0.04997 h -1.88225 q -0.16657,0 -0.2332,-0.133257 L 156.15048,69.4878 q -0.0333,-0.04997 -0.0666,-0.03332 -0.0333,0 -0.0333,0.06663 l 0.0333,7.029296 q 0,0.08329 -0.0666,0.149914 -0.05,0.04997 -0.13326,0.04997 h -1.94888 q -0.0833,0 -0.14991,-0.04997 -0.05,-0.06663 -0.05,-0.149914 v -11.2602 q 0,-0.08329 0.05,-0.133257 0.0666,-0.06663 0.14991,-0.06663 h 1.88226 q 0.16657,0 0.2332,0.133257 l 4.29753,7.095925 q 0.0333,0.04997 0.0666,0.04997 0.0333,-0.01666 0.0333,-0.08328 z m 12.42619,-0.199885 q 0.0833,0 0.13325,0.06663 0.0666,0.04997 0.0666,0.133257 v 1.632396 q 0,0.08329 -0.0666,0.149914 -0.05,0.04997 -0.13325,0.04997 h -2.98162 q -0.0833,0 -0.0833,0.08329 v 9.344633 q 0,0.08329 -0.0666,0.149914 -0.05,0.04997 -0.13326,0.04997 h -1.94888 q -0.0833,0 -0.14991,-0.04997 -0.05,-0.06663 -0.05,-0.149914 v -9.344633 q 0,-0.08329 -0.0833,-0.08329 h -2.89833 q -0.0833,0 -0.14992,-0.04997 -0.05,-0.06663 -0.05,-0.149914 v -1.632396 q 0,-0.08329 0.05,-0.133257 0.0666,-0.06663 0.14992,-0.06663 z m 5.38019,11.843199 q -1.29925,0 -2.29868,-0.533028 -0.98277,-0.533027 -1.53245,-1.482482 -0.54968,-0.966111 -0.54968,-2.215394 v -3.564619 q 0,-1.232626 0.54968,-2.182081 0.54968,-0.949454 1.53245,-1.465825 0.99943,-0.533027 2.29868,-0.533027 1.31591,0 2.29868,0.533027 0.99943,0.516371 1.54911,1.465825 0.54969,0.949455 0.54969,2.182081 v 3.564619 q 0,1.249283 -0.54969,2.215394 -0.54968,0.966112 -1.54911,1.49914 -0.98277,0.51637 -2.29868,0.51637 z m 0,-2.01551 q 0.91614,0 1.48248,-0.582998 0.56635,-0.582999 0.56635,-1.54911 v -3.664563 q 0,-0.966111 -0.56635,-1.54911 -0.54968,-0.599656 -1.48248,-0.599656 -0.91614,0 -1.48248,0.599656 -0.54968,0.582999 -0.54968,1.54911 v 3.664563 q 0,0.966111 0.54968,1.54911 0.56634,0.582998 1.48248,0.582998 z m 12.59274,1.832282 q -0.16657,0 -0.2332,-0.149914 l -2.08213,-4.614017 q -0.0333,-0.06663 -0.1,-0.06663 H 186.866 q -0.0833,0 -0.0833,0.08329 v 4.547388 q 0,0.08329 -0.0666,0.149914 -0.05,0.04997 -0.13326,0.04997 H 184.634 q -0.0833,0 -0.14991,-0.04997 -0.05,-0.06663 -0.05,-0.149914 v -11.2602 q 0,-0.08329 0.05,-0.133257 0.0666,-0.06663 0.14991,-0.06663 h 4.76393 q 1.06606,0 1.8656,0.433085 0.8162,0.433084 1.24928,1.232625 0.44974,0.799541 0.44974,1.848938 0,1.132683 -0.56634,1.948881 -0.56634,0.799541 -1.58242,1.132683 -0.0833,0.03331 -0.05,0.1166 l 2.26537,4.713959 q 0.0333,0.06663 0.0333,0.09994 0,0.133257 -0.18322,0.133257 z m -3.96439,-9.644462 q -0.0833,0 -0.0833,0.08329 v 2.848364 q 0,0.08329 0.0833,0.08329 h 2.18208 q 0.6996,0 1.13269,-0.416427 0.44974,-0.416428 0.44974,-1.082712 0,-0.666284 -0.44974,-1.082711 -0.43309,-0.433085 -1.13269,-0.433085 z"
         id="text45"
         aria-label="TRANTOR" />
      <path
         style="font-stretch:condensed;font-size:5.76766px;font-family:'Barlow Condensed';-inkscape-font-specification:'Barlow Condensed,  Condensed';letter-spacing:3.12737px;fill:#2b6b00;fill-opacity:1;stroke-width:0.48064"
         d="m 125.96063,82.650679 q -0.44411,0 -0.71519,-0.27108 -0.26531,-0.27108 -0.26531,-0.726725 v -2.139802 q 0,-0.449877 0.26531,-0.720957 0.27108,-0.27108 0.71519,-0.27108 0.44988,0 0.71519,0.27108 0.27108,0.265312 0.27108,0.720957 v 0.09805 q 0,0.05768 -0.0577,0.05768 l -0.29992,0.0173 q -0.0577,0 -0.0577,-0.05768 v -0.144191 q 0,-0.27108 -0.15572,-0.438342 -0.15573,-0.167262 -0.41528,-0.167262 -0.25377,0 -0.41527,0.167262 -0.15572,0.167262 -0.15572,0.438342 v 2.203246 q 0,0.27108 0.15572,0.438342 0.1615,0.167262 0.41527,0.167262 0.25955,0 0.41528,-0.167262 0.15572,-0.167262 0.15572,-0.438342 v -0.144192 q 0,-0.05768 0.0577,-0.05768 l 0.29992,0.0173 q 0.0577,0 0.0577,0.05768 v 0.09228 q 0,0.455645 -0.27108,0.726725 -0.27108,0.27108 -0.71519,0.27108 z m 5.71128,0 q -0.44411,0 -0.72096,-0.276847 -0.27108,-0.276848 -0.27108,-0.732493 v -2.110964 q 0,-0.455645 0.27108,-0.732493 0.27685,-0.276847 0.72096,-0.276847 0.44988,0 0.72673,0.276847 0.27684,0.276848 0.27684,0.732493 v 2.110964 q 0,0.449877 -0.27684,0.732493 -0.27685,0.276847 -0.72673,0.276847 z m 0,-0.357595 q 0.26531,0 0.42681,-0.173029 0.16726,-0.178798 0.16726,-0.455646 v -2.151337 q 0,-0.282615 -0.16726,-0.455645 -0.1615,-0.178797 -0.42681,-0.178797 -0.25954,0 -0.42104,0.178797 -0.16149,0.17303 -0.16149,0.455645 v 2.151337 q 0,0.276848 0.16149,0.455646 0.1615,0.173029 0.42104,0.173029 z m 6.47838,-3.668232 q 0,-0.05768 0.0577,-0.05768 h 0.28839 q 0.0577,0 0.0577,0.05768 v 3.922009 q 0,0.05768 -0.0577,0.05768 h -0.34029 q -0.0461,0 -0.0634,-0.04614 L 136.968,79.57652 q -0.006,-0.0173 -0.0173,-0.01153 -0.0115,0 -0.0115,0.0173 l 0.006,2.964577 q 0,0.05768 -0.0577,0.05768 h -0.29415 q -0.0577,0 -0.0577,-0.05768 v -3.922009 q 0,-0.05768 0.0577,-0.05768 h 0.33452 q 0.0462,0 0.0635,0.04614 l 1.13046,2.987648 q 0.006,0.0173 0.0173,0.0173 0.0115,-0.0058 0.0115,-0.02307 z m 5.14027,4.025827 q -0.42681,0 -0.69212,-0.282615 -0.26531,-0.282615 -0.26531,-0.738261 v -0.132656 q 0,-0.05768 0.0577,-0.05768 h 0.28261 q 0.0577,0 0.0577,0.05768 V 81.6125 q 0,0.305686 0.15572,0.496019 0.15573,0.184565 0.40374,0.184565 0.24224,0 0.40374,-0.178797 0.16149,-0.178798 0.16149,-0.472948 0,-0.196101 -0.0808,-0.334525 -0.075,-0.144191 -0.20186,-0.248009 -0.12113,-0.109585 -0.40951,-0.328757 -0.28838,-0.213403 -0.45564,-0.363362 -0.16727,-0.155727 -0.27685,-0.36913 -0.10382,-0.213404 -0.10382,-0.501787 0,-0.449877 0.25955,-0.709422 0.25954,-0.265312 0.67481,-0.265312 0.43834,0 0.69789,0.288383 0.26531,0.282615 0.26531,0.755563 v 0.144192 q 0,0.05768 -0.0577,0.05768 h -0.28838 q -0.0577,0 -0.0577,-0.05768 v -0.14996 q 0,-0.305686 -0.15573,-0.490251 -0.14996,-0.190332 -0.40374,-0.190332 -0.2307,0 -0.38066,0.167262 -0.14996,0.161494 -0.14996,0.461412 0,0.178798 0.0634,0.317222 0.0692,0.132656 0.20187,0.253777 0.13266,0.121121 0.3922,0.317221 0.34606,0.253777 0.51332,0.415272 0.17303,0.155726 0.26531,0.346059 0.0923,0.184565 0.0923,0.449878 0,0.472948 -0.27108,0.761331 -0.27108,0.282615 -0.69789,0.282615 z m 6.43222,-4.083503 q 0.0577,0 0.0577,0.05768 v 0.242242 q 0,0.05768 -0.0577,0.05768 h -0.76133 q -0.0231,0 -0.0231,0.02307 v 3.59902 q 0,0.05768 -0.0577,0.05768 h -0.29415 q -0.0577,0 -0.0577,-0.05768 v -3.59902 q 0,-0.02307 -0.0231,-0.02307 h -0.71519 q -0.0577,0 -0.0577,-0.05768 v -0.242242 q 0,-0.05768 0.0577,-0.05768 z m 5.62476,0.299918 q 0,0.05768 -0.0577,0.05768 h -1.3381 q -0.0231,0 -0.0231,0.02307 v 1.43038 q 0,0.02307 0.0231,0.02307 h 0.84208 q 0.0577,0 0.0577,0.05768 v 0.24801 q 0,0.05768 -0.0577,0.05768 h -0.84208 q -0.0231,0 -0.0231,0.02307 v 1.436147 q 0,0.02307 0.0231,0.02307 h 1.3381 q 0.0577,0 0.0577,0.05768 v 0.242241 q 0,0.05768 -0.0577,0.05768 h -1.71299 q -0.0577,0 -0.0577,-0.05768 v -3.922009 q 0,-0.05768 0.0577,-0.05768 h 1.71299 q 0.0577,0 0.0577,0.05768 z m 3.83102,3.737444 q -0.0577,0 -0.0577,-0.05768 v -3.922009 q 0,-0.05768 0.0577,-0.05768 h 0.29415 q 0.0577,0 0.0577,0.05768 v 3.59902 q 0,0.02307 0.0231,0.02307 h 1.3208 q 0.0577,0 0.0577,0.05768 v 0.242241 q 0,0.05768 -0.0577,0.05768 z m 5.41136,0 q -0.0577,0 -0.0577,-0.05768 v -3.922009 q 0,-0.05768 0.0577,-0.05768 h 0.29415 q 0.0577,0 0.0577,0.05768 v 3.59902 q 0,0.02307 0.0231,0.02307 h 1.32079 q 0.0577,0 0.0577,0.05768 v 0.242241 q 0,0.05768 -0.0577,0.05768 z m 7.12435,0 q -0.0519,0 -0.0634,-0.05191 l -0.14419,-0.71519 q 0,-0.01154 -0.0115,-0.0173 -0.006,-0.0058 -0.0173,-0.0058 h -1.04395 q -0.0115,0 -0.0231,0.0058 -0.006,0.0058 -0.006,0.0173 l -0.1442,0.71519 q -0.006,0.05191 -0.0634,0.05191 h -0.29415 q -0.0288,0 -0.0461,-0.0173 -0.0115,-0.0173 -0.006,-0.04614 l 0.86515,-3.922009 q 0.0115,-0.05191 0.0634,-0.05191 h 0.34606 q 0.0577,0 0.0635,0.05191 l 0.87668,3.922009 v 0.01153 q 0,0.05191 -0.0519,0.05191 z M 170.48,81.456774 q 0,0.02307 0.0173,0.02307 h 0.91129 q 0.0173,0 0.0173,-0.02307 l -0.46141,-2.266691 q -0.006,-0.0173 -0.0115,-0.0173 -0.006,0 -0.0115,0.0173 z m 6.62833,-2.889598 q 0.0577,0 0.0577,0.05768 v 0.242242 q 0,0.05768 -0.0577,0.05768 h -0.76134 q -0.0231,0 -0.0231,0.02307 v 3.59902 q 0,0.05768 -0.0577,0.05768 h -0.29415 q -0.0577,0 -0.0577,-0.05768 v -3.59902 q 0,-0.02307 -0.0231,-0.02307 h -0.71519 q -0.0577,0 -0.0577,-0.05768 v -0.242242 q 0,-0.05768 0.0577,-0.05768 z m 3.85408,4.037362 q -0.0577,0 -0.0577,-0.05768 v -3.922009 q 0,-0.05768 0.0577,-0.05768 h 0.29415 q 0.0577,0 0.0577,0.05768 v 3.922009 q 0,0.05768 -0.0577,0.05768 z m 5.20372,0.04614 q -0.44411,0 -0.72096,-0.276847 -0.27108,-0.276848 -0.27108,-0.732493 v -2.110964 q 0,-0.455645 0.27108,-0.732493 0.27685,-0.276847 0.72096,-0.276847 0.44988,0 0.72673,0.276847 0.27684,0.276848 0.27684,0.732493 v 2.110964 q 0,0.449877 -0.27684,0.732493 -0.27685,0.276847 -0.72673,0.276847 z m 0,-0.357595 q 0.26531,0 0.42681,-0.173029 0.16726,-0.178798 0.16726,-0.455646 v -2.151337 q 0,-0.282615 -0.16726,-0.455645 -0.1615,-0.178797 -0.42681,-0.178797 -0.25954,0 -0.42104,0.178797 -0.16149,0.17303 -0.16149,0.455645 v 2.151337 q 0,0.276848 0.16149,0.455646 0.1615,0.173029 0.42104,0.173029 z m 6.47837,-3.668232 q 0,-0.05768 0.0577,-0.05768 h 0.28838 q 0.0577,0 0.0577,0.05768 v 3.922009 q 0,0.05768 -0.0577,0.05768 h -0.34029 q -0.0461,0 -0.0634,-0.04614 l -1.1247,-2.981881 q -0.006,-0.0173 -0.0173,-0.01153 -0.0115,0 -0.0115,0.0173 l 0.006,2.964577 q 0,0.05768 -0.0577,0.05768 h -0.29415 q -0.0577,0 -0.0577,-0.05768 v -3.922009 q 0,-0.05768 0.0577,-0.05768 h 0.33452 q 0.0461,0 0.0634,0.04614 l 1.13046,2.987648 q 0.006,0.0173 0.0173,0.0173 0.0115,-0.0058 0.0115,-0.02307 z"
         id="text46"
         aria-label="CONSTELLATION" />
      <g
         id="path46"
         style="fill:#2b6b00;fill-opacity:1">
        <path
           style="color:#000000;fill:#2b6b00;fill-opacity:1;stroke-linecap:round;-inkscape-stroke:none"
           d="m 121.78691,52.786229 27.59758,-0.04453"
           id="path50" />
        <path
           style="color:#000000;fill:#2b6b00;fill-opacity:1;stroke-linecap:round;-inkscape-stroke:none"
           d="m 149.38477,52.345703 -27.59766,0.04297 a 0.39687499,0.39687499 0 0 0 -0.39648,0.398437 0.39687499,0.39687499 0 0 0 0.39648,0.396485 l 27.59766,-0.04492 a 0.39687499,0.39687499 0 0 0 0.39648,-0.398438 0.39687499,0.39687499 0 0 0 -0.39648,-0.394531 z"
           id="path51" />
      </g>
      <path
         id="path47"
         style="fill:#2b6b00;fill-opacity:1;stroke:none;stroke-width:0.211968;stroke-dasharray:none;stroke-opacity:1"
         d="m 157.4245,42.968436 a 9.8629389,9.7957525 0 0 0 -9.86297,9.795268 9.8629389,9.7957525 0 0 0 9.86297,9.795784 9.8629389,9.7957525 0 0 0 9.86296,-9.795784 9.8629389,9.7957525 0 0 0 -9.86296,-9.795268 z m 0,3.709851 a 6.1272984,6.0855594 0 0 1 6.12727,6.085417 6.1272984,6.0855594 0 0 1 -6.12727,6.085933 6.1272984,6.0855594 0 0 1 -6.12728,-6.085933 6.1272984,6.0855594 0 0 1 6.12728,-6.085417 z" />
      <path
         id="ellipse47"
         style="fill:#2b6b00;fill-opacity:1;stroke-width:0.12819"
         d="m 133.31949,52.763962 a 5.9647346,5.9241028 0 0 1 -5.96474,5.924103 5.9647346,5.9241028 0 0 1 -5.96473,-5.924103 5.9647346,5.9241028 0 0 1 5.96473,-5.924103 5.9647346,5.9241028 0 0 1 5.96474,5.924103 z" />
      <path
         id="ellipse48"
         style="fill:#2b6b00;fill-opacity:1;stroke-width:0.12819"
         d="m 193.45938,52.763962 a 5.9647346,5.9241028 0 0 1 -5.96474,5.924103 5.9647346,5.9241028 0 0 1 -5.96473,-5.924103 5.9647346,5.9241028 0 0 1 5.96473,-5.924103 5.9647346,5.9241028 0 0 1 5.96474,5.924103 z" />
      <g
         id="path49"
         style="fill:#2b6b00;fill-opacity:1">
        <path
           style="color:#000000;fill:#2b6b00;fill-opacity:1;stroke-linecap:round;-inkscape-stroke:none"
           d="m 165.46492,52.786229 27.59758,-0.04453"
           id="path52" />
        <path
           style="color:#000000;fill:#2b6b00;fill-opacity:1;stroke-linecap:round;-inkscape-stroke:none"
           d="m 193.0625,52.345703 -27.59766,0.04297 a 0.39687499,0.39687499 0 0 0 -0.39648,0.398437 0.39687499,0.39687499 0 0 0 0.39648,0.396485 l 27.59766,-0.04492 a 0.39687499,0.39687499 0 0 0 0.39648,-0.398438 0.39687499,0.39687499 0 0 0 -0.39648,-0.394531 z"
           id="path53" />
      </g>
    </g>
  </g>
</svg>
