<?xml version="1.0" encoding="UTF-8" standalone="no"?>
<!-- Created with Inkscape (http://www.inkscape.org/) -->

<svg
   width="260"
   height="26"
   viewBox="0 0 68.791664 6.8791666"
   version="1.1"
   id="svg1"
   inkscape:version="1.3.2 (1:1.3.2+202311252150+091e20ef0f)"
   sodipodi:docname="mission_structures_navbar_logo.svg"
   xml:space="preserve"
   xmlns:inkscape="http://www.inkscape.org/namespaces/inkscape"
   xmlns:sodipodi="http://sodipodi.sourceforge.net/DTD/sodipodi-0.dtd"
   xmlns="http://www.w3.org/2000/svg"
   xmlns:svg="http://www.w3.org/2000/svg"><sodipodi:namedview
     id="namedview1"
     pagecolor="#ffffff"
     bordercolor="#000000"
     borderopacity="0.25"
     inkscape:showpageshadow="false"
     inkscape:pageopacity="0.0"
     inkscape:pagecheckerboard="0"
     inkscape:deskcolor="#d1d1d1"
     inkscape:document-units="px"
     inkscape:zoom="3.2711538"
     inkscape:cx="112.03998"
     inkscape:cy="-2.292769"
     inkscape:window-width="2526"
     inkscape:window-height="1404"
     inkscape:window-x="34"
     inkscape:window-y="0"
     inkscape:window-maximized="1"
     inkscape:current-layer="layer1" /><defs
     id="defs1" /><g
     inkscape:label="Livello 1"
     inkscape:groupmode="layer"
     id="layer1"><path
       d="m 55.783359,2.7667424 q 0.2492,0 0.38626,0.1827466 0.13706,0.1827466 0.13706,0.5067066 v 1.3996729 q 0,0.041533 -0.04153,0.041533 h -0.207667 q -0.04153,0 -0.04153,-0.041533 V 3.4811156 q 0,-0.21182 -0.09137,-0.3322666 -0.08721,-0.1246 -0.232586,-0.1246 -0.157827,0 -0.2492,0.1204466 -0.09137,0.1204467 -0.09137,0.3281133 v 1.3830596 q 0,0.041533 -0.04153,0.041533 h -0.21182 q -0.04153,0 -0.04153,-0.041533 V 3.4811156 q 0,-0.21182 -0.09137,-0.3322666 -0.08723,-0.1246 -0.228434,-0.1246 -0.157826,0 -0.253353,0.1204466 -0.09137,0.1204467 -0.09137,0.3281133 v 1.3830596 q 0,0.041533 -0.04153,0.041533 h -0.207666 q -0.04153,0 -0.04153,-0.041533 V 2.837349 q 0,-0.041533 0.04153,-0.041533 h 0.207666 q 0.04153,0 0.04153,0.041533 v 0.1287533 q 0,0.00831 0.0042,0.012467 0.0082,0 0.01661,-0.00831 0.07891,-0.1038333 0.1869,-0.1536733 0.107987,-0.04984 0.228433,-0.04984 0.157827,0 0.27412,0.078913 0.116294,0.07476 0.178594,0.2159732 0.0042,0.00831 0.01243,0.00831 0.0082,0 0.01243,-0.012466 0.07476,-0.14952 0.203513,-0.2201267 0.12876,-0.070607 0.27412,-0.070607 z m 1.187848,-0.3530332 q -0.10384,0 -0.170287,-0.066453 -0.06231,-0.066453 -0.06231,-0.1661333 0,-0.1038333 0.06231,-0.1661332 0.06645,-0.066453 0.170287,-0.066453 0.09968,0 0.16198,0.066453 0.06645,0.0623 0.06645,0.1661332 0,0.09968 -0.06645,0.1661333 -0.06229,0.066453 -0.16198,0.066453 z m -0.10384,2.4836927 q -0.04153,0 -0.04153,-0.041533 V 2.837349 q 0,-0.041533 0.04153,-0.041533 h 0.21182 q 0.04153,0 0.04153,0.041533 v 2.0185195 q 0,0.041533 -0.04153,0.041533 z m 1.337366,0.020767 q -0.286579,0 -0.461019,-0.1453666 -0.170287,-0.14952 -0.170287,-0.3945666 V 4.349162 q 0,-0.041533 0.04153,-0.041533 h 0.19936 q 0.04153,0 0.04153,0.041533 v 0.02492 q 0,0.1329066 0.09553,0.2242799 0.09968,0.091373 0.257506,0.091373 0.14952,0 0.240894,-0.091373 0.09137,-0.091373 0.09137,-0.2325866 0,-0.1079866 -0.05815,-0.1785933 -0.05815,-0.07476 -0.13706,-0.1162933 -0.07476,-0.041533 -0.228433,-0.1079866 -0.16198,-0.066453 -0.269967,-0.1287533 -0.103826,-0.066453 -0.182746,-0.1827466 -0.07476,-0.1204467 -0.07476,-0.3031933 0,-0.2658132 0.16198,-0.4194865 0.166133,-0.1536733 0.444406,-0.1536733 0.282427,0 0.44856,0.1578266 0.166134,0.1578266 0.166134,0.4194866 v 0.012467 q 0,0.041533 -0.04153,0.041533 h -0.191053 q -0.04153,0 -0.04153,-0.041533 v -0.02492 q 0,-0.1412133 -0.09553,-0.2325866 -0.09137,-0.091373 -0.240893,-0.091373 -0.14952,0 -0.240893,0.095527 -0.08721,0.091373 -0.08721,0.2284333 0,0.09968 0.05399,0.1702866 0.05399,0.066453 0.132907,0.11214 0.07892,0.041533 0.220126,0.1038333 0.170287,0.07476 0.278274,0.1412133 0.112146,0.066453 0.195206,0.1868999 0.08307,0.1204467 0.08307,0.29904 0,0.2575066 -0.170287,0.4111799 -0.170286,0.1536733 -0.46102,0.1536733 z m 1.4495,0 q -0.28658,0 -0.46102,-0.1453666 -0.170286,-0.14952 -0.170286,-0.3945666 V 4.349162 q 0,-0.041533 0.04153,-0.041533 h 0.19936 q 0.04153,0 0.04153,0.041533 v 0.02492 q 0,0.1329066 0.09553,0.2242799 0.09968,0.091373 0.257506,0.091373 0.14952,0 0.240893,-0.091373 0.09137,-0.091373 0.09137,-0.2325866 0,-0.1079866 -0.05815,-0.1785933 -0.05815,-0.07476 -0.13706,-0.1162933 Q 59.720676,4.0293557 59.567003,3.9629021 59.405023,3.8964491 59.297036,3.8341488 59.19321,3.7676958 59.11429,3.6514022 59.03953,3.5309555 59.03953,3.3482089 q 0,-0.2658132 0.16198,-0.4194865 0.166133,-0.1536733 0.444406,-0.1536733 0.282427,0 0.44856,0.1578266 0.166133,0.1578266 0.166133,0.4194866 v 0.012467 q 0,0.041533 -0.04153,0.041533 h -0.191053 q -0.04153,0 -0.04153,-0.041533 v -0.02492 q 0,-0.1412133 -0.09553,-0.2325866 -0.09137,-0.091373 -0.240893,-0.091373 -0.14952,0 -0.240893,0.095527 -0.08723,0.091373 -0.08723,0.2284333 0,0.09968 0.054,0.1702866 0.05399,0.066453 0.132907,0.11214 0.07891,0.041533 0.220126,0.1038333 0.170287,0.07476 0.278274,0.1412133 0.112133,0.066453 0.195206,0.1868999 0.08307,0.1204467 0.08307,0.29904 0,0.2575066 -0.170287,0.4111799 -0.170286,0.1536733 -0.46102,0.1536733 z m 1.183695,-2.5044593 q -0.103827,0 -0.170287,-0.066453 -0.06231,-0.066453 -0.06231,-0.1661333 0,-0.1038333 0.06231,-0.1661332 0.06645,-0.066453 0.170287,-0.066453 0.09968,0 0.16198,0.066453 0.06645,0.0623 0.06645,0.1661332 0,0.09968 -0.06645,0.1661333 -0.06229,0.066453 -0.16198,0.066453 z m -0.103827,2.4836923 q -0.04153,0 -0.04153,-0.041533 V 2.837349 q 0,-0.041533 0.04153,-0.041533 h 0.21182 q 0.04153,0 0.04153,0.041533 v 2.0185195 q 0,0.041533 -0.04153,0.041533 z m 1.395512,0.033227 q -0.29904,0 -0.477633,-0.1744399 -0.17444,-0.17444 -0.17444,-0.4610199 V 3.4022022 q 0,-0.2824266 0.178593,-0.4610198 0.178593,-0.1785933 0.47348,-0.1785933 0.29904,0 0.477633,0.1785933 0.178593,0.1785932 0.178593,0.4610198 v 0.8929665 q 0,0.2865799 -0.178593,0.4610199 -0.178593,0.1744399 -0.477633,0.1744403 z m 0,-0.2616599 q 0.157826,0 0.257506,-0.1079867 0.103827,-0.1079866 0.103827,-0.2865799 V 3.4188156 q 0,-0.1785933 -0.103827,-0.28658 -0.09968,-0.1121399 -0.257506,-0.1121399 -0.157827,0 -0.257507,0.1121399 -0.09968,0.1079867 -0.09968,0.28658 V 4.274402 q 0,0.1785933 0.09968,0.2865799 0.09968,0.1079867 0.257507,0.1079871 z m 1.864843,-1.9022262 q 0.253354,0 0.390414,0.17444 0.141213,0.1744399 0.141213,0.4859398 v 1.4287463 q 0,0.041533 -0.04153,0.041533 h -0.21182 q -0.04153,0 -0.04153,-0.041533 V 3.4520422 q 0,-0.2035133 -0.09137,-0.3156532 -0.08721,-0.11214 -0.245047,-0.11214 -0.166133,0 -0.261659,0.1204466 -0.09137,0.1204467 -0.09137,0.3281133 v 1.3830596 q 0,0.041533 -0.04153,0.041533 h -0.21182 q -0.04153,0 -0.04153,-0.041533 V 2.837349 q 0,-0.041533 0.04153,-0.041533 h 0.21182 q 0.04153,0 0.04153,0.041533 v 0.1329067 q 0,0.00831 0.0084,0.012466 0.0082,0.00415 0.01243,-0.00831 0.07476,-0.1038334 0.1869,-0.1536733 0.116293,-0.053993 0.245046,-0.053993 z m 2.267719,1.150473 q 0,0.041533 -0.04153,0.041533 h -0.94696 q -0.01661,0 -0.01661,0.016613 v 0.3031933 q 0,0.1744399 0.09552,0.2865799 0.09968,0.1079866 0.257507,0.1079866 0.132906,0 0.22428,-0.078913 0.09553,-0.083067 0.1246,-0.2118199 0.01243,-0.03738 0.04569,-0.03738 l 0.207667,0.00831 q 0.01661,0 0.02907,0.012467 0.01243,0.012467 0.0082,0.033227 -0.03323,0.2450466 -0.203514,0.3904133 -0.166133,0.1412133 -0.4361,0.1412133 -0.294886,0 -0.473479,-0.17444 -0.17444,-0.17444 -0.17444,-0.4610199 v -0.897124 q 0,-0.2824265 0.17444,-0.4568665 0.178593,-0.1785933 0.473479,-0.1785933 0.29904,0 0.47348,0.1785933 0.178594,0.17444 0.178594,0.4568665 z M 65.610101,3.0200957 q -0.157826,0 -0.257506,0.1121399 -0.09552,0.1079867 -0.09552,0.28658 v 0.2782732 q 0,0.016613 0.01661,0.016613 h 0.681146 q 0.01661,0 0.01661,-0.016613 V 3.4188156 q 0,-0.1785933 -0.09968,-0.28658 -0.09968,-0.1121399 -0.26166,-0.1121399 z"
       id="text19"
       style="font-stretch:condensed;font-size:3.175px;font-family:'Barlow Condensed';-inkscape-font-specification:'Barlow Condensed,  Condensed';letter-spacing:0px;fill:#2b6b00;stroke-width:0.553777;stroke-linecap:round;stroke-linejoin:round"
       aria-label="missione" /><g
       id="g1"
       transform="translate(10.670585)"><path
         d="M -6.2579289,6.4485856 V 5.259563"
         stroke="#292d32"
         stroke-width="0.475609"
         stroke-miterlimit="10"
         stroke-linecap="round"
         stroke-linejoin="round"
         id="path7"
         style="fill:none;fill-opacity:1;stroke:#ff0000;stroke-opacity:1" /><path
         d="m -8.5567059,6.4485856 h 6.9755992"
         stroke="#292d32"
         stroke-width="0.475609"
         stroke-miterlimit="10"
         stroke-linecap="round"
         stroke-linejoin="round"
         id="path1-3"
         style="fill:none;fill-opacity:1;stroke:#4d4d4d;stroke-opacity:1" /><path
         d="M -2.6020808,6.451788 V 5.0376121"
         stroke="#292d32"
         stroke-width="0.475609"
         stroke-miterlimit="10"
         stroke-linecap="round"
         stroke-linejoin="round"
         id="path2-6"
         style="fill:none;fill-opacity:1;stroke:#4d4d4d;stroke-opacity:1" /><path
         d="m -2.5957076,2.9259397 c -0.3868287,0 -0.6975599,0.3107312 -0.6975599,0.6975599 v 0.719755 c 0,0.3868287 0.3107312,0.69756 0.6975599,0.69756 0.3868287,0 0.6975599,-0.3107313 0.6975599,-0.69756 v -0.719755 c 0,-0.3868287 -0.3107312,-0.6975599 -0.6975599,-0.6975599 z"
         stroke="#292d32"
         stroke-width="0.475609"
         stroke-miterlimit="10"
         stroke-linecap="round"
         stroke-linejoin="round"
         id="path3-7"
         style="fill:#000000;fill-opacity:0;stroke:#2b6b00;stroke-opacity:1" /><path
         d="M -8.2078942,6.4485856 V 1.3849442 c 0,-0.63731606 0.3170885,-0.95756582 0.9480632,-0.95756582 h 1.975347 c 0.6309746,0 0.9448766,0.32024976 0.9448766,0.95756582 v 5.0636414"
         stroke="#292d32"
         stroke-width="0.475609"
         stroke-miterlimit="10"
         stroke-linecap="round"
         stroke-linejoin="round"
         id="path4-5"
         style="fill:none;fill-opacity:1;stroke:#4d4d4d;stroke-opacity:1" /><path
         d="m -7.0347411,2.0888361 h 1.5695256"
         stroke="#292d32"
         stroke-width="0.475609"
         stroke-miterlimit="10"
         stroke-linecap="round"
         stroke-linejoin="round"
         id="path5-3"
         style="fill:none;fill-opacity:1;stroke:#4d4d4d;stroke-opacity:1" /><path
         d="m -7.0347411,3.2778587 h 1.5695256"
         stroke="#292d32"
         stroke-width="0.475609"
         stroke-miterlimit="10"
         stroke-linecap="round"
         stroke-linejoin="round"
         id="path6-5"
         style="fill:none;fill-opacity:1;stroke:#4d4d4d;stroke-opacity:1" /></g><path
       d="m 13.902128,6.8777115 q -0.710675,0 -1.152445,-0.4705818 Q 12.307912,5.9365479 12.307912,5.1778548 V 4.9569695 q 0,-0.096037 0.09604,-0.096037 h 0.470582 q 0.09604,0 0.09604,0.096037 v 0.1920742 q 0,0.5089967 0.2593,0.8259191 0.2593,0.3073187 0.67226,0.3073187 0.403356,0 0.67226,-0.297715 0.268904,-0.297715 0.268904,-0.7875042 0,-0.3265262 -0.134452,-0.5570152 Q 14.583991,4.3999543 14.37271,4.2270875 14.171032,4.044617 13.690846,3.6796761 13.210661,3.3243388 12.932153,3.0746423 12.653646,2.8153421 12.471175,2.4600049 12.298308,2.1046676 12.298308,1.6244821 q 0,-0.74908942 0.432167,-1.18125637 0.432167,-0.44177067 1.123634,-0.44177067 0.729882,0 1.162049,0.48018551 0.441771,0.4705818 0.441771,1.25808603 v 0.2400928 q 0,0.096037 -0.09604,0.096037 h -0.480186 q -0.09604,0 -0.09604,-0.096037 V 1.7301229 q 0,-0.5089966 -0.2593,-0.81631537 -0.249696,-0.31692244 -0.67226,-0.31692244 -0.384148,0 -0.633844,0.27850759 -0.249697,0.26890392 -0.249697,0.76829682 0,0.297715 0.105641,0.5282041 0.115244,0.2208853 0.33613,0.4225632 0.220885,0.2016779 0.653052,0.5282041 0.576223,0.4225632 0.85473,0.6914671 0.288112,0.2593002 0.441771,0.5762226 0.153659,0.3073187 0.153659,0.7490894 0,0.7875042 -0.451374,1.2676897 -0.451374,0.4705818 -1.162049,0.4705818 z m 5.502893,-6.79942676 q 0.09604,0 0.09604,0.0960371 v 0.40335583 q 0,0.0960371 -0.09604,0.0960371 h -1.267689 q -0.03842,0 -0.03842,0.0384148 V 6.7048448 q 0,0.096037 -0.09604,0.096037 h -0.48979 q -0.09604,0 -0.09604,-0.096037 V 0.71212961 q 0,-0.0384148 -0.03842,-0.0384148 h -1.19086 q -0.09604,0 -0.09604,-0.0960371 V 0.17432184 q 0,-0.0960371 0.09604,-0.0960371 z m 3.803054,6.72259716 q -0.08643,0 -0.115245,-0.07683 L 22.113252,3.7565057 q -0.0096,-0.028811 -0.03842,-0.028811 h -0.835523 q -0.03841,0 -0.03841,0.038415 v 2.9387354 q 0,0.096037 -0.09604,0.096037 h -0.489789 q -0.09604,0 -0.09604,-0.096037 V 0.17432184 q 0,-0.0960371 0.09604,-0.0960371 h 1.584612 q 0.701071,0 1.133238,0.51860035 0.432167,0.50899661 0.432167,1.33491571 0,0.6242412 -0.268904,1.0756155 -0.268904,0.4513744 -0.729882,0.6338449 -0.03842,0.0096 -0.02881,0.048019 l 1.046805,3.0059613 0.0096,0.038415 q 0,0.067226 -0.08643,0.067226 z M 21.239314,0.67371477 q -0.03841,0 -0.03841,0.0384148 V 3.1418683 q 0,0.038415 0.03841,0.038415 h 0.864334 q 0.441771,0 0.710675,-0.3361298 0.268904,-0.3457336 0.268904,-0.9123525 0,-0.5666189 -0.268904,-0.9123525 -0.268904,-0.34573353 -0.710675,-0.34573353 z m 5.118767,6.20399673 q -0.739486,0 -1.19086,-0.5089966 Q 24.715847,5.8597183 24.715847,5.0241955 V 0.17432184 q 0,-0.0960371 0.09604,-0.0960371 h 0.489789 q 0.09604,0 0.09604,0.0960371 V 5.1010252 q 0,0.528204 0.2593,0.8547302 0.268904,0.3265261 0.701071,0.3265261 0.441771,0 0.710675,-0.3265261 0.268903,-0.3265262 0.268903,-0.8547302 V 0.17432184 q 0,-0.0960371 0.09604,-0.0960371 h 0.489789 q 0.09604,0 0.09604,0.0960371 V 5.0241955 q 0,0.8355228 -0.460978,1.3445194 -0.451375,0.5089966 -1.200464,0.5089966 z m 5.935091,-6.79942676 q 0.09604,0 0.09604,0.0960371 v 0.40335583 q 0,0.0960371 -0.09604,0.0960371 h -1.267689 q -0.03842,0 -0.03842,0.0384148 V 6.7048448 q 0,0.096037 -0.09604,0.096037 h -0.48979 q -0.09604,0 -0.09604,-0.096037 V 0.71212961 q 0,-0.0384148 -0.03842,-0.0384148 h -1.19086 q -0.09604,0 -0.09604,-0.0960371 V 0.17432184 q 0,-0.0960371 0.09604,-0.0960371 z m 4.062355,0 q 0.09604,0 0.09604,0.0960371 v 0.40335583 q 0,0.0960371 -0.09604,0.0960371 h -1.267689 q -0.03842,0 -0.03842,0.0384148 V 6.7048448 q 0,0.096037 -0.09604,0.096037 h -0.48979 q -0.09604,0 -0.09604,-0.096037 V 0.71212961 q 0,-0.0384148 -0.03842,-0.0384148 h -1.19086 q -0.09604,0 -0.09604,-0.0960371 V 0.17432184 q 0,-0.0960371 0.09604,-0.0960371 z m 2.698627,6.79942676 q -0.739486,0 -1.19086,-0.5089966 Q 37.411919,5.8597183 37.411919,5.0241955 V 0.17432184 q 0,-0.0960371 0.09604,-0.0960371 h 0.489789 q 0.09604,0 0.09604,0.0960371 V 5.1010252 q 0,0.528204 0.2593,0.8547302 0.268904,0.3265261 0.701071,0.3265261 0.44177,0 0.710674,-0.3265261 0.268904,-0.3265262 0.268904,-0.8547302 V 0.17432184 q 0,-0.0960371 0.09604,-0.0960371 h 0.489789 q 0.09604,0 0.09604,0.0960371 V 5.0241955 q 0,0.8355228 -0.460978,1.3445194 -0.451374,0.5089966 -1.200463,0.5089966 z m 5.675792,-0.07683 q -0.08643,0 -0.115245,-0.07683 L 43.635123,3.7565057 q -0.0096,-0.028811 -0.03842,-0.028811 h -0.835523 q -0.03842,0 -0.03842,0.038415 v 2.9387354 q 0,0.096037 -0.09604,0.096037 h -0.489789 q -0.09604,0 -0.09604,-0.096037 V 0.17432184 q 0,-0.0960371 0.09604,-0.0960371 h 1.584612 q 0.701071,0 1.133238,0.51860035 0.432167,0.50899661 0.432167,1.33491571 0,0.6242412 -0.268904,1.0756155 -0.268904,0.4513744 -0.729882,0.6338449 -0.03842,0.0096 -0.02881,0.048019 l 1.046804,3.0059613 0.0096,0.038415 q 0,0.067226 -0.08643,0.067226 z M 42.761185,0.67371477 q -0.03842,0 -0.03842,0.0384148 V 3.1418683 q 0,0.038415 0.03842,0.038415 h 0.864334 q 0.441771,0 0.710674,-0.3361298 0.268904,-0.3457336 0.268904,-0.9123525 0,-0.5666189 -0.268904,-0.9123525 Q 44.06729,0.67371477 43.625519,0.67371477 Z m 6.578529,-0.0960371 q 0,0.0960371 -0.09604,0.0960371 h -2.228061 q -0.03842,0 -0.03842,0.0384148 V 3.0938497 q 0,0.038415 0.03842,0.038415 h 1.402141 q 0.09604,0 0.09604,0.096037 v 0.4129595 q 0,0.096037 -0.09604,0.096037 h -1.402141 q -0.03842,0 -0.03842,0.038415 V 6.167037 q 0,0.038415 0.03842,0.038415 h 2.228061 q 0.09604,0 0.09604,0.096037 v 0.4033559 q 0,0.096037 -0.09604,0.096037 h -2.852302 q -0.09604,0 -0.09604,-0.096037 V 0.17432184 q 0,-0.0960371 0.09604,-0.0960371 h 2.852302 q 0.09604,0 0.09604,0.0960371 z"
       id="text2"
       style="font-stretch:condensed;font-size:9.60371px;font-family:'Barlow Condensed';-inkscape-font-specification:'Barlow Condensed,  Condensed';letter-spacing:0px;fill:#2b6b00;stroke-width:1.2805;stroke-linecap:round;stroke-linejoin:round"
       aria-label="STRUTTURE" /></g></svg>
