<?xml version="1.0" encoding="UTF-8" standalone="no"?>
<!-- Uploaded to: SVG Repo, www.svgrepo.com, Generator: SVG Repo Mixer Tools -->

<svg
   width="800px"
   height="800px"
   viewBox="0 0 24 24"
   version="1.1"
   id="svg8"
   sodipodi:docname="reasons-reason-edit-logo.svg"
   inkscape:version="1.4.3 (0d15f75042, 2025-12-25)"
   xml:space="preserve"
   xmlns:inkscape="http://www.inkscape.org/namespaces/inkscape"
   xmlns:sodipodi="http://sodipodi.sourceforge.net/DTD/sodipodi-0.dtd"
   xmlns="http://www.w3.org/2000/svg"
   xmlns:svg="http://www.w3.org/2000/svg"><defs
     id="defs8" /><sodipodi:namedview
     id="namedview8"
     pagecolor="#ffffff"
     bordercolor="#000000"
     borderopacity="0.25"
     inkscape:showpageshadow="2"
     inkscape:pageopacity="0.0"
     inkscape:pagecheckerboard="0"
     inkscape:deskcolor="#d1d1d1"
     inkscape:zoom="0.75124997"
     inkscape:cx="985.025"
     inkscape:cy="560.39936"
     inkscape:window-width="2518"
     inkscape:window-height="1404"
     inkscape:window-x="2602"
     inkscape:window-y="0"
     inkscape:window-maximized="1"
     inkscape:current-layer="svg8"
     showgrid="false" /><polygon
     style="fill:#ffe8d6;fill-opacity:1;stroke-width:0.64"
     points="399.548,98.68 399.548,473.339 31.849,473.339 31.849,0 301.401,0 399.402,98.534 "
     id="polygon1"
     transform="matrix(0.046875,0,0,0.046875,1.8891333,-2.0625e-7)" /><polygon
     style="fill:#e5d1c2;fill-opacity:1;stroke-width:0.64"
     points="399.548,98.68 399.548,473.339 215.698,473.339 215.698,0 301.401,0 399.402,98.534 "
     id="polygon2"
     transform="matrix(0.046875,0,0,0.046875,1.8891333,-2.0625e-7)" /><g
     id="g4"
     transform="matrix(0.046875,0,0,0.046875,1.8891333,-2.0625e-7)"
     style="fill:#ffffff;stroke-width:0.64">
	<rect
   x="91.459999"
   y="257.526"
   style="fill:#ffffff;stroke-width:0.64"
   width="137.927"
   height="31.347"
   id="rect2" />
	<rect
   x="90.467003"
   y="130.675"
   style="fill:#ffffff;stroke-width:0.64"
   width="137.927"
   height="31.347"
   id="rect3" />
	<rect
   x="90.467003"
   y="194.414"
   style="fill:#ffffff;stroke-width:0.64"
   width="250.776"
   height="31.347"
   id="rect4" />
</g><g
     id="g7"
     transform="matrix(0.046875,0,0,0.046875,1.8891333,-2.0625e-7)"
     style="fill:#dee2e6;fill-opacity:1;stroke-width:0.64">
	<rect
   x="215.698"
   y="130.675"
   style="fill:#dee2e6;fill-opacity:1;stroke-width:0.64"
   width="12.696"
   height="31.347"
   id="rect5" />
	<rect
   x="215.698"
   y="257.526"
   style="fill:#dee2e6;fill-opacity:1;stroke-width:0.64"
   width="13.688"
   height="31.347"
   id="rect6" />
	<rect
   x="215.698"
   y="194.414"
   style="fill:#dee2e6;fill-opacity:1;stroke-width:0.64"
   width="125.544"
   height="31.347"
   id="rect7" />
</g><polygon
     style="fill:#ccb9ac;fill-opacity:1;stroke-width:0.64"
     points="399.402,98.532 301.402,98.532 301.402,0 "
     id="polygon7"
     transform="matrix(0.046875,0,0,0.046875,1.8891333,-2.0625e-7)" /><path
     style="fill:#f6bd60;fill-opacity:1;stroke-width:0.03"
     d="m 18.451451,20.738438 v 2.530781 C 17.699108,23.732578 16.812608,24 15.863858,24 h -0.0073 l 0.0034,-3.261562 0.0034,-3.168469 0.0015,-1.341562 0.28064,0.488812 0.489328,0.85275 1.634953,2.851594 z"
     id="path9-7" /><path
     style="fill:#f9dfac;fill-opacity:1;stroke-width:0.03"
     d="m 15.864843,16.227938 v 4.69e-4 l -0.0015,1.341562 -0.0034,3.168469 L 15.856514,24 c -0.0094,0 -0.01861,0 -0.02794,-4.68e-4 -0.936,-0.0064 -1.809328,-0.272813 -2.552344,-0.73125 v -2.530313 l 0.186141,-0.325219 1.630031,-2.842781 0.736172,-1.282266 0.03525,-0.06122 z"
     id="path10-5" /><polygon
     style="fill:#ffcf8f;stroke-width:0.64;fill-opacity:1"
     points="373.996,346.164 374.021,346.203 390.444,374.829 425.331,435.657 429.204,442.42 318.796,442.42 318.796,442.413 322.768,435.475 357.549,374.829 "
     id="polygon10"
     transform="matrix(0.046875,0,0,0.046875,-1.6674386,-2.0625e-7)" /><polygon
     style="fill:#ffefd8;stroke-width:0.64;fill-opacity:1"
     points="373.923,442.42 318.796,442.42 318.796,442.413 322.768,435.475 357.549,374.829 373.996,346.164 374.021,346.203 "
     id="polygon11"
     transform="matrix(0.046875,0,0,0.046875,-1.6674386,-2.0625e-7)" /><polygon
     style="fill:#1a1715;stroke-width:0.64;fill-opacity:1"
     points="373.996,346.164 374.019,346.2 390.44,374.826 357.553,374.826 "
     id="polygon12"
     transform="matrix(0.046875,0,0,0.046875,-1.6674386,-2.0625e-7)" /><polygon
     style="fill:#4d4640;stroke-width:0.64;fill-opacity:1"
     points="357.553,374.826 373.996,346.164 374.019,346.2 373.989,374.826 "
     id="polygon13"
     transform="matrix(0.046875,0,0,0.046875,-1.6674386,-2.0625e-7)" /></svg>
